<svg width="118" height="117" viewBox="0 0 118 117" fill="none" xmlns="http://www.w3.org/2000/svg">
<mask id="mask0" mask-type="alpha" maskUnits="userSpaceOnUse" x="0" y="0" width="118" height="117">
<circle cx="59" cy="58.5" r="58.5" fill="#C4C4C4"/>
</mask>
<g mask="url(#mask0)">
<g opacity="0.9">
<path opacity="0.1" d="M158.5 67.3799C158.503 70.6553 158.053 73.9153 157.162 77.0673C156.302 80.106 155.036 83.0149 153.399 85.7156C153.399 95.5007 146.793 103.958 137.205 107.981C133.199 109.645 128.901 110.495 124.563 110.481H-22.5192C-30.3805 110.481 -37.6655 108.36 -43.6401 104.747C-45.3499 103.717 -46.9719 102.549 -48.4896 101.253C-55.1302 95.5456 -59.2473 87.659 -59.2473 78.9481C-62.9742 73.2093 -64.9503 66.5099 -64.9347 59.6671C-64.9347 45.3392 -56.4602 33.019 -44.3197 27.5796C-42.7076 26.8577 -41.0418 26.2621 -39.3374 25.7984C-38.7345 25.6343 -38.1252 25.4872 -37.5093 25.357C-35.8675 25.0074 -34.2022 24.7789 -32.5269 24.6734C-31.9215 24.6356 -31.3127 24.6142 -30.7008 24.6089H-30.3648C-29.6891 24.6089 -29.0191 24.6324 -28.3531 24.6714L-28.1344 24.3004C-27.8662 23.8525 -27.5914 23.4091 -27.3102 22.9703C-26.8024 22.1708 -26.2698 21.3831 -25.7125 20.607C-25.1292 19.788 -24.5205 18.9821 -23.8864 18.1891L-23.7243 17.9938C-23.3649 17.5459 -22.9977 17.1032 -22.6227 16.6657C-21.4509 15.2998 -20.2139 13.975 -18.9118 12.6911C-4.82803 -1.11339 17.2362 -10 42.0405 -10C61.3411 -10 78.9835 -4.61921 92.497 4.27131C97.6164 1.37419 103.4 -0.145962 109.282 -0.140746C128.372 -0.140746 143.852 15.5563 143.852 34.9194C143.849 36.1445 143.784 37.3688 143.656 38.5873C148.258 41.8447 152.009 46.161 154.592 51.1721C157.176 56.1832 158.516 61.7421 158.5 67.3799Z" fill="#E5E52E"/>
<path opacity="0.2" d="M1.52143 11.6755H-3.46094V16.6579H1.52143V11.6755Z" fill="#E5E52E"/>
<path opacity="0.2" d="M8.33002 11.6755H3.34766V16.6579H8.33002V11.6755Z" fill="#E5E52E"/>
<path opacity="0.2" d="M15.1406 11.6755H10.1582V16.6579H15.1406V11.6755Z" fill="#E5E52E"/>
<path d="M21.9509 11.6755H16.9685V16.6579H21.9509V11.6755Z" fill="#E5E52E"/>
<path opacity="0.2" d="M28.7595 11.6755H23.7771V16.6579H28.7595V11.6755Z" fill="#E5E52E"/>
<path opacity="0.2" d="M35.57 11.6755H30.5876V16.6579H35.57V11.6755Z" fill="#E5E52E"/>
<path opacity="0.2" d="M42.3784 11.6755H37.396V16.6579H42.3784V11.6755Z" fill="#E5E52E"/>
<path d="M49.1889 11.6755H44.2065V16.6579H49.1889V11.6755Z" fill="#E5E52E"/>
<path opacity="0.2" d="M55.9995 11.6755H51.0171V16.6579H55.9995V11.6755Z" fill="#E5E52E"/>
<path opacity="0.2" d="M62.8078 11.6755H57.8254V16.6579H62.8078V11.6755Z" fill="#E5E52E"/>
<path opacity="0.2" d="M69.6184 11.6755H64.636V16.6579H69.6184V11.6755Z" fill="#E5E52E"/>
<path opacity="0.2" d="M76.4289 11.6755H71.4465V16.6579H76.4289V11.6755Z" fill="#E5E52E"/>
<path opacity="0.2" d="M83.2372 11.6755H78.2549V16.6579H83.2372V11.6755Z" fill="#E5E52E"/>
<path opacity="0.2" d="M90.0478 11.6755H85.0654V16.6579H90.0478V11.6755Z" fill="#E5E52E"/>
<path d="M96.8564 11.6755H91.874V16.6579H96.8564V11.6755Z" fill="#E5E52E"/>
<path d="M103.667 11.6755H98.6843V16.6579H103.667V11.6755Z" fill="#E5E52E"/>
<path opacity="0.2" d="M110.477 11.6755H105.495V16.6579H110.477V11.6755Z" fill="#E5E52E"/>
<path opacity="0.2" d="M117.286 11.6755H112.303V16.6579H117.286V11.6755Z" fill="#E5E52E"/>
<path opacity="0.7" d="M1.52143 17.9861H-3.46094V22.9684H1.52143V17.9861Z" fill="#E5E52E"/>
<path opacity="0.2" d="M8.33002 17.9861H3.34766V22.9684H8.33002V17.9861Z" fill="#E5E52E"/>
<path opacity="0.4" d="M15.1406 17.9861H10.1582V22.9684H15.1406V17.9861Z" fill="#E5E52E"/>
<path d="M21.9509 17.9861H16.9685V22.9684H21.9509V17.9861Z" fill="#E5E52E"/>
<path opacity="0.4" d="M28.7595 17.9861H23.7771V22.9684H28.7595V17.9861Z" fill="#E5E52E"/>
<path opacity="0.2" d="M35.57 17.9861H30.5876V22.9684H35.57V17.9861Z" fill="#E5E52E"/>
<path opacity="0.4" d="M42.3784 17.9861H37.396V22.9684H42.3784V17.9861Z" fill="#E5E52E"/>
<path d="M49.1889 17.9861H44.2065V22.9684H49.1889V17.9861Z" fill="#E5E52E"/>
<path opacity="0.4" d="M55.9995 17.9861H51.0171V22.9684H55.9995V17.9861Z" fill="#E5E52E"/>
<path opacity="0.4" d="M62.8078 17.9861H57.8254V22.9684H62.8078V17.9861Z" fill="#E5E52E"/>
<path opacity="0.2" d="M69.6184 17.9861H64.636V22.9684H69.6184V17.9861Z" fill="#E5E52E"/>
<path opacity="0.4" d="M76.4289 17.9861H71.4465V22.9684H76.4289V17.9861Z" fill="#E5E52E"/>
<path opacity="0.4" d="M83.2372 17.9861H78.2549V22.9684H83.2372V17.9861Z" fill="#E5E52E"/>
<path opacity="0.2" d="M90.0478 17.9861H85.0654V22.9684H90.0478V17.9861Z" fill="#E5E52E"/>
<path opacity="0.2" d="M96.8564 17.9861H91.874V22.9684H96.8564V17.9861Z" fill="#E5E52E"/>
<path opacity="0.4" d="M103.667 17.9861H98.6843V22.9684H103.667V17.9861Z" fill="#E5E52E"/>
<path opacity="0.2" d="M110.477 17.9861H105.495V22.9684H110.477V17.9861Z" fill="#E5E52E"/>
<path d="M117.286 17.9861H112.303V22.9684H117.286V17.9861Z" fill="#E5E52E"/>
<path opacity="0.7" d="M1.52143 24.2983H-3.46094V29.2807H1.52143V24.2983Z" fill="#E5E52E"/>
<path opacity="0.2" d="M8.33002 24.2983H3.34766V29.2807H8.33002V24.2983Z" fill="#E5E52E"/>
<path opacity="0.4" d="M15.1406 24.2983H10.1582V29.2807H15.1406V24.2983Z" fill="#E5E52E"/>
<path opacity="0.4" d="M21.9509 24.2983H16.9685V29.2807H21.9509V24.2983Z" fill="#E5E52E"/>
<path d="M28.7595 24.2983H23.7771V29.2807H28.7595V24.2983Z" fill="#E5E52E"/>
<path opacity="0.2" d="M35.57 24.2983H30.5876V29.2807H35.57V24.2983Z" fill="#E5E52E"/>
<path opacity="0.4" d="M42.3784 24.2983H37.396V29.2807H42.3784V24.2983Z" fill="#E5E52E"/>
<path d="M49.1889 24.2983H44.2065V29.2807H49.1889V24.2983Z" fill="#E5E52E"/>
<path opacity="0.2" d="M55.9995 24.2983H51.0171V29.2807H55.9995V24.2983Z" fill="#E5E52E"/>
<path opacity="0.4" d="M62.8078 24.2983H57.8254V29.2807H62.8078V24.2983Z" fill="#E5E52E"/>
<path opacity="0.2" d="M69.6184 24.2983H64.636V29.2807H69.6184V24.2983Z" fill="#E5E52E"/>
<path d="M76.4289 24.2983H71.4465V29.2807H76.4289V24.2983Z" fill="#E5E52E"/>
<path opacity="0.2" d="M83.2372 24.2983H78.2549V29.2807H83.2372V24.2983Z" fill="#E5E52E"/>
<path opacity="0.7" d="M90.0478 24.2983H85.0654V29.2807H90.0478V24.2983Z" fill="#E5E52E"/>
<path opacity="0.7" d="M96.8564 24.2983H91.874V29.2807H96.8564V24.2983Z" fill="#E5E52E"/>
<path opacity="0.4" d="M103.667 24.2983H98.6843V29.2807H103.667V24.2983Z" fill="#E5E52E"/>
<path opacity="0.2" d="M110.477 24.2983H105.495V29.2807H110.477V24.2983Z" fill="#E5E52E"/>
<path d="M117.286 24.2983H112.303V29.2807H117.286V24.2983Z" fill="#E5E52E"/>
<path opacity="0.7" d="M1.52143 30.6089H-3.46094V35.5912H1.52143V30.6089Z" fill="#E5E52E"/>
<path opacity="0.2" d="M8.33002 30.6089H3.34766V35.5912H8.33002V30.6089Z" fill="#E5E52E"/>
<path opacity="0.2" d="M15.1406 30.6089H10.1582V35.5912H15.1406V30.6089Z" fill="#E5E52E"/>
<path opacity="0.4" d="M21.9509 30.6089H16.9685V35.5912H21.9509V30.6089Z" fill="#E5E52E"/>
<path opacity="0.4" d="M28.7595 30.6089H23.7771V35.5912H28.7595V30.6089Z" fill="#E5E52E"/>
<path d="M35.57 30.6089H30.5876V35.5912H35.57V30.6089Z" fill="#E5E52E"/>
<path opacity="0.2" d="M42.3784 30.6089H37.396V35.5912H42.3784V30.6089Z" fill="#E5E52E"/>
<path opacity="0.4" d="M49.1889 30.6089H44.2065V35.5912H49.1889V30.6089Z" fill="#E5E52E"/>
<path opacity="0.4" d="M55.9995 30.6089H51.0171V35.5912H55.9995V30.6089Z" fill="#E5E52E"/>
<path opacity="0.4" d="M62.8078 30.6089H57.8254V35.5912H62.8078V30.6089Z" fill="#E5E52E"/>
<path opacity="0.4" d="M69.6184 30.6089H64.636V35.5912H69.6184V30.6089Z" fill="#E5E52E"/>
<path opacity="0.2" d="M76.4289 30.6089H71.4465V35.5912H76.4289V30.6089Z" fill="#E5E52E"/>
<path opacity="0.2" d="M83.2372 30.6089H78.2549V35.5912H83.2372V30.6089Z" fill="#E5E52E"/>
<path opacity="0.2" d="M90.0478 30.6089H85.0654V35.5912H90.0478V30.6089Z" fill="#E5E52E"/>
<path opacity="0.2" d="M96.8564 30.6089H91.874V35.5912H96.8564V30.6089Z" fill="#E5E52E"/>
<path opacity="0.7" d="M103.667 30.6089H98.6843V35.5912H103.667V30.6089Z" fill="#E5E52E"/>
<path opacity="0.7" d="M110.477 30.6089H105.495V35.5912H110.477V30.6089Z" fill="#E5E52E"/>
<path opacity="0.4" d="M117.286 30.6089H112.303V35.5912H117.286V30.6089Z" fill="#E5E52E"/>
<path opacity="0.7" d="M1.52143 36.9214H-3.46094V41.9038H1.52143V36.9214Z" fill="#E5E52E"/>
<path opacity="0.2" d="M8.33002 36.9214H3.34766V41.9038H8.33002V36.9214Z" fill="#E5E52E"/>
<path opacity="0.2" d="M15.1406 36.9214H10.1582V41.9038H15.1406V36.9214Z" fill="#E5E52E"/>
<path opacity="0.4" d="M21.9509 36.9214H16.9685V41.9038H21.9509V36.9214Z" fill="#E5E52E"/>
<path d="M28.7595 36.9214H23.7771V41.9038H28.7595V36.9214Z" fill="#E5E52E"/>
<path opacity="0.2" d="M35.57 36.9214H30.5876V41.9038H35.57V36.9214Z" fill="#E5E52E"/>
<path d="M42.3784 36.9214H37.396V41.9038H42.3784V36.9214Z" fill="#E5E52E"/>
<path d="M49.1889 36.9214H44.2065V41.9038H49.1889V36.9214Z" fill="#E5E52E"/>
<path d="M55.9995 36.9214H51.0171V41.9038H55.9995V36.9214Z" fill="#E5E52E"/>
<path opacity="0.2" d="M62.8078 36.9214H57.8254V41.9038H62.8078V36.9214Z" fill="#E5E52E"/>
<path d="M69.6184 36.9214H64.636V41.9038H69.6184V36.9214Z" fill="#E5E52E"/>
<path opacity="0.2" d="M76.4289 36.9214H71.4465V41.9038H76.4289V36.9214Z" fill="#E5E52E"/>
<path opacity="0.2" d="M83.2372 36.9214H78.2549V41.9038H83.2372V36.9214Z" fill="#E5E52E"/>
<path opacity="0.2" d="M90.0478 36.9214H85.0654V41.9038H90.0478V36.9214Z" fill="#E5E52E"/>
<path opacity="0.2" d="M96.8564 36.9214H91.874V41.9038H96.8564V36.9214Z" fill="#E5E52E"/>
<path opacity="0.2" d="M103.667 36.9214H98.6843V41.9038H103.667V36.9214Z" fill="#E5E52E"/>
<path opacity="0.7" d="M110.477 36.9214H105.495V41.9038H110.477V36.9214Z" fill="#E5E52E"/>
<path opacity="0.2" d="M117.286 36.9214H112.303V41.9038H117.286V36.9214Z" fill="#E5E52E"/>
<path opacity="0.7" d="M1.52143 43.2317H-3.46094V48.2141H1.52143V43.2317Z" fill="#E5E52E"/>
<path opacity="0.2" d="M8.33002 43.2317H3.34766V48.2141H8.33002V43.2317Z" fill="#E5E52E"/>
<path opacity="0.2" d="M15.1406 43.2317H10.1582V48.2141H15.1406V43.2317Z" fill="#E5E52E"/>
<path opacity="0.2" d="M21.9509 43.2317H16.9685V48.2141H21.9509V43.2317Z" fill="#E5E52E"/>
<path d="M28.7595 43.2317H23.7771V48.2141H28.7595V43.2317Z" fill="#E5E52E"/>
<path opacity="0.2" d="M35.57 43.2317H30.5876V48.2141H35.57V43.2317Z" fill="#E5E52E"/>
<path d="M42.3784 43.2317H37.396V48.2141H42.3784V43.2317Z" fill="#E5E52E"/>
<path d="M49.1889 43.2317H44.2065V48.2141H49.1889V43.2317Z" fill="#E5E52E"/>
<path opacity="0.2" d="M55.9995 43.2317H51.0171V48.2141H55.9995V43.2317Z" fill="#E5E52E"/>
<path opacity="0.2" d="M62.8078 43.2317H57.8254V48.2141H62.8078V43.2317Z" fill="#E5E52E"/>
<path opacity="0.2" d="M69.6184 43.2317H64.636V48.2141H69.6184V43.2317Z" fill="#E5E52E"/>
<path opacity="0.2" d="M76.4289 43.2317H71.4465V48.2141H76.4289V43.2317Z" fill="#E5E52E"/>
<path opacity="0.2" d="M83.2372 43.2317H78.2549V48.2141H83.2372V43.2317Z" fill="#E5E52E"/>
<path opacity="0.2" d="M90.0478 43.2317H85.0654V48.2141H90.0478V43.2317Z" fill="#E5E52E"/>
<path opacity="0.2" d="M96.8564 43.2317H91.874V48.2141H96.8564V43.2317Z" fill="#E5E52E"/>
<path opacity="0.2" d="M103.667 43.2317H98.6843V48.2141H103.667V43.2317Z" fill="#E5E52E"/>
<path opacity="0.2" d="M110.477 43.2317H105.495V48.2141H110.477V43.2317Z" fill="#E5E52E"/>
<path opacity="0.2" d="M117.286 43.2317H112.303V48.2141H117.286V43.2317Z" fill="#E5E52E"/>
<path opacity="0.2" d="M1.52143 49.5442H-3.46094V54.5266H1.52143V49.5442Z" fill="#E5E52E"/>
<path opacity="0.2" d="M8.33002 49.5442H3.34766V54.5266H8.33002V49.5442Z" fill="#E5E52E"/>
<path opacity="0.2" d="M15.1406 49.5442H10.1582V54.5266H15.1406V49.5442Z" fill="#E5E52E"/>
<path opacity="0.2" d="M21.9509 49.5442H16.9685V54.5266H21.9509V49.5442Z" fill="#E5E52E"/>
<path opacity="0.2" d="M28.7595 49.5442H23.7771V54.5266H28.7595V49.5442Z" fill="#E5E52E"/>
<path d="M35.57 49.5442H30.5876V54.5266H35.57V49.5442Z" fill="#E5E52E"/>
<path opacity="0.2" d="M42.3784 49.5442H37.396V54.5266H42.3784V49.5442Z" fill="#E5E52E"/>
<path opacity="0.2" d="M49.1889 49.5442H44.2065V54.5266H49.1889V49.5442Z" fill="#E5E52E"/>
<path opacity="0.2" d="M55.9995 49.5442H51.0171V54.5266H55.9995V49.5442Z" fill="#E5E52E"/>
<path d="M62.8078 49.5442H57.8254V54.5266H62.8078V49.5442Z" fill="#E5E52E"/>
<path opacity="0.2" d="M69.6184 49.5442H64.636V54.5266H69.6184V49.5442Z" fill="#E5E52E"/>
<path opacity="0.2" d="M76.4289 49.5442H71.4465V54.5266H76.4289V49.5442Z" fill="#E5E52E"/>
<path opacity="0.2" d="M83.2372 49.5442H78.2549V54.5266H83.2372V49.5442Z" fill="#E5E52E"/>
<path opacity="0.2" d="M90.0478 49.5442H85.0654V54.5266H90.0478V49.5442Z" fill="#E5E52E"/>
<path opacity="0.2" d="M96.8564 49.5442H91.874V54.5266H96.8564V49.5442Z" fill="#E5E52E"/>
<path opacity="0.2" d="M103.667 49.5442H98.6843V54.5266H103.667V49.5442Z" fill="#E5E52E"/>
<path opacity="0.2" d="M110.477 49.5442H105.495V54.5266H110.477V49.5442Z" fill="#E5E52E"/>
<path opacity="0.2" d="M117.286 49.5442H112.303V54.5266H117.286V49.5442Z" fill="#E5E52E"/>
<path d="M78.5243 67.8741C82.2856 67.8741 85.3348 64.825 85.3348 61.0636C85.3348 57.3023 82.2856 54.2532 78.5243 54.2532C74.763 54.2532 71.7139 57.3023 71.7139 61.0636C71.7139 64.825 74.763 67.8741 78.5243 67.8741Z" fill="#767D9F"/>
<path d="M78.1711 52.3996C78.8507 55.3657 79.4276 58.3539 79.9015 61.3643C80.0441 62.2588 80.171 63.2022 79.8468 64.0479C79.5753 64.753 79.0226 65.3037 78.589 65.9209C78.1554 66.5381 77.8273 67.3291 78.091 68.0361C78.3546 68.7431 79.1242 69.1299 79.8585 69.3291C81.9601 69.8955 84.2003 69.4834 86.292 68.8701C87.2391 68.6263 88.1472 68.2502 88.9893 67.7529C89.876 67.1904 90.6026 66.4092 91.2705 65.6045C94.3193 61.9073 96.3154 57.4698 98.1942 53.0597C96.987 53.1696 95.7708 52.9906 94.6464 52.5376C93.5219 52.0846 92.5214 51.3705 91.7275 50.4543C90.958 49.55 90.3936 48.2903 90.8272 47.1848C89.5557 47.8821 88.0459 47.9289 86.6768 48.4055C85.8277 48.7298 85.0105 49.1319 84.2354 49.6067C83.3006 50.147 82.3709 50.6978 81.4464 51.259C80.3898 51.8957 79.3996 52.4621 78.1711 52.3996Z" fill="#AE6E79"/>
<path d="M92.4149 57.5129C91.2216 59.8352 89.6689 62.0676 87.4521 63.4504C85.2353 64.8331 82.251 65.2081 80.0303 63.841C78.9366 63.173 78.1085 62.1574 77.1534 61.3019C76.1983 60.4465 75.005 59.7141 73.7218 59.8254C72.3078 59.9484 71.2003 61.0519 70.2531 62.1086C68.8156 63.714 67.427 65.3878 66.4094 67.2882C64.4563 70.9405 63.9934 75.21 64.0793 79.3505C64.1653 83.4911 64.7649 87.6102 64.7786 91.7508C64.7981 96.8445 63.9348 101.897 63.0618 106.915C71.089 105.926 79.126 108.087 87.1709 108.905C92.3192 109.434 97.5067 109.422 102.682 109.409C103.593 109.409 104.561 109.385 105.319 108.881C105.782 108.544 106.157 108.099 106.411 107.585C107.126 106.266 107.413 104.762 107.612 103.276C108.118 99.5222 108.133 95.7215 108.147 91.9324C108.182 82.7529 108.216 73.5401 107.05 64.4328C106.762 62.1925 106.395 59.9406 105.536 57.845C104.677 55.7493 103.274 53.8216 101.313 52.6985C100.054 51.9759 97.1336 50.7181 95.6493 51.4466C93.9833 52.2591 93.2138 55.9583 92.4149 57.5129Z" fill="#767D9F"/>
<path d="M93.0087 83.4343C92.706 77.7703 91.4736 71.7255 94.0966 66.6982C94.7411 65.4638 92.4287 63.9228 93.1435 62.7275C94.0158 61.2702 94.6774 59.6966 95.1083 58.0538C95.2567 57.4893 95.3759 56.8917 95.2353 56.3253C94.9755 55.2921 93.954 54.6768 93.0869 54.0479C92.1298 53.3526 91.6376 51.2335 91.3291 50.0871C91.0205 48.9406 93.7841 50.3214 94.8954 49.9132C96.4384 49.3488 98.3993 49.7042 99.9383 50.2765C100.798 50.5929 101.731 50.6202 102.647 50.6437C104.427 50.6906 106.212 50.7355 107.977 50.5167C108.77 50.4171 109.565 50.2667 110.362 50.3117C112.395 50.4269 114.163 51.8175 115.366 53.462C116.569 55.1065 117.335 57.0225 118.321 58.8037C119.143 60.2881 120.124 61.6904 120.825 63.2353C121.446 64.6025 121.838 66.0712 122.227 67.5321L123.229 71.2801C123.404 71.8163 123.488 72.3783 123.475 72.9422C123.424 73.5418 123.159 74.1004 122.889 74.6336C121.87 76.6099 120.648 78.4747 119.243 80.198C117.135 82.782 114.577 85.112 113.325 88.2057C112.837 89.4108 112.565 90.692 112.317 91.9693C111.317 97.0781 110.606 102.239 110.188 107.428C107.906 106.372 105.514 105.572 103.055 105.043C101.83 104.781 100.591 104.586 99.3446 104.457C98.2528 104.344 96.8446 104.559 95.8056 104.262C94.0673 103.768 93.8759 100.829 93.6122 99.2896C93.1904 96.8384 93.1064 94.3443 93.0907 91.8678C93.0712 89.0514 93.1591 86.2409 93.0087 83.4343Z" fill="#4C4981"/>
<path d="M54.8353 72.8427C55.6575 77.5302 56.5638 82.2313 58.3508 86.6355C58.3059 86.6785 58.261 86.7176 58.2161 86.7566C58.0579 86.8914 57.8938 87.0184 57.7219 87.1473C57.3216 87.4285 56.8821 87.6668 56.5501 88.034C56.4244 88.1745 56.3251 88.3366 56.2571 88.5125C56.1958 88.6498 56.1641 88.7986 56.1641 88.949C56.1641 89.0994 56.1958 89.2482 56.2571 89.3855C55.3255 89.7976 54.2435 89.6707 53.1986 89.6316C52.2982 89.5984 51.4251 89.6316 50.7025 90.1257C49.6986 90.8171 49.3959 92.1452 49.2338 93.3523C49.1739 93.7924 49.1224 94.2331 49.0795 94.6745C49.0378 95.0847 49.004 95.4961 48.9779 95.9089C48.8894 97.2743 48.877 98.6436 48.9408 100.01C48.9512 100.26 48.9649 100.51 48.9818 100.76C45.7905 100.684 42.8823 99.0202 40.1304 97.403C39.5015 97.0339 38.853 96.6452 38.4448 96.0358C38.0687 95.4373 37.9094 94.7279 37.9937 94.0261C37.9937 93.9265 38.0112 93.8308 38.0249 93.7292C38.1124 93.1496 38.2624 92.5812 38.4722 92.0339C39.3332 89.7027 40.6023 87.5434 42.2202 85.657C42.9194 84.8407 43.7065 84.0418 44.0327 83.0165C44.1752 82.5692 44.228 82.0946 44.3725 81.6493C45.0209 79.7196 47.3607 78.8075 48.1615 76.9345C48.3568 76.4872 48.4467 75.997 48.6889 75.5673C48.9069 75.2102 49.1882 74.8958 49.5189 74.6396C49.6615 74.5205 49.8099 74.4052 49.9564 74.29C51.3288 73.2145 52.651 72.0784 53.9232 70.8818C54.1601 70.6592 54.3945 70.4339 54.6263 70.2061C54.5953 71.09 54.6654 71.9747 54.8353 72.8427Z" fill="#4C4981"/>
<path d="M74.5166 58.9795C74.2354 59.2764 73.9307 59.5557 73.6318 59.833L73.5518 59.9053L73.2354 60.1982C72.6611 60.6939 72.1641 61.2725 71.7608 61.915L71.7276 61.9697C70.7315 63.7529 71.1006 65.9482 71.378 67.9735C71.722 70.4975 71.8767 73.0436 71.8408 75.5906C71.7901 79.1062 71.376 82.5984 71.3682 86.11C71.3682 86.9069 71.3858 87.7018 71.4209 88.4987C71.4776 89.7936 71.5752 91.0865 71.6924 92.3795C71.8194 93.7975 71.9717 95.2135 72.1143 96.6295C72.2276 97.7251 72.335 98.8189 72.4248 99.9126C72.4697 100.479 72.5127 101.043 72.5479 101.61C72.5889 102.274 72.6221 102.94 72.6416 103.604C72.6553 104.026 72.6631 104.446 72.6631 104.868C72.6631 105.108 72.6631 105.346 72.6631 105.584C72.6631 106.041 72.6507 106.497 72.626 106.952C72.6 107.536 72.5602 108.122 72.5069 108.709C72.4463 109.348 72.3389 110.045 71.8897 110.495C71.8623 110.522 71.833 110.547 71.8037 110.573L71.1709 110.495C66.8087 109.972 62.4047 109.894 58.0266 110.26C58.1223 109.6 58.2102 108.942 58.2961 108.28C58.3352 107.967 58.3742 107.653 58.4113 107.338C58.4543 106.979 58.4953 106.62 58.5344 106.26C58.5793 105.87 58.6203 105.479 58.6594 105.088C58.7609 104.082 58.8501 103.075 58.9269 102.067C59.0402 100.597 59.1262 99.1242 59.1848 97.649C59.2134 96.9445 59.2355 96.2395 59.2512 95.5338C59.2733 94.6588 59.2837 93.7831 59.2824 92.9068C59.2824 92.0553 59.2753 91.2024 59.2609 90.3483C59.2609 90.067 59.2492 89.7858 59.2258 89.5065C59.209 89.255 59.1744 89.005 59.1223 88.7585C58.9772 88.1899 58.7811 87.6355 58.5363 87.1022C58.4934 87.0007 58.4523 86.9069 58.4113 86.7995C58.3879 86.7468 58.3664 86.6921 58.3449 86.6393C59.4699 85.6374 60.2707 84.2956 61.0402 82.9753C62.2882 80.8484 63.5656 78.6277 63.7745 76.1707C63.9835 73.7137 62.7628 70.954 60.4152 70.204C59.7765 70.0087 59.1008 69.954 58.4426 69.8388C57.8215 69.7294 56.5266 69.4813 55.8078 69.036C55.4172 69.4371 55.0266 69.8309 54.636 70.2177C54.6597 69.6276 54.8039 69.0487 55.0598 68.5165L55.3371 68.5302C55.3145 68.4676 55.304 68.4014 55.3059 68.3349C55.3059 68.1259 55.4504 67.8896 55.759 67.6279C56.6789 66.8466 58.1262 66.6728 58.7062 65.6161C58.9484 65.1767 58.9894 64.6533 59.1848 64.1923C59.7453 62.8779 61.3547 62.3935 62.3234 61.3428C63.2921 60.292 63.5343 58.8037 64.3175 57.6319C64.9025 56.7761 65.714 56.0999 66.6612 55.6788C66.7394 55.6417 66.8194 55.6046 66.8995 55.5713C68.5206 54.878 70.4463 54.7198 72.126 54.7237C72.7783 54.7237 74.4697 54.7432 75.2978 55.0733C75.4322 55.1213 75.5551 55.1964 75.6592 55.294C76.542 56.2549 75.1689 58.2842 74.5166 58.9795Z" fill="#4C4981"/>
<path d="M55.1263 68.38C56.635 67.9258 58.219 67.776 59.7861 67.9393C61.3533 68.1026 62.8724 68.5757 64.2551 69.3312C65.6613 70.1124 66.923 71.2022 67.6964 72.6085C68.8585 74.7178 68.8077 77.2607 68.7257 79.6689C68.6847 80.874 68.632 82.122 68.1007 83.204C67.4855 84.456 66.3253 85.3153 65.1418 86.0184C64.4003 86.4915 63.588 86.8429 62.7355 87.0595C61.4231 87.3446 60.0598 87.1024 58.7376 86.8641C57.3001 86.5985 55.7571 86.2782 54.7591 85.2079C54.1732 84.5868 53.8528 83.7802 53.5364 82.9911C53.082 81.8518 52.6263 80.7138 52.1693 79.5771C51.3783 77.6025 51.1107 75.96 52.1556 74.0362C52.6302 73.1592 53.2103 72.3389 53.679 71.4561C53.9134 71.0069 54.7532 68.4952 55.1263 68.38Z" fill="#4C4981"/>
<path d="M137.5 107.173V115.378C133.49 117.716 129.189 118.91 124.847 118.89H72.1307C72.1033 118.929 72.074 118.964 72.0447 119L71.4114 118.89H-22.3618C-30.2295 118.89 -37.5206 115.91 -43.5 110.834V98.3073L1.599 91H1.63419L27.8976 94.1227L34.6941 94.9459L38.2243 95.3657L45.531 96.2356L49.2899 96.6829L54.7631 97.336L55.5333 97.4265L59.4779 97.8957L64.8299 98.5131L72.3555 99.4077L84.9008 100.903L93.7263 101.954L108.219 103.68L110.975 104.007L111.272 104.042L111.53 104.073L115.169 104.506L119.165 104.984L119.628 105.038L137.5 107.173Z" fill="#504F60"/>
<path d="M84.2823 101.928L27.8103 92.2898L25.6208 103.362L51.5073 106.461L59.4779 107.46L81.4034 103.141L84.2823 101.928Z" fill="#9C9CA1"/>
<path d="M55.05 106.905L83.3427 101.587C83.4842 101.559 83.63 101.564 83.7696 101.6C83.9092 101.636 84.039 101.702 84.1499 101.794C84.2608 101.886 84.35 102.002 84.411 102.132C84.472 102.263 84.5034 102.405 84.5028 102.549C84.5034 102.778 84.4238 103 84.2778 103.176C84.1319 103.351 83.9288 103.471 83.704 103.512L56.0735 108.686L55.05 106.905Z" fill="#9C9CA1"/>
<path d="M67.3235 90.1804C68.2043 90.0983 69.0969 89.9597 69.8898 89.569C70.8664 89.0827 71.6262 88.2448 72.5304 87.6277C74.5187 86.2605 77.1788 86.0769 79.4581 86.862C81.7374 87.6472 83.6397 89.3288 84.9717 91.3366C85.8564 92.6745 86.5205 94.3815 85.8955 95.858C85.6811 96.3094 85.4107 96.732 85.0908 97.1158L83.4619 99.2447C83.1525 99.6922 82.7802 100.093 82.3565 100.434C81.7471 100.877 80.9893 101.059 80.2432 101.169C78.2608 101.458 76.2433 101.294 74.2453 101.426C70.8137 101.655 67.4621 102.76 64.0227 102.723C62.0462 102.702 60.095 102.303 58.1634 101.905L49.6147 100.147C48.1264 99.8424 46.4448 99.3971 45.7436 98.0475C45.4292 97.44 45.3706 96.7369 45.3335 96.0533C45.2319 94.1705 45.3335 92.0768 46.6382 90.7194C47.8647 89.446 49.8041 89.0437 51.269 88.1023C53.0619 86.948 53.6537 87.321 55.5443 88.1882C59.2327 89.8586 63.2909 90.5449 67.3235 90.1804Z" fill="#AE6E79"/>
<path opacity="0.05" d="M67.3235 90.1804C68.2043 90.0983 69.0969 89.9597 69.8898 89.569C70.8664 89.0827 71.6262 88.2448 72.5304 87.6277C74.5187 86.2605 77.1788 86.0769 79.4581 86.862C81.7374 87.6472 83.6397 89.3288 84.9717 91.3366C85.8564 92.6745 86.5205 94.3815 85.8955 95.858C85.6811 96.3094 85.4107 96.732 85.0908 97.1158L83.4619 99.2447C83.1525 99.6922 82.7802 100.093 82.3565 100.434C81.7471 100.877 80.9893 101.059 80.2432 101.169C78.2608 101.458 76.2433 101.294 74.2453 101.426C70.8137 101.655 67.4621 102.76 64.0227 102.723C62.0462 102.702 60.095 102.303 58.1634 101.905L49.6147 100.147C48.1264 99.8424 46.4448 99.3971 45.7436 98.0475C45.4292 97.44 45.3706 96.7369 45.3335 96.0533C45.2319 94.1705 45.3335 92.0768 46.6382 90.7194C47.8647 89.446 49.8041 89.0437 51.269 88.1023C53.0619 86.948 53.6537 87.321 55.5443 88.1882C59.2327 89.8586 63.2909 90.5449 67.3235 90.1804Z" fill="black"/>
<path d="M101.653 87.5028C99.2549 88.4305 96.8428 89.3622 94.3311 89.9149C90.1202 90.8426 85.714 90.6962 81.5364 91.7567C79.3293 92.3192 77.136 93.2254 74.8685 93.0418C73.8548 92.9598 72.8763 92.6512 71.89 92.4168C66.349 91.0497 60.0503 91.493 55.5503 95.0086C54.0113 96.2098 52.7515 97.7078 51.609 99.3054C51.3645 99.6505 51.1992 100.045 51.1251 100.462C51.0509 100.878 51.0696 101.306 51.1799 101.714C51.2902 102.122 51.4893 102.501 51.763 102.823C52.0367 103.146 52.3783 103.404 52.7633 103.579C54.5133 104.384 56.3878 104.884 58.3062 105.057C60.8706 105.284 63.4467 104.921 65.9975 104.557C69.7826 104.02 73.5696 103.481 77.345 102.878C78.7004 102.661 80.0559 102.436 81.4192 102.264C91.2296 101.024 101.218 102.532 111.054 101.497C112.048 101.391 113.059 101.255 113.964 100.831C116.253 99.7566 117.386 96.9246 116.913 94.4363C116.44 91.9481 114.616 89.8798 112.421 88.6102C110.581 87.5419 108.597 87.1103 106.548 86.6571C104.645 86.2138 103.485 86.7997 101.653 87.5028Z" fill="#AE6E79"/>
<path opacity="0.1" d="M122.694 72.6279C123.776 74.0458 124.006 75.9482 123.889 77.7235C123.772 79.4989 123.35 81.2547 123.288 83.0379C123.202 85.4832 123.791 87.9207 123.692 90.3581C123.622 92.0632 123.217 93.7351 122.739 95.3717C122.174 97.3034 121.358 99.3795 119.575 100.307C117.208 101.54 112.243 100.846 109.753 101.811C109.979 100.399 112.151 98.3541 112.378 96.942C112.534 95.9655 112.692 94.9616 112.524 93.9831C112.309 92.7351 111.577 91.6277 110.708 90.7058C109.325 89.239 107.52 88.1355 105.538 87.7761C103.555 87.4168 98.7019 87.7117 97.116 88.9636C96.9207 87.6707 100.553 86.4246 101.831 86.1453C102.467 86.0027 103.198 86.0828 103.708 85.6785C104.684 84.9129 103.975 83.3875 104.022 82.1629C104.059 81.1864 104.63 80.2918 104.745 79.3153C104.94 77.7528 103.921 76.161 104.321 74.6279C104.469 74.0615 104.799 73.5634 105.028 73.0244C105.723 71.374 105.419 69.4912 105.048 67.7373C104.817 66.6358 104.592 65.3936 105.206 64.4542C105.774 63.5772 107.387 66.7002 108.421 66.5557C111.833 66.0772 114.92 63.5479 117.676 65.6182C119.081 66.6729 119.264 67.7666 119.825 69.2725C120.37 70.706 121.782 71.4404 122.694 72.6279Z" fill="black"/>
<path d="M123.28 72.6278C124.362 74.0458 124.592 75.9481 124.475 77.7235C124.358 79.4989 123.936 81.2547 123.873 83.0379C123.788 85.4832 124.377 87.9206 124.278 90.3581C124.207 92.0632 123.803 93.735 123.325 95.3717C122.76 97.3033 121.944 99.3795 120.161 100.307C117.793 101.54 112.829 100.846 110.338 101.811C110.565 100.399 112.737 98.3541 112.963 96.942C113.12 95.9655 113.278 94.9616 113.11 93.9831C112.895 92.735 112.163 91.6276 111.294 90.7058C109.911 89.239 108.106 88.1355 106.124 87.7761C104.141 87.4167 99.2878 87.7117 97.7019 88.9636C97.5066 87.6706 101.139 86.4246 102.417 86.1453C103.053 86.0027 103.784 86.0828 104.294 85.6785C105.27 84.9129 104.561 83.3875 104.608 82.1629C104.645 81.1863 105.215 80.2918 105.331 79.3153C105.526 77.7528 104.507 76.161 104.907 74.6278C105.055 74.0614 105.385 73.5634 105.614 73.0243C106.309 71.3739 106.005 69.4912 105.633 67.7373C105.403 66.6357 105.178 65.3936 105.792 64.4541C106.36 63.5772 107.471 63.2451 108.505 63.0987C111.964 62.6308 115.469 63.5351 118.27 65.6182C119.674 66.6728 119.858 67.7666 120.418 69.2724C120.956 70.706 122.368 71.4404 123.28 72.6278Z" fill="#4C4981"/>
<path d="M-5.95095 63.374L4.66806 102.62C4.79835 103.101 5.07207 103.53 5.45275 103.852C5.83343 104.173 6.303 104.371 6.79889 104.418L54.5952 109.01C54.9847 109.048 55.3776 108.991 55.7409 108.846C56.1042 108.7 56.4273 108.47 56.6832 108.174C56.9391 107.878 57.1204 107.525 57.2118 107.144C57.3031 106.764 57.302 106.367 57.2084 105.987L45.5797 58.6475C45.4413 58.0848 45.1079 57.5894 44.6387 57.2494C44.1696 56.9093 43.595 56.7466 43.0172 56.7901L-3.77715 60.2901C-4.13643 60.318 -4.48513 60.4249 -4.79837 60.603C-5.11161 60.7812 -5.38167 61.0263 -5.58929 61.3209C-5.79691 61.6154 -5.93697 61.9521 -5.99949 62.307C-6.062 62.662 -6.04543 63.0263 -5.95095 63.374Z" fill="#9C9CA1"/>
<path d="M88.7958 71.0321C91.6974 71.0321 94.0497 68.6493 94.0497 65.7099C94.0497 62.7705 91.6974 60.3877 88.7958 60.3877C85.8942 60.3877 83.542 62.7705 83.542 65.7099C83.542 68.6493 85.8942 71.0321 88.7958 71.0321Z" fill="white"/>
<path d="M93.1103 56.0013C93.1103 56.0013 94.2177 59.2942 90.9502 60.679L90.5322 61.4094L92.5791 63.4289C92.5791 63.4289 95.1025 58.8255 94.829 57.1907C94.829 57.1907 94.4384 55.5306 93.1103 56.0013Z" fill="white"/>
<path d="M89.3994 71.0323C92.1974 71.0323 94.4657 68.7641 94.4657 65.966C94.4657 63.1679 92.1974 60.8997 89.3994 60.8997C86.6013 60.8997 84.333 63.1679 84.333 65.966C84.333 68.7641 86.6013 71.0323 89.3994 71.0323Z" fill="#E5E52E"/>
<path d="M94.8544 57.9386L94.0497 56.6105L92.8779 56.4445C93.1279 52.0715 91.9931 50.7688 91.9931 50.7688L91.7295 50.7434L90.581 50.632L88.4209 48.3899V47.7532C91.456 48.1145 93.1337 49.5559 94.04 51.2453C95.6415 54.2101 94.8544 57.9386 94.8544 57.9386Z" fill="#E5E52E"/>
<path opacity="0.1" d="M91.7392 49.9387V50.7434L90.5908 50.6321L88.4307 48.3899C88.4307 48.3899 91.7724 49.1379 91.7392 49.9387Z" fill="black" stroke="#4C4981" stroke-miterlimit="10"/>
<path opacity="0.1" d="M94.8542 57.9386L94.0496 56.6105V51.2532C95.6413 54.2102 94.8542 57.9386 94.8542 57.9386Z" fill="black" stroke="#4C4981" stroke-miterlimit="10"/>
<path d="M80.0374 68.0485C81.3853 67.2703 81.3273 64.6462 79.9078 62.1875C78.4883 59.7288 76.2448 58.3665 74.8968 59.1448C73.5488 59.9231 73.6068 62.5471 75.0263 65.0058C76.4459 67.4645 78.6894 68.8268 80.0374 68.0485Z" fill="white"/>
<path d="M78.2276 63.1671C79.6475 65.6261 81.3896 67.2687 80.042 68.0499C78.6943 68.8311 74.7686 68.4405 73.3487 65.9796C71.9288 63.5187 73.2179 60.1203 74.5655 59.3391C75.9131 58.5578 76.8057 60.7023 78.2276 63.1671Z" fill="#E5E52E"/>
<path opacity="0.1" d="M90.87 45.4525C90.87 53.3098 85.4931 60.882 77.6358 60.882C73.8622 60.882 70.2432 59.3829 67.5749 56.7146C64.9065 54.0463 63.4075 50.4272 63.4075 46.6536C63.4075 42.88 64.9065 39.261 67.5749 36.5927C70.2432 33.9243 73.8622 32.4253 77.6358 32.4253C85.4931 32.4331 90.87 37.5932 90.87 45.4525Z" fill="black"/>
<path d="M77.6358 60.4992C85.4939 60.4992 91.8642 54.1289 91.8642 46.2708C91.8642 38.4127 85.4939 32.0425 77.6358 32.0425C69.7777 32.0425 63.4075 38.4127 63.4075 46.2708C63.4075 54.1289 69.7777 60.4992 77.6358 60.4992Z" fill="#AE6E79"/>
<path d="M76.3858 39.9661C78.0792 40.5892 79.0811 42.3392 80.6006 43.3137C82.749 44.6809 85.5459 44.3274 87.999 43.6516C89.3661 43.2786 90.7958 42.8235 92.1415 43.2376C92.3394 43.3252 92.5578 43.3563 92.7723 43.3274C93.0653 43.2434 93.2098 42.9192 93.3055 42.6302C94.9696 37.6693 94.2215 32.0502 91.7099 27.4604C91.0614 26.2768 90.2841 25.1323 89.2138 24.3101C88.37 23.6636 87.3779 23.2398 86.3779 22.8784C84.5504 22.2221 82.6603 21.7555 80.7373 21.4859C80.3977 21.4242 80.0509 21.413 79.708 21.4527C79.2373 21.5289 78.8155 21.7828 78.3956 22.0093C76.5971 22.9734 74.6027 23.5151 72.5636 23.5933C69.8293 23.6968 66.7043 23.0523 64.5969 24.8062C62.0579 26.9096 62.6907 31.0131 61.0442 33.8685C59.9544 35.7572 57.8528 37.1283 57.5071 39.2786C57.4171 39.9359 57.4589 40.6045 57.6302 41.2454C58.4349 44.554 61.6379 47.1164 65.052 47.177C65.5762 47.217 66.1013 47.1094 66.5676 46.8664C66.8731 46.6579 67.1429 46.4014 67.3664 46.1067C69.6027 43.4583 72.1613 38.4115 76.3858 39.9661Z" fill="#444053"/>
<path opacity="0.1" d="M93.3055 41.1909C93.2098 41.4799 93.0653 41.8041 92.7723 41.8881C92.5578 41.917 92.3394 41.8859 92.1415 41.7983C90.7958 41.3842 89.3583 41.8393 88.0009 42.2123C85.5458 42.8881 82.7431 43.2494 80.6025 41.8744C79.0811 40.8979 78.0811 39.1401 76.3858 38.5268C72.1613 36.9643 69.6027 42.019 67.3605 44.6674C67.137 44.9621 66.8672 45.2186 66.5617 45.4271C66.0954 45.6701 65.5704 45.7777 65.0461 45.7377C61.6438 45.6771 58.4388 43.1147 57.6243 39.8061C57.5794 39.6108 57.5403 39.4155 57.511 39.2202C57.511 39.2378 57.511 39.2534 57.5013 39.271C57.4113 39.9282 57.4531 40.5968 57.6243 41.2377C58.429 44.5463 61.634 47.1088 65.0461 47.1693C65.5704 47.2093 66.0954 47.1017 66.5617 46.8588C66.8672 46.6503 67.137 46.3937 67.3605 46.099C69.6027 43.4506 72.1613 38.4038 76.3858 39.9585C78.0811 40.5815 79.0811 42.3315 80.6025 43.3061C82.751 44.6732 85.5458 44.3197 88.0009 43.644C89.3681 43.2709 90.7958 42.8158 92.1415 43.2299C92.3394 43.3175 92.5578 43.3486 92.7723 43.3197C93.0653 43.2358 93.2098 42.9115 93.3055 42.6225C93.9767 40.5927 94.2732 38.4577 94.1805 36.3218C94.123 37.9783 93.8284 39.618 93.3055 41.1909Z" fill="black"/>
</g>
<g style="mix-blend-mode:saturation">
<circle cx="59" cy="58.5" r="58" fill="#C4C4C4"/>
<circle cx="59" cy="58.5" r="58" stroke="black"/>
</g>
<circle cx="59" cy="58.5" r="58.25" stroke="black" stroke-width="0.5"/>
</g>
</svg>
