<svg width="118" height="117" viewBox="0 0 118 117" fill="none" xmlns="http://www.w3.org/2000/svg">
<mask id="mask0" mask-type="alpha" maskUnits="userSpaceOnUse" x="0" y="0" width="118" height="117">
<circle cx="59" cy="58.5" r="58.5" fill="#C4C4C4"/>
</mask>
<g mask="url(#mask0)">
<path opacity="0.1" d="M130.438 68.4281C125.494 74.7149 127.415 83.8993 130.557 91.2548C131.609 93.7175 132.799 96.323 132.355 98.964C131.812 102.193 128.93 104.555 125.904 105.807C120.387 108.088 113.785 107.544 108.716 104.391C104.336 101.666 101.199 97.2341 96.7434 94.633C89.2874 90.2801 79.7971 91.9239 71.7009 94.9224C65.973 97.0437 59.7109 99.8025 54.0193 97.5856C50.0144 96.0256 47.2462 92.2288 45.7378 88.2042C45.0096 86.2611 44.481 84.1578 43.0903 82.6176C42.2636 81.702 41.1846 81.052 40.0794 80.504C29.9866 75.4998 17.2395 78.1796 7.43647 72.6293C0.815842 68.8808 -3.42266 61.8099 -5.29934 54.4369C-7.17601 47.0638 -6.95742 39.3327 -6.48094 31.7395C-6.14233 26.3433 -5.5348 20.5823 -2.08687 16.4176C1.56057 12.0119 7.82033 10.3737 13.4783 11.211C19.1363 12.0484 24.2648 15.033 28.7766 18.5483C34.4155 22.9417 39.6449 28.4126 46.5681 30.1922C51.2829 31.4042 56.2426 30.7413 61.1052 30.5117C69.2344 30.1279 77.367 30.9814 85.4514 31.916C93.1908 32.8107 100.986 33.7954 108.359 36.3131C113.577 38.0947 117.76 41.3289 122.687 43.5883C125.898 45.0611 129.4 45.4678 132.441 47.3437C136.186 49.6545 139.62 53.6737 138.661 58.3769C137.748 62.8485 133.063 65.0913 130.438 68.4281Z" fill="#E5E52E"/>
<path d="M87.6673 30.2816C87.6673 30.2816 79.7187 27.9275 79.1935 34.6235C78.6683 41.3195 81.2942 52.3481 79.1935 55.893C77.0928 59.438 69.5969 64.5597 73.5418 65.0186C77.4867 65.4775 79.4561 66.1339 78.2745 68.4972C77.0928 70.8605 70.922 73.0925 72.235 74.7993C73.5479 76.5061 74.2044 78.6068 72.8914 80.7075C71.5785 82.8082 66.9832 84.1212 67.771 85.5654C68.5587 87.0096 71.4472 87.7974 70.003 89.3729C68.5587 90.9484 64.372 94.5323 66.0059 94.5128" stroke="#535461" stroke-width="3" stroke-miterlimit="10"/>
<path d="M99.2789 25.8206H82.5163C81.5759 25.8206 80.8135 26.5829 80.8135 27.5234V33.4711C80.8135 34.4116 81.5759 35.174 82.5163 35.174H99.2789C100.219 35.174 100.982 34.4116 100.982 33.4711V27.5234C100.982 26.5829 100.219 25.8206 99.2789 25.8206Z" fill="#E5E52E"/>
<path opacity="0.1" d="M99.3742 33.7385H82.4211V33.9139H99.3742V33.7385Z" fill="black"/>
<path opacity="0.3" d="M99.3742 27.282H82.4211V33.7124H99.3742V27.282Z" fill="black"/>
<path opacity="0.1" d="M86.3672 32.9699C87.6586 32.9699 88.7055 31.923 88.7055 30.6316C88.7055 29.3401 87.6586 28.2932 86.3672 28.2932C85.0757 28.2932 84.0288 29.3401 84.0288 30.6316C84.0288 31.923 85.0757 32.9699 86.3672 32.9699Z" fill="black"/>
<path opacity="0.1" d="M95.4282 32.9699C96.7196 32.9699 97.7665 31.923 97.7665 30.6316C97.7665 29.3401 96.7196 28.2932 95.4282 28.2932C94.1368 28.2932 93.0898 29.3401 93.0898 30.6316C93.0898 31.923 94.1368 32.9699 95.4282 32.9699Z" fill="black"/>
<path d="M92.6509 35.1738H89.1436V37.2204H92.6509V35.1738Z" fill="#E5E52E"/>
<path d="M98.205 36.6355H83.5903V48.3273H98.205V36.6355Z" fill="#E5E52E"/>
<path d="M98.4971 50.6655H83.2979V52.127H98.4971V50.6655Z" fill="#E5E52E"/>
<path d="M85.7825 55.6345V57.3881V60.0187V61.4803V62.3572H88.4131V61.4803V60.0187V57.3881V55.6345V53.5884H85.7825V55.6345Z" fill="#E5E52E"/>
<path d="M93.6746 53.5884V55.6345V57.3881V60.0187V61.4803V62.3572H96.3052V61.4803V60.0187V57.3881V55.6345V53.5884H93.6746Z" fill="#E5E52E"/>
<path d="M81.5997 39.2661V41.9696C80.8776 42.0957 80.2049 42.42 79.6565 42.9063C79.1479 43.3773 78.7524 43.9572 78.4996 44.6026C78.1773 45.4312 77.9851 46.3047 77.93 47.192C77.8472 48.3523 77.9015 49.5183 78.0917 50.6658H75.1688C75.0469 49.2695 75.0726 47.8643 75.2453 46.4734C75.3832 45.3237 75.6996 44.2026 76.1833 43.1506C77.0301 41.3744 78.2346 40.4109 79.2928 39.8875C80.0097 39.5209 80.7957 39.3092 81.5997 39.2661Z" fill="#E5E52E"/>
<path opacity="0.3" d="M88.4131 53.5884H85.7825V55.6344H88.4131V53.5884Z" fill="black"/>
<path opacity="0.3" d="M88.4131 57.3884H85.7825V60.0191H88.4131V57.3884Z" fill="black"/>
<path opacity="0.3" d="M88.4131 61.4805H85.7825V62.3574H88.4131V61.4805Z" fill="black"/>
<path opacity="0.3" d="M96.3052 53.5884H93.6746V55.6344H96.3052V53.5884Z" fill="black"/>
<path opacity="0.3" d="M96.3052 57.3884H93.6746V60.0191H96.3052V57.3884Z" fill="black"/>
<path opacity="0.3" d="M96.3052 61.4805H93.6746V62.3574H96.3052V61.4805Z" fill="black"/>
<path opacity="0.3" d="M81.5996 39.2661V41.9696C80.8776 42.0957 80.2048 42.42 79.6564 42.9063L79.2927 39.8875C80.0096 39.5209 80.7956 39.3092 81.5996 39.2661Z" fill="black"/>
<path opacity="0.3" d="M78.4995 44.6027C78.1772 45.4313 77.985 46.3047 77.9298 47.1921L75.2451 46.4735C75.383 45.3238 75.6995 44.2027 76.1832 43.1506L78.4995 44.6027Z" fill="black"/>
<path d="M100.196 39.2661V41.9696C100.918 42.0957 101.59 42.42 102.139 42.9063C102.647 43.3773 103.043 43.9572 103.296 44.6026C103.618 45.4312 103.81 46.3047 103.865 47.192C103.948 48.3523 103.894 49.5183 103.704 50.6658H106.626C106.748 49.2695 106.723 47.8643 106.55 46.4734C106.412 45.3237 106.096 44.2026 105.612 43.1506C104.765 41.3744 103.561 40.4109 102.502 39.8875C101.786 39.5209 101 39.3092 100.196 39.2661Z" fill="#E5E52E"/>
<path opacity="0.3" d="M100.196 39.2661V41.9696C100.918 42.0957 101.59 42.42 102.139 42.9063L102.502 39.8875C101.786 39.5209 101 39.3092 100.196 39.2661Z" fill="black"/>
<path opacity="0.3" d="M103.296 44.6027C103.618 45.4313 103.81 46.3047 103.865 47.1921L106.55 46.4735C106.412 45.3238 106.096 44.2027 105.612 43.1506L103.296 44.6027Z" fill="black"/>
<path opacity="0.1" d="M92.6509 35.1738H89.1436V35.4161H92.6509V35.1738Z" fill="black"/>
<path opacity="0.1" d="M98.4646 38.7185V43.6135C98.2898 43.4248 98.1927 43.1769 98.1929 42.9197V39.4117C98.1927 39.1546 98.2898 38.907 98.4646 38.7185Z" fill="black"/>
<path opacity="0.1" d="M83.6421 39.0414V42.7058C83.6246 42.9374 83.5285 43.1562 83.3696 43.3258V38.4214C83.5285 38.5909 83.6246 38.8097 83.6421 39.0414Z" fill="black"/>
<path opacity="0.1" d="M97.4743 48.3274H84.3213V48.5005H97.4743V48.3274Z" fill="black"/>
<path opacity="0.1" d="M90.4588 52.1272H84.0286V52.2614H90.4588V52.1272Z" fill="black"/>
<path opacity="0.1" d="M97.4742 52.1272H91.0439V52.2614H97.4742V52.1272Z" fill="black"/>
<path d="M85.7524 17.1646H84.7458V25.8205H85.7524V17.1646Z" fill="#E5E52E"/>
<path d="M97.2939 17.1646H96.2874V25.8205H97.2939V17.1646Z" fill="#E5E52E"/>
<path opacity="0.1" d="M85.2157 18.3725C85.8457 18.3725 86.3564 17.8618 86.3564 17.2318C86.3564 16.6018 85.8457 16.0911 85.2157 16.0911C84.5857 16.0911 84.075 16.6018 84.075 17.2318C84.075 17.8618 84.5857 18.3725 85.2157 18.3725Z" fill="black"/>
<path d="M85.2157 18.3053C85.8457 18.3053 86.3564 17.7946 86.3564 17.1646C86.3564 16.5346 85.8457 16.0239 85.2157 16.0239C84.5857 16.0239 84.075 16.5346 84.075 17.1646C84.075 17.7946 84.5857 18.3053 85.2157 18.3053Z" fill="#E5E52E"/>
<path opacity="0.1" d="M96.8241 18.3725C97.4541 18.3725 97.9648 17.8618 97.9648 17.2318C97.9648 16.6018 97.4541 16.0911 96.8241 16.0911C96.1941 16.0911 95.6833 16.6018 95.6833 17.2318C95.6833 17.8618 96.1941 18.3725 96.8241 18.3725Z" fill="black"/>
<path opacity="0.5" d="M73.0886 67.3151C72.6399 67.7644 72.5375 68.3815 72.3781 68.9537C71.9228 70.5874 70.8511 72.0945 69.3573 73.2013C68.2631 74.0121 66.7963 74.9099 67.0557 76.1196C67.1176 76.4087 67.2814 76.6785 67.3245 76.97C67.5107 78.2317 65.5819 78.8965 64.8353 80.0006C64.279 80.8231 64.4277 81.8421 64.593 82.7789C64.7953 83.9256 65.04 85.149 65.9808 85.9932C66.2347 86.221 66.5372 86.4187 66.7144 86.6934C67.1112 87.3089 66.7663 88.1156 67.127 88.7468C67.6081 89.5884 69.123 89.6249 70.0022 89.0574C70.8814 88.4899 71.2877 87.557 71.6773 86.6822C72.7303 84.318 74.0249 81.9459 76.2134 80.2243C78.3117 78.5736 81.3642 77.293 81.7243 74.8903C81.8787 73.8601 81.4875 72.731 82.0849 71.8234C82.3672 71.3944 82.8391 71.0766 83.1586 70.6667C84.1107 69.4458 83.4019 67.6794 82.0079 66.8123C79.9031 65.5032 74.9193 65.482 73.0886 67.3151Z" fill="#DEE3F3"/>
<path d="M117.743 24.0043C117.393 23.6222 117.225 23.1123 117.066 22.6191L116.702 21.4885C117.197 21.7809 117.725 21.1219 118.292 21.031C118.699 20.966 119.083 21.2034 119.457 21.3746C121.081 22.1177 123.198 21.7489 124.506 22.9654C124.685 23.1201 124.824 23.3159 124.91 23.5359C124.971 23.7446 124.996 23.9622 124.983 24.1793C124.994 24.7553 124.936 25.3307 124.812 25.8933C124.501 27.1522 123.671 28.2086 122.862 29.222C122.708 29.4145 122.536 29.6192 122.295 29.6729C121.826 29.7778 121.462 29.2701 121.28 28.8246C121.04 28.2344 120.862 27.6203 120.751 26.9928C120.723 26.7243 120.649 26.4626 120.534 26.2186C120.251 25.7172 119.554 25.2427 119.13 24.8544C118.713 24.4726 118.132 24.4295 117.743 24.0043Z" fill="#632652"/>
<path opacity="0.5" d="M115.072 73.4956C114.946 73.3988 114.854 73.2659 114.806 73.1147C114.782 73.2333 114.856 73.3873 115.072 73.5869C116.258 74.6821 123.195 74.8647 123.195 74.8647C123.195 74.8647 123.195 74.8324 123.194 74.7734C123.15 74.7722 116.255 74.5874 115.072 73.4956Z" fill="white"/>
<path opacity="0.5" d="M109.595 67.3803C108.226 67.7454 102.294 65.3723 102.02 65.0985C101.983 65.0615 101.957 65.0155 101.944 64.9651C101.928 65.0198 101.927 65.0777 101.94 65.1331C101.953 65.1885 101.981 65.2395 102.02 65.2811C102.294 65.5549 108.226 67.928 109.595 67.5629C110.3 67.375 110.457 66.4919 110.444 65.6788C110.431 66.437 110.248 67.2064 109.595 67.3803Z" fill="white"/>
<path d="M57.5293 74.3756C57.2092 72.5948 57.0128 70.794 56.9415 68.986V68.986C56.8787 67.497 56.3567 66.0639 55.447 64.8834C54.5373 63.7029 53.2846 62.8329 51.8608 62.3927C51.3423 62.2332 50.7705 62.0841 50.14 61.9501C44.6088 60.7754 42.9286 61.8011 42.7377 61.9359C42.5767 61.6414 42.4367 61.3357 42.319 61.0214C42.3096 60.9894 42.3008 60.9569 42.2919 60.9246C43.3865 59.7571 44.0533 58.2533 44.1838 56.6583C45.1063 55.7228 45.6454 54.5941 45.6454 53.3789C45.6454 52.3338 45.2463 51.3529 44.5478 50.5035V48.8543C44.5478 47.9111 44.3621 46.9771 44.0011 46.1057C43.6402 45.2343 43.1111 44.4425 42.4441 43.7756C41.7772 43.1086 40.9854 42.5796 40.114 42.2186C39.2426 41.8577 38.3086 41.6719 37.3654 41.6719H36.7829C35.8397 41.6719 34.9057 41.8577 34.0343 42.2186C33.1629 42.5796 32.3711 43.1086 31.7041 43.7756C31.0372 44.4425 30.5081 45.2343 30.1472 46.1057C29.7862 46.9771 29.6004 47.9111 29.6004 48.8543V50.6346C28.971 51.4121 28.6212 52.3786 28.6074 53.3789C28.6074 54.5686 29.1245 55.6751 30.0118 56.5989C30.1331 58.2525 30.8307 59.8111 31.983 61.0032C32.0219 61.2729 32.0618 61.5632 32.1011 61.8694L22.2052 63.9623C22.2052 63.9623 18.3899 64.1191 15.9335 69.1887C13.854 73.4804 9.71455 84.5139 8.49324 87.7987H8.49323L8.49322 87.7987C8.27189 88.394 8.14624 88.7352 8.14624 88.7352C8.14624 88.7352 8.18674 88.6943 8.26447 88.6243C8.18762 88.8319 8.14624 88.9443 8.14624 88.9443C8.14624 88.9443 8.20631 88.8836 8.32045 88.7837C8.14712 90.1584 8.12238 92.5178 9.9232 92.8118C11.4327 93.0582 15.3209 93.1594 18.2592 93.201V93.2038H18.463C20.4101 93.2299 21.8916 93.2299 21.8916 93.2299V93.2038H53.4849V92.88C53.4853 92.5859 53.426 92.2948 53.3108 92.0242C53.326 92.0067 53.3407 91.9891 53.3549 91.9714C53.5239 92.1946 53.6364 92.4554 53.6827 92.7315C53.6792 92.7585 53.6742 92.7853 53.6678 92.8118C53.6678 92.8118 53.6743 92.795 53.6865 92.7634C53.694 92.8497 53.6877 92.9366 53.6678 93.0208C53.6678 93.0208 57.7212 82.5767 57.6779 76.3406C57.6897 75.6824 57.6399 75.0245 57.5293 74.3756ZM32.2632 63.2796C32.211 62.9818 32.1775 62.681 32.1629 62.3789L32.1632 62.3706C32.1981 62.6638 32.2318 62.968 32.2632 63.2796ZM19.9839 85.7128V88.2019L18.4236 88.5352L19.9839 85.7128Z" fill="url(#paint0_linear)"/>
<path d="M36.9119 42.6763H36.912C38.8169 42.6763 40.6438 43.433 41.9907 44.78C43.3377 46.1269 44.0944 47.9538 44.0944 49.8587V52.9226H29.7295V49.8587C29.7295 47.9538 30.4862 46.1269 31.8332 44.78C33.1802 43.433 35.007 42.6763 36.9119 42.6763Z" fill="#E14B5A"/>
<path d="M36.9621 59.5526C41.4837 59.5526 45.1492 57.034 45.1492 53.9272C45.1492 50.8203 41.4837 48.3018 36.9621 48.3018C32.4406 48.3018 28.7751 50.8203 28.7751 53.9272C28.7751 57.034 32.4406 59.5526 36.9621 59.5526Z" fill="#E14B5A"/>
<path d="M31.7135 59.3768C31.7135 59.3768 33.4213 68.3172 31.7135 70.7281C30.0058 73.139 36.9372 74.0934 36.9372 74.0934L44.1196 71.4816L45.1242 65.0525C45.1242 65.0525 40.7544 62.5914 41.6585 57.6189L31.7135 59.3768Z" fill="#F7C4A7"/>
<path d="M52.9094 89.5131C52.9094 89.5131 53.3614 91.472 50.9003 91.8235C49.4469 92.0374 47.9688 92.0198 46.5209 91.7714L45.978 86.8511H51.7039L52.9094 89.5131Z" fill="#F7C4A7"/>
<path d="M9.44488 87.0057C9.44488 87.0057 8.358 91.4216 10.8191 91.8235C13.2803 92.2253 22.3211 92.2253 22.3211 92.2253V87.0017L18.2284 87.8758L14.3852 84.189L9.44488 87.0057Z" fill="#F7C4A7"/>
<path opacity="0.1" d="M32.2409 62.2649L22.6224 64.2991C22.6224 64.2991 18.9558 64.4498 16.5952 69.3218C14.2345 74.1938 9.11133 88.1067 9.11133 88.1067C9.11133 88.1067 13.4811 83.6867 18.6042 88.4081L22.0197 82.2301L21.2663 92.0244H47.7359V87.4035C47.7359 87.4035 53.2609 90.3669 52.8591 92.0244C52.8591 92.0244 57.5869 79.8428 56.57 74.3066C56.2624 72.5952 56.0737 70.8645 56.0052 69.1271V69.1271C55.9448 67.6961 55.4431 66.3188 54.5689 65.1843C53.6947 64.0498 52.4908 63.2137 51.1224 62.7906C50.6242 62.6373 50.0746 62.494 49.4687 62.3653C43.7931 61.1599 42.3365 62.3653 42.3365 62.3653C42.3365 62.3653 41.2371 65.9426 41.2566 67.5638C41.2817 69.6483 38.2932 71.0295 38.2932 71.0295C38.2932 71.0295 33.8732 69.9747 33.6723 69.1209C33.4714 68.267 31.8893 63.2694 32.2409 62.2649Z" fill="black"/>
<path d="M32.2409 62.064L22.6224 64.0981C22.6224 64.0981 18.9558 64.2488 16.5952 69.1208C14.2345 73.9929 9.11133 87.9058 9.11133 87.9058C9.11133 87.9058 13.4811 83.4858 18.6042 88.2071L22.0197 82.0292L21.2663 91.8235H47.7359V87.2026C47.7359 87.2026 53.2609 90.166 52.8591 91.8235C52.8591 91.8235 57.5869 79.6419 56.57 74.1056C56.2624 72.3943 56.0737 70.6636 56.0052 68.9261V68.9261C55.9448 67.4951 55.4431 66.1179 54.5689 64.9834C53.6947 63.8489 52.4908 63.0128 51.1224 62.5897C50.6242 62.4364 50.0746 62.2931 49.4687 62.1644C43.7931 60.959 42.3365 62.1644 42.3365 62.1644C42.3365 62.1644 41.2371 65.7417 41.2566 67.3629C41.2817 69.4473 38.2932 70.8286 38.2932 70.8286C38.2932 70.8286 33.8732 69.7738 33.6723 68.9199C33.4714 68.0661 31.8893 63.0685 32.2409 62.064Z" fill="#575988"/>
<path opacity="0.1" d="M42.0711 61.6373C41.667 60.4932 41.5765 59.2619 41.809 58.071L31.864 59.829C31.864 59.829 32.0076 60.5806 32.1698 61.7066C32.8125 62.3734 33.5841 62.9026 34.4377 63.262C35.2914 63.6213 36.2092 63.8032 37.1353 63.7968C38.0614 63.7903 38.9766 63.5955 39.8251 63.2243C40.6736 62.853 41.4378 62.3131 42.0711 61.6373Z" fill="black"/>
<path d="M43.7679 56.514C43.768 58.3113 43.0596 60.0362 41.7965 61.3148C40.5333 62.5934 38.8171 63.3226 37.02 63.3444C35.2228 63.3662 33.4894 62.6788 32.1956 61.4313C30.9018 60.1837 30.1518 58.4765 30.1082 56.6797C30.1067 56.6245 30.1062 56.5692 30.1062 56.514C30.106 55.235 30.4648 53.9816 31.1417 52.8964C31.8187 51.8113 32.7867 50.9379 33.9355 50.3757C34.1404 50.2758 34.3509 50.1857 34.5669 50.1055C35.6912 49.6922 36.9041 49.5797 38.0853 49.779C38.086 49.7795 38.0869 49.7797 38.0878 49.7795C39.6008 50.0372 40.9829 50.7973 42.0108 51.9371C43.0387 53.0769 43.6524 54.5299 43.7529 56.0614C43.7629 56.2111 43.7679 56.362 43.7679 56.514Z" fill="#F7C4A7"/>
<g opacity="0.1">
<path opacity="0.1" d="M34.5573 50.2655C34.5604 50.2634 34.5636 50.2614 34.5669 50.2595C34.3509 50.3394 34.1404 50.4295 33.9355 50.5297C32.7867 51.0919 31.8187 51.9653 31.1417 53.0504C30.4648 54.1356 30.106 55.389 30.1062 56.668C30.1062 56.7232 30.1067 56.7785 30.1082 56.8337C30.3205 56.8281 30.5293 56.778 30.721 56.6866C32.3865 55.9096 33.3855 53.5313 33.7778 51.8728C33.9184 51.2791 34.053 50.6101 34.5573 50.2655Z" fill="black"/>
<path opacity="0.1" d="M39.786 50.4575C39.2454 50.209 38.6744 50.0329 38.0878 49.9336C38.569 50.0442 38.9987 50.3141 39.3073 50.6996C39.4585 50.9053 39.5839 51.1288 39.6806 51.3651C38.7716 50.9676 37.787 50.7724 36.795 50.7929C35.803 50.8135 34.8274 51.0493 33.9355 51.4841C34.3645 52.4239 35.694 52.9367 36.5815 53.2797C37.5534 53.6549 38.5367 53.998 39.5313 54.3089C39.2385 54.0708 38.9457 53.8331 38.6529 53.5956C39.3139 53.7006 39.975 53.8058 40.6363 53.9111C40.6578 53.5163 40.611 53.1207 40.4979 52.7418C40.8754 53.0481 41.3817 53.1507 41.7941 53.4108C42.5671 53.898 42.8885 54.8383 43.3099 55.6489C43.4075 55.8721 43.5599 56.067 43.7529 56.2155C43.6715 54.9874 43.2599 53.8042 42.5617 52.7907C41.8634 51.7772 40.9044 50.9711 39.786 50.4575Z" fill="black"/>
</g>
<path d="M34.5573 50.1115C34.5604 50.1093 34.5636 50.1073 34.5669 50.1055C34.3509 50.1853 34.1404 50.2754 33.9355 50.3757C32.7867 50.9379 31.8187 51.8112 31.1417 52.8964C30.4648 53.9815 30.106 55.2349 30.1062 56.5139C30.1062 56.5692 30.1067 56.6244 30.1082 56.6797C30.3205 56.674 30.5293 56.6239 30.721 56.5325C32.3865 55.7555 33.3855 53.3773 33.7778 51.7188C33.9184 51.1251 34.053 50.4561 34.5573 50.1115Z" fill="#632652"/>
<path d="M39.786 50.3034C39.2454 50.055 38.6744 49.8788 38.0878 49.7795C38.569 49.8902 38.9987 50.1601 39.3073 50.5455C39.4585 50.7512 39.5839 50.9747 39.6806 51.211C38.7716 50.8135 37.787 50.6183 36.795 50.6389C35.803 50.6594 34.8274 50.8953 33.9355 51.3301C34.3645 52.2698 35.694 52.7826 36.5815 53.1257C37.5534 53.5009 38.5367 53.8439 39.5313 54.1548C39.2385 53.9167 38.9457 53.679 38.6529 53.4416C39.3139 53.5466 39.975 53.6517 40.6363 53.757C40.6578 53.3622 40.611 52.9667 40.4979 52.5878C40.8754 52.894 41.3817 52.9966 41.7941 53.2568C42.5671 53.744 42.8885 54.6842 43.3099 55.4949C43.4075 55.718 43.5599 55.9129 43.7529 56.0614C43.6715 54.8334 43.2599 53.6501 42.5617 52.6366C41.8634 51.6231 40.9044 50.817 39.786 50.3034Z" fill="#632652"/>
<path opacity="0.1" d="M29.3276 55.3875C29.3276 55.3875 36.3594 46.648 44.4962 55.3875L43.793 53.4286C43.793 53.4286 39.9758 47.8534 37.2635 49.0589C34.5512 50.2643 31.8892 51.1182 31.8892 51.1182L29.3276 55.3875Z" fill="black"/>
<path d="M29.3276 55.2332C29.3276 55.2332 36.3594 46.4937 44.4962 55.2332L43.793 53.2743C43.793 53.2743 39.9758 47.6991 37.2635 48.9046C34.5512 50.11 31.8892 50.9639 31.8892 50.9639L29.3276 55.2332Z" fill="#E14B5A"/>
<path opacity="0.1" d="M23.5516 74.0684C23.5516 74.0684 22.0448 78.0865 24.1543 81.7029C26.2638 85.3192 22.2959 86.826 22.2959 86.826" fill="black"/>
<path opacity="0.1" d="M47.9619 70.4519C47.9619 70.4519 50.5737 73.7669 48.8659 76.7303C47.1582 79.6937 47.2587 86.8259 47.2587 86.8259" fill="black"/>
<path d="M21.2412 89.7893H50.2724C50.9118 89.7893 51.5251 90.0433 51.9772 90.4954C52.4293 90.9476 52.6833 91.5608 52.6833 92.2002H18.8303C18.8303 91.5608 19.0843 90.9476 19.5365 90.4954C19.9886 90.0433 20.6018 89.7893 21.2412 89.7893H21.2412Z" fill="#535461"/>
<path d="M25.6082 73.2144H45.9054C47.2634 73.2144 48.5658 73.7538 49.5261 74.7141C50.4863 75.6744 51.0258 76.9768 51.0258 78.3348V90.3418H20.4878V78.3348C20.4878 76.9768 21.0273 75.6744 21.9875 74.7141C22.9478 73.7538 24.2502 73.2144 25.6082 73.2144Z" fill="#535461"/>
<path d="M35.7315 84.3397C36.7301 84.3397 37.5397 83.5302 37.5397 82.5316C37.5397 81.5329 36.7301 80.7234 35.7315 80.7234C34.7329 80.7234 33.9233 81.5329 33.9233 82.5316C33.9233 83.5302 34.7329 84.3397 35.7315 84.3397Z" fill="white"/>
<path opacity="0.1" d="M29.7295 51.2895C29.7295 51.2895 36.6407 44.3821 44.0944 51.1636" stroke="black" stroke-miterlimit="10"/>
<path d="M45.8409 50.8496H45.1467V54.783H45.8409V50.8496Z" fill="#6A5C99"/>
<path d="M44.2212 53.3948C44.8553 53.3948 45.4634 53.6467 45.9118 54.095C46.3602 54.5434 46.6121 55.1515 46.6121 55.7856V55.9399C46.6121 56.574 46.3602 57.1821 45.9118 57.6305C45.4634 58.0789 44.8553 58.3308 44.2212 58.3308V53.3948Z" fill="#FFD037"/>
<path d="M44.2984 53.1636H44.2984C44.0003 53.1636 43.7585 53.4053 43.7585 53.7034V58.0224C43.7585 58.3206 44.0003 58.5623 44.2984 58.5623H44.2984C44.5966 58.5623 44.8383 58.3206 44.8383 58.0224V53.7034C44.8383 53.4053 44.5966 53.1636 44.2984 53.1636Z" fill="#6A5C99"/>
<path d="M27.9123 54.8601H28.6064V50.9267H27.9123V54.8601Z" fill="#6A5C99"/>
<path d="M29.532 58.408C28.8979 58.408 28.2898 58.1561 27.8414 57.7077C27.393 57.2593 27.1411 56.6512 27.1411 56.0171V55.8628C27.1411 55.2287 27.393 54.6206 27.8414 54.1722C28.2898 53.7239 28.8979 53.472 29.532 53.472V58.408Z" fill="#FFD037"/>
<path d="M29.4548 58.6394H29.4548C29.7529 58.6394 29.9946 58.3977 29.9946 58.0995V53.7805C29.9946 53.4824 29.7529 53.2407 29.4548 53.2407H29.4548C29.1566 53.2407 28.9149 53.4824 28.9149 53.7805V58.0995C28.9149 58.3977 29.1566 58.6394 29.4548 58.6394Z" fill="#6A5C99"/>
<path d="M45.0647 46.6454C44.1249 44.6912 42.0779 42.3285 37.6654 42.1399L37.6658 42.1345L37.6129 42.137L37.6094 42.1369L37.6094 42.1372L36.0462 42.2117L36.0464 42.2193C31.663 42.4211 29.6256 44.7745 28.6888 46.7225C28.0657 48.0421 27.7352 49.4808 27.7197 50.94L28.2594 50.9268L28.7992 50.9144C28.8228 49.6137 29.1224 48.333 29.6781 47.1568C30.8682 44.7128 33.0575 43.4128 36.1855 43.2929L36.1854 43.292L37.568 43.2154L37.568 43.2158C40.6959 43.3357 42.8852 44.6357 44.0753 47.0797C44.6311 48.2558 44.9307 49.5366 44.9543 50.8373L45.494 50.8496L46.0337 50.8629C46.0183 49.4037 45.6877 47.965 45.0647 46.6454Z" fill="#FFD037"/>
<path d="M69.5 92H-3.5V121H69.5V92Z" fill="#D6D6E3"/>
<path opacity="0.1" d="M69.7257 93.5625H-3.90088V96.1285H69.7257V93.5625Z" fill="black"/>
<path d="M74.6639 91.9468H-8.83936V94.5128H74.6639V91.9468Z" fill="#D6D6E3"/>
<path d="M48.3396 85.5654C48.3396 85.5654 51.4906 91.3423 59.3683 89.7668C67.2459 88.1913 63.4384 104.34 63.4384 104.34C63.4384 104.34 62.1494 112.044 63.0565 112" stroke="#535461" stroke-width="3" stroke-miterlimit="10"/>
<g style="mix-blend-mode:saturation">
<circle cx="59" cy="58.5" r="58.25" fill="#C4C4C4"/>
<circle cx="59" cy="58.5" r="58.25" stroke="black" stroke-width="0.5"/>
</g>
<circle cx="59" cy="58.5" r="58.25" stroke="black" stroke-width="0.5"/>
</g>
<defs>
<linearGradient id="paint0_linear" x1="17625.4" y1="35702.8" x2="17625.4" y2="15456.4" gradientUnits="userSpaceOnUse">
<stop stop-color="#808080" stop-opacity="0.25"/>
<stop offset="0.53514" stop-color="#808080" stop-opacity="0.12"/>
<stop offset="1" stop-color="#808080" stop-opacity="0.1"/>
</linearGradient>
</defs>
</svg>
