<svg width="118" height="117" viewBox="0 0 118 117" fill="none" xmlns="http://www.w3.org/2000/svg">
<mask id="mask0" mask-type="alpha" maskUnits="userSpaceOnUse" x="0" y="0" width="118" height="117">
<circle cx="59" cy="58.5" r="58.5" fill="#C4C4C4"/>
</mask>
<g mask="url(#mask0)">
<path opacity="0.5" d="M62.3678 116.454C87.3889 116.454 107.673 113.052 107.673 108.855C107.673 104.657 87.3889 101.255 62.3678 101.255C37.3466 101.255 17.063 104.657 17.063 108.855C17.063 113.052 37.3466 116.454 62.3678 116.454Z" fill="#DEE3F3"/>
<g opacity="0.45">
<path opacity="0.45" d="M51.4861 29.7698C51.4866 29.8547 51.4926 29.9396 51.5041 30.0238C51.4926 29.9396 51.4866 29.8547 51.4861 29.7698Z" fill="#E5E52E"/>
<path opacity="0.45" d="M74.3005 24.3108C74.304 24.3335 74.3082 24.3559 74.3109 24.3788C74.3082 24.3558 74.304 24.3335 74.3005 24.3108Z" fill="#E5E52E"/>
<path opacity="0.45" d="M74.2532 24.0857C74.2596 24.1093 74.2658 24.133 74.2715 24.1569C74.2658 24.1329 74.2597 24.1093 74.2532 24.0857Z" fill="#E5E52E"/>
<path opacity="0.45" d="M74.2773 30.197C74.2686 30.236 74.2585 30.2745 74.2476 30.3126C74.2586 30.2745 74.2686 30.236 74.2773 30.197Z" fill="#E5E52E"/>
<path opacity="0.45" d="M74.3086 30.0105C74.3035 30.052 74.2975 30.0931 74.2898 30.1337C74.2975 30.0931 74.3035 30.052 74.3086 30.0105Z" fill="#E5E52E"/>
<path opacity="0.45" d="M52.5412 31.5049C52.3892 31.4254 52.2483 31.3264 52.1221 31.2104C52.2483 31.3264 52.3892 31.4254 52.5412 31.5049Z" fill="#E5E52E"/>
<path opacity="0.45" d="M52.1069 31.1963C52.0476 31.1408 51.9917 31.0817 51.9397 31.0193C51.9917 31.0817 52.0475 31.1408 52.1069 31.1963Z" fill="#E5E52E"/>
<path opacity="0.45" d="M85.7735 68.5582C85.7505 68.4807 85.7227 68.4048 85.6902 68.3308C85.7227 68.4048 85.7505 68.4807 85.7735 68.5582Z" fill="#E5E52E"/>
<path opacity="0.45" d="M84.7993 67.3799C84.8767 67.4202 84.9513 67.4656 85.0226 67.5158C84.9513 67.4656 84.8767 67.4202 84.7993 67.3799Z" fill="#E5E52E"/>
<path opacity="0.45" d="M85.2375 67.6919C85.3572 67.8044 85.4622 67.9314 85.5503 68.07C85.4622 67.9314 85.3572 67.8044 85.2375 67.6919Z" fill="#E5E52E"/>
<path opacity="0.45" d="M85.0293 67.521C85.0942 67.5674 85.1563 67.6177 85.2152 67.6715C85.1563 67.6176 85.0943 67.5674 85.0293 67.521Z" fill="#E5E52E"/>
<path opacity="0.45" d="M85.6733 68.2961C85.644 68.2328 85.6112 68.1711 85.5752 68.1113C85.6112 68.1711 85.644 68.2328 85.6733 68.2961Z" fill="#E5E52E"/>
<path opacity="0.45" d="M85.8277 68.7996C85.8172 68.7345 85.8033 68.6699 85.7861 68.6062C85.8033 68.6699 85.8172 68.7345 85.8277 68.7996Z" fill="#E5E52E"/>
<path opacity="0.45" d="M144.873 58.0791H133.609C133.869 57.8992 134.081 57.6591 134.228 57.3792C134.375 57.0993 134.452 56.788 134.452 56.472V51.3073C134.452 51.0502 134.401 50.7957 134.302 50.5583C134.204 50.3208 134.06 50.105 133.878 49.9233C133.696 49.7415 133.48 49.5974 133.242 49.499C133.004 49.4006 132.749 49.35 132.492 49.35H119.526C119.922 49.2238 120.267 48.9752 120.513 48.64C120.758 48.3049 120.89 47.9005 120.89 47.4855V42.3207C120.89 42.0048 120.814 41.6935 120.667 41.4136C120.52 41.1337 120.307 40.8935 120.047 40.7136H132.492C132.749 40.7136 133.004 40.663 133.242 40.5646C133.48 40.4663 133.696 40.3221 133.878 40.1404C134.06 39.9586 134.204 39.7428 134.302 39.5054C134.401 39.2679 134.452 39.0134 134.452 38.7564V33.5916C134.452 33.3346 134.401 33.0801 134.302 32.8426C134.204 32.6051 134.06 32.3894 133.878 32.2076C133.696 32.0259 133.48 31.8817 133.242 31.7833C133.004 31.685 132.749 31.6343 132.492 31.6343H118.639C119.035 31.5081 119.38 31.2595 119.626 30.9243C119.871 30.5892 120.003 30.1849 120.003 29.7698V24.6051C120.003 24.2891 119.927 23.9778 119.78 23.6979C119.633 23.418 119.42 23.1778 119.16 22.998H132.492C132.749 22.998 133.004 22.9473 133.242 22.849C133.48 22.7506 133.696 22.6064 133.878 22.4247C134.06 22.2429 134.204 22.0272 134.302 21.7897C134.401 21.5522 134.452 21.2977 134.452 21.0407V15.8759C134.452 15.6189 134.401 15.3644 134.302 15.1269C134.204 14.8895 134.06 14.6737 133.878 14.492C133.696 14.3102 133.48 14.166 133.242 14.0677C133.004 13.9693 132.749 13.9187 132.492 13.9187H125.513C125.909 13.7925 126.254 13.5438 126.5 13.2087C126.745 12.8735 126.877 12.4692 126.877 12.0541V6.8894C126.877 6.63237 126.826 6.37785 126.728 6.14038C126.629 5.90292 126.485 5.68715 126.303 5.5054C126.121 5.32365 125.905 5.17947 125.667 5.08111C125.429 4.98275 125.174 4.93213 124.917 4.93213H105.998C105.741 4.93212 105.486 4.98275 105.248 5.08111C105.01 5.17947 104.794 5.32364 104.612 5.50539C104.43 5.68714 104.286 5.90291 104.187 6.14038C104.089 6.37785 104.038 6.63237 104.038 6.8894C104.038 6.63237 103.987 6.37785 103.889 6.14038C103.79 5.90292 103.646 5.68714 103.464 5.50539C103.282 5.32364 103.066 5.17947 102.828 5.08111C102.59 4.98275 102.336 4.93213 102.078 4.93213H83.1589C82.7855 4.9323 82.4199 5.03908 82.1053 5.23987C81.7907 5.44067 81.54 5.72711 81.383 6.06544C81.408 6.19093 81.4207 6.31856 81.4208 6.44651V11.6112C81.4206 11.8955 81.358 12.1763 81.2375 12.4338C81.3257 12.8798 81.5668 13.281 81.9194 13.5685H86.7783C87.2309 13.5679 87.6697 13.7245 88.0195 14.0114H90.1378C89.7419 14.1376 89.3963 14.3863 89.1511 14.7214C88.9059 15.0566 88.7738 15.4609 88.7737 15.8759C88.7733 15.7514 88.761 15.6273 88.7371 15.5051C88.7372 15.5121 88.7381 15.5188 88.7381 15.5258V20.6905C88.7375 20.8552 88.716 21.0192 88.6742 21.1786C88.7057 21.2118 88.7338 21.248 88.7583 21.2866C88.7686 21.205 88.7737 21.1229 88.7737 21.0407C88.7747 21.1542 88.7857 21.2673 88.8065 21.3789C88.8325 21.4412 88.8474 21.5075 88.8504 21.5749C88.9741 22.0101 89.2448 22.3891 89.6165 22.6478H87.9309C87.946 22.6373 87.9594 22.6247 87.9742 22.6138C87.8176 22.6177 87.66 22.6006 87.5033 22.5988C87.4473 22.5981 87.392 22.5867 87.3404 22.5651C87.1581 22.6198 86.9687 22.6477 86.7783 22.6478L75.168 22.998C74.9079 23.1778 74.6953 23.418 74.5485 23.6979C74.4017 23.9778 74.3251 24.2891 74.3252 24.6051V29.7698C74.3253 30.1849 74.4575 30.5892 74.7027 30.9243C74.9479 31.2595 75.2934 31.5081 75.6893 31.6343L86.7783 31.7271C86.9732 31.727 87.1671 31.756 87.3535 31.8131C87.4773 31.8239 87.5998 31.8454 87.7198 31.8774C87.7291 31.8753 87.7384 31.8746 87.7476 31.8727C87.6398 31.8136 87.5266 31.7648 87.4095 31.7271H90.1378C89.7418 31.8533 89.3963 32.1019 89.1511 32.4371C88.9059 32.7722 88.7737 33.1765 88.7737 33.5916C88.7735 33.4781 88.7635 33.3649 88.7438 33.2531C88.7308 33.2717 88.7164 33.2893 88.7007 33.3057C88.7254 33.4304 88.738 33.5572 88.7381 33.6843V38.8491C88.7381 39.0887 88.7737 39.0311 88.7737 38.7563C88.7736 39.0723 88.8502 39.3836 88.997 39.6635C89.1438 39.9434 89.3563 40.1836 89.6165 40.3634L96.5347 40.5849C96.772 40.5853 97.0073 40.6289 97.2289 40.7136H98.8939C98.5959 40.9216 98.3615 41.2081 98.2166 41.5411C98.3984 41.8434 98.4945 42.1895 98.4946 42.5422V47.7069C98.4946 47.9765 98.4387 48.2432 98.3302 48.4901C98.5754 48.8988 98.961 49.2044 99.4152 49.35H97.5973C97.281 49.5552 96.9119 49.6644 96.5347 49.6642H89.6717C89.3962 49.8411 89.1697 50.0842 89.0128 50.3713C88.8559 50.6584 88.7737 50.9802 88.7737 51.3073C88.7737 50.6175 88.5164 57.4148 88.5164 57.4148C88.5164 58.0252 99.1956 58.3006 99.1956 58.3006C99.4669 58.3005 99.7353 58.357 99.9836 58.4665C100.095 58.4427 100.209 58.4329 100.323 58.4373C100.319 58.4348 100.316 58.4317 100.313 58.4293H101.998C101.738 58.6091 101.526 58.8493 101.379 59.1292C101.232 59.4091 101.155 59.7204 101.155 60.0364C101.155 59.943 101.148 59.8497 101.134 59.7573C101.125 59.7785 101.115 59.7995 101.104 59.8196C101.138 59.9633 101.155 60.1103 101.155 60.2578V65.2011C101.155 65.4582 101.206 65.7127 101.305 65.9501C101.403 66.1876 101.547 66.4034 101.729 66.5851C101.911 66.7669 102.127 66.9111 102.365 67.0094C102.603 67.1078 102.858 67.1584 103.115 67.1584H100.099C99.8202 67.3039 99.5102 67.3799 99.1956 67.3798H86.9119C86.5936 67.5448 86.3267 67.794 86.1404 68.1001C85.9541 68.4062 85.8556 68.7575 85.8555 69.1157V74.2804C85.8555 74.5374 85.9062 74.7919 86.0047 75.0294C86.1032 75.2669 86.2476 75.4827 86.4296 75.6644C86.6116 75.8461 86.8276 75.9903 87.0654 76.0887C87.3032 76.187 87.558 76.2377 87.8154 76.2377H106.735C106.992 76.2377 107.247 76.1871 107.485 76.0887C107.722 75.9903 107.938 75.8462 108.12 75.6644C108.302 75.4827 108.447 75.2669 108.545 75.0294C108.644 74.7919 108.695 74.5374 108.695 74.2804C108.695 74.5374 108.745 74.7919 108.844 75.0294C108.942 75.2669 109.087 75.4827 109.269 75.6644C109.451 75.8462 109.667 75.9903 109.904 76.0887C110.142 76.1871 110.397 76.2377 110.654 76.2377H129.574C129.831 76.2377 130.086 76.1871 130.324 76.0887C130.561 75.9903 130.777 75.8462 130.959 75.6644C131.141 75.4827 131.286 75.2669 131.384 75.0294C131.483 74.7919 131.533 74.5374 131.533 74.2804V69.1157C131.533 68.8586 131.483 68.6041 131.384 68.3667C131.286 68.1292 131.141 67.9134 130.959 67.7317C130.777 67.5499 130.561 67.4057 130.324 67.3074C130.086 67.209 129.831 67.1584 129.574 67.1584H144.873C145.131 67.1584 145.386 67.1078 145.624 67.0094C145.861 66.9111 146.077 66.7669 146.259 66.5851C146.441 66.4034 146.586 66.1876 146.684 65.9501C146.783 65.7127 146.833 65.4582 146.833 65.2011V60.0364C146.833 59.7794 146.783 59.5248 146.684 59.2874C146.586 59.0499 146.441 58.8341 146.259 58.6524C146.077 58.4706 145.861 58.3265 145.624 58.2281C145.386 58.1297 145.131 58.0791 144.873 58.0791ZM98.0069 22.998C97.7468 23.1778 97.5343 23.418 97.3875 23.6979C97.2407 23.9778 97.1641 24.2891 97.1642 24.6051C97.1642 24.2891 97.0876 23.9778 96.9408 23.6979C96.794 23.418 96.5815 23.1778 96.3214 22.998H98.0069ZM95.8 31.6343C96.196 31.5081 96.5415 31.2595 96.7867 30.9243C97.0319 30.5892 97.1641 30.1849 97.1642 29.7698C97.1642 30.1849 97.2964 30.5892 97.5416 30.9243C97.7868 31.2595 98.1324 31.5081 98.5283 31.6343H95.8ZM102.674 13.9187C103.07 13.7925 103.415 13.5438 103.661 13.2087C103.906 12.8735 104.038 12.4692 104.038 12.0541C104.038 12.4692 104.17 12.8735 104.415 13.2087C104.661 13.5438 105.006 13.7925 105.402 13.9187H102.674ZM108.695 69.1157C108.695 68.8586 108.644 68.6041 108.545 68.3667C108.447 68.1292 108.302 67.9134 108.12 67.7317C107.938 67.5499 107.722 67.4057 107.485 67.3074C107.247 67.209 106.992 67.1584 106.735 67.1584H110.654C110.397 67.1584 110.142 67.209 109.904 67.3074C109.667 67.4057 109.451 67.5499 109.269 67.7317C109.087 67.9134 108.942 68.1292 108.844 68.3667C108.745 68.6041 108.694 68.8586 108.695 69.1157ZM110.77 58.0791C111.03 57.8992 111.243 57.6591 111.389 57.3792C111.536 57.0993 111.613 56.788 111.613 56.472C111.613 56.788 111.689 57.0993 111.836 57.3792C111.983 57.6591 112.195 57.8992 112.455 58.0791H110.77ZM111.613 51.3073C111.613 50.8922 111.48 50.4879 111.235 50.1527C110.99 49.8176 110.644 49.569 110.249 49.4427H112.977C112.581 49.569 112.235 49.8176 111.99 50.1527C111.745 50.4879 111.613 50.8922 111.613 51.3073ZM110.77 40.3635C111.03 40.1836 111.243 39.9434 111.389 39.6635C111.536 39.3836 111.613 39.0723 111.613 38.7564C111.613 39.0723 111.689 39.3836 111.836 39.6635C111.983 39.9434 112.195 40.1836 112.455 40.3635H110.77ZM111.613 33.5916C111.613 33.1765 111.48 32.7722 111.235 32.4371C110.99 32.1019 110.644 31.8533 110.249 31.7271H112.977C112.581 31.8533 112.235 32.1019 111.99 32.4371C111.745 32.7722 111.613 33.1765 111.613 33.5916ZM110.77 22.6478C111.03 22.4679 111.243 22.2277 111.389 21.9478C111.536 21.6679 111.613 21.3567 111.613 21.0407C111.613 21.3567 111.689 21.6679 111.836 21.9478C111.983 22.2277 112.195 22.4679 112.455 22.6478H110.77ZM111.613 15.8759C111.613 15.4609 111.48 15.0566 111.235 14.7214C110.99 14.3863 110.644 14.1376 110.249 14.0114H112.977C112.581 14.1376 112.235 14.3863 111.99 14.7214C111.745 15.0566 111.613 15.4609 111.613 15.8759ZM124.837 58.4293C124.577 58.6092 124.364 58.8493 124.218 59.1292C124.071 59.4091 123.994 59.7204 123.994 60.0364C123.994 59.7204 123.918 59.4091 123.771 59.1292C123.624 58.8493 123.412 58.6092 123.152 58.4293H124.837ZM122.035 67.1584C122.292 67.1584 122.547 67.1078 122.785 67.0094C123.022 66.911 123.238 66.7669 123.42 66.5851C123.602 66.4034 123.747 66.1876 123.845 65.9501C123.944 65.7127 123.994 65.4582 123.994 65.2011C123.994 65.4582 124.045 65.7127 124.144 65.9501C124.242 66.1876 124.386 66.4034 124.568 66.5851C124.75 66.7669 124.966 66.911 125.204 67.0094C125.442 67.1078 125.697 67.1584 125.954 67.1584H122.035Z" fill="#E5E52E"/>
<path opacity="0.45" d="M85.8555 69.1157C85.8549 69.0323 85.849 68.9491 85.8379 68.8665C85.849 68.9491 85.8549 69.0323 85.8555 69.1157Z" fill="#E5E52E"/>
<path opacity="0.45" d="M74.3252 29.7698C74.3252 29.8318 74.3216 29.8929 74.3159 29.9535C74.3216 29.8929 74.3252 29.8318 74.3252 29.7698Z" fill="#E5E52E"/>
<path opacity="0.45" d="M51.5088 30.0615C51.5207 30.1401 51.5374 30.2178 51.5589 30.2943C51.5374 30.2178 51.5207 30.1401 51.5088 30.0615Z" fill="#E5E52E"/>
<path opacity="0.45" d="M29.5763 41.602C29.5438 41.5732 29.5156 41.5398 29.4927 41.5029C29.4644 41.4523 29.4456 41.397 29.4371 41.3396C29.4323 41.4738 29.4343 41.6081 29.4432 41.7421C29.5026 41.9293 29.5333 42.1244 29.5342 42.3208C29.535 42.13 29.564 41.9403 29.6201 41.7578C29.6024 41.7135 29.5885 41.6677 29.5788 41.6209C29.5775 41.6145 29.5775 41.6084 29.5763 41.602Z" fill="#E5E52E"/>
<path opacity="0.45" d="M56.4004 4.93213H37.4811C37.2237 4.93213 36.9689 4.98275 36.7311 5.08111C36.4933 5.17948 36.2773 5.32365 36.0953 5.5054C35.9133 5.68715 35.7689 5.90292 35.6704 6.14038C35.572 6.37785 35.5213 6.63237 35.5213 6.8894C35.5213 6.63237 35.4706 6.37785 35.3721 6.14038C35.2736 5.90292 35.1292 5.68715 34.9472 5.5054C34.7652 5.32365 34.5492 5.17948 34.3114 5.08111C34.0736 4.98275 33.8188 4.93213 33.5614 4.93213H14.6422C14.3848 4.93213 14.1299 4.98275 13.8922 5.08111C13.6544 5.17948 13.4383 5.32365 13.2563 5.5054C13.0743 5.68715 12.93 5.90292 12.8315 6.14038C12.733 6.37785 12.6823 6.63237 12.6823 6.8894V12.0541C12.6824 12.4692 12.8146 12.8735 13.0598 13.2087C13.305 13.5438 13.6505 13.7925 14.0465 13.9187H-0.622185C-0.879557 13.9187 -1.13441 13.9693 -1.37219 14.0677C-1.60997 14.166 -1.82602 14.3102 -2.00801 14.492C-2.19 14.6737 -2.33436 14.8895 -2.43285 15.1269C-2.53134 15.3644 -2.58204 15.6189 -2.58204 15.8759V21.0407C-2.58213 21.3567 -2.5055 21.6679 -2.35871 21.9478C-2.21192 22.2277 -1.99936 22.4679 -1.73925 22.6478H-15.0707C-15.328 22.6478 -15.5829 22.6984 -15.8207 22.7968C-16.0585 22.8951 -16.2745 23.0393 -16.4565 23.2211C-16.6385 23.4028 -16.7828 23.6186 -16.8813 23.8561C-16.9798 24.0935 -17.0305 24.348 -17.0305 24.6051V29.7698C-17.0305 30.0268 -16.9798 30.2813 -16.8813 30.5188C-16.7828 30.7563 -16.6385 30.9721 -16.4565 31.1538C-16.2745 31.3356 -16.0584 31.4797 -15.8207 31.5781C-15.5829 31.6764 -15.328 31.7271 -15.0707 31.7271H-1.21792C-1.61385 31.8533 -1.95937 32.1019 -2.20457 32.4371C-2.44977 32.7722 -2.58195 33.1765 -2.58204 33.5916V38.7564C-2.58213 39.0723 -2.50549 39.3836 -2.35871 39.6635C-2.21192 39.9434 -1.99936 40.1836 -1.73924 40.3635H-14.1837C-14.4411 40.3635 -14.6959 40.4141 -14.9337 40.5125C-15.1715 40.6108 -15.3876 40.755 -15.5695 40.9367C-15.7515 41.1185 -15.8959 41.3343 -15.9944 41.5717C-16.0929 41.8092 -16.1436 42.0637 -16.1436 42.3207V47.4855C-16.1436 47.7425 -16.0929 47.997 -15.9944 48.2345C-15.8959 48.472 -15.7515 48.6877 -15.5695 48.8695C-15.3876 49.0512 -15.1715 49.1954 -14.9337 49.2938C-14.6959 49.3921 -14.4411 49.4427 -14.1837 49.4427H-1.21792C-1.61385 49.569 -1.95937 49.8176 -2.20457 50.1528C-2.44977 50.4879 -2.58195 50.8922 -2.58204 51.3073V56.472C-2.58204 56.7291 -2.53134 56.9836 -2.43285 57.221C-2.33436 57.4585 -2.19 57.6743 -2.00801 57.856C-1.82602 58.0378 -1.60997 58.182 -1.37219 58.2803C-1.13441 58.3787 -0.879557 58.4293 -0.622185 58.4293H10.6425C10.3824 58.6092 10.1698 58.8494 10.023 59.1293C9.87626 59.4092 9.79963 59.7204 9.79972 60.0364V65.2011C9.79972 65.7202 10.0062 66.2181 10.3737 66.5851C10.7413 66.9522 11.2398 67.1584 11.7596 67.1584H-3.54032C-3.79769 67.1584 -4.05254 67.209 -4.29032 67.3074C-4.5281 67.4058 -4.74415 67.5499 -4.92614 67.7317C-5.10813 67.9134 -5.25249 68.1292 -5.35099 68.3667C-5.44948 68.6041 -5.50017 68.8587 -5.50017 69.1157V74.2804C-5.50017 74.5375 -5.44948 74.792 -5.35099 75.0294C-5.25249 75.2669 -5.10813 75.4827 -4.92614 75.6644C-4.74415 75.8462 -4.5281 75.9903 -4.29032 76.0887C-4.05254 76.1871 -3.79769 76.2377 -3.54032 76.2377H15.3789C15.6363 76.2377 15.8912 76.1871 16.1289 76.0887C16.3667 75.9903 16.5828 75.8462 16.7648 75.6644C16.9468 75.4827 17.0911 75.2669 17.1896 75.0294C17.2881 74.792 17.3388 74.5375 17.3388 74.2804C17.3388 74.5375 17.3895 74.792 17.488 75.0294C17.5865 75.2669 17.7308 75.4827 17.9128 75.6644C18.0948 75.8462 18.3109 75.9903 18.5486 76.0887C18.7864 76.1871 19.0413 76.2377 19.2986 76.2377H38.2179C38.4753 76.2377 38.7301 76.1871 38.9679 76.0887C39.2057 75.9903 39.4217 75.8462 39.6037 75.6644C39.7857 75.4827 39.9301 75.2669 40.0286 75.0294C40.1271 74.792 40.1777 74.5375 40.1777 74.2804V69.1157C40.1777 68.7575 40.0792 68.4062 39.8929 68.1001C39.7066 67.794 39.4397 67.5449 39.1214 67.3799H35.042C34.7274 67.3799 34.4174 67.304 34.1385 67.1584H30.6788C31.1986 67.1584 31.6971 66.9522 32.0647 66.5851C32.4322 66.2181 32.6387 65.7202 32.6387 65.2011C32.6387 66.0528 33.0822 60.2579 33.0822 60.2579C33.0821 60.0008 33.1328 59.7463 33.2313 59.5088C33.3298 59.2714 33.4742 59.0556 33.6562 58.8738C33.8382 58.6921 34.0542 58.5479 34.292 58.4496C34.5298 58.3512 34.7846 58.3006 35.042 58.3006L42.2531 58.0791C42.4587 57.9353 42.635 57.7536 42.7724 57.5438C42.6703 57.3042 42.6174 57.0466 42.6169 56.7862V51.6215C42.6165 51.2384 42.7293 50.8638 42.941 50.5444C42.787 50.1834 42.5281 49.8768 42.1978 49.6642H31.9377C31.5605 49.6644 31.1914 49.5552 30.8751 49.35H28.1702C28.5661 49.2238 28.9117 48.9752 29.1569 48.64C29.4021 48.3049 29.5343 47.9006 29.5343 47.4855L29.4649 42.3584C29.4649 42.1274 29.4525 41.923 29.4433 41.742C29.3143 41.3252 29.0497 40.9634 28.6916 40.7136H30.3771C30.3644 40.7225 30.3532 40.7331 30.3407 40.7422C31.2962 40.6875 42.211 40.0481 43.0984 39.3349C43.0757 39.1995 43.0713 39.0617 43.0853 38.9252C43.0695 38.8268 43.0611 38.7273 43.0603 38.6276V33.4629C43.0603 33.3988 43.0639 33.3355 43.0699 33.273C43.0109 32.9173 42.8547 32.5848 42.6186 32.3121C42.3825 32.0393 42.0756 31.8369 41.7317 31.7271H44.1167C44.3956 31.5815 44.7056 31.5055 45.0202 31.5056H50.4298C50.7482 31.3407 51.0152 31.0916 51.2015 30.7855C51.3878 30.4794 51.4863 30.128 51.4864 29.7698V24.6051C51.4864 24.2891 51.4098 23.9778 51.263 23.6979C51.1162 23.418 50.9037 23.1778 50.6436 22.998L45.0202 22.6478C44.0672 22.6478 43.4368 22.2992 43.9387 22.6478H42.2531C42.5115 22.469 42.7229 22.2306 42.8695 21.9529C43.0161 21.6751 43.0935 21.3662 43.0951 21.0523C43.0724 20.933 43.0607 20.8119 43.0603 20.6905V15.5258C43.0603 15.5216 43.0609 15.5175 43.061 15.5132C42.9953 15.1666 42.8372 14.8441 42.6032 14.5797C42.3693 14.3154 42.0682 14.119 41.7317 14.0114H43.779C44.1287 13.7245 44.5675 13.5679 45.0202 13.5685H57.6399C57.8651 13.3854 58.0466 13.1545 58.1712 12.8925C58.2958 12.6306 58.3604 12.3442 58.3602 12.0541V6.8894C58.3602 6.63237 58.3095 6.37785 58.211 6.14039C58.1125 5.90292 57.9682 5.68715 57.7862 5.5054C57.6042 5.32365 57.3882 5.17948 57.1504 5.08112C56.9126 4.98276 56.6577 4.93213 56.4004 4.93213ZM6.65121 22.998C6.3911 23.1778 6.17855 23.418 6.03177 23.6979C5.88498 23.9778 5.80835 24.2891 5.80844 24.6051C5.80853 24.2891 5.7319 23.9778 5.58512 23.6979C5.43833 23.418 5.22577 23.1778 4.96566 22.998H6.65121ZM5.80844 29.7698C5.80852 30.1849 5.9407 30.5892 6.18591 30.9244C6.43111 31.2595 6.77664 31.5081 7.17259 31.6344H4.44429C4.84024 31.5081 5.18577 31.2595 5.43097 30.9244C5.67618 30.5892 5.80836 30.1849 5.80844 29.7698ZM7.53816 40.7136C7.27805 40.8935 7.06549 41.1337 6.91871 41.4136C6.77193 41.6935 6.6953 42.0048 6.69539 42.3207C6.69548 42.0048 6.61885 41.6935 6.47207 41.4136C6.32529 41.1337 6.11273 40.8935 5.85261 40.7136H7.53816ZM5.33124 49.35C5.72719 49.2238 6.07272 48.9752 6.31792 48.64C6.56313 48.3049 6.69531 47.9006 6.69539 47.4855C6.69547 47.9006 6.82766 48.3049 7.07286 48.64C7.31806 48.9752 7.66359 49.2238 8.05954 49.35H5.33124ZM29.4902 22.998C29.2301 23.1778 29.0175 23.418 28.8707 23.6979C28.7239 23.9778 28.6473 24.2891 28.6474 24.6051C28.6475 24.2891 28.5709 23.9778 28.4241 23.6979C28.2773 23.418 28.0647 23.1778 27.8046 22.998H29.4902ZM17.3388 69.1157C17.3388 68.8587 17.2881 68.6041 17.1896 68.3667C17.0911 68.1292 16.9468 67.9134 16.7648 67.7317C16.5828 67.5499 16.3667 67.4058 16.1289 67.3074C15.8912 67.209 15.6363 67.1584 15.3789 67.1584H19.2986C19.0413 67.1584 18.7864 67.209 18.5486 67.3074C18.3109 67.4058 18.0948 67.5499 17.9128 67.7317C17.7308 67.9134 17.5865 68.1292 17.488 68.3667C17.3895 68.6041 17.3388 68.8587 17.3388 69.1157ZM19.4141 58.0791C19.6742 57.8993 19.8868 57.6591 20.0336 57.3792C20.1804 57.0993 20.257 56.788 20.2569 56.472C20.2568 56.788 20.3335 57.0993 20.4803 57.3792C20.627 57.6591 20.8396 57.8993 21.0997 58.0791H19.4141ZM20.2569 51.3073C20.2568 50.8922 20.1246 50.4879 19.8794 50.1528C19.6342 49.8176 19.2887 49.569 18.8928 49.4427H21.621C21.2251 49.569 20.8796 49.8176 20.6344 50.1528C20.3892 50.4879 20.257 50.8922 20.2569 51.3073ZM19.4141 40.3635C19.6742 40.1836 19.8868 39.9434 20.0336 39.6635C20.1804 39.3836 20.257 39.0723 20.2569 38.7564C20.2568 39.0723 20.3335 39.3836 20.4803 39.6635C20.627 39.9434 20.8396 40.1836 21.0997 40.3635H19.4141ZM20.2569 33.5916C20.2568 33.1765 20.1246 32.7722 19.8794 32.4371C19.6342 32.1019 19.2887 31.8533 18.8928 31.7271H21.621C21.2251 31.8533 20.8796 32.1019 20.6344 32.4371C20.3892 32.7722 20.257 33.1765 20.2569 33.5916ZM19.4141 22.6478C19.6742 22.4679 19.8868 22.2277 20.0336 21.9478C20.1804 21.6679 20.257 21.3567 20.2569 21.0407C20.2568 21.3567 20.3335 21.6679 20.4803 21.9478C20.627 22.2277 20.8396 22.4679 21.0997 22.6478H19.4141ZM20.2569 15.8759C20.2568 15.4609 20.1246 15.0566 19.8794 14.7214C19.6342 14.3863 19.2887 14.1376 18.8928 14.0114H21.621C21.2251 14.1376 20.8796 14.3863 20.6344 14.7214C20.3892 15.0566 20.257 15.4609 20.2569 15.8759ZM27.2833 31.6344C27.6792 31.5081 28.0247 31.2595 28.2699 30.9244C28.5151 30.5892 28.6473 30.1849 28.6474 29.7698C28.6475 30.1849 28.7797 30.5892 29.0249 30.9244C29.2701 31.2595 29.6156 31.5081 30.0116 31.6344H27.2833ZM34.1571 13.9187C34.5531 13.7925 34.8986 13.5438 35.1438 13.2087C35.389 12.8735 35.5212 12.4692 35.5213 12.0541C35.5213 12.4692 35.6535 12.8735 35.8987 13.2087C36.1439 13.5438 36.4895 13.7925 36.8854 13.9187H34.1571Z" fill="#E5E52E"/>
<path opacity="0.45" d="M52.1304 23.1577C52.1398 23.1492 52.1491 23.1405 52.1587 23.1321C52.1491 23.1405 52.1398 23.1492 52.1304 23.1577Z" fill="#E5E52E"/>
<path opacity="0.45" d="M52.0007 23.2871C51.9909 23.2978 51.981 23.3084 51.9714 23.3193C51.981 23.3084 51.991 23.2978 52.0007 23.2871Z" fill="#E5E52E"/>
<path opacity="0.45" d="M51.8359 23.4912C51.8405 23.4847 51.8456 23.4786 51.8502 23.4722C51.8455 23.4786 51.8405 23.4847 51.8359 23.4912Z" fill="#E5E52E"/>
<path opacity="0.45" d="M51.5706 30.3342C51.5933 30.4104 51.6206 30.4851 51.6525 30.558C51.6206 30.4851 51.5933 30.4104 51.5706 30.3342Z" fill="#E5E52E"/>
<path opacity="0.45" d="M51.7793 30.7991C51.8233 30.8692 51.8717 30.9366 51.9242 31.0006C51.8716 30.9366 51.8233 30.8692 51.7793 30.7991Z" fill="#E5E52E"/>
<path opacity="0.45" d="M51.6624 30.5786C51.6963 30.6538 51.7351 30.7268 51.7784 30.7971C51.7351 30.7268 51.6963 30.6538 51.6624 30.5786Z" fill="#E5E52E"/>
<path opacity="0.45" d="M51.54 24.1569C51.5457 24.133 51.5519 24.1093 51.5583 24.0857C51.5518 24.1093 51.5457 24.1329 51.54 24.1569Z" fill="#E5E52E"/>
<path opacity="0.45" d="M51.606 23.9355C51.6129 23.9163 51.6194 23.8968 51.627 23.8779C51.6194 23.8969 51.613 23.9163 51.606 23.9355Z" fill="#E5E52E"/>
<path opacity="0.45" d="M51.5002 24.3788C51.5029 24.3559 51.5072 24.3335 51.5106 24.3108C51.5072 24.3335 51.5029 24.3558 51.5002 24.3788Z" fill="#E5E52E"/>
<path opacity="0.45" d="M51.7139 23.6913C51.7152 23.6887 51.7163 23.6859 51.7177 23.6833C51.7163 23.6859 51.7152 23.6887 51.7139 23.6913Z" fill="#E5E52E"/>
<path opacity="0.1" d="M14.4679 14.0115L34.1785 14.0115C35.0424 14.0115 35.7427 13.3121 35.7427 12.4493V6.49432C35.7427 5.63159 35.0424 4.9322 34.1785 4.9322L14.4679 4.9322C13.604 4.9322 12.9037 5.63159 12.9037 6.49432V12.4493C12.9037 13.3121 13.604 14.0115 14.4679 14.0115Z" fill="black"/>
<path opacity="0.1" d="M82.7631 14.0115L102.474 14.0115C103.338 14.0115 104.038 13.3121 104.038 12.4493V6.49432C104.038 5.63159 103.338 4.9322 102.474 4.9322L82.7631 4.9322C81.8992 4.9322 81.1989 5.63159 81.1989 6.49432V12.4493C81.1989 13.3121 81.8992 14.0115 82.7631 14.0115Z" fill="black"/>
<path opacity="0.1" d="M113.141 22.8694L132.852 22.8694C133.716 22.8694 134.416 22.17 134.416 21.3073V15.3522C134.416 14.4895 133.716 13.7901 132.852 13.7901L113.141 13.7901C112.277 13.7901 111.577 14.4895 111.577 15.3522V21.3073C111.577 22.17 112.277 22.8694 113.141 22.8694Z" fill="black"/>
<path opacity="0.1" d="M75.8895 31.7271L95.6001 31.7271C96.464 31.7271 97.1643 31.0277 97.1643 30.1649V24.2099C97.1643 23.3472 96.464 22.6478 95.6001 22.6478H75.8895C75.0257 22.6478 74.3253 23.3472 74.3253 24.2099V30.1649C74.3253 31.0277 75.0257 31.7271 75.8895 31.7271Z" fill="black"/>
<path opacity="0.1" d="M113.141 40.8064H132.852C133.716 40.8064 134.416 40.107 134.416 39.2443V33.2892C134.416 32.4265 133.716 31.7271 132.852 31.7271H113.141C112.277 31.7271 111.577 32.4265 111.577 33.2892V39.2443C111.577 40.107 112.277 40.8064 113.141 40.8064Z" fill="black"/>
<path opacity="0.1" d="M113.141 58.522H132.852C133.716 58.522 134.416 57.8226 134.416 56.9598V51.0048C134.416 50.1421 133.716 49.4427 132.852 49.4427H113.141C112.277 49.4427 111.577 50.1421 111.577 51.0048V56.9598C111.577 57.8226 112.277 58.522 113.141 58.522Z" fill="black"/>
<path opacity="0.1" d="M122.567 58.3005H102.582C102.274 58.3007 101.973 58.4007 101.727 58.5856C101.48 58.7705 101.3 59.0303 101.213 59.3261C101.218 59.4066 101.213 59.4874 101.197 59.5664C101.187 59.6128 101.173 59.6583 101.156 59.7028C101.156 59.7105 101.155 59.7179 101.155 59.7256V65.9548C101.155 66.3327 101.306 66.6952 101.573 66.9624C101.841 67.2297 102.204 67.3798 102.582 67.3798H122.567C122.946 67.3798 123.309 67.2297 123.576 66.9624C123.844 66.6952 123.994 66.3327 123.994 65.9548V59.7256C123.994 59.5384 123.957 59.3531 123.886 59.1802C123.814 59.0074 123.709 58.8503 123.576 58.7179C123.444 58.5856 123.286 58.4806 123.113 58.409C122.94 58.3374 122.755 58.3005 122.567 58.3005Z" fill="black"/>
<path opacity="0.1" d="M87.4196 76.2375H107.13C107.994 76.2375 108.694 75.5382 108.694 74.6754V68.7204C108.694 67.8577 107.994 67.1583 107.13 67.1583H87.4196C86.5557 67.1583 85.8554 67.8577 85.8554 68.7204V74.6754C85.8554 75.5382 86.5557 76.2375 87.4196 76.2375Z" fill="black"/>
<path opacity="0.1" d="M21.7853 22.8694L41.4959 22.8694C42.3597 22.8694 43.0601 22.17 43.0601 21.3073V15.3522C43.0601 14.4895 42.3597 13.7901 41.4959 13.7901L21.7853 13.7901C20.9214 13.7901 20.2211 14.4895 20.2211 15.3522V21.3073C20.2211 22.17 20.9214 22.8694 21.7853 22.8694Z" fill="black"/>
<path opacity="0.1" d="M7.59413 31.7271L27.3047 31.7271C28.1686 31.7271 28.8689 31.0277 28.8689 30.1649V24.2099C28.8689 23.3472 28.1686 22.6478 27.3047 22.6478H7.59413C6.73025 22.6478 6.02994 23.3472 6.02994 24.2099V30.1649C6.02994 31.0277 6.73025 31.7271 7.59413 31.7271Z" fill="black"/>
<path opacity="0.1" d="M-1.05358 40.8064H18.657C19.5209 40.8064 20.2212 40.107 20.2212 39.2443V33.2892C20.2212 32.4265 19.5209 31.7271 18.657 31.7271H-1.05358C-1.91745 31.7271 -2.61776 32.4265 -2.61776 33.2892V39.2443C-2.61776 40.107 -1.91745 40.8064 -1.05358 40.8064Z" fill="black"/>
<path opacity="0.1" d="M8.2594 49.6641H27.97C28.8339 49.6641 29.5342 48.9647 29.5342 48.1019V42.1469C29.5342 41.2842 28.8339 40.5848 27.97 40.5848H8.2594C7.39552 40.5848 6.69522 41.2842 6.69522 42.1469V48.1019C6.69522 48.9647 7.39552 49.6641 8.2594 49.6641Z" fill="black"/>
<path opacity="0.1" d="M-1.05358 58.522H18.657C19.5209 58.522 20.2212 57.8226 20.2212 56.9598V51.0048C20.2212 50.1421 19.5209 49.4427 18.657 49.4427H-1.05358C-1.91745 49.4427 -2.61776 50.1421 -2.61776 51.0048V56.9598C-2.61776 57.8226 -1.91745 58.522 -1.05358 58.522Z" fill="black"/>
<path opacity="0.45" d="M-11.3859 67.3896H8.32473C9.1886 67.3896 9.88892 66.6903 9.88892 65.8275L9.88892 59.8725C9.88892 59.0098 9.1886 58.3104 8.32473 58.3104H-11.3859C-12.2497 58.3104 -12.95 59.0098 -12.95 59.8725V65.8275C-12.95 66.6903 -12.2497 67.3896 -11.3859 67.3896Z" fill="#E5E52E"/>
<path opacity="0.45" d="M-8.31872 14.0225L11.3919 14.0225C12.2557 14.0225 12.9561 13.3231 12.9561 12.4603L12.9561 6.50531C12.9561 5.64257 12.2557 4.94318 11.3919 4.94318L-8.31872 4.94318C-9.18259 4.94318 -9.88291 5.64257 -9.88291 6.50531V12.4603C-9.88291 13.3231 -9.18259 14.0225 -8.31872 14.0225Z" fill="#E5E52E"/>
<path opacity="0.1" d="M11.5856 67.3799H31.2962C32.16 67.3799 32.8604 66.6805 32.8604 65.8178V59.8627C32.8604 59 32.16 58.3006 31.2962 58.3006H11.5856C10.7217 58.3006 10.0214 59 10.0214 59.8627V65.8178C10.0214 66.6805 10.7217 67.3799 11.5856 67.3799Z" fill="black"/>
<path opacity="0.1" d="M-3.93615 76.2375H15.7744C16.6383 76.2375 17.3386 75.5382 17.3386 74.6754V68.7204C17.3386 67.8577 16.6383 67.1583 15.7744 67.1583H-3.93615C-4.80003 67.1583 -5.50033 67.8577 -5.50033 68.7204V74.6754C-5.50033 75.5382 -4.80003 76.2375 -3.93615 76.2375Z" fill="black"/>
</g>
<path opacity="0.5" d="M16.2989 -1.62144H15.0812C15.1933 -1.62112 15.3044 -1.6429 15.4081 -1.68554C15.5118 -1.72817 15.6061 -1.79083 15.6855 -1.86991C15.7649 -1.94898 15.8279 -2.04294 15.8709 -2.14638C15.9139 -2.24982 15.936 -2.36071 15.936 -2.47271C15.936 -2.5847 15.9139 -2.6956 15.8709 -2.79904C15.8279 -2.90248 15.7649 -2.99643 15.6855 -3.07551C15.6061 -3.15459 15.5118 -3.21724 15.4081 -3.25988C15.3044 -3.30251 15.1933 -3.32429 15.0812 -3.32397H5.21786C5.10572 -3.32429 4.99462 -3.30251 4.89092 -3.25988C4.78722 -3.21724 4.69296 -3.15459 4.61355 -3.07551C4.53413 -2.99643 4.47113 -2.90248 4.42814 -2.79904C4.38515 -2.6956 4.36302 -2.5847 4.36302 -2.47271C4.36302 -2.36071 4.38515 -2.24982 4.42814 -2.14638C4.47113 -2.04294 4.53413 -1.94898 4.61355 -1.86991C4.69296 -1.79083 4.78722 -1.72817 4.89092 -1.68554C4.99462 -1.6429 5.10572 -1.62112 5.21786 -1.62144H6.43556C6.32348 -1.62167 6.21245 -1.59982 6.10883 -1.55714C6.00521 -1.51447 5.91104 -1.4518 5.83171 -1.37273C5.75237 -1.29366 5.68943 -1.19974 5.64649 -1.09635C5.60354 -0.992953 5.58144 -0.882117 5.58144 -0.770181C5.58144 -0.658246 5.60354 -0.54741 5.64649 -0.444017C5.68943 -0.340624 5.75237 -0.246703 5.83171 -0.167633C5.91104 -0.088563 6.00521 -0.0258965 6.10883 0.0167813C6.21245 0.0594592 6.32348 0.0813098 6.43556 0.0810819H4.73079C4.50515 0.0817311 4.28897 0.171705 4.12965 0.331277C3.97033 0.490849 3.88086 0.707 3.88086 0.932345C3.88086 1.15769 3.97033 1.37384 4.12965 1.53342C4.28897 1.69299 4.50515 1.78296 4.73079 1.78361H14.5941C14.8198 1.78296 15.0359 1.69299 15.1953 1.53342C15.3546 1.37384 15.4441 1.15769 15.4441 0.932345C15.4441 0.707 15.3546 0.490849 15.1953 0.331277C15.0359 0.171705 14.8198 0.0817311 14.5941 0.0810819H16.2989C16.5247 0.0806224 16.741 -0.00926685 16.9005 -0.16886C17.06 -0.328453 17.1495 -0.544712 17.1495 -0.770181C17.1495 -0.99565 17.06 -1.21191 16.9005 -1.3715C16.741 -1.5311 16.5247 -1.62099 16.2989 -1.62144Z" fill="#DEE3F3"/>
<path d="M77.3554 30.7903H40.8868C39.6192 30.7903 38.5916 31.8166 38.5916 33.0825V47.5149C38.5916 48.7809 39.6192 49.8071 40.8868 49.8071H77.3554C78.6231 49.8071 79.6507 48.7809 79.6507 47.5149V33.0825C79.6507 31.8166 78.6231 30.7903 77.3554 30.7903Z" fill="#E5E52E"/>
<path opacity="0.1" d="M76.3777 46.8884H41.8643V47.245H76.3777V46.8884Z" fill="black"/>
<path opacity="0.3" d="M76.3777 33.7615H41.8643V46.8356H76.3777V33.7615Z" fill="black"/>
<path opacity="0.1" d="M49.8974 45.3256C52.5266 45.3256 54.6579 43.197 54.6579 40.5714C54.6579 37.9457 52.5266 35.8171 49.8974 35.8171C47.2683 35.8171 45.137 37.9457 45.137 40.5714C45.137 43.197 47.2683 45.3256 49.8974 45.3256Z" fill="black"/>
<path opacity="0.1" d="M68.3445 45.3256C70.9736 45.3256 73.1049 43.197 73.1049 40.5714C73.1049 37.9457 70.9736 35.8171 68.3445 35.8171C65.7153 35.8171 63.584 37.9457 63.584 40.5714C63.584 43.197 65.7153 45.3256 68.3445 45.3256Z" fill="black"/>
<path d="M62.6904 49.8064H55.55V53.9674H62.6904V49.8064Z" fill="#E5E52E"/>
<path d="M73.9976 52.7783H44.2446V76.5494H73.9976V52.7783Z" fill="#E5E52E"/>
<path d="M74.5928 81.3037H43.6497V84.2751H74.5928V81.3037Z" fill="#E5E52E"/>
<path d="M48.7075 91.4065V94.9722V100.321V103.292V105.075H54.063V103.292V100.321V94.9722V91.4065V87.2466H48.7075V91.4065Z" fill="#E5E52E"/>
<path d="M64.7742 87.2466V91.4065V94.9722V100.321V103.292V105.075H70.1297V103.292V100.321V94.9722V91.4065V87.2466H64.7742Z" fill="#E5E52E"/>
<path d="M40.1917 58.1272V63.6238C38.7217 63.8802 37.3521 64.5396 36.2356 65.5283C35.2003 66.4859 34.3952 67.6649 33.8805 68.9771C33.192 70.6429 32.8574 72.4928 32.7208 74.2418C32.5523 76.6007 32.6628 78.9713 33.05 81.3045H27.0995C26.8467 78.0194 26.9273 75.2008 27.2552 72.7806C27.6227 70.0521 28.303 67.8311 29.1649 66.0249C30.8889 62.4137 33.341 60.4546 35.4952 59.3905C38.0538 58.1272 40.1917 58.1272 40.1917 58.1272Z" fill="#E5E52E"/>
<path opacity="0.3" d="M54.0631 87.2466H48.7075V91.4065H54.0631V87.2466Z" fill="black"/>
<path opacity="0.3" d="M54.0631 94.9722H48.7075V100.321H54.0631V94.9722Z" fill="black"/>
<path opacity="0.3" d="M54.0631 103.292H48.7075V105.075H54.0631V103.292Z" fill="black"/>
<path opacity="0.3" d="M70.1297 87.2466H64.7742V91.4065H70.1297V87.2466Z" fill="black"/>
<path opacity="0.3" d="M70.1297 94.9722H64.7742V100.321H70.1297V94.9722Z" fill="black"/>
<path opacity="0.3" d="M70.1297 103.292H64.7742V105.075H70.1297V103.292Z" fill="black"/>
<path opacity="0.3" d="M40.1918 58.1272V63.6238C38.7219 63.8802 37.3522 64.5396 36.2358 65.5283L35.4954 59.3905C38.054 58.1272 40.1918 58.1272 40.1918 58.1272Z" fill="black"/>
<path opacity="0.3" d="M33.8807 68.9769C33.1922 70.6427 32.8575 72.4926 32.7209 74.2416L27.2554 72.7804C27.6228 70.0519 28.3031 67.8309 29.1651 66.0247L33.8807 68.9769Z" fill="black"/>
<path d="M78.0503 58.1272V63.6238C79.5202 63.8802 80.8899 64.5396 82.0064 65.5283C83.0417 66.4859 83.8468 67.6649 84.3615 68.9771C85.0499 70.6429 85.3846 72.4928 85.5212 74.2418C85.6897 76.6007 85.5792 78.9713 85.192 81.3045H91.1425C91.3952 78.0194 91.3146 75.2008 90.9868 72.7806C90.6193 70.0521 89.939 67.8311 89.0771 66.0249C87.3531 62.4137 84.901 60.4546 82.7468 59.3905C80.1882 58.1272 78.0503 58.1272 78.0503 58.1272Z" fill="#E5E52E"/>
<path opacity="0.3" d="M78.0503 58.1272V63.6238C79.5202 63.8802 80.8899 64.5396 82.0064 65.5283L82.7468 59.3905C80.1882 58.1272 78.0503 58.1272 78.0503 58.1272Z" fill="black"/>
<path opacity="0.3" d="M84.3613 68.9769C85.0498 70.6427 85.3845 72.4926 85.5211 74.2416L90.9867 72.7804C90.6192 70.0519 89.9389 67.8309 89.0769 66.0247L84.3613 68.9769Z" fill="black"/>
<path opacity="0.1" d="M62.6904 49.8064H55.55V50.2989H62.6904V49.8064Z" fill="black"/>
<path opacity="0.1" d="M74.5262 57.0139V66.9662C74.1702 66.5825 73.9726 66.0786 73.9729 65.5555V58.4232C73.9726 57.9005 74.1702 57.3971 74.5262 57.0139Z" fill="black"/>
<path opacity="0.1" d="M44.35 57.6702V65.1204C44.3145 65.5915 44.1188 66.0362 43.7954 66.381V56.4097C44.1188 56.7544 44.3145 57.1992 44.35 57.6702Z" fill="black"/>
<path opacity="0.1" d="M72.51 76.55H45.7327V76.902H72.51V76.55Z" fill="black"/>
<path opacity="0.1" d="M58.2278 84.2759H45.137V84.5487H58.2278V84.2759Z" fill="black"/>
<path opacity="0.1" d="M72.51 84.2759H59.4192V84.5487H72.51V84.2759Z" fill="black"/>
<path d="M48.6465 13.1912H46.5974V30.79H48.6465V13.1912Z" fill="#E5E52E"/>
<path d="M72.1423 13.1912H70.0933V30.79H72.1423V13.1912Z" fill="#E5E52E"/>
<path opacity="0.1" d="M47.5535 15.647C48.8361 15.647 49.8758 14.6087 49.8758 13.3278C49.8758 12.0469 48.8361 11.0085 47.5535 11.0085C46.2709 11.0085 45.2312 12.0469 45.2312 13.3278C45.2312 14.6087 46.2709 15.647 47.5535 15.647Z" fill="black"/>
<path d="M47.5535 15.5105C48.8361 15.5105 49.8758 14.4722 49.8758 13.1913C49.8758 11.9104 48.8361 10.8721 47.5535 10.8721C46.2709 10.8721 45.2312 11.9104 45.2312 13.1913C45.2312 14.4722 46.2709 15.5105 47.5535 15.5105Z" fill="#E5E52E"/>
<path opacity="0.1" d="M71.1861 15.647C72.4686 15.647 73.5083 14.6087 73.5083 13.3278C73.5083 12.0469 72.4686 11.0085 71.1861 11.0085C69.9035 11.0085 68.8638 12.0469 68.8638 13.3278C68.8638 14.6087 69.9035 15.647 71.1861 15.647Z" fill="black"/>
<path d="M71.1861 15.5105C72.4686 15.5105 73.5083 14.4722 73.5083 13.1913C73.5083 11.9104 72.4686 10.8721 71.1861 10.8721C69.9035 10.8721 68.8638 11.9104 68.8638 13.1913C68.8638 14.4722 69.9035 15.5105 71.1861 15.5105Z" fill="#E5E52E"/>
<path d="M-1.47181 67.105C-1.47181 67.105 5.32391 80.4272 -0.213345 87.7167C-5.7506 95.0062 0.290041 114.864 0.290041 114.864" stroke="#FC6681" stroke-width="2" stroke-miterlimit="10"/>
<path d="M0.541506 62.9573C0.541506 65.5256 -1.34619 67.6075 -1.34619 67.6075C-1.34619 67.6075 -3.23389 65.5256 -3.23389 62.9573C-3.23389 60.3891 -1.34619 58.3071 -1.34619 58.3071C-1.34619 58.3071 0.541506 60.3891 0.541506 62.9573Z" fill="#FC6681"/>
<path d="M2.0519 67.105C2.0519 67.105 -4.74382 80.4272 0.79343 87.7167C6.33068 95.0062 0.290042 114.864 0.290042 114.864" stroke="#FFD037" stroke-width="2" stroke-miterlimit="10"/>
<path d="M0.0380859 62.9573C0.0380859 65.5256 1.92578 67.6075 1.92578 67.6075C1.92578 67.6075 3.81348 65.5256 3.81348 62.9573C3.81348 60.3891 1.92578 58.3071 1.92578 58.3071C1.92578 58.3071 0.0380859 60.3891 0.0380859 62.9573Z" fill="#FFD037"/>
<path d="M4.82042 67.105C4.82042 67.105 11.6161 80.4272 6.07889 87.7167C0.541642 95.0062 6.58227 114.864 6.58227 114.864" stroke="#FC6681" stroke-width="2" stroke-miterlimit="10"/>
<path d="M6.83399 62.9573C6.83399 65.5256 4.9463 67.6075 4.9463 67.6075C4.9463 67.6075 3.05859 65.5256 3.05859 62.9573C3.05859 60.3891 4.9463 58.3071 4.9463 58.3071C4.9463 58.3071 6.83399 60.3891 6.83399 62.9573Z" fill="#FC6681"/>
<path d="M5.77537 73.6316C3.99246 75.4823 1.18677 75.6757 1.18677 75.6757C1.18677 75.6757 1.27173 72.8683 3.05464 71.0175C4.83755 69.1667 7.64325 68.9734 7.64325 68.9734C7.64325 68.9734 7.55828 71.7808 5.77537 73.6316Z" fill="#FC6681"/>
<path d="M5.95237 82.822C4.16947 84.6728 1.36377 84.8661 1.36377 84.8661C1.36377 84.8661 1.44873 82.0587 3.23164 80.2079C5.01455 78.3572 7.82025 78.1638 7.82025 78.1638C7.82025 78.1638 7.73528 80.9712 5.95237 82.822Z" fill="#FC6681"/>
<path d="M-2.15178 68.2789C-0.00818443 69.6976 0.68671 72.4192 0.68671 72.4192C0.68671 72.4192 -2.09384 72.8405 -4.23743 71.4217C-6.38102 70.003 -7.07593 67.2814 -7.07593 67.2814C-7.07593 67.2814 -4.29537 66.8601 -2.15178 68.2789Z" fill="#FC6681"/>
<path d="M8.34413 67.105C8.34413 67.105 1.54842 80.4272 7.08566 87.7167C12.6229 95.0062 6.58228 114.864 6.58228 114.864" stroke="#FFD037" stroke-width="2" stroke-miterlimit="10"/>
<path d="M6.33057 62.9573C6.33057 65.5256 8.21827 67.6075 8.21827 67.6075C8.21827 67.6075 10.106 65.5256 10.106 62.9573C10.106 60.3891 8.21827 58.3071 8.21827 58.3071C8.21827 58.3071 6.33057 60.3891 6.33057 62.9573Z" fill="#FFD037"/>
<path d="M6.87361 73.8291C5.06861 75.6584 4.94995 78.4646 4.94995 78.4646C4.94995 78.4646 7.75777 78.3049 9.56277 76.4755C11.3678 74.6462 11.4864 71.8401 11.4864 71.8401C11.4864 71.8401 8.6786 71.9998 6.87361 73.8291Z" fill="#FFD037"/>
<path d="M10.4132 86.5542C8.60816 88.3835 8.4895 91.1897 8.4895 91.1897C8.4895 91.1897 11.2973 91.03 13.1023 89.2006C14.9073 87.3713 15.026 84.5652 15.026 84.5652C15.026 84.5652 12.2182 84.7249 10.4132 86.5542Z" fill="#FFD037"/>
<path d="M5.20581 83.7577C5.20581 83.7577 9.2966 77.3182 15.038 77.1799" stroke="#FFD037" stroke-width="2" stroke-miterlimit="10"/>
<path d="M2.02038 79.8693C2.02038 79.8693 -2.0704 73.4298 -7.81177 73.2915" stroke="#FC6681" stroke-width="2" stroke-miterlimit="10"/>
<path d="M1.48926 89.0598C1.48926 89.0598 5.58004 82.6202 11.3214 82.4819" stroke="#FFD037" stroke-width="2" stroke-miterlimit="10"/>
<path d="M14.8506 78.1905C15.4371 78.1905 15.9125 77.7157 15.9125 77.13C15.9125 76.5444 15.4371 76.0696 14.8506 76.0696C14.2642 76.0696 13.7888 76.5444 13.7888 77.13C13.7888 77.7157 14.2642 78.1905 14.8506 78.1905Z" fill="#FFD037"/>
<path d="M4.49792 91.1806C4.49792 91.1806 0.407138 84.7411 -5.33423 84.6028" stroke="#FC6681" stroke-width="2" stroke-miterlimit="10"/>
<path d="M11.3997 83.5811C11.9862 83.5811 12.4616 83.1063 12.4616 82.5206C12.4616 81.935 11.9862 81.4602 11.3997 81.4602C10.8133 81.4602 10.3379 81.935 10.3379 82.5206C10.3379 83.1063 10.8133 83.5811 11.3997 83.5811Z" fill="#FFD037"/>
<path d="M27.1095 107.129C27.1095 107.129 17.2516 105.16 14.6229 102.534C11.9941 99.909 0.164639 95.3147 -1.14974 98.5963C-2.46412 101.878 -18.8939 113.036 -7.72167 115.005C3.4506 116.974 18.566 117.63 21.852 116.317C25.138 115.005 27.1095 107.129 27.1095 107.129Z" fill="#A8A8A8"/>
<path opacity="0.2" d="M-7.72139 113.785C3.45088 115.754 18.5663 116.411 21.8523 115.098C24.3547 114.098 26.0936 109.295 26.7812 107.06C26.9893 107.104 27.1098 107.128 27.1098 107.128C27.1098 107.128 25.1382 115.004 21.8523 116.317C18.5663 117.63 3.45087 116.973 -7.7214 115.004C-10.9464 114.436 -11.8687 113.101 -11.5212 111.412C-11.2455 112.514 -10.1218 113.362 -7.72139 113.785Z" fill="black"/>
<path d="M121.104 69.457C121.104 69.457 118.742 72.5418 122.194 77.1991C125.646 81.8564 128.493 85.7879 127.342 88.6912C127.342 88.6912 122.133 80.0419 117.894 79.9209C113.654 79.7999 116.44 74.6587 121.104 69.457Z" fill="#FC6681"/>
<path opacity="0.1" d="M121.104 69.457C120.898 69.755 120.735 70.0808 120.621 70.4244C116.485 75.278 114.281 79.8074 118.257 79.9209C121.961 80.0266 126.404 86.6406 127.468 88.311C127.433 88.44 127.391 88.5669 127.342 88.6912C127.342 88.6912 122.133 80.0419 117.894 79.9209C113.654 79.7999 116.44 74.6587 121.104 69.457Z" fill="black"/>
<path d="M116.713 73.3886C116.713 74.4743 116.835 75.3544 116.985 75.3544C117.136 75.3544 117.258 74.4743 117.258 73.3886C117.258 72.303 117.105 72.814 116.955 72.814C116.804 72.814 116.713 72.303 116.713 73.3886Z" fill="#FFD037"/>
<path d="M115.206 74.6846C116.161 75.2042 116.993 75.5184 117.065 75.3864C117.137 75.2544 116.421 74.7262 115.467 74.2066C114.512 73.6871 114.889 74.0652 114.817 74.1972C114.745 74.3292 114.252 74.165 115.206 74.6846Z" fill="#FFD037"/>
<path d="M117.465 88.2876C117.465 88.2876 124.069 88.0845 126.059 86.6691C128.049 85.2538 136.218 83.5637 136.711 85.8337C137.205 88.1036 146.636 97.1233 139.18 97.1834C131.724 97.2434 121.856 96.0235 119.87 94.8151C117.883 93.6067 117.465 88.2876 117.465 88.2876Z" fill="#A8A8A8"/>
<path opacity="0.2" d="M139.313 96.3932C131.857 96.4533 121.989 95.2334 120.003 94.025C118.49 93.1047 117.887 89.8025 117.686 88.2791C117.546 88.2851 117.465 88.2876 117.465 88.2876C117.465 88.2876 117.883 93.6067 119.87 94.8151C121.856 96.0236 131.724 97.2434 139.18 97.1834C141.332 97.166 142.076 96.4013 142.035 95.2687C141.736 95.953 140.915 96.3803 139.313 96.3932Z" fill="black"/>
<g style="mix-blend-mode:saturation">
<circle cx="59" cy="58.5" r="58" fill="#C4C4C4"/>
<circle cx="59" cy="58.5" r="58" stroke="black"/>
</g>
<circle cx="59" cy="58.5" r="58.25" stroke="black" stroke-width="0.5"/>
</g>
</svg>
