<?xml version="1.0" encoding="UTF-8"?>
<svg id="a" data-name="Layer 3" xmlns="http://www.w3.org/2000/svg" viewBox="0 0 250.785 157.48">
  <g>
    <path d="M16.87,27.791c-.059-.309-.119-.605-.182-.891s-.127-.551-.193-.797-.121-.407-.164-.483-.089-.129-.138-.158-.11-.044-.185-.044c-.082,0-.156,.019-.223,.056s-.139,.102-.217,.193-.182,.235-.311,.431l-.381-.252c.246-.371,.482-.648,.709-.832s.494-.275,.803-.275c.121,0,.228,.014,.319,.041s.173,.069,.243,.126,.133,.13,.188,.22,.107,.212,.158,.366,.099,.346,.144,.574,.085,.466,.12,.712h.059c.375-.527,.659-.913,.853-1.157s.356-.426,.489-.545,.261-.203,.384-.252,.286-.073,.489-.073c.184,0,.334,.023,.451,.07l-.234,1.061h-.41c-.023-.164-.092-.246-.205-.246-.035,0-.072,.006-.111,.018s-.087,.037-.144,.076-.14,.115-.249,.229-.232,.252-.369,.416-.277,.336-.422,.516l-.398,.498c.07,.375,.137,.699,.199,.973s.118,.501,.167,.683,.092,.325,.129,.431,.077,.185,.12,.237,.087,.09,.132,.111,.097,.032,.155,.032c.105,0,.208-.041,.308-.123s.243-.268,.431-.557l.381,.252c-.273,.406-.521,.692-.741,.858s-.483,.249-.788,.249c-.168,0-.311-.03-.428-.091s-.219-.157-.305-.29-.162-.34-.229-.621c-.121-.5-.195-.883-.223-1.148h-.059c-.414,.582-.722,1-.923,1.254s-.367,.441-.498,.562-.258,.206-.381,.255-.286,.073-.489,.073c-.184,0-.334-.023-.451-.07l.234-1.061h.41c.023,.164,.092,.246,.205,.246,.055,0,.112-.015,.173-.044s.147-.1,.261-.211,.27-.286,.469-.524,.488-.596,.867-1.072Z" fill="#231f20"/>
    <path d="M22.836,33.544c0,.132,.008,.232,.022,.299,.015,.067,.041,.122,.079,.164,.037,.042,.091,.075,.162,.099,.07,.024,.159,.042,.267,.055,.106,.013,.248,.021,.423,.025v.25h-2.524v-.25c.253-.011,.434-.026,.542-.046,.107-.02,.19-.048,.247-.087,.058-.039,.099-.093,.125-.164,.026-.071,.039-.186,.039-.345v-2.771c0-.091-.016-.158-.048-.2-.031-.042-.078-.063-.14-.063-.073,0-.177,.038-.311,.112-.135,.075-.301,.179-.499,.311l-.15-.263,1.599-.953h.188c-.014,.218-.021,.521-.021,.908v2.917Z" fill="#231f20"/>
  </g>
  <g>
    <path d="M56.547,28.509c-.072,.276-.145,.552-.145,.84,0,.468,.229,.731,.708,.731,1.295,0,1.967-1.379,2.339-2.435,.096-.288,.18-.588,.18-.888,0-.887-.708-.792-.731-1.307-.024-.432,.359-.504,.647-.504,.504,0,.563,.612,.563,.996,0,1.751-1.259,4.605-3.31,4.605-.828,0-1.332-.336-1.332-1.199,0-.504,.145-1.02,.276-1.499-.479,1.067-1.464,2.698-2.807,2.698-.672,0-.936-.408-.936-1.043,0-.396,.132-.768,.228-1.139l.564-2.123c.035-.108,.06-.228,.06-.348,0-.288-.456-.264-.647-.264v-.18c.636-.108,1.259-.276,1.858-.528l.049,.036-.972,3.682c-.036,.156-.132,.54-.132,.875,0,.312,.071,.563,.336,.563,.695-.012,1.547-1.367,1.835-1.811,.635-.971,.947-1.907,1.318-3.226h1.008l-.959,3.466Z" fill="#231f20"/>
    <path d="M61.381,33.898c-.007,.042-.007,.07-.007,.098,0,.049,.042,.07,.091,.07,.153,0,.195-.083,.447-.356l.091,.07c-.245,.314-.595,.733-.937,.733-.196,0-.279-.133-.279-.321,0-.084,0-.217,.552-2.362,.007-.014,.014-.062,.014-.083,0-.119-.056-.154-.217-.154-.062,0-.146,.014-.195,.028l-.021-.112,1.104-.154-.643,2.544Zm.517-3.096c-.202,0-.335-.14-.335-.321,0-.175,.133-.35,.335-.35,.182,0,.336,.175,.336,.35,0,.182-.154,.321-.336,.321Z" fill="#231f20"/>
    <path d="M63.123,35.288c.385-.258,.58-.517,.58-.748,0-.049-.042-.091-.098-.091s-.126,.028-.203,.028c-.258,0-.405-.119-.405-.356s.168-.398,.42-.398c.314,0,.559,.245,.559,.608,0,.419-.3,.86-.782,1.09l-.07-.133Z" fill="#231f20"/>
    <path d="M65.186,34.436v-.105c.518-.028,.664-.175,.664-.559v-3.138c0-.238-.062-.342-.21-.342-.069,0-.188,.035-.314,.083l-.188,.07v-.098l1.251-.636,.062,.021v4.172c0,.301,.141,.426,.664,.426v.105h-1.929Z" fill="#231f20"/>
  </g>
  <g>
    <path d="M18.273,55.748c.312-.479,.731-1.007,1.331-1.007,.384,0,.588,.144,.588,.396,0,.228-.156,.503-.468,.503-.264,0-.324-.108-.528-.108-.359,0-.491,.192-.659,.456l-.66,1.02c.36,.744,.636,2.363,1.176,2.363,.191,0,.479-.168,.731-.684l.168,.12c-.144,.18-.684,1.331-1.379,1.331-.492,0-.72-.492-.876-.923l-.479-1.355-.756,1.175c-.384,.588-.731,1.104-1.403,1.104-.432,0-.623-.3-.623-.563,0-.192,.155-.444,.455-.444,.312,0,.265,.24,.564,.24,.144,0,.455-.12,.839-.708l.78-1.211-.396-1.104c-.204-.576-.516-1.067-1.175-1.067-.156,0-.336,.024-.456,.072l-.036-.216,1.583-.396c.528,.288,.756,.78,.899,1.175l.24,.66,.54-.828Z" fill="#231f20"/>
    <path d="M21.234,60.434c.167-.412,.328-.65,.573-.838,.272-.209,.572-.293,.895-.293,.671,0,1.132,.517,1.132,1.181,0,.468-.217,.79-1.041,1.635l-1.314,1.342v.035h1.265c.413,0,.553-.104,.721-.454l.118,.049-.35,.937h-2.474v-.119l1.468-1.565c.461-.489,.775-.93,.943-1.307,.042-.091,.062-.224,.062-.377,0-.482-.279-.845-.831-.845-.42,0-.776,.203-1.021,.671l-.146-.049Z" fill="#231f20"/>
  </g>
  <g>
    <path d="M56.547,58.099c-.072,.276-.145,.552-.145,.84,0,.468,.229,.731,.708,.731,1.295,0,1.967-1.379,2.339-2.435,.096-.288,.18-.588,.18-.888,0-.887-.708-.792-.731-1.307-.024-.432,.359-.504,.647-.504,.504,0,.563,.612,.563,.996,0,1.751-1.259,4.605-3.31,4.605-.828,0-1.332-.336-1.332-1.199,0-.504,.145-1.02,.276-1.499-.479,1.067-1.464,2.698-2.807,2.698-.672,0-.936-.408-.936-1.043,0-.396,.132-.768,.228-1.139l.564-2.123c.035-.108,.06-.228,.06-.348,0-.288-.456-.264-.647-.264v-.18c.636-.108,1.259-.276,1.858-.528l.049,.036-.972,3.682c-.036,.156-.132,.54-.132,.875,0,.312,.071,.563,.336,.563,.695-.012,1.547-1.367,1.835-1.811,.635-.971,.947-1.907,1.318-3.226h1.008l-.959,3.466Z" fill="#231f20"/>
    <path d="M61.381,63.488c-.007,.042-.007,.07-.007,.098,0,.049,.042,.07,.091,.07,.153,0,.195-.083,.447-.356l.091,.07c-.245,.314-.595,.733-.937,.733-.196,0-.279-.133-.279-.321,0-.084,0-.217,.552-2.362,.007-.014,.014-.062,.014-.083,0-.119-.056-.154-.217-.154-.062,0-.146,.014-.195,.028l-.021-.112,1.104-.154-.643,2.544Zm.517-3.096c-.202,0-.335-.14-.335-.321,0-.175,.133-.35,.335-.35,.182,0,.336,.175,.336,.35,0,.182-.154,.321-.336,.321Z" fill="#231f20"/>
    <path d="M62.578,64.802c.37-.238,.531-.44,.531-.629,0-.07-.028-.119-.14-.203-.14-.104-.175-.209-.175-.342,0-.167,.153-.308,.356-.308,.251,0,.405,.238,.405,.518,0,.391-.321,.783-.908,1.09l-.07-.125Z" fill="#231f20"/>
    <path d="M64.921,60.434c.168-.412,.329-.65,.573-.838,.272-.209,.573-.293,.895-.293,.671,0,1.132,.517,1.132,1.181,0,.468-.216,.79-1.041,1.635l-1.313,1.342v.035h1.265c.412,0,.552-.104,.72-.454l.119,.049-.35,.937h-2.474v-.119l1.467-1.565c.462-.489,.776-.93,.944-1.307,.041-.091,.062-.224,.062-.377,0-.482-.279-.845-.832-.845-.419,0-.775,.203-1.02,.671l-.147-.049Z" fill="#231f20"/>
  </g>
  <g>
    <path d="M18.273,120.774c.312-.479,.731-1.007,1.331-1.007,.384,0,.588,.144,.588,.396,0,.228-.156,.503-.468,.503-.264,0-.324-.108-.528-.108-.359,0-.491,.192-.659,.456l-.66,1.02c.36,.744,.636,2.363,1.176,2.363,.191,0,.479-.168,.731-.684l.168,.12c-.144,.18-.684,1.331-1.379,1.331-.492,0-.72-.492-.876-.923l-.479-1.355-.756,1.175c-.384,.588-.731,1.104-1.403,1.104-.432,0-.623-.3-.623-.563,0-.192,.155-.444,.455-.444,.312,0,.265,.24,.564,.24,.144,0,.455-.12,.839-.708l.78-1.211-.396-1.104c-.204-.576-.516-1.067-1.175-1.067-.156,0-.336,.024-.456,.072l-.036-.216,1.583-.396c.528,.288,.756,.78,.899,1.175l.24,.66,.54-.828Z" fill="#231f20"/>
    <path d="M23.316,128.563c-.007,.021-.014,.063-.014,.084,0,.042,.035,.063,.104,.063,.14,0,.336-.245,.434-.392l.077,.084c-.21,.314-.58,.734-.909,.734-.224,0-.279-.161-.279-.287,0-.14,.014-.238,.07-.447h-.035c-.518,.65-.937,.734-1.195,.734-.51,0-.615-.517-.615-.888,0-.72,.721-2.278,1.797-2.278,.398,0,.559,.182,.565,.35h.015l.37-1.46c.007-.028,.014-.056,.014-.084,0-.091-.049-.14-.23-.14-.062,0-.14,.014-.188,.021l-.028-.104,1.091-.168-1.042,4.179Zm-.496-2.383c-.691,0-1.258,1.397-1.258,2.068,0,.342,.195,.461,.392,.461,.489,0,.95-.657,1.146-1.3,.077-.245,.112-.518,.112-.734,0-.329-.104-.496-.392-.496Z" fill="#231f20"/>
  </g>
  <g>
    <path d="M56.547,123.125c-.072,.276-.145,.552-.145,.84,0,.468,.229,.731,.708,.731,1.295,0,1.967-1.379,2.339-2.435,.096-.288,.18-.588,.18-.888,0-.887-.708-.792-.731-1.307-.024-.432,.359-.504,.647-.504,.504,0,.563,.612,.563,.996,0,1.751-1.259,4.605-3.31,4.605-.828,0-1.332-.336-1.332-1.199,0-.504,.145-1.02,.276-1.499-.479,1.067-1.464,2.698-2.807,2.698-.672,0-.936-.408-.936-1.043,0-.396,.132-.768,.228-1.139l.564-2.123c.035-.108,.06-.228,.06-.348,0-.288-.456-.264-.647-.264v-.18c.636-.108,1.259-.276,1.858-.528l.049,.036-.972,3.682c-.036,.156-.132,.54-.132,.875,0,.312,.071,.563,.336,.563,.695-.012,1.547-1.367,1.835-1.811,.635-.971,.947-1.907,1.318-3.226h1.008l-.959,3.466Z" fill="#231f20"/>
    <path d="M61.381,128.514c-.007,.042-.007,.07-.007,.098,0,.049,.042,.07,.091,.07,.153,0,.195-.083,.447-.356l.091,.07c-.245,.314-.595,.733-.937,.733-.196,0-.279-.133-.279-.321,0-.084,0-.217,.552-2.362,.007-.014,.014-.062,.014-.083,0-.119-.056-.154-.217-.154-.062,0-.146,.014-.195,.028l-.021-.112,1.104-.154-.643,2.544Zm.517-3.096c-.202,0-.335-.14-.335-.321,0-.175,.133-.35,.335-.35,.182,0,.336,.175,.336,.35,0,.182-.154,.321-.336,.321Z" fill="#231f20"/>
    <path d="M62.578,129.828c.37-.238,.531-.44,.531-.629,0-.07-.028-.119-.14-.203-.14-.104-.175-.209-.175-.342,0-.167,.153-.308,.356-.308,.251,0,.405,.238,.405,.518,0,.391-.321,.783-.908,1.09l-.07-.125Z" fill="#231f20"/>
    <path d="M67.004,128.563c-.007,.021-.014,.063-.014,.084,0,.042,.034,.063,.104,.063,.14,0,.335-.245,.434-.392l.076,.084c-.209,.314-.58,.734-.908,.734-.224,0-.279-.161-.279-.287,0-.14,.014-.238,.069-.447h-.035c-.517,.65-.936,.734-1.194,.734-.511,0-.615-.517-.615-.888,0-.72,.72-2.278,1.796-2.278,.398,0,.56,.182,.566,.35h.014l.37-1.46c.008-.028,.015-.056,.015-.084,0-.091-.049-.14-.23-.14-.063,0-.141,.014-.189,.021l-.027-.104,1.09-.168-1.041,4.179Zm-.496-2.383c-.692,0-1.258,1.397-1.258,2.068,0,.342,.195,.461,.391,.461,.489,0,.951-.657,1.146-1.3,.077-.245,.111-.518,.111-.734,0-.329-.104-.496-.391-.496Z" fill="#231f20"/>
  </g>
  <g>
    <path d="M112.12,26.906c.396-.384,.863-.755,1.451-.755,.84,0,1.331,.828,1.331,1.811,0,1.451-1.307,3.61-3.189,3.61-.636,0-1.128-.216-1.668-.576l1.728-6.752c.012-.048,.023-.096,.023-.132-.012-.156-.191-.251-.348-.251-.119,0-.264,.012-.359,.048l-.036-.192,1.895-.288-.875,3.43,.048,.048Zm-1.127,4.09c0,.084,.384,.228,.659,.228,1.463,0,2.255-2.087,2.255-3.31,0-.84-.456-1.104-.852-1.104-.863,0-1.271,1.067-1.403,1.607l-.659,2.579Z" fill="#231f20"/>
    <path d="M116.089,34.898c-.007,.042-.007,.07-.007,.098,0,.049,.042,.07,.091,.07,.153,0,.195-.083,.447-.356l.091,.07c-.245,.314-.595,.733-.937,.733-.196,0-.279-.133-.279-.321,0-.084,0-.217,.552-2.362,.007-.014,.014-.062,.014-.083,0-.119-.056-.154-.217-.154-.062,0-.146,.014-.195,.028l-.021-.112,1.104-.154-.643,2.544Zm.517-3.096c-.202,0-.335-.14-.335-.321,0-.175,.133-.35,.335-.35,.182,0,.336,.175,.336,.35,0,.182-.154,.321-.336,.321Z" fill="#231f20"/>
  </g>
  <circle cx="59.278" cy="29.44" r="12.181" fill="none" stroke="#231f20" stroke-miterlimit="10" stroke-width=".75"/>
  <circle cx="114.068" cy="29.44" r="12.181" fill="none" stroke="#231f20" stroke-miterlimit="10" stroke-width=".75"/>
  <circle cx="114.068" cy="77.206" r="18.941" fill="none" stroke="#231f20" stroke-miterlimit="10" stroke-width="1.166"/>
  <circle cx="59.278" cy="58.264" r="12.181" fill="none" stroke="#231f20" stroke-miterlimit="10" stroke-width=".75"/>
  <circle cx="59.278" cy="124.056" r="12.181" fill="none" stroke="#231f20" stroke-miterlimit="10" stroke-width=".75"/>
  <path d="M121.02,87.971h-16.393l8.625-11.222-8.075-11.266h16.437v5.523h-.66c-.462-2.97-1.298-4.071-4.225-4.071h-7.041l6.381,8.604-7.393,9.549h9.109c2.464,0,3.256-1.496,3.74-3.697h.66l-1.166,6.579Z" fill="#231f20"/>
  <path d="M178.903,72.609c2.266,0,4.29,.836,4.29,3.41,0,1.716-.595,3.234-1.761,4.489-1.32,1.43-3.059,2.024-4.973,2.024l-1.056,3.784h-1.782l1.012-3.784c-2.376,0-4.202-1.232-4.202-3.763,0-1.672,.682-3.125,1.849-4.312,1.231-1.254,2.75-1.848,4.51-1.848h.353c.418-1.672,.813-3.345,1.166-5.017h1.804l-1.209,5.017Zm-1.893,.638c-2.861,0-4.73,2.949-4.73,5.567,0,1.386,1.012,3.059,2.552,3.059l2.179-8.625Zm-.396,8.625c2.662,0,4.709-3.323,4.709-5.743,0-1.738-.705-2.905-2.574-2.883l-2.135,8.625Z" fill="#231f20"/>
  <g>
    <path d="M229.523,79.389c1.342-1.826,2.112-3.146,2.596-4.048,.44-.814,.616-1.254,.616-1.65,0-.462-1.144-.682-1.144-1.518,0-.484,.396-.88,1.033-.88,.704,0,1.255,.506,1.255,1.364,0,1.716-3.564,6.997-4.489,8.164-1.605,2.024-3.036,4.18-4.532,4.18-.814,0-1.232-.682-1.232-1.21,0-.66,.595-.902,.88-.902,.946,0,.902,.682,1.255,.682,.374,0,1.628-1.364,2.2-2.244l-.836-6.909c-.11-.99-.309-2.31-1.541-2.31-.241,0-.594,.066-.792,.088l-.044-.352,3.301-.55c.506,.726,.66,1.298,.858,2.926l.616,5.17Z" fill="#231f20"/>
    <path d="M233.41,87.311c-.013,.077-.013,.128-.013,.18,0,.09,.076,.128,.166,.128,.283,0,.359-.154,.821-.654l.167,.128c-.449,.577-1.091,1.347-1.72,1.347-.359,0-.513-.244-.513-.59,0-.154,0-.398,1.014-4.337,.013-.025,.025-.115,.025-.154,0-.218-.103-.282-.397-.282-.115,0-.27,.025-.359,.051l-.039-.206,2.028-.282-1.181,4.671Zm.949-5.685c-.372,0-.616-.257-.616-.59,0-.321,.244-.642,.616-.642,.334,0,.616,.321,.616,.642,0,.333-.282,.59-.616,.59Z" fill="#231f20"/>
  </g>
  <rect x="158.551" y="58.264" width="37.453" height="37.453" fill="none" stroke="#231f20" stroke-miterlimit="10" stroke-width=".75"/>
  <g>
    <line x1="28.692" y1="28.44" x2="44.833" y2="28.44" fill="none" stroke="#231f20" stroke-miterlimit="10" stroke-width=".75"/>
    <g>
      <circle cx="28.772" cy="28.44" r="1.41" fill="#fff"/>
      <path d="M28.772,30.037c.881,0,1.597-.717,1.597-1.597s-.717-1.597-1.597-1.597-1.597,.717-1.597,1.597,.717,1.597,1.597,1.597-.881,0,0,0Zm0-2.82c.674,0,1.222,.548,1.222,1.222s-.548,1.222-1.222,1.222-1.222-.548-1.222-1.222,.548-1.222,1.222-1.222-.674,0,0,0Z" fill="#231f20"/>
    </g>
    <path d="M47.096,28.44c-1.065,.395-2.386,1.069-3.205,1.783l.645-1.783-.645-1.783c.819,.714,2.14,1.388,3.205,1.783Z" fill="#231f20"/>
  </g>
  <g>
    <line x1="28.692" y1="58.264" x2="44.833" y2="58.264" fill="none" stroke="#231f20" stroke-miterlimit="10" stroke-width=".75"/>
    <g>
      <circle cx="28.772" cy="58.264" r="1.41" fill="#fff"/>
      <path d="M28.772,59.862c.881,0,1.597-.717,1.597-1.597s-.717-1.597-1.597-1.597-1.597,.717-1.597,1.597,.717,1.597,1.597,1.597-.881,0,0,0Zm0-2.82c.674,0,1.222,.548,1.222,1.222s-.548,1.222-1.222,1.222-1.222-.548-1.222-1.222,.548-1.222,1.222-1.222-.674,0,0,0Z" fill="#231f20"/>
    </g>
    <path d="M47.096,58.264c-1.065,.395-2.386,1.069-3.205,1.783l.645-1.783-.645-1.783c.819,.714,2.14,1.388,3.205,1.783Z" fill="#231f20"/>
  </g>
  <g>
    <line x1="28.692" y1="125.056" x2="44.833" y2="125.056" fill="none" stroke="#231f20" stroke-miterlimit="10" stroke-width=".75"/>
    <g>
      <circle cx="28.772" cy="125.056" r="1.41" fill="#fff"/>
      <path d="M28.772,126.654c.881,0,1.597-.717,1.597-1.597s-.717-1.597-1.597-1.597-1.597,.717-1.597,1.597,.717,1.597,1.597,1.597-.881,0,0,0Zm0-2.82c.674,0,1.222,.548,1.222,1.222s-.548,1.222-1.222,1.222-1.222-.548-1.222-1.222,.548-1.222,1.222-1.222-.674,0,0,0Z" fill="#231f20"/>
    </g>
    <path d="M47.096,125.056c-1.065,.395-2.386,1.069-3.205,1.783l.645-1.783-.645-1.783c.819,.714,2.14,1.388,3.205,1.783Z" fill="#231f20"/>
  </g>
  <g>
    <polyline points="71.459 29.44 80.463 29.44 101.804 59.912" fill="none" stroke="#231f20" stroke-miterlimit="10" stroke-width=".75"/>
    <path d="M103.102,61.766c-.935-.646-2.245-1.341-3.299-1.602l1.831-.495,1.091-1.551c-.115,1.081,.091,2.55,.378,3.648Z" fill="#231f20"/>
  </g>
  <g>
    <polyline points="71.459 58.264 80.463 58.264 95.933 66.228" fill="none" stroke="#231f20" stroke-miterlimit="10" stroke-width=".75"/>
    <path d="M97.945,67.264c-1.128-.136-2.611-.141-3.666,.119l1.39-1.29,.243-1.881c.401,1.01,1.268,2.214,2.034,3.052Z" fill="#231f20"/>
  </g>
  <g>
    <polyline points="71.459 125.056 80.463 125.056 100.646 94.247" fill="none" stroke="#231f20" stroke-miterlimit="10" stroke-width=".75"/>
    <path d="M101.886,92.354c-.253,1.107-.413,2.582-.265,3.658l-1.138-1.517-1.845-.438c1.046-.294,2.334-1.03,3.248-1.704Z" fill="#231f20"/>
  </g>
  <g>
    <polyline points="114.068 41.621 114.068 48.441 114.068 56.001" fill="none" stroke="#231f20" stroke-miterlimit="10" stroke-width=".75"/>
    <path d="M114.068,58.264c-.395-1.065-1.069-2.386-1.783-3.205l1.783,.645,1.783-.645c-.714,.819-1.388,2.14-1.783,3.205Z" fill="#231f20"/>
  </g>
  <g>
    <polyline points="133.009 76.991 143.631 76.991 156.288 77.173" fill="none" stroke="#231f20" stroke-miterlimit="10" stroke-width=".75"/>
    <path d="M158.551,77.206c-1.07,.38-2.401,1.035-3.231,1.737l.671-1.774-.619-1.792c.809,.726,2.12,1.419,3.179,1.829Z" fill="#231f20"/>
  </g>
  <g>
    <polyline points="196.005 76.884 206.627 76.884 219.284 77.066" fill="none" stroke="#231f20" stroke-miterlimit="10" stroke-width=".75"/>
    <path d="M221.547,77.098c-1.07,.38-2.401,1.035-3.231,1.737l.671-1.774-.619-1.792c.809,.726,2.12,1.419,3.179,1.829Z" fill="#231f20"/>
  </g>
  <g>
    <path d="M16.977,79.403c0-.29,.064-.546,.193-.769s.308-.396,.537-.518,.486-.183,.77-.183c.267,0,.512,.064,.736,.193s.404,.309,.537,.542c.134,.233,.201,.491,.201,.774,0,.29-.062,.546-.188,.769s-.3,.395-.524,.515-.48,.181-.768,.181c-.283,0-.538-.064-.766-.193-.229-.128-.406-.308-.535-.537s-.193-.487-.193-.774Z" fill="#231f20"/>
    <path d="M16.977,83.837c0-.29,.064-.546,.193-.769s.308-.396,.537-.518,.486-.183,.77-.183c.267,0,.512,.064,.736,.193s.404,.309,.537,.542c.134,.233,.201,.491,.201,.774,0,.29-.062,.546-.188,.769s-.3,.395-.524,.515-.48,.181-.768,.181c-.283,0-.538-.064-.766-.193-.229-.128-.406-.308-.535-.537s-.193-.487-.193-.774Z" fill="#231f20"/>
    <path d="M16.977,88.27c0-.29,.064-.546,.193-.769s.308-.396,.537-.518,.486-.183,.77-.183c.267,0,.512,.064,.736,.193s.404,.309,.537,.542c.134,.233,.201,.491,.201,.774,0,.29-.062,.546-.188,.769s-.3,.395-.524,.515-.48,.181-.768,.181c-.283,0-.538-.064-.766-.193-.229-.128-.406-.308-.535-.537s-.193-.487-.193-.774Z" fill="#231f20"/>
    <path d="M16.977,92.704c0-.29,.064-.546,.193-.769s.308-.396,.537-.518,.486-.183,.77-.183c.267,0,.512,.064,.736,.193s.404,.309,.537,.542c.134,.233,.201,.491,.201,.774,0,.29-.062,.546-.188,.769s-.3,.395-.524,.515-.48,.181-.768,.181c-.283,0-.538-.064-.766-.193-.229-.128-.406-.308-.535-.537s-.193-.487-.193-.774Z" fill="#231f20"/>
    <path d="M16.977,97.138c0-.29,.064-.546,.193-.769s.308-.396,.537-.518,.486-.183,.77-.183c.267,0,.512,.064,.736,.193s.404,.309,.537,.542c.134,.233,.201,.491,.201,.774,0,.29-.062,.546-.188,.769s-.3,.395-.524,.515-.48,.181-.768,.181c-.283,0-.538-.064-.766-.193-.229-.128-.406-.308-.535-.537s-.193-.487-.193-.774Z" fill="#231f20"/>
    <path d="M16.977,101.571c0-.29,.064-.546,.193-.769s.308-.396,.537-.518,.486-.183,.77-.183c.267,0,.512,.064,.736,.193s.404,.309,.537,.542c.134,.233,.201,.491,.201,.774,0,.29-.062,.546-.188,.769s-.3,.395-.524,.515-.48,.181-.768,.181c-.283,0-.538-.064-.766-.193-.229-.128-.406-.308-.535-.537s-.193-.487-.193-.774Z" fill="#231f20"/>
  </g>
  <g>
    <path d="M57.696,79.403c0-.29,.064-.546,.193-.769,.128-.223,.307-.396,.537-.518,.229-.122,.485-.183,.769-.183,.267,0,.513,.064,.737,.193s.404,.309,.537,.542,.2,.491,.2,.774c0,.29-.062,.546-.188,.769-.125,.223-.3,.395-.524,.515s-.479,.181-.767,.181c-.283,0-.539-.064-.767-.193s-.406-.308-.534-.537c-.129-.229-.193-.487-.193-.774Z" fill="#231f20"/>
    <path d="M57.696,83.837c0-.29,.064-.546,.193-.769,.128-.223,.307-.396,.537-.518,.229-.122,.485-.183,.769-.183,.267,0,.513,.064,.737,.193s.404,.309,.537,.542,.2,.491,.2,.774c0,.29-.062,.546-.188,.769-.125,.223-.3,.395-.524,.515s-.479,.181-.767,.181c-.283,0-.539-.064-.767-.193s-.406-.308-.534-.537c-.129-.229-.193-.487-.193-.774Z" fill="#231f20"/>
    <path d="M57.696,88.27c0-.29,.064-.546,.193-.769,.128-.223,.307-.396,.537-.518,.229-.122,.485-.183,.769-.183,.267,0,.513,.064,.737,.193s.404,.309,.537,.542,.2,.491,.2,.774c0,.29-.062,.546-.188,.769-.125,.223-.3,.395-.524,.515s-.479,.181-.767,.181c-.283,0-.539-.064-.767-.193s-.406-.308-.534-.537c-.129-.229-.193-.487-.193-.774Z" fill="#231f20"/>
    <path d="M57.696,92.704c0-.29,.064-.546,.193-.769,.128-.223,.307-.396,.537-.518,.229-.122,.485-.183,.769-.183,.267,0,.513,.064,.737,.193s.404,.309,.537,.542,.2,.491,.2,.774c0,.29-.062,.546-.188,.769-.125,.223-.3,.395-.524,.515s-.479,.181-.767,.181c-.283,0-.539-.064-.767-.193s-.406-.308-.534-.537c-.129-.229-.193-.487-.193-.774Z" fill="#231f20"/>
    <path d="M57.696,97.138c0-.29,.064-.546,.193-.769,.128-.223,.307-.396,.537-.518,.229-.122,.485-.183,.769-.183,.267,0,.513,.064,.737,.193s.404,.309,.537,.542,.2,.491,.2,.774c0,.29-.062,.546-.188,.769-.125,.223-.3,.395-.524,.515s-.479,.181-.767,.181c-.283,0-.539-.064-.767-.193s-.406-.308-.534-.537c-.129-.229-.193-.487-.193-.774Z" fill="#231f20"/>
    <path d="M57.696,101.571c0-.29,.064-.546,.193-.769,.128-.223,.307-.396,.537-.518,.229-.122,.485-.183,.769-.183,.267,0,.513,.064,.737,.193s.404,.309,.537,.542,.2,.491,.2,.774c0,.29-.062,.546-.188,.769-.125,.223-.3,.395-.524,.515s-.479,.181-.767,.181c-.283,0-.539-.064-.767-.193s-.406-.308-.534-.537c-.129-.229-.193-.487-.193-.774Z" fill="#231f20"/>
  </g>
  <g>
    <path d="M52.489,142.613c.486,0,.871,.056,1.156,.167,.284,.111,.488,.303,.611,.576s.184,.658,.184,1.156-.06,.885-.18,1.161-.316,.467-.589,.576c-.272,.109-.638,.163-1.095,.163-.246,0-.482-.005-.707-.018-.227-.012-.434-.027-.621-.048-.188-.021-.347-.042-.479-.066s-.225-.044-.277-.062l.027-.475h1.96c.293-.006,.526-.042,.698-.11,.174-.067,.297-.19,.37-.369s.11-.43,.11-.752c0-.328-.037-.58-.11-.756-.073-.176-.196-.299-.37-.37-.172-.07-.405-.105-.698-.105-.48,0-.896,.003-1.244,.009s-.585,.015-.708,.026l-.123-.624c.223-.023,.432-.041,.625-.053s.404-.019,.633-.022,.504-.004,.826-.004Zm-1.311,.079v6.066h-.773v-6.066h.773Z" fill="#231f20"/>
    <path d="M57.272,144.371c.492,0,.886,.073,1.182,.22,.297,.146,.509,.386,.638,.717s.193,.769,.193,1.314-.064,.983-.193,1.314c-.129,.332-.341,.57-.638,.717-.296,.146-.689,.22-1.182,.22-.487,0-.879-.073-1.174-.22-.297-.146-.51-.385-.643-.717-.132-.331-.197-.769-.197-1.314s.065-.983,.197-1.314c.133-.331,.346-.57,.643-.717,.295-.146,.687-.22,1.174-.22Zm0,.633c-.312,0-.557,.048-.734,.146-.18,.097-.307,.262-.383,.497s-.114,.56-.114,.976,.038,.741,.114,.976,.203,.4,.383,.497c.178,.097,.423,.145,.734,.145s.557-.048,.738-.145c.182-.097,.311-.263,.387-.497s.114-.56,.114-.976-.038-.742-.114-.976-.205-.4-.387-.497c-.182-.097-.428-.146-.738-.146Z" fill="#231f20"/>
    <path d="M61.035,142.657c.152,0,.229,.076,.229,.229v.501c0,.153-.076,.229-.229,.229h-.352c-.153,0-.229-.076-.229-.229v-.501c0-.152,.076-.229,.229-.229h.352Zm.193,1.82v4.282h-.739v-4.282h.739Z" fill="#231f20"/>
    <path d="M64.059,144.371c.281,0,.56,.037,.835,.11s.539,.186,.792,.338l-.045,.466c-.275-.082-.519-.146-.729-.194-.211-.046-.437-.07-.677-.07-.246,0-.444,.043-.594,.128s-.26,.242-.33,.47-.105,.554-.105,.976,.034,.75,.102,.984,.174,.399,.32,.493,.334,.141,.563,.141c.17,0,.323-.022,.462-.066,.137-.044,.283-.116,.439-.216,.154-.1,.338-.226,.549-.378l.07,.528c-.234,.217-.501,.401-.8,.554s-.621,.229-.968,.229c-.539,0-.924-.19-1.155-.571s-.348-.944-.348-1.688c0-.557,.059-.998,.176-1.323,.117-.326,.296-.559,.536-.699s.543-.211,.906-.211Zm2.232-1.767v6.154h-.58l-.088-.748-.079-.062v-2.937l.053-.132c-.023-.164-.038-.322-.044-.475s-.009-.313-.009-.483v-1.319h.747Z" fill="#231f20"/>
    <path d="M69.096,144.371c.188,0,.387,.006,.598,.018s.421,.026,.629,.044,.4,.041,.576,.07l-.062,.545c-.271-.011-.541-.022-.813-.031s-.543-.013-.812-.013c-.265-.005-.473,0-.625,.018s-.262,.065-.33,.141c-.066,.076-.101,.205-.101,.387,0,.223,.053,.369,.158,.439s.261,.129,.466,.176l1.248,.281c.34,.083,.591,.208,.752,.378,.162,.17,.242,.437,.242,.8,0,.352-.066,.616-.197,.792-.133,.176-.334,.293-.604,.352s-.611,.088-1.027,.088c-.153,0-.381-.006-.682-.018-.303-.012-.635-.047-.998-.105l.053-.545c.141,.006,.29,.013,.448,.022s.323,.013,.497,.013h.531c.322,0,.574-.015,.756-.044s.311-.086,.387-.172c.076-.084,.115-.212,.115-.382,0-.211-.062-.352-.186-.422s-.287-.129-.492-.176l-1.23-.281c-.234-.059-.422-.136-.562-.233-.141-.097-.244-.223-.309-.378s-.096-.35-.096-.584c0-.334,.059-.586,.176-.756,.117-.17,.299-.284,.545-.343s.562-.085,.949-.079Z" fill="#231f20"/>
  </g>
  <g>
    <path d="M160.898,137.149c.282,0,.566,.002,.854,.005s.571,.007,.853,.013,.551,.021,.809,.044l-.044,.598h-2.277c-.205,0-.354,.046-.448,.137s-.141,.239-.141,.444v4.835h-.773v-4.984c0-.347,.105-.614,.316-.805s.495-.286,.853-.286Zm-1.02,2.646h3.156v.624h-3.156v-.624Z" fill="#231f20"/>
    <path d="M166.077,138.837c.492,0,.887,.073,1.183,.22s.509,.386,.638,.717,.193,.769,.193,1.314-.064,.982-.193,1.313c-.129,.332-.342,.57-.638,.717s-.69,.22-1.183,.22c-.486,0-.878-.073-1.174-.22s-.51-.385-.642-.717c-.132-.331-.198-.769-.198-1.313s.066-.983,.198-1.314,.346-.57,.642-.717,.688-.22,1.174-.22Zm0,.633c-.311,0-.556,.048-.734,.146-.179,.097-.306,.262-.382,.496s-.114,.56-.114,.977,.038,.741,.114,.976,.203,.399,.382,.497c.179,.097,.424,.145,.734,.145s.557-.048,.738-.145c.182-.098,.311-.263,.387-.497s.115-.56,.115-.976-.039-.742-.115-.977-.205-.399-.387-.496c-.182-.098-.428-.146-.738-.146Z" fill="#231f20"/>
    <path d="M169.892,138.943l.062,.817,.053,.132v3.332h-.747v-4.281h.633Zm1.97-.105c.773,0,1.16,.393,1.16,1.178v3.209h-.747v-2.998c0-.287-.047-.484-.141-.593s-.252-.163-.475-.163c-.264,0-.527,.064-.791,.193-.265,.129-.578,.305-.941,.527l-.035-.536c.334-.258,.665-.459,.994-.603,.328-.144,.653-.215,.976-.215Z" fill="#231f20"/>
    <path d="M176.197,138.837c.129,0,.272,.006,.431,.018s.32,.032,.487,.062,.321,.07,.462,.123l-.097,.483c-.193-.018-.397-.031-.611-.04s-.396-.013-.549-.013c-.341,0-.61,.047-.81,.141s-.343,.258-.431,.492-.132,.56-.132,.977,.044,.742,.132,.979,.231,.403,.431,.497,.469,.141,.81,.141c.088,0,.202-.003,.343-.009s.291-.015,.452-.026,.315-.029,.462-.053l.079,.501c-.217,.076-.453,.132-.708,.167s-.508,.053-.76,.053c-.493,0-.889-.073-1.188-.22s-.514-.384-.646-.712c-.132-.328-.197-.768-.197-1.318s.067-.991,.202-1.319,.352-.564,.65-.708,.694-.215,1.188-.215Z" fill="#231f20"/>
    <path d="M181.102,138.943v.589h-2.884v-.545l.845-.044h2.039Zm-1.362-1.267v4.37c0,.205,.044,.352,.132,.439s.237,.132,.448,.132h.65l.088,.571c-.094,.023-.202,.044-.325,.062s-.243,.031-.36,.04-.211,.013-.281,.013c-.357,0-.63-.1-.817-.299s-.281-.486-.281-.861v-4.467h.747Z" fill="#231f20"/>
    <path d="M182.597,137.122c.152,0,.229,.076,.229,.229v.501c0,.153-.076,.229-.229,.229h-.352c-.153,0-.229-.075-.229-.229v-.501c0-.152,.076-.229,.229-.229h.352Zm.193,1.82v4.281h-.739v-4.281h.739Z" fill="#231f20"/>
    <path d="M186.009,138.837c.492,0,.886,.073,1.183,.22,.296,.146,.508,.386,.637,.717s.193,.769,.193,1.314-.064,.982-.193,1.313c-.129,.332-.341,.57-.637,.717-.297,.146-.69,.22-1.183,.22-.487,0-.878-.073-1.174-.22s-.51-.385-.643-.717c-.132-.331-.197-.769-.197-1.313s.065-.983,.197-1.314c.133-.331,.347-.57,.643-.717s.687-.22,1.174-.22Zm0,.633c-.312,0-.556,.048-.734,.146-.179,.097-.307,.262-.383,.496s-.114,.56-.114,.977,.038,.741,.114,.976,.204,.399,.383,.497c.179,.097,.423,.145,.734,.145s.557-.048,.738-.145c.182-.098,.311-.263,.387-.497s.114-.56,.114-.976-.038-.742-.114-.977-.205-.399-.387-.496c-.182-.098-.428-.146-.738-.146Z" fill="#231f20"/>
    <path d="M189.824,138.943l.062,.817,.053,.132v3.332h-.748v-4.281h.634Zm1.969-.105c.774,0,1.161,.393,1.161,1.178v3.209h-.747v-2.998c0-.287-.048-.484-.142-.593s-.252-.163-.475-.163c-.264,0-.527,.064-.791,.193s-.577,.305-.94,.527l-.035-.536c.334-.258,.665-.459,.993-.603s.653-.215,.976-.215Z" fill="#231f20"/>
    <path d="M156.085,147.851c.282,0,.561,.036,.836,.109s.539,.187,.791,.339l-.044,.466c-.275-.082-.519-.146-.729-.193s-.437-.07-.677-.07c-.247,0-.444,.043-.594,.128s-.26,.241-.33,.47-.105,.554-.105,.977,.034,.75,.102,.984,.174,.398,.32,.492,.334,.141,.563,.141c.17,0,.323-.021,.461-.065s.284-.116,.439-.216,.339-.226,.55-.378l.07,.527c-.234,.217-.501,.401-.8,.554s-.621,.229-.968,.229c-.539,0-.924-.19-1.155-.571-.232-.381-.348-.943-.348-1.688,0-.558,.059-.998,.176-1.323,.117-.326,.296-.559,.536-.699s.542-.211,.905-.211Zm2.233-1.768v6.154h-.58l-.088-.747-.079-.062v-2.937l.053-.132c-.023-.164-.038-.322-.044-.475s-.009-.313-.009-.483v-1.319h.747Z" fill="#231f20"/>
    <path d="M160.244,146.171l-.053,1.891h-.52l-.044-1.891h.616Z" fill="#231f20"/>
    <path d="M164.676,149.6l-.009,.563-2.049,.009c-.205,.006-.349,.06-.431,.162s-.123,.245-.123,.427v.272c0,.223,.053,.386,.158,.488s.275,.153,.51,.153c.164,0,.35-.03,.559-.092,.208-.062,.417-.157,.628-.286s.404-.293,.58-.492v.554c-.064,.082-.156,.178-.276,.286s-.264,.214-.431,.316-.352,.188-.554,.255c-.203,.067-.421,.101-.655,.101-.252,0-.475-.045-.668-.136s-.345-.226-.453-.404-.163-.397-.163-.655v-.466c0-.334,.104-.594,.312-.778s.5-.277,.875-.277h2.189Zm-1.117-1.749c.316,0,.585,.042,.805,.127s.386,.228,.497,.427,.167,.472,.167,.817v3.016h-.59l-.114-.932-.053-.097v-1.987c0-.264-.06-.452-.18-.566-.12-.115-.351-.172-.69-.172-.223,0-.503,.012-.84,.035s-.669,.05-.998,.079l-.07-.554c.199-.035,.418-.067,.655-.097s.479-.053,.726-.07,.475-.026,.686-.026Z" fill="#231f20"/>
    <path d="M168.192,147.851c.129,0,.272,.006,.431,.018s.32,.032,.487,.062,.321,.07,.462,.123l-.097,.483c-.193-.018-.397-.031-.611-.04s-.396-.013-.549-.013c-.341,0-.61,.047-.81,.141s-.343,.258-.431,.492-.132,.56-.132,.977,.044,.742,.132,.979,.231,.403,.431,.497,.469,.141,.81,.141c.088,0,.202-.003,.343-.009s.291-.015,.452-.026,.315-.029,.462-.053l.079,.501c-.217,.076-.453,.132-.708,.167s-.508,.053-.76,.053c-.493,0-.889-.073-1.188-.22s-.514-.384-.646-.712c-.132-.328-.197-.768-.197-1.318s.067-.991,.202-1.319,.352-.564,.65-.708,.694-.215,1.188-.215Z" fill="#231f20"/>
    <path d="M173.097,147.956v.589h-2.884v-.545l.845-.044h2.039Zm-1.362-1.267v4.37c0,.205,.044,.352,.132,.439s.237,.132,.448,.132h.65l.088,.571c-.094,.023-.202,.044-.325,.062s-.243,.031-.36,.04-.211,.013-.281,.013c-.357,0-.63-.1-.817-.299s-.281-.486-.281-.861v-4.467h.747Z" fill="#231f20"/>
    <path d="M174.593,146.136c.152,0,.229,.076,.229,.229v.501c0,.153-.076,.229-.229,.229h-.352c-.153,0-.229-.075-.229-.229v-.501c0-.152,.076-.229,.229-.229h.352Zm.193,1.82v4.281h-.739v-4.281h.739Z" fill="#231f20"/>
    <path d="M179.999,147.956l-1.564,4.097c-.023,.059-.058,.104-.102,.137s-.098,.048-.162,.048h-.678c-.059,0-.111-.016-.158-.048s-.082-.078-.105-.137l-1.564-4.097h.8l1.055,2.998c.047,.123,.091,.249,.132,.378s.082,.252,.124,.369h.114c.047-.123,.092-.247,.136-.374,.044-.126,.087-.25,.128-.373l1.055-2.998h.791Z" fill="#231f20"/>
    <path d="M183.947,149.6l-.009,.563-2.049,.009c-.205,.006-.349,.06-.431,.162s-.123,.245-.123,.427v.272c0,.223,.053,.386,.158,.488s.275,.153,.51,.153c.164,0,.351-.03,.559-.092s.418-.157,.629-.286,.404-.293,.58-.492v.554c-.064,.082-.157,.178-.277,.286s-.264,.214-.431,.316-.352,.188-.554,.255-.421,.101-.655,.101c-.252,0-.475-.045-.668-.136s-.345-.226-.453-.404-.162-.397-.162-.655v-.466c0-.334,.104-.594,.312-.778,.207-.185,.499-.277,.874-.277h2.189Zm-1.116-1.749c.316,0,.584,.042,.804,.127,.221,.085,.386,.228,.497,.427s.167,.472,.167,.817v3.016h-.589l-.114-.932-.053-.097v-1.987c0-.264-.061-.452-.181-.566-.12-.115-.35-.172-.689-.172-.224,0-.503,.012-.84,.035s-.67,.05-.998,.079l-.07-.554c.199-.035,.418-.067,.655-.097s.479-.053,.725-.07c.247-.018,.476-.026,.687-.026Z" fill="#231f20"/>
    <path d="M188.07,147.956v.589h-2.884v-.545l.845-.044h2.039Zm-1.362-1.267v4.37c0,.205,.044,.352,.132,.439s.237,.132,.448,.132h.65l.088,.571c-.094,.023-.202,.044-.325,.062s-.243,.031-.36,.04-.211,.013-.281,.013c-.357,0-.63-.1-.817-.299s-.281-.486-.281-.861v-4.467h.747Z" fill="#231f20"/>
    <path d="M189.565,146.136c.152,0,.229,.076,.229,.229v.501c0,.153-.076,.229-.229,.229h-.352c-.153,0-.229-.075-.229-.229v-.501c0-.152,.076-.229,.229-.229h.352Zm.193,1.82v4.281h-.739v-4.281h.739Z" fill="#231f20"/>
    <path d="M192.976,147.851c.492,0,.886,.073,1.183,.22,.296,.146,.508,.386,.637,.717s.193,.769,.193,1.314-.064,.982-.193,1.313c-.129,.332-.341,.57-.637,.717-.297,.146-.69,.22-1.183,.22-.487,0-.878-.073-1.174-.22s-.51-.385-.643-.717c-.132-.331-.197-.769-.197-1.313s.065-.983,.197-1.314c.133-.331,.347-.57,.643-.717s.687-.22,1.174-.22Zm0,.633c-.312,0-.556,.048-.734,.146-.179,.097-.307,.262-.383,.496s-.114,.56-.114,.977,.038,.741,.114,.976,.204,.399,.383,.497c.179,.097,.423,.145,.734,.145s.557-.048,.738-.145c.182-.098,.311-.263,.387-.497s.114-.56,.114-.976-.038-.742-.114-.977-.205-.399-.387-.496c-.182-.098-.428-.146-.738-.146Z" fill="#231f20"/>
    <path d="M196.792,147.956l.062,.817,.053,.132v3.332h-.748v-4.281h.634Zm1.969-.105c.774,0,1.161,.393,1.161,1.178v3.209h-.747v-2.998c0-.287-.048-.484-.142-.593s-.252-.163-.475-.163c-.264,0-.527,.064-.791,.193s-.577,.305-.94,.527l-.035-.536c.334-.258,.665-.459,.993-.603s.653-.215,.976-.215Z" fill="#231f20"/>
  </g>
  <g>
    <path d="M103.496,142.472c.287,.006,.583,.021,.888,.044s.609,.067,.914,.132l-.053,.562c-.252-.012-.53-.022-.835-.031s-.598-.013-.879-.013c-.218,0-.403,.007-.559,.022s-.283,.05-.383,.105c-.1,.056-.171,.147-.215,.273s-.066,.3-.066,.523c0,.334,.061,.567,.181,.699s.314,.23,.584,.295l1.231,.308c.469,.111,.79,.306,.963,.584s.259,.652,.259,1.121c0,.352-.039,.636-.118,.853s-.201,.382-.365,.497-.375,.193-.633,.237-.562,.066-.914,.066c-.2,0-.459-.009-.778-.026s-.688-.064-1.104-.141l.053-.571c.346,.012,.624,.022,.835,.031s.393,.013,.545,.013h.476c.311,0,.555-.023,.733-.07s.305-.141,.378-.282,.11-.349,.11-.624c0-.234-.026-.416-.079-.545s-.137-.228-.251-.295-.259-.122-.435-.163l-1.258-.316c-.439-.111-.748-.305-.927-.58-.18-.275-.269-.645-.269-1.108,0-.352,.039-.634,.118-.849,.079-.214,.199-.375,.361-.483,.161-.108,.364-.18,.61-.215s.539-.053,.88-.053Z" fill="#231f20"/>
    <path d="M108.471,144.257c.492,0,.887,.073,1.183,.22s.509,.386,.638,.717,.193,.769,.193,1.314-.064,.983-.193,1.314c-.129,.332-.342,.57-.638,.717s-.69,.22-1.183,.22c-.486,0-.878-.073-1.174-.22s-.51-.385-.642-.717c-.132-.331-.198-.769-.198-1.314s.066-.983,.198-1.314,.346-.57,.642-.717,.688-.22,1.174-.22Zm0,.633c-.311,0-.556,.048-.734,.146-.179,.097-.306,.262-.382,.497s-.114,.56-.114,.976,.038,.741,.114,.976,.203,.4,.382,.497c.179,.097,.424,.145,.734,.145s.557-.048,.738-.145c.182-.097,.311-.263,.387-.497s.115-.56,.115-.976-.039-.742-.115-.976-.205-.4-.387-.497c-.182-.097-.428-.146-.738-.146Z" fill="#231f20"/>
    <path d="M112.269,144.362l.053,.818,.079,.132v3.332h-.747v-4.282h.615Zm1.794-.105c.363,0,.642,.098,.835,.294,.193,.197,.293,.491,.299,.884v3.209h-.721v-2.998c0-.275-.056-.47-.167-.584-.111-.115-.278-.172-.501-.172-.146,0-.289,.024-.427,.07-.138,.047-.29,.124-.457,.229s-.371,.246-.611,.422l-.053-.527c.311-.276,.612-.482,.906-.62,.293-.138,.592-.207,.896-.207Zm2.805,0c.369,0,.651,.1,.849,.299,.196,.199,.294,.493,.294,.879v3.209h-.738v-2.998c-.006-.264-.059-.456-.158-.576s-.27-.181-.51-.181c-.152,0-.298,.025-.436,.075-.138,.05-.289,.128-.453,.233s-.363,.243-.598,.413l-.044-.527c.311-.276,.612-.482,.905-.62,.294-.138,.59-.207,.889-.207Z" fill="#231f20"/>
    <path d="M119.971,144.362l.053,.818,.079,.132v3.332h-.747v-4.282h.615Zm1.794-.105c.363,0,.642,.098,.835,.294,.193,.197,.293,.491,.299,.884v3.209h-.721v-2.998c0-.275-.056-.47-.167-.584-.111-.115-.278-.172-.501-.172-.146,0-.289,.024-.427,.07-.138,.047-.29,.124-.457,.229s-.371,.246-.611,.422l-.053-.527c.311-.276,.612-.482,.906-.62,.293-.138,.592-.207,.896-.207Zm2.805,0c.369,0,.651,.1,.849,.299,.196,.199,.294,.493,.294,.879v3.209h-.738v-2.998c-.006-.264-.059-.456-.158-.576s-.27-.181-.51-.181c-.152,0-.298,.025-.436,.075-.138,.05-.289,.128-.453,.233s-.363,.243-.598,.413l-.044-.527c.311-.276,.612-.482,.905-.62,.294-.138,.59-.207,.889-.207Z" fill="#231f20"/>
    <path d="M128.816,144.257c.645,0,1.112,.117,1.402,.352s.436,.583,.436,1.046c.006,.381-.073,.679-.237,.893s-.426,.321-.783,.321h-2.496v-.581h2.303c.193,0,.319-.066,.378-.198s.088-.277,.088-.435c-.006-.275-.088-.472-.246-.589s-.428-.176-.809-.176c-.311,0-.556,.046-.734,.137s-.305,.249-.378,.475-.109,.541-.109,.945c0,.458,.045,.806,.136,1.046,.091,.241,.236,.404,.436,.493,.199,.088,.463,.132,.791,.132,.229,0,.479-.01,.752-.031s.518-.045,.734-.075l.079,.501c-.135,.053-.301,.097-.497,.132s-.398,.062-.606,.079-.395,.026-.559,.026c-.492,0-.888-.075-1.187-.224s-.518-.39-.655-.721c-.138-.331-.207-.769-.207-1.314,0-.563,.069-1.007,.207-1.332,.138-.326,.352-.557,.642-.695s.664-.207,1.121-.207Z" fill="#231f20"/>
  </g>
  <g>
    <path d="M220.458,137.272l-1.838,5.847c-.023,.059-.062,.11-.114,.154s-.114,.066-.185,.066h-.782c-.077,0-.142-.022-.194-.066s-.088-.095-.105-.154l-1.837-5.847h.8l1.434,4.809c.029,.111,.06,.221,.092,.33,.032,.109,.061,.219,.084,.33h.237c.029-.111,.059-.223,.088-.334,.029-.111,.062-.223,.097-.334l1.424-4.8h.801Z" fill="#231f20"/>
    <path d="M224.185,140.701l-.009,.563-2.049,.009c-.205,.006-.349,.06-.431,.163s-.123,.245-.123,.426v.272c0,.223,.053,.386,.158,.488s.275,.154,.51,.154c.164,0,.35-.031,.559-.092,.208-.062,.417-.157,.628-.286,.211-.129,.404-.293,.58-.492v.554c-.064,.083-.156,.178-.276,.286s-.264,.214-.431,.316-.352,.188-.554,.255c-.203,.067-.421,.101-.655,.101-.252,0-.475-.045-.668-.136s-.345-.226-.453-.404-.163-.397-.163-.655v-.466c0-.334,.104-.593,.312-.778,.208-.185,.5-.277,.875-.277h2.189Zm-1.117-1.75c.316,0,.585,.042,.805,.127s.386,.227,.497,.426c.111,.2,.167,.472,.167,.818v3.016h-.59l-.114-.932-.053-.097v-1.987c0-.264-.06-.453-.18-.567-.12-.115-.351-.172-.69-.172-.223,0-.503,.012-.84,.035-.337,.024-.669,.05-.998,.08l-.07-.554c.199-.035,.418-.067,.655-.097s.479-.053,.726-.07,.475-.026,.686-.026Z" fill="#231f20"/>
    <path d="M226.63,137.184l-.009,4.976c0,.188,.051,.33,.153,.426,.103,.097,.248,.146,.436,.146h.413l.088,.571c-.053,.023-.127,.044-.224,.062s-.197,.031-.3,.04-.188,.013-.259,.013c-.316,0-.57-.094-.761-.281s-.286-.457-.286-.809v-5.143h.748Z" fill="#231f20"/>
    <path d="M230.243,138.951c.645,0,1.111,.117,1.402,.352,.29,.234,.435,.583,.435,1.046,.006,.381-.073,.679-.237,.893s-.425,.321-.782,.321h-2.497v-.581h2.304c.193,0,.319-.066,.378-.198s.088-.277,.088-.435c-.006-.275-.088-.472-.246-.589s-.428-.176-.809-.176c-.312,0-.556,.046-.734,.137s-.305,.249-.378,.475-.11,.541-.11,.945c0,.458,.046,.806,.137,1.046,.091,.241,.235,.404,.435,.493,.199,.088,.463,.132,.792,.132,.229,0,.479-.01,.751-.031s.518-.045,.734-.075l.079,.501c-.135,.053-.3,.097-.496,.132-.197,.035-.399,.062-.607,.079s-.394,.026-.558,.026c-.493,0-.889-.075-1.188-.224s-.518-.39-.655-.721c-.138-.331-.206-.769-.206-1.314,0-.563,.068-1.007,.206-1.332,.138-.326,.353-.557,.643-.695s.663-.207,1.121-.207Z" fill="#231f20"/>
    <path d="M233.926,139.056v3.007c-.006,.27,.044,.46,.149,.572s.281,.167,.527,.167c.24,0,.479-.057,.717-.171,.237-.115,.522-.28,.857-.497l.097,.519c-.335,.264-.658,.463-.972,.598s-.632,.202-.954,.202c-.779,0-1.17-.393-1.17-1.178v-3.218h.748Zm2.919,0v4.282h-.598l-.07-.809-.08-.132v-3.341h.748Z" fill="#231f20"/>
    <path d="M238.798,139.056l.097,.818,.07,.132v3.332h-.748v-4.282h.581Zm2.101-.105l-.088,.703h-.246c-.252,0-.504,.052-.756,.154s-.56,.248-.923,.435l-.062-.466c.316-.258,.634-.46,.954-.607,.319-.146,.628-.22,.927-.22h.193Z" fill="#231f20"/>
    <path d="M213.675,147.965c.281,0,.56,.037,.835,.11s.539,.186,.792,.338l-.044,.466c-.276-.082-.52-.146-.73-.194-.211-.046-.437-.07-.677-.07-.246,0-.444,.043-.594,.128s-.259,.242-.329,.47-.105,.554-.105,.976,.033,.75,.101,.984,.175,.399,.321,.493,.334,.141,.562,.141c.17,0,.324-.022,.462-.066s.284-.116,.439-.216c.155-.1,.338-.226,.55-.378l.07,.528c-.235,.217-.502,.401-.801,.554s-.621,.229-.967,.229c-.539,0-.925-.19-1.156-.571s-.348-.944-.348-1.688c0-.557,.059-.998,.176-1.323,.117-.326,.296-.559,.537-.699,.24-.141,.542-.211,.905-.211Zm2.233-1.767v6.154h-.58l-.088-.748-.08-.062v-2.937l.053-.132c-.023-.164-.038-.322-.044-.475s-.009-.313-.009-.483v-1.319h.748Z" fill="#231f20"/>
    <path d="M219.047,147.965c.645,0,1.111,.117,1.402,.352,.29,.234,.435,.583,.435,1.046,.006,.381-.073,.679-.237,.893s-.425,.321-.782,.321h-2.497v-.581h2.304c.193,0,.319-.066,.378-.198s.088-.277,.088-.435c-.006-.275-.088-.472-.246-.589s-.428-.176-.809-.176c-.312,0-.556,.046-.734,.137s-.305,.249-.378,.475-.11,.541-.11,.945c0,.458,.046,.806,.137,1.046,.091,.241,.235,.404,.435,.493,.199,.088,.463,.132,.792,.132,.229,0,.479-.01,.751-.031s.518-.045,.734-.075l.079,.501c-.135,.053-.3,.097-.496,.132-.197,.035-.399,.062-.607,.079s-.394,.026-.558,.026c-.493,0-.889-.075-1.188-.224s-.518-.39-.655-.721c-.138-.331-.206-.769-.206-1.314,0-.563,.068-1.007,.206-1.332,.138-.326,.353-.557,.643-.695s.663-.207,1.121-.207Z" fill="#231f20"/>
    <path d="M225.394,147.965c.188,0,.387,.006,.598,.018s.421,.026,.629,.044,.4,.041,.576,.07l-.062,.545c-.271-.011-.541-.022-.813-.031s-.544-.013-.813-.013c-.264-.005-.472,0-.624,.018s-.263,.065-.33,.141-.101,.205-.101,.387c0,.223,.053,.369,.158,.439s.261,.129,.466,.176l1.248,.281c.34,.083,.591,.208,.752,.378s.242,.437,.242,.8c0,.352-.066,.616-.198,.792s-.333,.293-.603,.352-.612,.088-1.028,.088c-.152,0-.38-.006-.682-.018s-.634-.047-.998-.105l.053-.545c.141,.006,.291,.013,.449,.022s.323,.013,.496,.013h.532c.322,0,.574-.015,.756-.044s.311-.086,.387-.172c.076-.084,.114-.212,.114-.382,0-.211-.062-.352-.185-.422s-.287-.129-.492-.176l-1.23-.281c-.234-.059-.422-.136-.562-.233-.142-.097-.244-.223-.309-.378s-.097-.35-.097-.584c0-.334,.059-.586,.176-.756,.117-.17,.3-.284,.546-.343s.562-.085,.949-.079Z" fill="#231f20"/>
    <path d="M230.248,147.965c.492,0,.886,.073,1.183,.22,.296,.146,.508,.386,.637,.717s.193,.769,.193,1.314-.064,.983-.193,1.314c-.129,.332-.341,.57-.637,.717-.297,.146-.69,.22-1.183,.22-.487,0-.878-.073-1.174-.22s-.51-.385-.643-.717c-.132-.331-.197-.769-.197-1.314s.065-.983,.197-1.314c.133-.331,.347-.57,.643-.717s.687-.22,1.174-.22Zm0,.633c-.312,0-.556,.048-.734,.146-.179,.097-.307,.262-.383,.497s-.114,.56-.114,.976,.038,.741,.114,.976,.204,.4,.383,.497c.179,.097,.423,.145,.734,.145s.557-.048,.738-.145c.182-.097,.311-.263,.387-.497s.114-.56,.114-.976-.038-.742-.114-.976-.205-.4-.387-.497c-.182-.097-.428-.146-.738-.146Z" fill="#231f20"/>
    <path d="M234.01,148.07l.097,.818,.07,.132v3.332h-.748v-4.282h.581Zm2.101-.105l-.088,.703h-.246c-.252,0-.504,.052-.756,.154s-.56,.248-.923,.435l-.062-.466c.316-.258,.634-.46,.954-.607,.319-.146,.628-.22,.927-.22h.193Z" fill="#231f20"/>
    <path d="M239.39,148.07v.589h-2.884v-.545l.845-.044h2.039Zm-1.362-1.266v4.37c0,.206,.044,.352,.132,.439,.088,.088,.237,.132,.448,.132h.65l.088,.571c-.094,.023-.202,.044-.325,.062s-.243,.031-.36,.04-.211,.013-.281,.013c-.357,0-.63-.1-.817-.299s-.281-.486-.281-.862v-4.466h.747Z" fill="#231f20"/>
    <path d="M240.885,146.25c.152,0,.229,.076,.229,.229v.501c0,.153-.076,.229-.229,.229h-.352c-.153,0-.229-.076-.229-.229v-.501c0-.152,.076-.229,.229-.229h.352Zm.193,1.82v4.282h-.739v-4.282h.739Z" fill="#231f20"/>
    <path d="M244.244,147.965c.645,0,1.111,.117,1.402,.352,.29,.234,.435,.583,.435,1.046,.006,.381-.073,.679-.237,.893s-.425,.321-.782,.321h-2.497v-.581h2.304c.193,0,.319-.066,.378-.198s.088-.277,.088-.435c-.006-.275-.088-.472-.246-.589s-.428-.176-.809-.176c-.312,0-.556,.046-.734,.137s-.305,.249-.378,.475-.11,.541-.11,.945c0,.458,.046,.806,.137,1.046,.091,.241,.235,.404,.435,.493,.199,.088,.463,.132,.792,.132,.229,0,.479-.01,.751-.031s.518-.045,.734-.075l.079,.501c-.135,.053-.3,.097-.496,.132-.197,.035-.399,.062-.607,.079s-.394,.026-.558,.026c-.493,0-.889-.075-1.188-.224s-.518-.39-.655-.721c-.138-.331-.206-.769-.206-1.314,0-.563,.068-1.007,.206-1.332,.138-.326,.353-.557,.643-.695s.663-.207,1.121-.207Z" fill="#231f20"/>
  </g>
  <g>
    <path d="M107.251,5.337c.498,0,.893,.046,1.187,.137,.293,.091,.505,.25,.638,.479,.131,.229,.197,.552,.197,.968,0,.434-.08,.765-.242,.993-.16,.229-.423,.36-.786,.396v.035c.451,.041,.767,.199,.944,.475,.18,.276,.269,.657,.269,1.144,0,.416-.064,.738-.193,.967s-.335,.389-.62,.479c-.284,.091-.658,.136-1.121,.136-.346,0-.643,0-.893-.004-.248-.003-.479-.011-.689-.022s-.431-.026-.659-.044l.123-.615c.129,.006,.374,.012,.733,.018,.361,.006,.781,.009,1.262,.009,.322,0,.576-.027,.761-.083s.317-.16,.396-.312c.08-.152,.119-.372,.119-.659,0-.316-.041-.56-.123-.73-.082-.17-.22-.29-.414-.36-.193-.07-.457-.108-.791-.114h-1.951v-.589h1.943c.293-.006,.525-.036,.698-.092s.298-.159,.374-.309,.114-.358,.114-.628c0-.275-.041-.486-.123-.633-.083-.146-.219-.247-.409-.3s-.449-.079-.777-.079h-.774c-.229,0-.429,.002-.603,.005-.172,.003-.317,.01-.435,.021l-.123-.615c.205-.023,.399-.039,.585-.048,.184-.009,.387-.015,.605-.018,.221-.003,.48-.005,.779-.005Zm-1.214,.07v6.066h-.756V5.408h.756Z" fill="#231f20"/>
    <path d="M111.233,5.372c.152,0,.229,.076,.229,.229v.501c0,.153-.076,.229-.229,.229h-.352c-.152,0-.229-.075-.229-.229v-.501c0-.152,.076-.229,.229-.229h.352Zm.193,1.82v4.281h-.738V7.193h.738Z" fill="#231f20"/>
    <path d="M115.971,8.836l-.008,.563-2.049,.009c-.205,.006-.35,.06-.432,.162s-.123,.245-.123,.427v.272c0,.223,.053,.386,.158,.488s.275,.153,.51,.153c.164,0,.351-.03,.559-.092,.209-.062,.418-.157,.629-.286s.404-.293,.58-.492v.554c-.064,.082-.156,.178-.277,.286-.119,.108-.264,.214-.43,.316-.168,.103-.352,.188-.555,.255-.202,.067-.42,.101-.654,.101-.252,0-.475-.045-.668-.136s-.346-.226-.453-.404c-.109-.179-.163-.397-.163-.655v-.466c0-.334,.104-.594,.312-.778s.499-.277,.874-.277h2.189Zm-1.116-1.749c.316,0,.585,.042,.804,.127,.221,.085,.387,.228,.498,.427s.166,.472,.166,.817v3.016h-.589l-.114-.932-.053-.097v-1.987c0-.264-.061-.452-.18-.566-.121-.115-.351-.172-.69-.172-.224,0-.503,.012-.84,.035s-.669,.05-.998,.079l-.07-.554c.199-.035,.418-.067,.655-.097s.479-.053,.725-.07c.247-.018,.476-.026,.687-.026Z" fill="#231f20"/>
    <path d="M118.24,5.372c.152,0,.229,.076,.229,.229v.501c0,.153-.076,.229-.229,.229h-.352c-.153,0-.229-.075-.229-.229v-.501c0-.152,.076-.229,.229-.229h.352Zm.193,1.82v4.281h-.739V7.193h.739Z" fill="#231f20"/>
    <path d="M121.264,7.087c.188,0,.387,.006,.598,.018s.42,.026,.629,.044c.207,.018,.4,.041,.576,.07l-.062,.545c-.27-.012-.541-.022-.812-.031-.273-.009-.544-.013-.813-.013-.265-.006-.472,0-.624,.018s-.263,.064-.33,.141-.102,.205-.102,.387c0,.223,.053,.369,.158,.439s.262,.129,.467,.176l1.248,.281c.34,.083,.59,.209,.752,.379,.161,.17,.242,.437,.242,.8,0,.352-.066,.615-.198,.791s-.333,.293-.603,.352-.612,.088-1.028,.088c-.153,0-.38-.006-.682-.018s-.634-.047-.998-.105l.053-.545c.141,.006,.29,.014,.448,.022s.324,.013,.497,.013h.532c.322,0,.574-.015,.756-.044s.311-.086,.387-.172c.076-.084,.114-.212,.114-.382,0-.211-.062-.352-.185-.422s-.287-.129-.492-.176l-1.23-.281c-.234-.059-.422-.137-.562-.233-.142-.097-.244-.223-.309-.378s-.097-.351-.097-.585c0-.334,.059-.586,.176-.756s.3-.284,.546-.343,.562-.085,.949-.079Z" fill="#231f20"/>
  </g>
  <g>
    <path d="M8.135,137.386l-1.838,5.847c-.023,.059-.062,.11-.114,.154s-.114,.066-.185,.066h-.782c-.076,0-.141-.022-.193-.066s-.088-.095-.105-.154l-1.838-5.847h.801l1.433,4.809c.029,.111,.061,.221,.093,.33,.032,.109,.06,.219,.083,.33h.237c.029-.111,.059-.223,.088-.334,.029-.111,.062-.223,.097-.334l1.425-4.8h.8Z" fill="#231f20"/>
    <path d="M11.862,140.815l-.009,.563-2.049,.009c-.205,.006-.349,.06-.431,.163s-.123,.245-.123,.426v.272c0,.223,.053,.386,.158,.488s.275,.154,.51,.154c.164,0,.351-.031,.559-.092s.418-.157,.629-.286c.211-.129,.404-.293,.58-.492v.554c-.064,.083-.157,.178-.277,.286s-.264,.214-.431,.316-.352,.188-.554,.255-.421,.101-.655,.101c-.252,0-.475-.045-.668-.136s-.345-.226-.453-.404-.162-.397-.162-.655v-.466c0-.334,.104-.593,.312-.778,.207-.185,.499-.277,.874-.277h2.189Zm-1.116-1.75c.316,0,.584,.042,.804,.127,.221,.085,.386,.227,.497,.426,.111,.2,.167,.472,.167,.818v3.016h-.589l-.114-.932-.053-.097v-1.987c0-.264-.061-.453-.181-.567-.12-.115-.35-.172-.689-.172-.224,0-.503,.012-.84,.035-.337,.024-.67,.05-.998,.08l-.07-.554c.199-.035,.418-.067,.655-.097s.479-.053,.725-.07c.247-.018,.476-.026,.687-.026Z" fill="#231f20"/>
    <path d="M14.306,137.298l-.009,4.976c0,.188,.052,.33,.154,.426,.103,.097,.247,.146,.435,.146h.414l.088,.571c-.053,.023-.128,.044-.225,.062s-.196,.031-.299,.04-.189,.013-.26,.013c-.316,0-.569-.094-.76-.281-.191-.188-.286-.457-.286-.809v-5.143h.747Z" fill="#231f20"/>
    <path d="M17.92,139.065c.645,0,1.112,.117,1.402,.352s.436,.583,.436,1.046c.006,.381-.073,.679-.237,.893s-.426,.321-.783,.321h-2.496v-.581h2.303c.193,0,.319-.066,.378-.198s.088-.277,.088-.435c-.006-.275-.088-.472-.246-.589s-.428-.176-.809-.176c-.311,0-.556,.046-.734,.137s-.305,.249-.378,.475-.109,.541-.109,.945c0,.458,.045,.806,.136,1.046,.091,.241,.236,.404,.436,.493,.199,.088,.463,.132,.791,.132,.229,0,.479-.01,.752-.031s.518-.045,.734-.075l.079,.501c-.135,.053-.301,.097-.497,.132s-.398,.062-.606,.079-.395,.026-.559,.026c-.492,0-.888-.075-1.187-.224s-.518-.39-.655-.721c-.138-.331-.207-.769-.207-1.314,0-.563,.069-1.007,.207-1.332,.138-.326,.352-.557,.642-.695s.664-.207,1.121-.207Z" fill="#231f20"/>
    <path d="M21.603,139.171v3.007c-.006,.27,.044,.46,.149,.572s.281,.167,.527,.167c.24,0,.479-.057,.717-.171,.237-.115,.523-.28,.857-.497l.097,.519c-.334,.264-.658,.463-.972,.598s-.632,.202-.954,.202c-.779,0-1.169-.393-1.169-1.178v-3.218h.747Zm2.919,0v4.282h-.598l-.07-.809-.079-.132v-3.341h.747Z" fill="#231f20"/>
    <path d="M26.474,139.171l.097,.818,.07,.132v3.332h-.747v-4.282h.58Zm2.102-.105l-.088,.703h-.246c-.252,0-.504,.052-.756,.154-.253,.103-.561,.248-.924,.435l-.062-.466c.316-.258,.635-.46,.954-.607s.629-.22,.928-.22h.193Z" fill="#231f20"/>
    <path d="M30.843,139.065c.188,0,.388,.006,.599,.018s.42,.026,.628,.044,.4,.041,.576,.07l-.062,.545c-.27-.011-.541-.022-.813-.031s-.543-.013-.812-.013c-.265-.005-.473,0-.625,.018s-.262,.065-.329,.141-.102,.205-.102,.387c0,.223,.053,.369,.158,.439s.261,.129,.466,.176l1.249,.281c.34,.083,.59,.208,.752,.378,.161,.17,.241,.437,.241,.8,0,.352-.065,.616-.197,.792s-.333,.293-.603,.352-.612,.088-1.028,.088c-.153,0-.38-.006-.682-.018s-.635-.047-.998-.105l.053-.545c.141,.006,.29,.013,.448,.022s.324,.013,.497,.013h.531c.322,0,.575-.015,.757-.044s.311-.086,.387-.172c.076-.084,.114-.212,.114-.382,0-.211-.062-.352-.185-.422s-.287-.129-.492-.176l-1.231-.281c-.234-.059-.422-.136-.562-.233-.141-.097-.243-.223-.308-.378s-.097-.35-.097-.584c0-.334,.059-.586,.176-.756,.117-.17,.299-.284,.545-.343s.562-.085,.949-.079Z" fill="#231f20"/>
    <path d="M4.78,148.079c.281,0,.56,.037,.835,.11s.539,.186,.792,.338l-.044,.466c-.276-.082-.52-.146-.73-.194-.211-.046-.437-.07-.677-.07-.246,0-.444,.043-.594,.128s-.259,.242-.329,.47-.105,.554-.105,.976,.033,.75,.101,.984,.175,.399,.321,.493,.334,.141,.562,.141c.17,0,.324-.022,.462-.066s.284-.116,.439-.216c.155-.1,.338-.226,.55-.378l.07,.528c-.235,.217-.502,.401-.801,.554s-.621,.229-.967,.229c-.539,0-.925-.19-1.156-.571s-.348-.944-.348-1.688c0-.557,.059-.998,.176-1.323,.117-.326,.296-.559,.537-.699,.24-.141,.542-.211,.905-.211Zm2.233-1.767v6.154h-.58l-.088-.748-.08-.062v-2.937l.053-.132c-.023-.164-.038-.322-.044-.475s-.009-.313-.009-.483v-1.319h.748Z" fill="#231f20"/>
    <path d="M8.938,146.4l-.053,1.89h-.519l-.044-1.89h.615Z" fill="#231f20"/>
    <path d="M11.832,148.079c.645,0,1.111,.117,1.402,.352,.29,.234,.435,.583,.435,1.046,.006,.381-.073,.679-.237,.893s-.425,.321-.782,.321h-2.497v-.581h2.304c.193,0,.319-.066,.378-.198s.088-.277,.088-.435c-.006-.275-.088-.472-.246-.589s-.428-.176-.809-.176c-.312,0-.556,.046-.734,.137s-.305,.249-.378,.475-.11,.541-.11,.945c0,.458,.046,.806,.137,1.046,.091,.241,.235,.404,.435,.493,.199,.088,.463,.132,.792,.132,.229,0,.479-.01,.751-.031s.518-.045,.734-.075l.079,.501c-.135,.053-.3,.097-.496,.132-.197,.035-.399,.062-.607,.079s-.394,.026-.558,.026c-.493,0-.889-.075-1.188-.224s-.518-.39-.655-.721c-.138-.331-.206-.769-.206-1.314,0-.563,.068-1.007,.206-1.332,.138-.326,.353-.557,.643-.695s.663-.207,1.121-.207Z" fill="#231f20"/>
    <path d="M15.427,148.184l.062,.818,.053,.132v3.332h-.748v-4.282h.634Zm1.969-.105c.774,0,1.161,.393,1.161,1.178v3.209h-.747v-2.998c0-.287-.048-.485-.142-.593s-.252-.163-.475-.163c-.264,0-.527,.065-.791,.194s-.577,.305-.94,.527l-.035-.536c.334-.258,.665-.459,.993-.603s.653-.215,.976-.215Z" fill="#231f20"/>
    <path d="M22.338,148.184v.589h-2.884v-.545l.844-.044h2.04Zm-1.363-1.266v4.37c0,.206,.044,.352,.132,.439,.088,.088,.237,.132,.449,.132h.65l.088,.571c-.094,.023-.202,.044-.325,.062s-.243,.031-.36,.04c-.118,.009-.212,.013-.282,.013-.357,0-.63-.1-.817-.299s-.281-.486-.281-.862v-4.466h.747Z" fill="#231f20"/>
    <path d="M23.832,148.184l.097,.818,.07,.132v3.332h-.747v-4.282h.58Zm2.102-.105l-.088,.703h-.246c-.252,0-.504,.052-.756,.154-.253,.103-.561,.248-.924,.435l-.062-.466c.316-.258,.635-.46,.954-.607s.629-.22,.928-.22h.193Z" fill="#231f20"/>
    <path d="M28.422,148.079c.645,0,1.112,.117,1.402,.352s.436,.583,.436,1.046c.006,.381-.073,.679-.237,.893s-.426,.321-.783,.321h-2.496v-.581h2.303c.193,0,.319-.066,.378-.198s.088-.277,.088-.435c-.006-.275-.088-.472-.246-.589s-.428-.176-.809-.176c-.311,0-.556,.046-.734,.137s-.305,.249-.378,.475-.109,.541-.109,.945c0,.458,.045,.806,.136,1.046,.091,.241,.236,.404,.436,.493,.199,.088,.463,.132,.791,.132,.229,0,.479-.01,.752-.031s.518-.045,.734-.075l.079,.501c-.135,.053-.301,.097-.497,.132s-.398,.062-.606,.079-.395,.026-.559,.026c-.492,0-.888-.075-1.187-.224s-.518-.39-.655-.721c-.138-.331-.207-.769-.207-1.314,0-.563,.069-1.007,.207-1.332,.138-.326,.352-.557,.642-.695s.664-.207,1.121-.207Zm.914-2.127l.432,.58-1.688,1.055-.255-.343,1.512-1.292Z" fill="#231f20"/>
    <path d="M33.143,148.079c.645,0,1.111,.117,1.402,.352,.29,.234,.435,.583,.435,1.046,.006,.381-.073,.679-.237,.893s-.425,.321-.782,.321h-2.497v-.581h2.304c.193,0,.319-.066,.378-.198s.088-.277,.088-.435c-.006-.275-.088-.472-.246-.589s-.428-.176-.809-.176c-.312,0-.556,.046-.734,.137s-.305,.249-.378,.475-.11,.541-.11,.945c0,.458,.046,.806,.137,1.046,.091,.241,.235,.404,.435,.493,.199,.088,.463,.132,.792,.132,.229,0,.479-.01,.751-.031s.518-.045,.734-.075l.079,.501c-.135,.053-.3,.097-.496,.132-.197,.035-.399,.062-.607,.079s-.394,.026-.558,.026c-.493,0-.889-.075-1.188-.224s-.518-.39-.655-.721c-.138-.331-.206-.769-.206-1.314,0-.563,.068-1.007,.206-1.332,.138-.326,.353-.557,.643-.695s.663-.207,1.121-.207Z" fill="#231f20"/>
  </g>
</svg>