<?xml version="1.0" encoding="UTF-8"?>
<svg id="a" data-name="Layer 3" xmlns="http://www.w3.org/2000/svg" viewBox="0 0 248.972 156.342">
  <g>
    <path d="M8.35,32.232h.704c.235,0,.469.003.699.01.231.007.454.018.669.032l-.028.483h-1.938c-.145,0-.251.036-.318.108-.068.073-.102.19-.102.354v2.87c0,.164.033.282.102.357.067.075.174.112.318.112h1.938l.028.476c-.215.014-.438.023-.669.028-.23.004-.464.008-.699.01-.236.002-.471.003-.704.003-.284,0-.51-.076-.676-.228-.165-.151-.25-.355-.255-.612v-3.164c.005-.261.09-.466.255-.616.166-.149.392-.224.676-.224ZM7.545,34.269h2.576v.497h-2.576v-.497Z" fill="#231f20" stroke-width="0"/>
    <path d="M11.822,33.66l.05.651.042.105v2.653h-.596v-3.409h.504ZM13.39,33.576c.616,0,.924.313.924.938v2.555h-.595v-2.387c0-.229-.037-.386-.112-.472-.074-.086-.2-.129-.378-.129-.21,0-.42.051-.63.154s-.46.243-.749.42l-.028-.427c.267-.206.53-.365.791-.479.262-.115.521-.172.777-.172Z" fill="#231f20" stroke-width="0"/>
    <path d="M17.324,33.66v.469h-2.296v-.434l.672-.035h1.624ZM16.239,32.652v3.479c0,.164.035.28.105.35.07.07.188.105.356.105h.519l.07.455c-.075.019-.161.035-.26.049-.098.014-.193.024-.287.032-.093.007-.168.01-.224.01-.284,0-.502-.079-.651-.238s-.224-.388-.224-.686v-3.556h.595Z" fill="#231f20" stroke-width="0"/>
    <path d="M18.514,33.66l.077.651.056.105v2.653h-.595v-3.409h.462ZM20.187,33.576l-.07.56h-.195c-.201,0-.401.041-.603.123-.2.082-.445.197-.734.347l-.05-.371c.252-.206.506-.366.76-.483.255-.117.501-.175.738-.175h.154Z" fill="#231f20" stroke-width="0"/>
    <path d="M23.358,34.969l-.007.448-1.631.007c-.163.005-.277.048-.343.129-.065.082-.099.195-.099.34v.217c0,.177.042.307.126.389s.22.122.406.122c.131,0,.279-.024.444-.073.166-.049.333-.125.501-.228s.322-.233.462-.392v.441c-.052.065-.125.142-.221.228-.096.086-.21.17-.343.252-.133.082-.28.149-.441.203s-.335.081-.521.081c-.2,0-.378-.036-.531-.108-.154-.072-.274-.18-.361-.322-.086-.142-.129-.316-.129-.521v-.371c0-.266.083-.473.248-.62.166-.147.398-.221.696-.221h1.743ZM22.469,33.576c.252,0,.466.034.641.102.175.068.307.181.396.34s.133.375.133.651v2.401h-.469l-.091-.742-.042-.077v-1.582c0-.21-.048-.361-.144-.452s-.279-.136-.55-.136c-.178,0-.4.009-.669.028-.268.019-.533.04-.794.063l-.056-.441c.158-.028.332-.054.521-.077.188-.023.381-.042.577-.056.196-.014.378-.021.546-.021Z" fill="#231f20" stroke-width="0"/>
    <path d="M25.836,33.576c.224,0,.445.029.665.088.219.058.429.148.63.269l-.035.371c-.22-.065-.413-.117-.581-.154s-.348-.056-.539-.056c-.196,0-.354.034-.473.102-.119.068-.206.192-.263.375-.056.182-.084.441-.084.777s.027.598.081.784.139.317.255.392c.117.075.267.112.448.112.136,0,.258-.018.367-.052.11-.035.227-.092.351-.172.123-.079.27-.179.438-.301l.056.42c-.187.173-.398.32-.637.441-.238.122-.495.182-.771.182-.429,0-.735-.151-.92-.455-.185-.303-.276-.751-.276-1.344,0-.443.046-.794.14-1.054.094-.259.235-.444.427-.557.191-.112.432-.168.722-.168ZM27.614,32.169v4.9h-.462l-.07-.595-.062-.049v-2.338l.042-.105c-.019-.131-.03-.257-.035-.378-.005-.122-.007-.25-.007-.385v-1.05h.595Z" fill="#231f20" stroke-width="0"/>
    <path d="M31.212,34.969l-.007.448-1.631.007c-.164.005-.278.048-.344.129-.065.082-.098.195-.098.34v.217c0,.177.042.307.126.389s.22.122.406.122c.13,0,.278-.024.444-.073.165-.049.332-.125.5-.228s.322-.233.462-.392v.441c-.051.065-.124.142-.22.228-.096.086-.21.17-.344.252-.133.082-.279.149-.44.203s-.335.081-.521.081c-.201,0-.378-.036-.532-.108s-.274-.18-.36-.322c-.087-.142-.13-.316-.13-.521v-.371c0-.266.083-.473.249-.62.165-.147.397-.221.696-.221h1.743ZM30.323,33.576c.253,0,.466.034.641.102.176.068.308.181.396.34.089.159.134.375.134.651v2.401h-.47l-.091-.742-.042-.077v-1.582c0-.21-.048-.361-.144-.452s-.278-.136-.55-.136c-.177,0-.399.009-.668.028s-.533.04-.795.063l-.056-.441c.158-.028.332-.054.521-.077s.382-.042.577-.056c.196-.014.378-.021.546-.021Z" fill="#231f20" stroke-width="0"/>
    <path d="M35.573,32.239v4.83h-.615v-3.829c0-.07.002-.14.007-.21.004-.07.014-.14.027-.21l-1.183.371-.084-.455,1.232-.497h.615Z" fill="#231f20" stroke-width="0"/>
  </g>
  <g>
    <path d="M217.442,77.759c.229.005.465.017.707.035.243.019.485.054.729.105l-.042.448c-.201-.009-.423-.017-.665-.024-.243-.007-.477-.01-.7-.01-.173,0-.321.006-.444.018-.124.011-.226.04-.305.084-.079.044-.137.117-.172.217-.035.101-.053.239-.053.417,0,.266.048.452.144.557s.251.183.466.234l.98.245c.373.088.628.244.766.465s.207.519.207.893c0,.28-.031.506-.095.679-.062.173-.16.305-.29.396-.131.091-.299.154-.504.189-.206.035-.448.052-.729.052-.158,0-.365-.007-.619-.021-.255-.014-.548-.051-.879-.112l.042-.455c.275.009.497.018.665.024s.312.01.435.01h.378c.247,0,.441-.019.584-.056.143-.038.243-.112.301-.224.059-.112.088-.277.088-.497,0-.187-.021-.331-.063-.434-.042-.103-.108-.181-.199-.234s-.206-.097-.347-.129l-1.001-.252c-.35-.089-.596-.243-.738-.462-.143-.22-.214-.514-.214-.882,0-.28.032-.505.095-.675.063-.17.159-.299.287-.385.129-.086.291-.144.486-.171.196-.028.43-.042.7-.042Z" fill="#231f20" stroke-width="0"/>
    <path d="M222.46,80.573l-.007.448-1.631.007c-.163.005-.277.048-.343.129-.065.082-.099.195-.099.34v.217c0,.177.042.307.126.389s.22.122.406.122c.131,0,.279-.024.444-.073.166-.049.333-.125.501-.228s.322-.233.462-.392v.441c-.052.065-.125.142-.221.228-.096.086-.21.17-.343.252-.133.082-.28.149-.441.203s-.335.081-.521.081c-.2,0-.378-.036-.531-.108-.154-.072-.274-.18-.361-.322-.086-.142-.129-.316-.129-.521v-.371c0-.266.083-.473.248-.62.166-.147.398-.221.696-.221h1.743ZM221.572,79.18c.252,0,.466.034.641.102.175.068.307.181.396.34s.133.375.133.651v2.401h-.469l-.091-.742-.042-.077v-1.582c0-.21-.048-.361-.144-.452s-.279-.136-.55-.136c-.178,0-.4.009-.669.028-.268.019-.533.04-.794.063l-.056-.441c.158-.028.332-.054.521-.077.188-.023.381-.042.577-.056.196-.014.378-.021.546-.021Z" fill="#231f20" stroke-width="0"/>
    <path d="M224.407,77.773l-.007,3.962c0,.149.041.263.123.339.081.077.196.116.346.116h.329l.07.455c-.042.019-.102.035-.179.049s-.156.024-.238.032c-.081.007-.15.01-.206.01-.252,0-.454-.075-.605-.224-.151-.149-.228-.364-.228-.644v-4.095h.595Z" fill="#231f20" stroke-width="0"/>
    <path d="M226.345,77.815c.122,0,.183.061.183.182v.399c0,.121-.061.182-.183.182h-.279c-.122,0-.183-.061-.183-.182v-.399c0-.122.061-.182.183-.182h.279ZM226.499,79.264v3.409h-.588v-3.409h.588Z" fill="#231f20" stroke-width="0"/>
    <path d="M228.754,79.18c.224,0,.445.029.665.088.219.058.429.148.63.269l-.035.371c-.22-.065-.413-.117-.581-.154s-.348-.056-.539-.056c-.196,0-.354.034-.473.102-.119.068-.206.192-.263.375-.056.182-.084.441-.084.777s.027.598.081.784.139.317.255.392c.117.075.267.112.448.112.136,0,.258-.018.367-.052.11-.035.227-.092.351-.172.123-.079.27-.179.438-.301l.056.42c-.187.173-.398.32-.637.441-.238.122-.495.182-.771.182-.429,0-.735-.151-.92-.455-.185-.303-.276-.751-.276-1.344,0-.443.046-.794.14-1.054.094-.259.235-.444.427-.557.191-.112.432-.168.722-.168ZM230.532,77.773v4.9h-.462l-.07-.595-.062-.049v-2.338l.042-.105c-.019-.131-.03-.257-.035-.378-.005-.122-.007-.25-.007-.385v-1.05h.595Z" fill="#231f20" stroke-width="0"/>
    <path d="M234.129,80.573l-.007.448-1.631.007c-.163.005-.277.048-.343.129-.065.082-.099.195-.099.34v.217c0,.177.042.307.126.389s.22.122.406.122c.131,0,.279-.024.444-.073.166-.049.333-.125.501-.228s.322-.233.462-.392v.441c-.052.065-.125.142-.221.228-.096.086-.21.17-.343.252-.133.082-.28.149-.441.203s-.335.081-.521.081c-.2,0-.378-.036-.531-.108-.154-.072-.274-.18-.361-.322-.086-.142-.129-.316-.129-.521v-.371c0-.266.083-.473.248-.62.166-.147.398-.221.696-.221h1.743ZM233.241,79.18c.252,0,.466.034.641.102.175.068.307.181.396.34s.133.375.133.651v2.401h-.469l-.091-.742-.042-.077v-1.582c0-.21-.048-.361-.144-.452s-.279-.136-.55-.136c-.178,0-.4.009-.669.028-.268.019-.533.04-.794.063l-.056-.441c.158-.028.332-.054.521-.077.188-.023.381-.042.577-.056.196-.014.378-.021.546-.021Z" fill="#231f20" stroke-width="0"/>
  </g>
  <g>
    <path d="M7.777,54.946h.704c.235,0,.469.003.699.01.231.007.454.018.669.032l-.028.483h-1.938c-.145,0-.251.036-.318.108-.068.073-.102.19-.102.354v2.87c0,.164.033.282.102.357.067.075.174.112.318.112h1.938l.028.476c-.215.014-.438.023-.669.028-.23.004-.464.008-.699.01-.236.002-.471.003-.704.003-.284,0-.51-.076-.676-.228-.165-.151-.25-.355-.255-.612v-3.164c.005-.261.09-.466.255-.616.166-.149.392-.224.676-.224ZM6.972,56.984h2.576v.497h-2.576v-.497Z" fill="#231f20" stroke-width="0"/>
    <path d="M11.248,56.374l.05.651.042.105v2.653h-.596v-3.409h.504ZM12.817,56.29c.616,0,.924.313.924.938v2.555h-.595v-2.387c0-.229-.037-.386-.112-.472-.074-.086-.2-.129-.378-.129-.21,0-.42.051-.63.154s-.46.243-.749.42l-.028-.427c.267-.206.53-.365.791-.479.262-.115.521-.172.777-.172Z" fill="#231f20" stroke-width="0"/>
    <path d="M16.75,56.374v.469h-2.296v-.434l.672-.035h1.624ZM15.665,55.366v3.479c0,.164.035.28.105.35.07.07.188.105.356.105h.519l.07.455c-.075.019-.161.035-.26.049-.098.014-.193.024-.287.032-.093.007-.168.01-.224.01-.284,0-.502-.079-.651-.238s-.224-.388-.224-.686v-3.556h.595Z" fill="#231f20" stroke-width="0"/>
    <path d="M17.941,56.374l.077.651.056.105v2.653h-.595v-3.409h.462ZM19.614,56.29l-.07.56h-.195c-.201,0-.401.041-.603.123-.2.082-.445.197-.734.347l-.05-.371c.252-.206.506-.366.76-.483.255-.117.501-.175.738-.175h.154Z" fill="#231f20" stroke-width="0"/>
    <path d="M22.784,57.683l-.007.448-1.631.007c-.163.005-.277.048-.343.129-.065.082-.099.195-.099.34v.217c0,.177.042.307.126.389s.22.122.406.122c.131,0,.279-.024.444-.073.166-.049.333-.125.501-.228s.322-.233.462-.392v.441c-.052.065-.125.142-.221.228-.096.086-.21.17-.343.252-.133.082-.28.149-.441.203s-.335.081-.521.081c-.2,0-.378-.036-.531-.108-.154-.072-.274-.18-.361-.322-.086-.142-.129-.316-.129-.521v-.371c0-.266.083-.473.248-.62.166-.147.398-.221.696-.221h1.743ZM21.896,56.29c.252,0,.466.034.641.102.175.068.307.181.396.34s.133.375.133.651v2.401h-.469l-.091-.742-.042-.077v-1.582c0-.21-.048-.361-.144-.452s-.279-.136-.55-.136c-.178,0-.4.009-.669.028-.268.019-.533.04-.794.063l-.056-.441c.158-.028.332-.054.521-.077.188-.023.381-.042.577-.056.196-.014.378-.021.546-.021Z" fill="#231f20" stroke-width="0"/>
    <path d="M25.263,56.29c.224,0,.445.029.665.088.219.058.429.148.63.269l-.035.371c-.22-.065-.413-.117-.581-.154s-.348-.056-.539-.056c-.196,0-.354.034-.473.102-.119.068-.206.192-.263.375-.056.182-.084.441-.084.777s.027.598.081.784.139.317.255.392c.117.075.267.112.448.112.136,0,.258-.018.367-.052.11-.035.227-.092.351-.172.123-.079.27-.179.438-.301l.056.42c-.187.173-.398.32-.637.441-.238.122-.495.182-.771.182-.429,0-.735-.151-.92-.455-.185-.303-.276-.751-.276-1.344,0-.443.046-.794.14-1.054.094-.259.235-.444.427-.557.191-.112.432-.168.722-.168ZM27.04,54.883v4.9h-.462l-.07-.595-.062-.049v-2.338l.042-.105c-.019-.131-.03-.257-.035-.378-.005-.122-.007-.25-.007-.385v-1.05h.595Z" fill="#231f20" stroke-width="0"/>
    <path d="M30.639,57.683l-.007.448-1.631.007c-.164.005-.278.048-.344.129-.065.082-.098.195-.098.34v.217c0,.177.042.307.126.389s.22.122.406.122c.13,0,.278-.024.444-.073.165-.049.332-.125.5-.228s.322-.233.462-.392v.441c-.051.065-.124.142-.22.228-.096.086-.21.17-.344.252-.133.082-.279.149-.44.203s-.335.081-.521.081c-.201,0-.378-.036-.532-.108s-.274-.18-.36-.322c-.087-.142-.13-.316-.13-.521v-.371c0-.266.083-.473.249-.62.165-.147.397-.221.696-.221h1.743ZM29.749,56.29c.253,0,.466.034.641.102.176.068.308.181.396.34.089.159.134.375.134.651v2.401h-.47l-.091-.742-.042-.077v-1.582c0-.21-.048-.361-.144-.452s-.278-.136-.55-.136c-.177,0-.399.009-.668.028s-.533.04-.795.063l-.056-.441c.158-.028.332-.054.521-.077s.382-.042.577-.056c.196-.014.378-.021.546-.021Z" fill="#231f20" stroke-width="0"/>
    <path d="M34.895,54.869c.308,0,.572.026.794.077s.393.152.512.301c.118.149.178.371.178.665,0,.201-.026.39-.08.567-.054.178-.144.361-.27.55s-.297.402-.511.641l-1.387,1.547c.122-.009.251-.017.389-.021.138-.005.27-.007.396-.007h1.639v.595h-3.172v-.385c0-.052.008-.099.021-.144s.037-.085.07-.123l1.399-1.582c.309-.332.534-.625.68-.882.145-.256.212-.499.202-.728-.004-.159-.043-.274-.115-.347s-.175-.12-.308-.144-.293-.035-.479-.035c-.149,0-.292.002-.427.007-.136.004-.279.015-.431.031-.152.017-.328.041-.528.074l-.043-.476c.22-.051.412-.09.578-.116.165-.025.319-.043.462-.052s.286-.014.431-.014Z" fill="#231f20" stroke-width="0"/>
  </g>
  <g>
    <path d="M7.797,77.661h.704c.235,0,.469.003.699.01.231.007.454.018.669.032l-.028.483h-1.938c-.145,0-.251.036-.318.108-.068.073-.102.19-.102.354v2.87c0,.164.033.282.102.357.067.075.174.112.318.112h1.938l.028.476c-.215.014-.438.023-.669.028-.23.004-.464.008-.699.01-.236.002-.471.003-.704.003-.284,0-.51-.076-.676-.228-.165-.151-.25-.355-.255-.612v-3.164c.005-.261.09-.466.255-.616.166-.149.392-.224.676-.224ZM6.992,79.698h2.576v.497h-2.576v-.497Z" fill="#231f20" stroke-width="0"/>
    <path d="M11.269,79.089l.05.651.042.105v2.653h-.596v-3.409h.504ZM12.837,79.005c.616,0,.924.313.924.938v2.555h-.595v-2.387c0-.229-.037-.386-.112-.472-.074-.086-.2-.129-.378-.129-.21,0-.42.051-.63.154s-.46.243-.749.42l-.028-.427c.267-.206.53-.365.791-.479.262-.115.521-.172.777-.172Z" fill="#231f20" stroke-width="0"/>
    <path d="M16.771,79.089v.469h-2.296v-.434l.672-.035h1.624ZM15.686,78.081v3.479c0,.164.035.28.105.35.07.07.188.105.356.105h.519l.07.455c-.075.019-.161.035-.26.049-.098.014-.193.024-.287.032-.093.007-.168.01-.224.01-.284,0-.502-.079-.651-.238s-.224-.388-.224-.686v-3.556h.595Z" fill="#231f20" stroke-width="0"/>
    <path d="M17.961,79.089l.077.651.056.105v2.653h-.595v-3.409h.462ZM19.634,79.005l-.07.56h-.195c-.201,0-.401.041-.603.123-.2.082-.445.197-.734.347l-.05-.371c.252-.206.506-.366.76-.483.255-.117.501-.175.738-.175h.154Z" fill="#231f20" stroke-width="0"/>
    <path d="M22.805,80.398l-.007.448-1.631.007c-.163.005-.277.048-.343.129-.065.082-.099.195-.099.34v.217c0,.177.042.307.126.389s.22.122.406.122c.131,0,.279-.024.444-.073.166-.049.333-.125.501-.228s.322-.233.462-.392v.441c-.052.065-.125.142-.221.228-.096.086-.21.17-.343.252-.133.082-.28.149-.441.203s-.335.081-.521.081c-.2,0-.378-.036-.531-.108-.154-.072-.274-.18-.361-.322-.086-.142-.129-.316-.129-.521v-.371c0-.266.083-.473.248-.62.166-.147.398-.221.696-.221h1.743ZM21.916,79.005c.252,0,.466.034.641.102.175.068.307.181.396.34s.133.375.133.651v2.401h-.469l-.091-.742-.042-.077v-1.582c0-.21-.048-.361-.144-.452s-.279-.136-.55-.136c-.178,0-.4.009-.669.028-.268.019-.533.04-.794.063l-.056-.441c.158-.028.332-.054.521-.077.188-.023.381-.042.577-.056.196-.014.378-.021.546-.021Z" fill="#231f20" stroke-width="0"/>
    <path d="M25.284,79.005c.224,0,.445.029.665.088.219.058.429.148.63.269l-.035.371c-.22-.065-.413-.117-.581-.154s-.348-.056-.539-.056c-.196,0-.354.034-.473.102-.119.068-.206.192-.263.375-.056.182-.084.441-.084.777s.027.598.081.784.139.317.255.392c.117.075.267.112.448.112.136,0,.258-.018.367-.052.11-.035.227-.092.351-.172.123-.079.27-.179.438-.301l.056.42c-.187.173-.398.32-.637.441-.238.122-.495.182-.771.182-.429,0-.735-.151-.92-.455-.185-.303-.276-.751-.276-1.344,0-.443.046-.794.14-1.054.094-.259.235-.444.427-.557.191-.112.432-.168.722-.168ZM27.061,77.598v4.9h-.462l-.07-.595-.062-.049v-2.338l.042-.105c-.019-.131-.03-.257-.035-.378-.005-.122-.007-.25-.007-.385v-1.05h.595Z" fill="#231f20" stroke-width="0"/>
    <path d="M30.659,80.398l-.007.448-1.631.007c-.164.005-.278.048-.344.129-.065.082-.098.195-.098.34v.217c0,.177.042.307.126.389s.22.122.406.122c.13,0,.278-.024.444-.073.165-.049.332-.125.5-.228s.322-.233.462-.392v.441c-.051.065-.124.142-.22.228-.096.086-.21.17-.344.252-.133.082-.279.149-.44.203s-.335.081-.521.081c-.201,0-.378-.036-.532-.108s-.274-.18-.36-.322c-.087-.142-.13-.316-.13-.521v-.371c0-.266.083-.473.249-.62.165-.147.397-.221.696-.221h1.743ZM29.77,79.005c.253,0,.466.034.641.102.176.068.308.181.396.34.089.159.134.375.134.651v2.401h-.47l-.091-.742-.042-.077v-1.582c0-.21-.048-.361-.144-.452s-.278-.136-.55-.136c-.177,0-.399.009-.668.028s-.533.04-.795.063l-.056-.441c.158-.028.332-.054.521-.077s.382-.042.577-.056c.196-.014.378-.021.546-.021Z" fill="#231f20" stroke-width="0"/>
    <path d="M34.825,77.577c.354,0,.64.034.857.102.217.067.377.183.479.346.103.164.153.388.153.672,0,.205-.021.393-.062.563s-.113.312-.214.427-.244.19-.431.228v.028c.317.052.536.184.655.396.118.212.181.484.186.815.004.327-.042.597-.141.809-.098.212-.259.37-.482.473-.225.103-.527.154-.91.154-.257,0-.515-.013-.773-.038-.26-.026-.513-.055-.76-.088l.042-.497c.158.014.312.027.458.039.147.012.293.02.438.024.146.005.292.007.441.007.262,0,.47-.029.627-.087.156-.059.271-.158.343-.298.072-.14.108-.327.108-.56,0-.177-.024-.332-.073-.465-.049-.133-.143-.237-.28-.312s-.34-.112-.605-.112h-.896v-.483h.896c.191,0,.344-.026.458-.077s.2-.118.256-.2c.056-.082.092-.175.108-.28s.024-.213.024-.326c-.005-.205-.037-.358-.098-.458-.061-.1-.162-.168-.305-.203-.143-.035-.337-.053-.584-.053-.229,0-.449.006-.662.018-.212.012-.4.024-.563.039l-.049-.476c.238-.042.468-.074.689-.095s.444-.031.669-.031Z" fill="#231f20" stroke-width="0"/>
  </g>
  <g>
    <path d="M7.591,100.466h.703c.235,0,.469.003.7.01.23.007.454.018.668.032l-.027.483h-1.939c-.145,0-.251.036-.318.108-.067.073-.102.19-.102.354v2.87c0,.164.034.282.102.357s.174.112.318.112h1.939l.027.476c-.214.014-.438.023-.668.028-.231.004-.465.008-.7.01s-.47.003-.703.003c-.285,0-.51-.076-.676-.228-.166-.151-.251-.355-.256-.612v-3.164c.005-.261.09-.466.256-.616s.391-.224.676-.224ZM6.785,102.503h2.576v.497h-2.576v-.497Z" fill="#231f20" stroke-width="0"/>
    <path d="M11.063,101.894l.049.651.042.105v2.653h-.595v-3.409h.504ZM12.631,101.81c.615,0,.924.313.924.938v2.555h-.596v-2.387c0-.229-.037-.386-.111-.472-.075-.086-.201-.129-.378-.129-.21,0-.42.051-.63.154s-.46.243-.749.42l-.028-.427c.266-.206.529-.365.791-.479.262-.115.521-.172.777-.172Z" fill="#231f20" stroke-width="0"/>
    <path d="M16.565,101.894v.469h-2.296v-.434l.672-.035h1.624ZM15.48,100.886v3.479c0,.164.035.28.104.35.07.07.189.105.357.105h.518l.07.455c-.074.019-.161.035-.259.049-.099.014-.194.024-.287.032-.094.007-.168.01-.224.01-.285,0-.502-.079-.651-.238s-.224-.388-.224-.686v-3.556h.595Z" fill="#231f20" stroke-width="0"/>
    <path d="M17.754,101.894l.077.651.057.105v2.653h-.596v-3.409h.462ZM19.428,101.81l-.07.56h-.196c-.2,0-.401.041-.602.123-.201.082-.446.197-.735.347l-.049-.371c.252-.206.505-.366.76-.483.254-.117.5-.175.738-.175h.154Z" fill="#231f20" stroke-width="0"/>
    <path d="M22.599,103.203l-.007.448-1.631.007c-.164.005-.278.048-.344.129-.065.082-.098.195-.098.34v.217c0,.177.042.307.126.389s.22.122.406.122c.13,0,.278-.024.444-.073.165-.049.332-.125.5-.228s.322-.233.462-.392v.441c-.051.065-.124.142-.22.228-.096.086-.21.17-.344.252-.133.082-.279.149-.44.203s-.335.081-.521.081c-.201,0-.378-.036-.532-.108s-.274-.18-.36-.322c-.087-.142-.13-.316-.13-.521v-.371c0-.266.083-.473.249-.62.165-.147.397-.221.696-.221h1.743ZM21.709,101.81c.253,0,.466.034.641.102.176.068.308.181.396.34.089.159.134.375.134.651v2.401h-.47l-.091-.742-.042-.077v-1.582c0-.21-.048-.361-.144-.452s-.278-.136-.55-.136c-.177,0-.399.009-.668.028s-.533.04-.795.063l-.056-.441c.158-.028.332-.054.521-.077s.382-.042.577-.056c.196-.014.378-.021.546-.021Z" fill="#231f20" stroke-width="0"/>
    <path d="M25.076,101.81c.224,0,.445.029.665.088.22.058.43.148.63.269l-.035.371c-.219-.065-.413-.117-.581-.154s-.348-.056-.539-.056c-.195,0-.354.034-.472.102-.119.068-.207.192-.263.375-.057.182-.084.441-.084.777s.026.598.08.784.139.317.256.392c.116.075.266.112.448.112.135,0,.258-.018.367-.052.109-.035.227-.092.35-.172.124-.079.27-.179.438-.301l.057.42c-.188.173-.399.32-.638.441-.237.122-.494.182-.77.182-.43,0-.736-.151-.921-.455-.185-.303-.276-.751-.276-1.344,0-.443.047-.794.141-1.054.093-.259.235-.444.427-.557.191-.112.432-.168.721-.168ZM26.855,100.403v4.9h-.462l-.07-.595-.063-.049v-2.338l.042-.105c-.019-.131-.03-.257-.034-.378-.005-.122-.008-.25-.008-.385v-1.05h.596Z" fill="#231f20" stroke-width="0"/>
    <path d="M30.452,103.203l-.007.448-1.631.007c-.163.005-.277.048-.343.129-.065.082-.099.195-.099.34v.217c0,.177.042.307.126.389s.22.122.406.122c.131,0,.279-.024.444-.073.166-.049.333-.125.501-.228s.322-.233.462-.392v.441c-.052.065-.125.142-.221.228-.096.086-.21.17-.343.252-.133.082-.28.149-.441.203s-.335.081-.521.081c-.2,0-.378-.036-.531-.108-.154-.072-.274-.18-.361-.322-.086-.142-.129-.316-.129-.521v-.371c0-.266.083-.473.248-.62.166-.147.398-.221.696-.221h1.743ZM29.564,101.81c.252,0,.466.034.641.102.175.068.307.181.396.34s.133.375.133.651v2.401h-.469l-.091-.742-.042-.077v-1.582c0-.21-.048-.361-.144-.452s-.279-.136-.55-.136c-.178,0-.4.009-.669.028-.268.019-.533.04-.794.063l-.056-.441c.158-.028.332-.054.521-.077.188-.023.381-.042.577-.056.196-.014.378-.021.546-.021Z" fill="#231f20" stroke-width="0"/>
    <path d="M35.121,100.473l-1.351,2.856c-.042.094-.043.165-.004.213.04.049.1.074.179.074h2.863v.441l-.645.063h-2.562c-.131,0-.24-.037-.329-.112s-.146-.17-.172-.287-.013-.233.039-.35l1.372-2.898h.608ZM36.186,101.397v3.906h-.581v-3.108l.104-.798h.477Z" fill="#231f20" stroke-width="0"/>
  </g>
  <g>
    <path d="M7.867,123.635h.704c.235,0,.469.003.699.01.231.008.454.018.669.032l-.028.482h-1.938c-.145,0-.251.036-.318.108-.068.073-.102.19-.102.354v2.87c0,.164.033.282.102.357.067.074.174.111.318.111h1.938l.028.477c-.215.014-.438.023-.669.028-.23.004-.464.008-.699.01-.236.003-.471.004-.704.004-.284,0-.51-.076-.676-.228-.165-.151-.25-.355-.255-.612v-3.164c.005-.262.09-.467.255-.616.166-.149.392-.224.676-.224ZM7.063,125.672h2.576v.496h-2.576v-.496Z" fill="#231f20" stroke-width="0"/>
    <path d="M11.339,125.063l.05.651.042.104v2.653h-.596v-3.409h.504ZM12.908,124.979c.616,0,.924.312.924.938v2.556h-.595v-2.388c0-.229-.037-.386-.112-.472-.074-.087-.2-.13-.378-.13-.21,0-.42.052-.63.154s-.46.242-.749.42l-.028-.427c.267-.206.53-.365.791-.479.262-.115.521-.172.777-.172Z" fill="#231f20" stroke-width="0"/>
    <path d="M16.841,125.063v.469h-2.296v-.434l.672-.035h1.624ZM15.756,124.055v3.479c0,.164.035.28.105.351.07.069.188.104.356.104h.519l.07.455c-.075.019-.161.035-.26.049-.098.015-.193.024-.287.032-.093.007-.168.01-.224.01-.284,0-.502-.079-.651-.237-.149-.159-.224-.388-.224-.687v-3.556h.595Z" fill="#231f20" stroke-width="0"/>
    <path d="M18.032,125.063l.077.651.056.104v2.653h-.595v-3.409h.462ZM19.704,124.979l-.07.56h-.195c-.201,0-.401.041-.603.123-.2.081-.445.197-.734.347l-.05-.371c.252-.206.506-.366.76-.483.255-.116.501-.175.738-.175h.154Z" fill="#231f20" stroke-width="0"/>
    <path d="M22.875,126.371l-.007.448-1.631.007c-.163.005-.277.048-.343.13s-.099.194-.099.34v.217c0,.177.042.307.126.389.084.081.22.122.406.122.131,0,.279-.024.444-.073.166-.049.333-.125.501-.228s.322-.233.462-.393v.441c-.052.065-.125.142-.221.228s-.21.17-.343.252-.28.149-.441.203-.335.08-.521.08c-.2,0-.378-.036-.531-.108-.154-.072-.274-.18-.361-.322-.086-.142-.129-.315-.129-.521v-.37c0-.267.083-.473.248-.62.166-.146.398-.221.696-.221h1.743ZM21.987,124.979c.252,0,.466.034.641.102s.307.181.396.34c.089.158.133.375.133.65v2.401h-.469l-.091-.742-.042-.077v-1.582c0-.21-.048-.36-.144-.451s-.279-.137-.55-.137c-.178,0-.4.01-.669.028-.268.019-.533.039-.794.062l-.056-.44c.158-.028.332-.054.521-.077.188-.023.381-.042.577-.057.196-.014.378-.021.546-.021Z" fill="#231f20" stroke-width="0"/>
    <path d="M25.354,124.979c.224,0,.445.029.665.088.219.058.429.147.63.269l-.035.371c-.22-.064-.413-.116-.581-.153s-.348-.057-.539-.057c-.196,0-.354.034-.473.102-.119.068-.206.192-.263.375-.056.182-.084.44-.084.776s.027.598.081.784.139.317.255.393c.117.074.267.111.448.111.136,0,.258-.018.367-.052.11-.035.227-.093.351-.172.123-.079.27-.18.438-.301l.056.42c-.187.173-.398.319-.637.44-.238.122-.495.183-.771.183-.429,0-.735-.151-.92-.455s-.276-.751-.276-1.344c0-.443.046-.795.14-1.054s.235-.444.427-.557.432-.168.722-.168ZM27.131,123.571v4.9h-.462l-.07-.596-.062-.049v-2.338l.042-.104c-.019-.131-.03-.257-.035-.378-.005-.122-.007-.25-.007-.386v-1.05h.595Z" fill="#231f20" stroke-width="0"/>
    <path d="M30.73,126.371l-.007.448-1.631.007c-.164.005-.278.048-.344.13s-.098.194-.098.34v.217c0,.177.042.307.126.389.084.081.22.122.406.122.13,0,.278-.024.444-.073.165-.049.332-.125.5-.228s.322-.233.462-.393v.441c-.051.065-.124.142-.22.228s-.21.17-.344.252c-.133.082-.279.149-.44.203s-.335.08-.521.08c-.201,0-.378-.036-.532-.108s-.274-.18-.36-.322c-.087-.142-.13-.315-.13-.521v-.37c0-.267.083-.473.249-.62.165-.146.397-.221.696-.221h1.743ZM29.84,124.979c.253,0,.466.034.641.102.176.067.308.181.396.34.089.158.134.375.134.65v2.401h-.47l-.091-.742-.042-.077v-1.582c0-.21-.048-.36-.144-.451s-.278-.137-.55-.137c-.177,0-.399.01-.668.028s-.533.039-.795.062l-.056-.44c.158-.028.332-.054.521-.077s.382-.042.577-.057c.196-.014.378-.021.546-.021Z" fill="#231f20" stroke-width="0"/>
    <path d="M36.309,123.642l-.028.524h-2.03l-.07,1.316.519.042c.317.023.587.065.809.126s.402.149.542.266c.141.117.242.266.305.445.063.18.095.399.095.661,0,.196-.02.385-.06.567-.04.182-.114.345-.224.489-.11.146-.268.261-.473.347-.206.087-.474.13-.806.13-.191,0-.412-.015-.665-.042-.252-.028-.508-.072-.77-.133l.07-.497c.219.037.438.067.657.091.22.023.409.035.567.035.308,0,.539-.039.693-.116.153-.076.259-.188.314-.336.057-.146.087-.325.091-.535.005-.224-.021-.4-.08-.528-.059-.129-.151-.225-.28-.287-.128-.063-.299-.107-.511-.133s-.473-.048-.78-.066l-.322-.021c-.07-.009-.127-.038-.172-.087-.044-.05-.063-.111-.059-.186l.111-2.072h2.556Z" fill="#231f20" stroke-width="0"/>
  </g>
  <g>
    <path d="M117.401,11.708c.205,0,.382.005.528.014.147.009.282.024.406.045s.251.048.382.081l-.063.469c-.14-.014-.27-.025-.389-.035s-.246-.017-.381-.021c-.136-.005-.297-.007-.483-.007-.312,0-.56.061-.742.182-.182.122-.312.324-.389.609-.076.285-.115.672-.115,1.162s.039.877.115,1.162c.077.285.207.488.389.609.183.122.43.182.742.182.299,0,.55-.006.753-.018.202-.012.402-.032.598-.06l.063.462c-.201.056-.407.097-.619.123-.213.026-.478.039-.795.039-.462,0-.832-.081-1.109-.242-.277-.161-.479-.423-.603-.787-.123-.364-.186-.854-.186-1.47s.062-1.106.186-1.47c.124-.364.325-.627.603-.788.277-.161.647-.242,1.109-.242Z" fill="#231f20" stroke-width="0"/>
    <path d="M122.112,14.522l-.007.448-1.631.007c-.164.005-.278.048-.344.129-.065.082-.098.195-.098.34v.217c0,.177.042.307.126.389s.22.122.406.122c.13,0,.278-.024.444-.073.165-.049.332-.125.5-.228s.322-.233.462-.392v.441c-.051.065-.124.142-.22.228-.096.086-.21.17-.344.252-.133.082-.279.149-.44.203s-.335.081-.521.081c-.201,0-.378-.036-.532-.108s-.274-.18-.36-.322c-.087-.142-.13-.316-.13-.521v-.371c0-.266.083-.473.249-.62.165-.147.397-.221.696-.221h1.743ZM121.222,13.129c.253,0,.466.034.641.102.176.068.308.181.396.34.089.159.134.375.134.651v2.401h-.47l-.091-.742-.042-.077v-1.582c0-.21-.048-.361-.144-.452s-.278-.136-.55-.136c-.177,0-.399.009-.668.028s-.533.04-.795.063l-.056-.441c.158-.028.332-.054.521-.077s.382-.042.577-.056c.196-.014.378-.021.546-.021Z" fill="#231f20" stroke-width="0"/>
    <path d="M123.946,13.213l.063.707.042.091v2.184l-.028.084c.014.13.022.256.024.378.002.121.004.25.004.385v.987h-.596v-4.816h.49ZM125.409,13.129c.415,0,.714.153.896.458.182.306.272.755.272,1.348,0,.438-.047.788-.14,1.046-.094.259-.234.445-.424.557-.188.112-.431.168-.725.168-.224,0-.444-.03-.661-.091s-.428-.154-.634-.28l.035-.357c.22.061.413.111.581.15.168.04.346.06.532.06.2,0,.36-.035.479-.105s.206-.196.263-.378c.056-.182.084-.438.084-.77,0-.322-.026-.576-.077-.763-.052-.187-.132-.321-.241-.402-.11-.082-.256-.123-.438-.123-.188,0-.371.044-.554.133-.182.088-.395.224-.637.406l-.056-.399c.126-.135.268-.252.427-.35.158-.098.325-.174.5-.228.176-.054.347-.081.515-.081Z" fill="#231f20" stroke-width="0"/>
    <path d="M130.014,14.522l-.007.448-1.631.007c-.163.005-.277.048-.343.129-.065.082-.099.195-.099.34v.217c0,.177.042.307.126.389s.22.122.406.122c.131,0,.279-.024.444-.073.166-.049.333-.125.501-.228s.322-.233.462-.392v.441c-.052.065-.125.142-.221.228-.096.086-.21.17-.343.252-.133.082-.28.149-.441.203s-.335.081-.521.081c-.2,0-.378-.036-.531-.108-.154-.072-.274-.18-.361-.322-.086-.142-.129-.316-.129-.521v-.371c0-.266.083-.473.248-.62.166-.147.398-.221.696-.221h1.743ZM129.125,13.129c.252,0,.466.034.641.102.175.068.307.181.396.34s.133.375.133.651v2.401h-.469l-.091-.742-.042-.077v-1.582c0-.21-.048-.361-.144-.452s-.279-.136-.55-.136c-.178,0-.4.009-.669.028-.268.019-.533.04-.794.063l-.056-.441c.158-.028.332-.054.521-.077.188-.023.381-.042.577-.056.196-.014.378-.021.546-.021Z" fill="#231f20" stroke-width="0"/>
    <path d="M133.032,11.092l.077.287c-.467.229-.807.596-1.019,1.103-.213.506-.318,1.156-.318,1.95,0,.518.046.978.14,1.379s.238.741.435,1.019c.195.277.45.498.763.662l-.077.287c-.635-.247-1.101-.64-1.396-1.179-.297-.539-.444-1.259-.444-2.16s.147-1.628.444-2.17c.296-.542.762-.933,1.396-1.176Z" fill="#231f20" stroke-width="0"/>
    <path d="M134.684,13.129c.148,0,.308.005.476.014s.335.021.501.035c.165.014.318.033.458.056l-.049.434c-.215-.009-.431-.018-.647-.024s-.434-.01-.647-.01c-.21-.005-.376,0-.497.014-.121.014-.209.051-.263.112-.054.061-.08.163-.08.308,0,.178.042.294.126.35s.207.103.371.14l.993.224c.271.065.471.166.599.301.129.135.192.348.192.637,0,.28-.052.49-.157.63-.104.14-.265.233-.479.28-.215.047-.487.07-.819.07-.121,0-.302-.005-.542-.014s-.505-.038-.795-.084l.042-.434c.112.005.231.011.357.018s.258.011.396.011h.424c.256,0,.457-.012.602-.035s.247-.069.308-.137c.061-.067.092-.169.092-.304,0-.168-.05-.28-.147-.336-.098-.056-.229-.103-.392-.14l-.98-.224c-.187-.046-.336-.108-.448-.186-.111-.077-.193-.177-.245-.301-.051-.124-.076-.279-.076-.466,0-.266.046-.466.14-.602.094-.135.238-.226.434-.273.196-.046.448-.067.757-.063Z" fill="#231f20" stroke-width="0"/>
    <path d="M136.503,11.092c.64.243,1.107.634,1.403,1.176.297.542.445,1.265.445,2.17s-.148,1.621-.445,2.16c-.296.539-.764.932-1.403,1.179l-.069-.287c.312-.164.565-.384.759-.662.194-.278.338-.617.431-1.019.094-.401.141-.861.141-1.379,0-.793-.105-1.443-.315-1.95s-.549-.874-1.015-1.103l.069-.287Z" fill="#231f20" stroke-width="0"/>
    <path d="M114.968,20.129c.392,0,.706.059.941.175s.405.307.508.57.153.613.153,1.046-.051.783-.153,1.047-.272.454-.508.57-.55.175-.941.175c-.388,0-.699-.058-.935-.175s-.406-.307-.511-.57c-.105-.264-.158-.613-.158-1.047s.053-.783.158-1.046c.104-.264.275-.454.511-.57s.547-.175.935-.175ZM114.968,20.633c-.247,0-.442.038-.585.115-.142.077-.243.209-.304.396-.062.187-.092.446-.092.777s.03.591.092.777c.061.187.162.318.304.396.143.077.338.115.585.115s.443-.039.588-.115c.145-.077.247-.209.308-.396.062-.187.092-.446.092-.777s-.03-.59-.092-.777c-.061-.187-.163-.318-.308-.396s-.341-.115-.588-.115Z" fill="#231f20" stroke-width="0"/>
    <path d="M118.958,20.129c.103,0,.217.005.343.014s.256.026.389.049c.133.023.255.056.367.098l-.077.385c-.153-.014-.315-.025-.486-.032-.17-.007-.316-.01-.438-.01-.271,0-.485.037-.644.112-.159.075-.273.206-.344.392-.069.187-.104.446-.104.777s.035.591.104.78c.07.189.185.321.344.396.158.075.373.112.644.112.07,0,.161-.002.273-.007.111-.005.231-.012.36-.021.128-.009.251-.023.367-.042l.063.399c-.173.061-.36.105-.563.133s-.405.042-.605.042c-.393,0-.707-.059-.945-.175-.238-.117-.409-.306-.515-.567-.104-.261-.157-.611-.157-1.05s.054-.789.161-1.05c.107-.262.279-.449.518-.563.238-.115.553-.172.945-.172Z" fill="#231f20" stroke-width="0"/>
    <path d="M121.499,20.213v2.394c-.005.215.034.367.118.455.085.089.225.133.421.133.19,0,.381-.046.57-.137.188-.091.416-.223.683-.396l.076.413c-.266.21-.523.369-.773.476-.249.107-.503.161-.759.161-.621,0-.932-.312-.932-.938v-2.562h.596ZM123.823,20.213v3.409h-.476l-.056-.644-.063-.105v-2.66h.595Z" fill="#231f20" stroke-width="0"/>
    <path d="M125.517,18.722l-.007,3.962c0,.149.04.263.122.339.082.077.197.116.347.116h.329l.069.455c-.042.019-.101.035-.178.049s-.156.024-.238.032c-.082.007-.15.01-.206.01-.253,0-.454-.075-.606-.224-.151-.149-.227-.364-.227-.644v-4.095h.595Z" fill="#231f20" stroke-width="0"/>
    <path d="M128.884,20.213v.469h-2.296v-.434l.672-.035h1.624ZM127.799,19.205v3.479c0,.164.035.28.104.35.07.07.189.105.357.105h.518l.07.455c-.074.019-.161.035-.259.049-.099.014-.194.024-.287.032-.094.007-.168.01-.224.01-.285,0-.502-.079-.651-.238s-.224-.388-.224-.686v-3.556h.595Z" fill="#231f20" stroke-width="0"/>
    <path d="M132.111,21.522l-.007.448-1.631.007c-.163.005-.277.048-.343.129-.065.082-.099.195-.099.34v.217c0,.177.042.307.126.389s.22.122.406.122c.131,0,.279-.024.444-.073.166-.049.333-.125.501-.228s.322-.233.462-.392v.441c-.052.065-.125.142-.221.228-.096.086-.21.17-.343.252-.133.082-.28.149-.441.203s-.335.081-.521.081c-.2,0-.378-.036-.531-.108-.154-.072-.274-.18-.361-.322-.086-.142-.129-.316-.129-.521v-.371c0-.266.083-.473.248-.62.166-.147.398-.221.696-.221h1.743ZM131.222,20.129c.252,0,.466.034.641.102.175.068.307.181.396.34s.133.375.133.651v2.401h-.469l-.091-.742-.042-.077v-1.582c0-.21-.048-.361-.144-.452s-.279-.136-.55-.136c-.178,0-.4.009-.669.028-.268.019-.533.04-.794.063l-.056-.441c.158-.028.332-.054.521-.077.188-.023.381-.042.577-.056.196-.014.378-.021.546-.021Z" fill="#231f20" stroke-width="0"/>
    <path d="M135.128,18.092l.076.287c-.467.229-.806.596-1.019,1.103-.212.506-.318,1.156-.318,1.95,0,.518.047.978.141,1.379.093.401.237.741.434,1.019.196.277.45.498.763.662l-.076.287c-.635-.247-1.101-.64-1.397-1.179-.296-.539-.444-1.259-.444-2.16s.148-1.628.444-2.17c.297-.542.763-.933,1.397-1.176Z" fill="#231f20" stroke-width="0"/>
    <path d="M136.781,20.129c.148,0,.308.005.476.014s.335.021.501.035c.165.014.318.033.458.056l-.049.434c-.215-.009-.431-.018-.647-.024s-.434-.01-.647-.01c-.21-.005-.376,0-.497.014-.121.014-.209.051-.263.112-.054.061-.08.163-.08.308,0,.178.042.294.126.35s.207.103.371.14l.993.224c.271.065.471.166.599.301.129.135.192.348.192.637,0,.28-.052.49-.157.63-.104.14-.265.233-.479.28-.215.047-.487.07-.819.07-.121,0-.302-.005-.542-.014s-.505-.038-.795-.084l.042-.434c.112.005.231.011.357.018s.258.011.396.011h.424c.256,0,.457-.012.602-.035s.247-.069.308-.137c.061-.067.092-.169.092-.304,0-.168-.05-.28-.147-.336-.098-.056-.229-.103-.392-.14l-.98-.224c-.187-.046-.336-.108-.448-.186-.111-.077-.193-.177-.245-.301-.051-.124-.076-.279-.076-.466,0-.266.046-.466.14-.602.094-.135.238-.226.434-.273.196-.046.448-.067.757-.063Z" fill="#231f20" stroke-width="0"/>
    <path d="M138.6,18.092c.64.243,1.107.634,1.403,1.176.297.542.445,1.265.445,2.17s-.148,1.621-.445,2.16c-.296.539-.764.932-1.403,1.179l-.069-.287c.312-.164.565-.384.759-.662.194-.278.338-.617.431-1.019.094-.401.141-.861.141-1.379,0-.793-.105-1.443-.315-1.95s-.549-.874-1.015-1.103l.069-.287Z" fill="#231f20" stroke-width="0"/>
  </g>
  <g>
    <path d="M190.376,11.708c.205,0,.381.005.528.014.146.009.282.024.405.045.124.021.251.048.382.081l-.062.469c-.141-.014-.27-.025-.389-.035s-.246-.017-.382-.021c-.136-.005-.296-.007-.482-.007-.313,0-.561.061-.742.182-.183.122-.312.324-.389.609s-.115.672-.115,1.162.038.877.115,1.162.206.488.389.609c.182.122.429.182.742.182.298,0,.549-.006.752-.018s.402-.032.599-.06l.062.462c-.2.056-.407.097-.619.123-.212.026-.478.039-.794.039-.463,0-.832-.081-1.11-.242-.277-.161-.478-.423-.602-.787-.124-.364-.186-.854-.186-1.47s.062-1.106.186-1.47c.124-.364.324-.627.602-.788.278-.161.647-.242,1.11-.242Z" fill="#231f20" stroke-width="0"/>
    <path d="M195.086,14.522l-.007.448-1.631.007c-.163.005-.277.048-.343.129-.065.082-.099.195-.099.34v.217c0,.177.042.307.126.389s.22.122.406.122c.131,0,.279-.024.444-.073.166-.049.333-.125.501-.228s.322-.233.462-.392v.441c-.052.065-.125.142-.221.228-.096.086-.21.17-.343.252-.133.082-.28.149-.441.203s-.335.081-.521.081c-.2,0-.378-.036-.531-.108-.154-.072-.274-.18-.361-.322-.086-.142-.129-.316-.129-.521v-.371c0-.266.083-.473.248-.62.166-.147.398-.221.696-.221h1.743ZM194.198,13.129c.252,0,.466.034.641.102.175.068.307.181.396.34s.133.375.133.651v2.401h-.469l-.091-.742-.042-.077v-1.582c0-.21-.048-.361-.144-.452s-.279-.136-.55-.136c-.178,0-.4.009-.669.028-.268.019-.533.04-.794.063l-.056-.441c.158-.028.332-.054.521-.077.188-.023.381-.042.577-.056.196-.014.378-.021.546-.021Z" fill="#231f20" stroke-width="0"/>
    <path d="M196.921,13.213l.062.707.042.091v2.184l-.028.084c.015.13.022.256.025.378.002.121.003.25.003.385v.987h-.595v-4.816h.49ZM198.384,13.129c.415,0,.714.153.896.458.183.306.273.755.273,1.348,0,.438-.047.788-.141,1.046-.093.259-.234.445-.423.557-.189.112-.431.168-.725.168-.225,0-.444-.03-.662-.091-.217-.061-.428-.154-.633-.28l.035-.357c.219.061.413.111.581.15.168.04.345.06.531.06.201,0,.36-.035.479-.105s.207-.196.263-.378.084-.438.084-.77c0-.322-.025-.576-.077-.763-.051-.187-.132-.321-.241-.402s-.256-.123-.438-.123c-.187,0-.371.044-.553.133-.183.088-.395.224-.638.406l-.056-.399c.126-.135.269-.252.427-.35.159-.098.326-.174.501-.228s.347-.081.515-.081Z" fill="#231f20" stroke-width="0"/>
    <path d="M202.99,14.522l-.007.448-1.631.007c-.163.005-.277.048-.343.129-.065.082-.099.195-.099.34v.217c0,.177.042.307.126.389s.22.122.406.122c.131,0,.279-.024.444-.073.166-.049.333-.125.501-.228s.322-.233.462-.392v.441c-.052.065-.125.142-.221.228-.096.086-.21.17-.343.252-.133.082-.28.149-.441.203s-.335.081-.521.081c-.2,0-.378-.036-.531-.108-.154-.072-.274-.18-.361-.322-.086-.142-.129-.316-.129-.521v-.371c0-.266.083-.473.248-.62.166-.147.398-.221.696-.221h1.743ZM202.101,13.129c.252,0,.466.034.641.102.175.068.307.181.396.34s.133.375.133.651v2.401h-.469l-.091-.742-.042-.077v-1.582c0-.21-.048-.361-.144-.452s-.279-.136-.55-.136c-.178,0-.4.009-.669.028-.268.019-.533.04-.794.063l-.056-.441c.158-.028.332-.054.521-.077.188-.023.381-.042.577-.056.196-.014.378-.021.546-.021Z" fill="#231f20" stroke-width="0"/>
    <path d="M207.029,13.129c.224,0,.445.029.665.088.22.058.43.148.63.269l-.035.371c-.219-.065-.413-.117-.581-.154s-.348-.056-.539-.056c-.195,0-.354.034-.472.102-.119.068-.207.192-.263.375-.057.182-.084.441-.084.777s.026.598.08.784.139.317.256.392c.116.075.266.112.448.112.135,0,.258-.018.367-.052.109-.035.227-.092.35-.172.124-.079.27-.179.438-.301l.057.42c-.188.173-.399.32-.638.441-.237.122-.494.182-.77.182-.43,0-.736-.151-.921-.455-.185-.303-.276-.751-.276-1.344,0-.443.047-.794.141-1.054.093-.259.235-.444.427-.557.191-.112.432-.168.721-.168ZM208.807,11.722v4.9h-.462l-.07-.595-.063-.049v-2.338l.042-.105c-.019-.131-.03-.257-.034-.378-.005-.122-.008-.25-.008-.385v-1.05h.596Z" fill="#231f20" stroke-width="0"/>
    <path d="M211.305,13.129c.514,0,.886.094,1.117.28.23.187.347.464.347.833.004.303-.059.54-.189.71s-.338.255-.623.255h-1.988v-.462h1.834c.154,0,.255-.053.302-.158.046-.105.069-.22.069-.346-.005-.219-.069-.375-.195-.469-.126-.093-.341-.14-.645-.14-.247,0-.442.036-.584.108-.143.072-.243.198-.302.378-.058.18-.087.431-.087.752,0,.364.036.642.108.833s.188.322.347.392c.158.07.368.105.63.105.182,0,.381-.008.599-.024.217-.017.411-.036.584-.06l.063.399c-.107.042-.239.077-.396.105s-.317.049-.483.063-.313.021-.444.021c-.392,0-.707-.06-.945-.179s-.412-.31-.521-.574-.164-.612-.164-1.046c0-.448.055-.802.164-1.061.109-.259.28-.443.512-.553.23-.109.528-.165.892-.165Z" fill="#231f20" stroke-width="0"/>
    <path d="M192.732,20.129c.148,0,.308.005.476.014s.335.021.501.035c.165.014.318.033.458.056l-.049.434c-.215-.009-.431-.018-.647-.024s-.434-.01-.647-.01c-.21-.005-.376,0-.497.014-.121.014-.209.051-.263.112-.054.061-.08.163-.08.308,0,.178.042.294.126.35s.207.103.371.14l.993.224c.271.065.471.166.599.301.129.135.192.348.192.637,0,.28-.052.49-.157.63-.104.14-.265.233-.479.28-.215.047-.487.07-.819.07-.121,0-.302-.005-.542-.014s-.505-.038-.795-.084l.042-.434c.112.005.231.011.357.018s.258.011.396.011h.424c.256,0,.457-.012.602-.035s.247-.069.308-.137c.061-.067.092-.169.092-.304,0-.168-.05-.28-.147-.336-.098-.056-.229-.103-.392-.14l-.98-.224c-.187-.046-.336-.108-.448-.186-.111-.077-.193-.177-.245-.301-.051-.124-.076-.279-.076-.466,0-.266.046-.466.14-.602.094-.135.238-.226.434-.273.196-.046.448-.067.757-.063Z" fill="#231f20" stroke-width="0"/>
    <path d="M197.653,21.522l-.007.448-1.631.007c-.164.005-.278.048-.344.129-.065.082-.098.195-.098.34v.217c0,.177.042.307.126.389s.22.122.406.122c.13,0,.278-.024.444-.073.165-.049.332-.125.5-.228s.322-.233.462-.392v.441c-.051.065-.124.142-.22.228-.096.086-.21.17-.344.252-.133.082-.279.149-.44.203s-.335.081-.521.081c-.201,0-.378-.036-.532-.108s-.274-.18-.36-.322c-.087-.142-.13-.316-.13-.521v-.371c0-.266.083-.473.249-.62.165-.147.397-.221.696-.221h1.743ZM196.763,20.129c.253,0,.466.034.641.102.176.068.308.181.396.34.089.159.134.375.134.651v2.401h-.47l-.091-.742-.042-.077v-1.582c0-.21-.048-.361-.144-.452s-.278-.136-.55-.136c-.177,0-.399.009-.668.028s-.533.04-.795.063l-.056-.441c.158-.028.332-.054.521-.077s.382-.042.577-.056c.196-.014.378-.021.546-.021Z" fill="#231f20" stroke-width="0"/>
    <path d="M199.598,18.722l-.007,3.962c0,.149.041.263.123.339.081.077.196.116.346.116h.329l.07.455c-.042.019-.102.035-.179.049s-.156.024-.238.032c-.081.007-.15.01-.206.01-.252,0-.454-.075-.605-.224-.151-.149-.228-.364-.228-.644v-4.095h.595Z" fill="#231f20" stroke-width="0"/>
    <path d="M201.537,18.764c.121,0,.182.061.182.182v.399c0,.121-.061.182-.182.182h-.28c-.121,0-.182-.061-.182-.182v-.399c0-.122.061-.182.182-.182h.28ZM201.692,20.213v3.409h-.588v-3.409h.588Z" fill="#231f20" stroke-width="0"/>
    <path d="M203.946,20.129c.224,0,.445.029.665.088.219.058.429.148.63.269l-.035.371c-.22-.065-.413-.117-.581-.154s-.348-.056-.539-.056c-.196,0-.354.034-.473.102-.119.068-.206.192-.263.375-.056.182-.084.441-.084.777s.027.598.081.784.139.317.255.392c.117.075.267.112.448.112.136,0,.258-.018.367-.052.11-.035.227-.092.351-.172.123-.079.27-.179.438-.301l.056.42c-.187.173-.398.32-.637.441-.238.122-.495.182-.771.182-.429,0-.735-.151-.92-.455-.185-.303-.276-.751-.276-1.344,0-.443.046-.794.14-1.054.094-.259.235-.444.427-.557.191-.112.432-.168.722-.168ZM205.723,18.722v4.9h-.462l-.07-.595-.062-.049v-2.338l.042-.105c-.019-.131-.03-.257-.035-.378-.005-.122-.007-.25-.007-.385v-1.05h.595Z" fill="#231f20" stroke-width="0"/>
    <path d="M209.321,21.522l-.007.448-1.631.007c-.163.005-.277.048-.343.129-.065.082-.099.195-.099.34v.217c0,.177.042.307.126.389s.22.122.406.122c.131,0,.279-.024.444-.073.166-.049.333-.125.501-.228s.322-.233.462-.392v.441c-.052.065-.125.142-.221.228-.096.086-.21.17-.343.252-.133.082-.28.149-.441.203s-.335.081-.521.081c-.2,0-.378-.036-.531-.108-.154-.072-.274-.18-.361-.322-.086-.142-.129-.316-.129-.521v-.371c0-.266.083-.473.248-.62.166-.147.398-.221.696-.221h1.743ZM208.432,20.129c.252,0,.466.034.641.102.175.068.307.181.396.34s.133.375.133.651v2.401h-.469l-.091-.742-.042-.077v-1.582c0-.21-.048-.361-.144-.452s-.279-.136-.55-.136c-.178,0-.4.009-.669.028-.268.019-.533.04-.794.063l-.056-.441c.158-.028.332-.054.521-.077.188-.023.381-.042.577-.056.196-.014.378-.021.546-.021Z" fill="#231f20" stroke-width="0"/>
  </g>
  <g>
    <path d="M42.993,11.708c.205,0,.381.005.528.014.146.009.282.024.405.045.124.021.251.048.382.081l-.062.469c-.141-.014-.27-.025-.389-.035s-.246-.017-.382-.021c-.136-.005-.296-.007-.482-.007-.313,0-.561.061-.742.182-.183.122-.312.324-.389.609s-.115.672-.115,1.162.038.877.115,1.162.206.488.389.609c.182.122.429.182.742.182.298,0,.549-.006.752-.018s.402-.032.599-.06l.062.462c-.2.056-.407.097-.619.123-.212.026-.478.039-.794.039-.463,0-.832-.081-1.11-.242-.277-.161-.478-.423-.602-.787-.124-.364-.186-.854-.186-1.47s.062-1.106.186-1.47c.124-.364.324-.627.602-.788.278-.161.647-.242,1.11-.242Z" fill="#231f20" stroke-width="0"/>
    <path d="M47.703,14.522l-.007.448-1.631.007c-.163.005-.277.048-.343.129-.065.082-.099.195-.099.34v.217c0,.177.042.307.126.389s.22.122.406.122c.131,0,.279-.024.444-.073.166-.049.333-.125.501-.228s.322-.233.462-.392v.441c-.052.065-.125.142-.221.228-.096.086-.21.17-.343.252-.133.082-.28.149-.441.203s-.335.081-.521.081c-.2,0-.378-.036-.531-.108-.154-.072-.274-.18-.361-.322-.086-.142-.129-.316-.129-.521v-.371c0-.266.083-.473.248-.62.166-.147.398-.221.696-.221h1.743ZM46.815,13.129c.252,0,.466.034.641.102.175.068.307.181.396.34s.133.375.133.651v2.401h-.469l-.091-.742-.042-.077v-1.582c0-.21-.048-.361-.144-.452s-.279-.136-.55-.136c-.178,0-.4.009-.669.028-.268.019-.533.04-.794.063l-.056-.441c.158-.028.332-.054.521-.077.188-.023.381-.042.577-.056.196-.014.378-.021.546-.021Z" fill="#231f20" stroke-width="0"/>
    <path d="M49.538,13.213l.062.707.042.091v2.184l-.028.084c.015.13.022.256.025.378.002.121.003.25.003.385v.987h-.595v-4.816h.49ZM51.001,13.129c.415,0,.714.153.896.458.183.306.273.755.273,1.348,0,.438-.047.788-.141,1.046-.093.259-.234.445-.423.557-.189.112-.431.168-.725.168-.225,0-.444-.03-.662-.091-.217-.061-.428-.154-.633-.28l.035-.357c.219.061.413.111.581.15.168.04.345.06.531.06.201,0,.36-.035.479-.105s.207-.196.263-.378.084-.438.084-.77c0-.322-.025-.576-.077-.763-.051-.187-.132-.321-.241-.402s-.256-.123-.438-.123c-.187,0-.371.044-.553.133-.183.088-.395.224-.638.406l-.056-.399c.126-.135.269-.252.427-.35.159-.098.326-.174.501-.228s.347-.081.515-.081Z" fill="#231f20" stroke-width="0"/>
    <path d="M55.607,14.522l-.007.448-1.631.007c-.163.005-.277.048-.343.129-.065.082-.099.195-.099.34v.217c0,.177.042.307.126.389s.22.122.406.122c.131,0,.279-.024.444-.073.166-.049.333-.125.501-.228s.322-.233.462-.392v.441c-.052.065-.125.142-.221.228-.096.086-.21.17-.343.252-.133.082-.28.149-.441.203s-.335.081-.521.081c-.2,0-.378-.036-.531-.108-.154-.072-.274-.18-.361-.322-.086-.142-.129-.316-.129-.521v-.371c0-.266.083-.473.248-.62.166-.147.398-.221.696-.221h1.743ZM54.718,13.129c.252,0,.466.034.641.102.175.068.307.181.396.34s.133.375.133.651v2.401h-.469l-.091-.742-.042-.077v-1.582c0-.21-.048-.361-.144-.452s-.279-.136-.55-.136c-.178,0-.4.009-.669.028-.268.019-.533.04-.794.063l-.056-.441c.158-.028.332-.054.521-.077.188-.023.381-.042.577-.056.196-.014.378-.021.546-.021Z" fill="#231f20" stroke-width="0"/>
    <path d="M59.646,13.129c.224,0,.445.029.665.088.22.058.43.148.63.269l-.035.371c-.219-.065-.413-.117-.581-.154s-.348-.056-.539-.056c-.195,0-.354.034-.472.102-.119.068-.207.192-.263.375-.057.182-.084.441-.084.777s.026.598.08.784.139.317.256.392c.116.075.266.112.448.112.135,0,.258-.018.367-.052.109-.035.227-.092.35-.172.124-.079.27-.179.438-.301l.057.42c-.188.173-.399.32-.638.441-.237.122-.494.182-.77.182-.43,0-.736-.151-.921-.455-.185-.303-.276-.751-.276-1.344,0-.443.047-.794.141-1.054.093-.259.235-.444.427-.557.191-.112.432-.168.721-.168ZM61.424,11.722v4.9h-.462l-.07-.595-.063-.049v-2.338l.042-.105c-.019-.131-.03-.257-.034-.378-.005-.122-.008-.25-.008-.385v-1.05h.596Z" fill="#231f20" stroke-width="0"/>
    <path d="M63.922,13.129c.514,0,.886.094,1.117.28.23.187.347.464.347.833.004.303-.059.54-.189.71s-.338.255-.623.255h-1.988v-.462h1.834c.154,0,.255-.053.302-.158.046-.105.069-.22.069-.346-.005-.219-.069-.375-.195-.469-.126-.093-.341-.14-.645-.14-.247,0-.442.036-.584.108-.143.072-.243.198-.302.378-.058.18-.087.431-.087.752,0,.364.036.642.108.833s.188.322.347.392c.158.07.368.105.63.105.182,0,.381-.008.599-.024.217-.017.411-.036.584-.06l.063.399c-.107.042-.239.077-.396.105s-.317.049-.483.063-.313.021-.444.021c-.392,0-.707-.06-.945-.179s-.412-.31-.521-.574-.164-.612-.164-1.046c0-.448.055-.802.164-1.061.109-.259.28-.443.512-.553.23-.109.528-.165.892-.165Z" fill="#231f20" stroke-width="0"/>
    <path d="M42.65,20.129c.514,0,.886.094,1.116.28.231.187.347.464.347.833.005.303-.059.54-.188.71-.131.17-.339.255-.623.255h-1.988v-.462h1.834c.154,0,.254-.053.301-.158s.07-.22.07-.346c-.005-.219-.07-.375-.196-.469-.126-.093-.341-.14-.644-.14-.248,0-.442.036-.585.108s-.242.198-.301.378-.088.431-.088.752c0,.364.036.642.108.833s.188.322.347.392c.159.07.369.105.63.105.183,0,.382-.008.599-.024.217-.017.412-.036.585-.06l.062.399c-.107.042-.239.077-.396.105s-.317.049-.482.063c-.166.014-.314.021-.445.021-.392,0-.707-.06-.944-.179-.238-.119-.412-.31-.521-.574-.11-.264-.165-.612-.165-1.046,0-.448.055-.802.165-1.061.109-.259.279-.443.511-.553.231-.109.528-.165.893-.165Z" fill="#231f20" stroke-width="0"/>
    <path d="M45.512,20.213l.05.651.042.105v2.653h-.596v-3.409h.504ZM47.08,20.129c.616,0,.924.313.924.938v2.555h-.595v-2.387c0-.229-.037-.386-.112-.472-.074-.086-.2-.129-.378-.129-.21,0-.42.051-.63.154s-.46.243-.749.42l-.028-.427c.267-.206.53-.365.791-.479.262-.115.521-.172.777-.172Z" fill="#231f20" stroke-width="0"/>
    <path d="M51.014,20.213v.469h-2.296v-.434l.672-.035h1.624ZM49.929,19.205v3.479c0,.164.035.28.105.35.07.07.188.105.356.105h.519l.07.455c-.075.019-.161.035-.26.049-.098.014-.193.024-.287.032-.093.007-.168.01-.224.01-.284,0-.502-.079-.651-.238s-.224-.388-.224-.686v-3.556h.595Z" fill="#231f20" stroke-width="0"/>
    <path d="M52.204,20.213l.077.651.056.105v2.653h-.595v-3.409h.462ZM53.877,20.129l-.07.56h-.195c-.201,0-.401.041-.603.123-.2.082-.445.197-.734.347l-.05-.371c.252-.206.506-.366.76-.483.255-.117.501-.175.738-.175h.154Z" fill="#231f20" stroke-width="0"/>
    <path d="M57.048,21.522l-.007.448-1.631.007c-.163.005-.277.048-.343.129-.065.082-.099.195-.099.34v.217c0,.177.042.307.126.389s.22.122.406.122c.131,0,.279-.024.444-.073.166-.049.333-.125.501-.228s.322-.233.462-.392v.441c-.052.065-.125.142-.221.228-.096.086-.21.17-.343.252-.133.082-.28.149-.441.203s-.335.081-.521.081c-.2,0-.378-.036-.531-.108-.154-.072-.274-.18-.361-.322-.086-.142-.129-.316-.129-.521v-.371c0-.266.083-.473.248-.62.166-.147.398-.221.696-.221h1.743ZM56.159,20.129c.252,0,.466.034.641.102.175.068.307.181.396.34s.133.375.133.651v2.401h-.469l-.091-.742-.042-.077v-1.582c0-.21-.048-.361-.144-.452s-.279-.136-.55-.136c-.178,0-.4.009-.669.028-.268.019-.533.04-.794.063l-.056-.441c.158-.028.332-.054.521-.077.188-.023.381-.042.577-.056.196-.014.378-.021.546-.021Z" fill="#231f20" stroke-width="0"/>
    <path d="M59.527,20.129c.224,0,.445.029.665.088.219.058.429.148.63.269l-.035.371c-.22-.065-.413-.117-.581-.154s-.348-.056-.539-.056c-.196,0-.354.034-.473.102-.119.068-.206.192-.263.375-.056.182-.084.441-.084.777s.027.598.081.784.139.317.255.392c.117.075.267.112.448.112.136,0,.258-.018.367-.052.11-.035.227-.092.351-.172.123-.079.27-.179.438-.301l.056.42c-.187.173-.398.32-.637.441-.238.122-.495.182-.771.182-.429,0-.735-.151-.92-.455-.185-.303-.276-.751-.276-1.344,0-.443.046-.794.14-1.054.094-.259.235-.444.427-.557.191-.112.432-.168.722-.168ZM61.304,18.722v4.9h-.462l-.07-.595-.062-.049v-2.338l.042-.105c-.019-.131-.03-.257-.035-.378-.005-.122-.007-.25-.007-.385v-1.05h.595Z" fill="#231f20" stroke-width="0"/>
    <path d="M64.903,21.522l-.007.448-1.631.007c-.164.005-.278.048-.344.129-.065.082-.098.195-.098.34v.217c0,.177.042.307.126.389s.22.122.406.122c.13,0,.278-.024.444-.073.165-.049.332-.125.5-.228s.322-.233.462-.392v.441c-.051.065-.124.142-.22.228-.096.086-.21.17-.344.252-.133.082-.279.149-.44.203s-.335.081-.521.081c-.201,0-.378-.036-.532-.108s-.274-.18-.36-.322c-.087-.142-.13-.316-.13-.521v-.371c0-.266.083-.473.249-.62.165-.147.397-.221.696-.221h1.743ZM64.013,20.129c.253,0,.466.034.641.102.176.068.308.181.396.34.089.159.134.375.134.651v2.401h-.47l-.091-.742-.042-.077v-1.582c0-.21-.048-.361-.144-.452s-.278-.136-.55-.136c-.177,0-.399.009-.668.028s-.533.04-.795.063l-.056-.441c.158-.028.332-.054.521-.077s.382-.042.577-.056c.196-.014.378-.021.546-.021Z" fill="#231f20" stroke-width="0"/>
  </g>
  <circle cx="51.363" cy="42.629" r="8.299" fill="none" stroke="#231f20" stroke-miterlimit="10" stroke-width=".75"/>
  <circle cx="51.363" cy="65.399" r="8.299" fill="none" stroke="#231f20" stroke-miterlimit="10" stroke-width=".75"/>
  <circle cx="125.496" cy="53.334" r="8.299" fill="none" stroke="#231f20" stroke-miterlimit="10" stroke-width=".75"/>
  <circle cx="125.496" cy="88.168" r="8.299" fill="none" stroke="#231f20" stroke-miterlimit="10" stroke-width=".75"/>
  <circle cx="198.839" cy="88.168" r="8.299" fill="none" stroke="#231f20" stroke-miterlimit="10" stroke-width=".75"/>
  <circle cx="125.496" cy="122.347" r="8.299" fill="none" stroke="#231f20" stroke-miterlimit="10" stroke-width=".75"/>
  <circle cx="51.363" cy="88.168" r="8.299" fill="none" stroke="#231f20" stroke-miterlimit="10" stroke-width=".75"/>
  <circle cx="51.363" cy="110.938" r="8.299" fill="none" stroke="#231f20" stroke-miterlimit="10" stroke-width=".75"/>
  <circle cx="51.363" cy="133.707" r="8.299" fill="none" stroke="#231f20" stroke-miterlimit="10" stroke-width=".75"/>
  <g>
    <line x1="26.4" y1="42.629" x2="40.801" y2="42.629" fill="none" stroke="#231f20" stroke-miterlimit="10" stroke-width=".75"/>
    <g>
      <path d="M26.48,44.039c-.779,0-1.41-.631-1.41-1.41s.631-1.41,1.41-1.41,1.41.631,1.41,1.41-.631,1.41-1.41,1.41Z" fill="#fff" stroke-width="0"/>
      <path d="M26.48,44.226c.881,0,1.597-.717,1.597-1.597s-.717-1.597-1.597-1.597-1.597.717-1.597,1.597.717,1.597,1.597,1.597-.881,0,0,0ZM26.48,41.407c.674,0,1.222.548,1.222,1.222s-.548,1.222-1.222,1.222-1.222-.548-1.222-1.222.548-1.222,1.222-1.222-.674,0,0,0Z" fill="#231f20" stroke-width="0"/>
    </g>
    <path d="M43.064,42.629c-1.065.395-2.386,1.069-3.205,1.783l.645-1.783-.645-1.783c.819.714,2.14,1.388,3.205,1.783Z" fill="#231f20" stroke-width="0"/>
  </g>
  <g>
    <line x1="207.139" y1="88.168" x2="228.881" y2="88.168" fill="none" stroke="#231f20" stroke-miterlimit="10" stroke-width=".75"/>
    <path d="M231.144,88.168c-1.065.395-2.386,1.069-3.205,1.783l.645-1.783-.645-1.783c.819.714,2.14,1.388,3.205,1.783Z" fill="#231f20" stroke-width="0"/>
  </g>
  <g>
    <line x1="59.663" y1="42.629" x2="114.962" y2="51.513" fill="none" stroke="#231f20" stroke-miterlimit="10" stroke-width=".75"/>
    <path d="M117.197,51.872c-1.114.221-2.526.677-3.448,1.252l.92-1.659-.354-1.863c.695.835,1.893,1.71,2.882,2.269Z" fill="#231f20" stroke-width="0"/>
  </g>
  <g>
    <line x1="59.663" y1="64.387" x2="114.967" y2="54.763" fill="none" stroke="#231f20" stroke-miterlimit="10" stroke-width=".75"/>
    <path d="M117.197,54.375c-.981.572-2.168,1.463-2.852,2.307l.33-1.868-.941-1.646c.929.563,2.347,1.001,3.464,1.207Z" fill="#231f20" stroke-width="0"/>
  </g>
  <g>
    <line x1="59.519" y1="67.343" x2="115.213" y2="85.073" fill="none" stroke="#231f20" stroke-miterlimit="10" stroke-width=".75"/>
    <path d="M117.37,85.76c-1.135.053-2.598.295-3.595.727l1.156-1.504-.074-1.895c.564.929,1.618,1.972,2.513,2.671Z" fill="#231f20" stroke-width="0"/>
  </g>
  <g>
    <line x1="58.261" y1="70.014" x2="117.604" y2="114.732" fill="none" stroke="#231f20" stroke-miterlimit="10" stroke-width=".75"/>
    <path d="M119.411,116.094c-1.088-.325-2.549-.582-3.633-.505l1.588-1.036.558-1.812c.224,1.063.874,2.397,1.487,3.353Z" fill="#231f20" stroke-width="0"/>
  </g>
  <g>
    <line x1="58.902" y1="84.713" x2="115.646" y2="57.858" fill="none" stroke="#231f20" stroke-miterlimit="10" stroke-width=".75"/>
    <path d="M117.692,56.89c-.794.813-1.699,1.987-2.134,2.983l-.18-1.888-1.346-1.336c1.046.295,2.529.339,3.66.241Z" fill="#231f20" stroke-width="0"/>
  </g>
  <g>
    <line x1="59.663" y1="88.168" x2="114.933" y2="88.168" fill="none" stroke="#231f20" stroke-miterlimit="10" stroke-width=".75"/>
    <path d="M117.197,88.168c-1.065.395-2.386,1.069-3.205,1.783l.645-1.783-.645-1.783c.819.714,2.14,1.388,3.205,1.783Z" fill="#231f20" stroke-width="0"/>
  </g>
  <g>
    <line x1="58.674" y1="91.321" x2="116.099" y2="117.022" fill="none" stroke="#231f20" stroke-miterlimit="10" stroke-width=".75"/>
    <path d="M118.165,117.947c-1.133-.074-2.615.001-3.654.318l1.317-1.364.14-1.891c.456.986,1.386,2.142,2.197,2.937Z" fill="#231f20" stroke-width="0"/>
  </g>
  <g>
    <line x1="58.128" y1="105.986" x2="117.424" y2="60.481" fill="none" stroke="#231f20" stroke-miterlimit="10" stroke-width=".75"/>
    <path d="M119.219,59.103c-.604.962-1.242,2.301-1.457,3.366l-.574-1.808-1.597-1.022c1.085.068,2.543-.202,3.628-.537Z" fill="#231f20" stroke-width="0"/>
  </g>
  <g>
    <line x1="59.423" y1="108.43" x2="115.035" y2="91.188" fill="none" stroke="#231f20" stroke-miterlimit="10" stroke-width=".75"/>
    <path d="M117.197,90.518c-.9.693-1.963,1.728-2.533,2.653l.088-1.895-1.144-1.512c.994.44,2.455.692,3.59.754Z" fill="#231f20" stroke-width="0"/>
  </g>
  <g>
    <line x1="59.663" y1="110.938" x2="114.963" y2="119.972" fill="none" stroke="#231f20" stroke-miterlimit="10" stroke-width=".75"/>
    <path d="M117.197,120.337c-1.115.218-2.527.671-3.451,1.243l.924-1.656-.349-1.864c.693.837,1.888,1.715,2.876,2.277Z" fill="#231f20" stroke-width="0"/>
  </g>
  <g>
    <line x1="57.039" y1="127.321" x2="119.735" y2="62.48" fill="none" stroke="#231f20" stroke-miterlimit="10" stroke-width=".75"/>
    <path d="M121.308,60.853c-.456,1.04-.89,2.459-.946,3.544l-.834-1.703-1.73-.776c1.083-.092,2.486-.574,3.51-1.065Z" fill="#231f20" stroke-width="0"/>
  </g>
  <g>
    <line x1="58.333" y1="129.671" x2="116.385" y2="94.233" fill="none" stroke="#231f20" stroke-miterlimit="10" stroke-width=".75"/>
    <path d="M118.317,93.054c-.703.892-1.48,2.156-1.807,3.192l-.379-1.858-1.48-1.186c1.071.183,2.55.07,3.665-.148Z" fill="#231f20" stroke-width="0"/>
  </g>
  <g>
    <line x1="59.663" y1="132.109" x2="114.701" y2="122.972" fill="none" stroke="#231f20" stroke-miterlimit="10" stroke-width=".75"/>
    <path d="M116.934,122.601c-.986.564-2.179,1.446-2.87,2.284l.344-1.865-.928-1.653c.925.57,2.339,1.019,3.454,1.234Z" fill="#231f20" stroke-width="0"/>
  </g>
  <g>
    <line x1="59.006" y1="45.871" x2="116.709" y2="81.933" fill="none" stroke="#231f20" stroke-miterlimit="10" stroke-width=".75"/>
    <path d="M118.628,83.133c-1.112-.229-2.59-.358-3.663-.186l1.492-1.171.398-1.854c.316,1.04,1.079,2.312,1.773,3.211Z" fill="#231f20" stroke-width="0"/>
  </g>
  <g>
    <line x1="57.111" y1="48.617" x2="119.876" y2="113.163" fill="none" stroke="#231f20" stroke-miterlimit="10" stroke-width=".75"/>
    <path d="M121.454,114.786c-1.026-.488-2.43-.965-3.513-1.055l1.728-.781.829-1.706c.059,1.085.497,2.502.956,3.541Z" fill="#231f20" stroke-width="0"/>
  </g>
  <g>
    <line x1="132.732" y1="57.196" x2="188.991" y2="83.612" fill="none" stroke="#231f20" stroke-miterlimit="10" stroke-width=".75"/>
    <path d="M191.039,84.574c-1.132-.095-2.614-.046-3.659.252l1.342-1.34.174-1.888c.438.995,1.347,2.166,2.143,2.976Z" fill="#231f20" stroke-width="0"/>
  </g>
  <g>
    <line x1="133.796" y1="88.168" x2="188.276" y2="88.168" fill="none" stroke="#231f20" stroke-miterlimit="10" stroke-width=".75"/>
    <path d="M190.54,88.168c-1.065.395-2.386,1.069-3.205,1.783l.645-1.783-.645-1.783c.819.714,2.14,1.388,3.205,1.783Z" fill="#231f20" stroke-width="0"/>
  </g>
  <g>
    <line x1="133.063" y1="118.949" x2="188.978" y2="92.621" fill="none" stroke="#231f20" stroke-miterlimit="10" stroke-width=".75"/>
    <path d="M191.026,91.657c-.795.811-1.703,1.984-2.14,2.979l-.176-1.888-1.343-1.338c1.045.297,2.528.344,3.659.248Z" fill="#231f20" stroke-width="0"/>
  </g>
  <g>
    <line x1="26.4" y1="65.399" x2="40.801" y2="65.399" fill="none" stroke="#231f20" stroke-miterlimit="10" stroke-width=".75"/>
    <g>
      <path d="M26.48,66.808c-.779,0-1.41-.631-1.41-1.41s.631-1.41,1.41-1.41,1.41.631,1.41,1.41-.631,1.41-1.41,1.41Z" fill="#fff" stroke-width="0"/>
      <path d="M26.48,66.996c.881,0,1.597-.717,1.597-1.597s-.717-1.597-1.597-1.597-1.597.717-1.597,1.597.717,1.597,1.597,1.597-.881,0,0,0ZM26.48,64.176c.674,0,1.222.548,1.222,1.222s-.548,1.222-1.222,1.222-1.222-.548-1.222-1.222.548-1.222,1.222-1.222-.674,0,0,0Z" fill="#231f20" stroke-width="0"/>
    </g>
    <path d="M43.064,65.399c-1.065.395-2.386,1.069-3.205,1.783l.645-1.783-.645-1.783c.819.714,2.14,1.388,3.205,1.783Z" fill="#231f20" stroke-width="0"/>
  </g>
  <g>
    <line x1="26.4" y1="88.168" x2="40.801" y2="88.168" fill="none" stroke="#231f20" stroke-miterlimit="10" stroke-width=".75"/>
    <g>
      <path d="M26.48,89.578c-.779,0-1.41-.631-1.41-1.41s.631-1.41,1.41-1.41,1.41.631,1.41,1.41-.631,1.41-1.41,1.41Z" fill="#fff" stroke-width="0"/>
      <path d="M26.48,89.766c.881,0,1.597-.717,1.597-1.597s-.717-1.597-1.597-1.597-1.597.717-1.597,1.597.717,1.597,1.597,1.597-.881,0,0,0ZM26.48,86.946c.674,0,1.222.548,1.222,1.222s-.548,1.222-1.222,1.222-1.222-.548-1.222-1.222.548-1.222,1.222-1.222-.674,0,0,0Z" fill="#231f20" stroke-width="0"/>
    </g>
    <path d="M43.064,88.168c-1.065.395-2.386,1.069-3.205,1.783l.645-1.783-.645-1.783c.819.714,2.14,1.388,3.205,1.783Z" fill="#231f20" stroke-width="0"/>
  </g>
  <g>
    <line x1="26.4" y1="110.938" x2="40.801" y2="110.938" fill="none" stroke="#231f20" stroke-miterlimit="10" stroke-width=".75"/>
    <g>
      <path d="M26.48,112.348c-.779,0-1.41-.631-1.41-1.41s.631-1.41,1.41-1.41,1.41.631,1.41,1.41-.631,1.41-1.41,1.41Z" fill="#fff" stroke-width="0"/>
      <path d="M26.48,112.535c.881,0,1.597-.717,1.597-1.597s-.717-1.597-1.597-1.597-1.597.717-1.597,1.597.717,1.597,1.597,1.597-.881,0,0,0ZM26.48,109.715c.674,0,1.222.548,1.222,1.222s-.548,1.222-1.222,1.222-1.222-.548-1.222-1.222.548-1.222,1.222-1.222-.674,0,0,0Z" fill="#231f20" stroke-width="0"/>
    </g>
    <path d="M43.064,110.938c-1.065.395-2.386,1.069-3.205,1.783l.645-1.783-.645-1.783c.819.714,2.14,1.388,3.205,1.783Z" fill="#231f20" stroke-width="0"/>
  </g>
  <g>
    <line x1="26.4" y1="133.707" x2="40.801" y2="133.707" fill="none" stroke="#231f20" stroke-miterlimit="10" stroke-width=".75"/>
    <g>
      <path d="M26.48,135.117c-.779,0-1.41-.631-1.41-1.41s.631-1.41,1.41-1.41,1.41.631,1.41,1.41-.631,1.41-1.41,1.41Z" fill="#fff" stroke-width="0"/>
      <path d="M26.48,135.305c.881,0,1.597-.717,1.597-1.597s-.717-1.597-1.597-1.597-1.597.717-1.597,1.597.717,1.597,1.597,1.597-.881,0,0,0ZM26.48,132.485c.674,0,1.222.548,1.222,1.222s-.548,1.222-1.222,1.222-1.222-.548-1.222-1.222.548-1.222,1.222-1.222-.674,0,0,0Z" fill="#231f20" stroke-width="0"/>
    </g>
    <path d="M43.064,133.707c-1.065.395-2.386,1.069-3.205,1.783l.645-1.783-.645-1.783c.819.714,2.14,1.388,3.205,1.783Z" fill="#231f20" stroke-width="0"/>
  </g>
</svg>