<?xml version="1.0" encoding="UTF-8"?>
<svg id="a" data-name="Layer 3" xmlns="http://www.w3.org/2000/svg" viewBox="0 0 250.785 157.48">
  <g>
    <path d="M13.706,27.791c-.059-.309-.119-.605-.182-.891s-.127-.551-.193-.797-.121-.407-.164-.483-.089-.129-.138-.158-.11-.044-.185-.044c-.082,0-.156.019-.223.056s-.139.102-.217.193-.182.235-.311.431l-.381-.252c.246-.371.482-.648.709-.832s.494-.275.803-.275c.121,0,.228.014.319.041s.173.069.243.126.133.13.188.22.107.212.158.366.099.346.144.574.085.466.12.712h.059c.375-.527.659-.913.853-1.157s.356-.426.489-.545.261-.203.384-.252.286-.073.489-.073c.184,0,.334.023.451.07l-.234,1.061h-.41c-.023-.164-.092-.246-.205-.246-.035,0-.072.006-.111.018s-.087.037-.144.076-.14.115-.249.229-.232.252-.369.416-.277.336-.422.516l-.398.498c.07.375.137.699.199.973s.118.501.167.683.092.325.129.431.077.185.12.237.087.09.132.111.097.032.155.032c.105,0,.208-.041.308-.123s.243-.268.431-.557l.381.252c-.273.406-.521.692-.741.858s-.483.249-.788.249c-.168,0-.311-.03-.428-.091s-.219-.157-.305-.29-.162-.34-.229-.621c-.121-.5-.195-.883-.223-1.148h-.059c-.414.582-.722,1-.923,1.254s-.367.441-.498.562-.258.206-.381.255-.286.073-.489.073c-.184,0-.334-.023-.451-.07l.234-1.061h.41c.023.164.092.246.205.246.055,0,.112-.015.173-.044s.147-.1.261-.211.27-.286.469-.524.488-.596.867-1.072Z" fill="#231f20" stroke-width="0"/>
    <path d="M19.671,33.544c0,.132.008.232.022.299.015.067.041.122.079.164.037.042.091.075.162.099.07.024.159.042.267.055.106.013.248.021.423.025v.25h-2.524v-.25c.253-.011.434-.026.542-.046.107-.02.19-.048.247-.087.058-.039.099-.093.125-.164.026-.071.039-.186.039-.345v-2.771c0-.091-.016-.158-.048-.2-.031-.042-.078-.063-.14-.063-.073,0-.177.038-.311.112-.135.075-.301.179-.499.311l-.15-.263,1.599-.953h.188c-.014.218-.021.521-.021.908v2.917Z" fill="#231f20" stroke-width="0"/>
  </g>
  <g>
    <path d="M51.642,28.509c-.072.276-.145.552-.145.84,0,.468.229.731.708.731,1.295,0,1.967-1.379,2.339-2.435.096-.288.18-.588.18-.888,0-.887-.708-.792-.731-1.307-.024-.432.359-.504.647-.504.504,0,.563.612.563.996,0,1.751-1.259,4.605-3.31,4.605-.828,0-1.332-.336-1.332-1.199,0-.504.145-1.02.276-1.499-.479,1.067-1.464,2.698-2.807,2.698-.672,0-.936-.408-.936-1.043,0-.396.132-.768.228-1.139l.564-2.123c.035-.108.06-.228.06-.348,0-.288-.456-.264-.647-.264v-.18c.636-.108,1.259-.276,1.858-.528l.049.036-.972,3.682c-.036.156-.132.54-.132.875,0,.312.071.563.336.563.695-.012,1.547-1.367,1.835-1.811.635-.971.947-1.907,1.318-3.226h1.008l-.959,3.466Z" fill="#231f20" stroke-width="0"/>
    <path d="M56.476,33.898c-.007.042-.007.07-.007.098,0,.049.042.07.091.07.153,0,.195-.083.447-.356l.091.07c-.245.314-.595.733-.937.733-.196,0-.279-.133-.279-.321,0-.084,0-.217.552-2.362.007-.014.014-.062.014-.083,0-.119-.056-.154-.217-.154-.062,0-.146.014-.195.028l-.021-.112,1.104-.154-.643,2.544ZM56.993,30.802c-.202,0-.335-.14-.335-.321,0-.175.133-.35.335-.35.182,0,.336.175.336.35,0,.182-.154.321-.336.321Z" fill="#231f20" stroke-width="0"/>
    <path d="M58.218,35.288c.385-.258.58-.517.58-.748,0-.049-.042-.091-.098-.091s-.126.028-.203.028c-.258,0-.405-.119-.405-.356s.168-.398.42-.398c.314,0,.559.245.559.608,0,.419-.3.86-.782,1.09l-.07-.133Z" fill="#231f20" stroke-width="0"/>
    <path d="M60.282,34.436v-.105c.518-.028.664-.175.664-.559v-3.138c0-.238-.062-.342-.21-.342-.069,0-.188.035-.314.083l-.188.07v-.098l1.251-.636.062.021v4.172c0,.301.141.426.664.426v.105h-1.929Z" fill="#231f20" stroke-width="0"/>
  </g>
  <g>
    <path d="M15.109,55.748c.312-.479.731-1.007,1.331-1.007.384,0,.588.144.588.396,0,.228-.156.503-.468.503-.264,0-.324-.108-.528-.108-.359,0-.491.192-.659.456l-.66,1.02c.36.744.636,2.363,1.176,2.363.191,0,.479-.168.731-.684l.168.12c-.144.18-.684,1.331-1.379,1.331-.492,0-.72-.492-.876-.923l-.479-1.355-.756,1.175c-.384.588-.731,1.104-1.403,1.104-.432,0-.623-.3-.623-.563,0-.192.155-.444.455-.444.312,0,.265.24.564.24.144,0,.455-.12.839-.708l.78-1.211-.396-1.104c-.204-.576-.516-1.067-1.175-1.067-.156,0-.336.024-.456.072l-.036-.216,1.583-.396c.528.288.756.78.899,1.175l.24.66.54-.828Z" fill="#231f20" stroke-width="0"/>
    <path d="M18.07,60.434c.167-.412.328-.65.573-.838.272-.209.572-.293.895-.293.671,0,1.132.517,1.132,1.181,0,.468-.217.79-1.041,1.635l-1.314,1.342v.035h1.265c.413,0,.553-.104.721-.454l.118.049-.35.937h-2.474v-.119l1.468-1.565c.461-.489.775-.93.943-1.307.042-.091.062-.224.062-.377,0-.482-.279-.845-.831-.845-.42,0-.776.203-1.021.671l-.146-.049Z" fill="#231f20" stroke-width="0"/>
  </g>
  <g>
    <path d="M51.641,58.099c-.072.276-.144.552-.144.84,0,.468.228.731.707.731,1.296,0,1.967-1.379,2.339-2.435.096-.288.18-.588.18-.888,0-.887-.707-.792-.731-1.307-.023-.432.36-.504.647-.504.504,0,.564.612.564.996,0,1.751-1.26,4.605-3.311,4.605-.827,0-1.331-.336-1.331-1.199,0-.504.144-1.02.275-1.499-.479,1.067-1.463,2.698-2.807,2.698-.671,0-.936-.408-.936-1.043,0-.396.133-.768.229-1.139l.563-2.123c.036-.108.06-.228.06-.348,0-.288-.455-.264-.647-.264v-.18c.636-.108,1.26-.276,1.859-.528l.048.036-.972,3.682c-.036.156-.132.54-.132.875,0,.312.072.563.336.563.695-.012,1.547-1.367,1.835-1.811.636-.971.947-1.907,1.319-3.226h1.008l-.96,3.466Z" fill="#231f20" stroke-width="0"/>
    <path d="M56.475,63.488c-.007.042-.007.07-.007.098,0,.049.042.07.091.07.154,0,.196-.083.447-.356l.091.07c-.244.314-.594.733-.937.733-.195,0-.279-.133-.279-.321,0-.084,0-.217.552-2.362.008-.014.015-.062.015-.083,0-.119-.057-.154-.217-.154-.063,0-.146.014-.196.028l-.021-.112,1.104-.154-.644,2.544ZM56.993,60.392c-.203,0-.336-.14-.336-.321,0-.175.133-.35.336-.35.182,0,.335.175.335.35,0,.182-.153.321-.335.321Z" fill="#231f20" stroke-width="0"/>
    <path d="M57.672,64.802c.371-.238.531-.44.531-.629,0-.07-.027-.119-.14-.203-.14-.104-.175-.209-.175-.342,0-.167.154-.308.356-.308.252,0,.405.238.405.518,0,.391-.321.783-.908,1.09l-.07-.125Z" fill="#231f20" stroke-width="0"/>
    <path d="M60.016,60.434c.167-.412.328-.65.573-.838.272-.209.572-.293.895-.293.671,0,1.132.517,1.132,1.181,0,.468-.217.79-1.041,1.635l-1.314,1.342v.035h1.265c.413,0,.553-.104.721-.454l.118.049-.35.937h-2.474v-.119l1.468-1.565c.461-.489.775-.93.943-1.307.042-.091.062-.224.062-.377,0-.482-.279-.845-.831-.845-.42,0-.776.203-1.021.671l-.146-.049Z" fill="#231f20" stroke-width="0"/>
  </g>
  <g>
    <path d="M15.109,120.774c.312-.479.731-1.007,1.331-1.007.384,0,.588.144.588.396,0,.228-.156.503-.468.503-.264,0-.324-.108-.528-.108-.359,0-.491.192-.659.456l-.66,1.02c.36.744.636,2.363,1.176,2.363.191,0,.479-.168.731-.684l.168.12c-.144.18-.684,1.331-1.379,1.331-.492,0-.72-.492-.876-.923l-.479-1.355-.756,1.175c-.384.588-.731,1.104-1.403,1.104-.432,0-.623-.3-.623-.563,0-.192.155-.444.455-.444.312,0,.265.24.564.24.144,0,.455-.12.839-.708l.78-1.211-.396-1.104c-.204-.576-.516-1.067-1.175-1.067-.156,0-.336.024-.456.072l-.036-.216,1.583-.396c.528.288.756.78.899,1.175l.24.66.54-.828Z" fill="#231f20" stroke-width="0"/>
    <path d="M20.152,128.563c-.007.021-.014.063-.014.084,0,.042.035.063.104.063.14,0,.336-.245.434-.392l.077.084c-.21.314-.58.734-.909.734-.224,0-.279-.161-.279-.287,0-.14.014-.238.07-.447h-.035c-.518.65-.937.734-1.195.734-.51,0-.615-.517-.615-.888,0-.72.721-2.278,1.797-2.278.398,0,.559.182.565.35h.015l.37-1.46c.007-.028.014-.056.014-.084,0-.091-.049-.14-.23-.14-.062,0-.14.014-.188.021l-.028-.104,1.091-.168-1.042,4.179ZM19.656,126.18c-.691,0-1.258,1.397-1.258,2.068,0,.342.195.461.392.461.489,0,.95-.657,1.146-1.3.077-.245.112-.518.112-.734,0-.329-.104-.496-.392-.496Z" fill="#231f20" stroke-width="0"/>
  </g>
  <g>
    <path d="M51.642,123.125c-.072.276-.145.552-.145.84,0,.468.229.731.708.731,1.295,0,1.967-1.379,2.339-2.435.096-.288.18-.588.18-.888,0-.887-.708-.792-.731-1.307-.024-.432.359-.504.647-.504.504,0,.563.612.563.996,0,1.751-1.259,4.605-3.31,4.605-.828,0-1.332-.336-1.332-1.199,0-.504.145-1.02.276-1.499-.479,1.067-1.464,2.698-2.807,2.698-.672,0-.936-.408-.936-1.043,0-.396.132-.768.228-1.139l.564-2.123c.035-.108.06-.228.06-.348,0-.288-.456-.264-.647-.264v-.18c.636-.108,1.259-.276,1.858-.528l.049.036-.972,3.682c-.036.156-.132.54-.132.875,0,.312.071.563.336.563.695-.012,1.547-1.367,1.835-1.811.635-.971.947-1.907,1.318-3.226h1.008l-.959,3.466Z" fill="#231f20" stroke-width="0"/>
    <path d="M56.476,128.514c-.007.042-.007.07-.007.098,0,.049.042.07.091.07.153,0,.195-.083.447-.356l.091.07c-.245.314-.595.733-.937.733-.196,0-.279-.133-.279-.321,0-.084,0-.217.552-2.362.007-.014.014-.062.014-.083,0-.119-.056-.154-.217-.154-.062,0-.146.014-.195.028l-.021-.112,1.104-.154-.643,2.544ZM56.993,125.418c-.202,0-.335-.14-.335-.321,0-.175.133-.35.335-.35.182,0,.336.175.336.35,0,.182-.154.321-.336.321Z" fill="#231f20" stroke-width="0"/>
    <path d="M57.673,129.828c.37-.238.531-.44.531-.629,0-.07-.028-.119-.14-.203-.14-.104-.175-.209-.175-.342,0-.167.153-.308.356-.308.251,0,.405.238.405.518,0,.391-.321.783-.908,1.09l-.07-.125Z" fill="#231f20" stroke-width="0"/>
    <path d="M62.099,128.563c-.007.021-.014.063-.014.084,0,.042.034.063.104.063.14,0,.335-.245.434-.392l.076.084c-.209.314-.58.734-.908.734-.224,0-.279-.161-.279-.287,0-.14.014-.238.069-.447h-.035c-.517.65-.936.734-1.194.734-.511,0-.615-.517-.615-.888,0-.72.72-2.278,1.796-2.278.398,0,.56.182.566.35h.014l.37-1.46c.008-.028.015-.056.015-.084,0-.091-.049-.14-.23-.14-.063,0-.141.014-.189.021l-.027-.104,1.09-.168-1.041,4.179ZM61.603,126.18c-.692,0-1.258,1.397-1.258,2.068,0,.342.195.461.391.461.489,0,.951-.657,1.146-1.3.077-.245.111-.518.111-.734,0-.329-.104-.496-.391-.496Z" fill="#231f20" stroke-width="0"/>
  </g>
  <g>
    <path d="M112.12,26.906c.396-.384.863-.755,1.451-.755.84,0,1.331.828,1.331,1.811,0,1.451-1.307,3.61-3.189,3.61-.636,0-1.128-.216-1.668-.576l1.728-6.752c.012-.048.023-.096.023-.132-.012-.156-.191-.251-.348-.251-.119,0-.264.012-.359.048l-.036-.192,1.895-.288-.875,3.43.048.048ZM110.993,30.996c0,.084.384.228.659.228,1.463,0,2.255-2.087,2.255-3.31,0-.84-.456-1.104-.852-1.104-.863,0-1.271,1.067-1.403,1.607l-.659,2.579Z" fill="#231f20" stroke-width="0"/>
    <path d="M116.088,34.898c-.007.042-.007.07-.007.098,0,.049.042.07.091.07.153,0,.195-.083.447-.356l.091.07c-.245.314-.595.733-.937.733-.196,0-.279-.133-.279-.321,0-.084,0-.217.552-2.362.007-.014.014-.062.014-.083,0-.119-.056-.154-.217-.154-.062,0-.146.014-.195.028l-.021-.112,1.104-.154-.643,2.544ZM116.605,31.802c-.202,0-.335-.14-.335-.321,0-.175.133-.35.335-.35.182,0,.336.175.336.35,0,.182-.154.321-.336.321Z" fill="#231f20" stroke-width="0"/>
  </g>
  <circle cx="54.373" cy="29.44" r="12.181" fill="none" stroke="#231f20" stroke-miterlimit="10" stroke-width=".75"/>
  <circle cx="114.068" cy="29.44" r="12.181" fill="none" stroke="#231f20" stroke-miterlimit="10" stroke-width=".75"/>
  <circle cx="114.068" cy="77.206" r="18.941" fill="none" stroke="#231f20" stroke-miterlimit="10" stroke-width="1.166"/>
  <circle cx="54.373" cy="58.264" r="12.181" fill="none" stroke="#231f20" stroke-miterlimit="10" stroke-width=".75"/>
  <circle cx="54.373" cy="124.056" r="12.181" fill="none" stroke="#231f20" stroke-miterlimit="10" stroke-width=".75"/>
  <path d="M121.02,87.971h-16.393l8.625-11.222-8.074-11.266h16.436v5.523h-.66c-.461-2.97-1.298-4.071-4.225-4.071h-7.041l6.381,8.604-7.393,9.549h9.109c2.465,0,3.256-1.496,3.74-3.697h.66l-1.166,6.579Z" fill="#231f20" stroke-width="0"/>
  <path d="M178.903,72.609c2.266,0,4.29.836,4.29,3.41,0,1.716-.594,3.234-1.76,4.489-1.32,1.43-3.059,2.024-4.973,2.024l-1.057,3.784h-1.782l1.012-3.784c-2.376,0-4.202-1.232-4.202-3.763,0-1.672.682-3.125,1.849-4.312,1.231-1.254,2.75-1.848,4.511-1.848h.352c.418-1.672.814-3.345,1.166-5.017h1.805l-1.21,5.017ZM177.01,73.246c-2.86,0-4.73,2.949-4.73,5.567,0,1.386,1.012,3.059,2.552,3.059l2.179-8.625ZM176.614,81.872c2.663,0,4.709-3.323,4.709-5.743,0-1.738-.704-2.905-2.574-2.883l-2.135,8.625Z" fill="#231f20" stroke-width="0"/>
  <g>
    <path d="M229.523,79.389c1.342-1.826,2.112-3.146,2.596-4.048.44-.814.616-1.254.616-1.65,0-.462-1.144-.682-1.144-1.518,0-.484.396-.88,1.033-.88.704,0,1.255.506,1.255,1.364,0,1.716-3.564,6.997-4.489,8.164-1.605,2.024-3.036,4.18-4.532,4.18-.814,0-1.232-.682-1.232-1.21,0-.66.595-.902.88-.902.946,0,.902.682,1.255.682.374,0,1.628-1.364,2.2-2.244l-.836-6.909c-.11-.99-.309-2.31-1.541-2.31-.241,0-.594.066-.792.088l-.044-.352,3.301-.55c.506.726.66,1.298.858,2.926l.616,5.17Z" fill="#231f20" stroke-width="0"/>
    <path d="M233.41,87.311c-.013.077-.013.128-.013.18,0,.09.076.128.166.128.283,0,.359-.154.821-.654l.167.128c-.449.577-1.091,1.347-1.72,1.347-.359,0-.513-.244-.513-.59,0-.154,0-.398,1.014-4.337.013-.025.025-.115.025-.154,0-.218-.103-.282-.397-.282-.115,0-.27.025-.359.051l-.039-.206,2.028-.282-1.181,4.671ZM234.359,81.627c-.372,0-.616-.257-.616-.59,0-.321.244-.642.616-.642.334,0,.616.321.616.642,0,.333-.282.59-.616.59Z" fill="#231f20" stroke-width="0"/>
  </g>
  <rect x="158.551" y="58.264" width="37.453" height="37.453" fill="none" stroke="#231f20" stroke-miterlimit="10" stroke-width=".75"/>
  <g>
    <line x1="25.528" y1="28.44" x2="39.928" y2="28.44" fill="none" stroke="#231f20" stroke-miterlimit="10" stroke-width=".75"/>
    <g>
      <path d="M25.608,29.85c-.779,0-1.41-.631-1.41-1.41s.631-1.41,1.41-1.41,1.41.631,1.41,1.41-.631,1.41-1.41,1.41Z" fill="#fff" stroke-width="0"/>
      <path d="M25.608,30.037c.881,0,1.597-.717,1.597-1.597s-.717-1.597-1.597-1.597-1.597.717-1.597,1.597.717,1.597,1.597,1.597-.881,0,0,0ZM25.608,27.217c.674,0,1.222.548,1.222,1.222s-.548,1.222-1.222,1.222-1.222-.548-1.222-1.222.548-1.222,1.222-1.222-.674,0,0,0Z" fill="#231f20" stroke-width="0"/>
    </g>
    <path d="M42.191,28.44c-1.065.395-2.386,1.069-3.205,1.783l.645-1.783-.645-1.783c.819.714,2.14,1.388,3.205,1.783Z" fill="#231f20" stroke-width="0"/>
  </g>
  <g>
    <line x1="25.528" y1="58.264" x2="39.928" y2="58.264" fill="none" stroke="#231f20" stroke-miterlimit="10" stroke-width=".75"/>
    <g>
      <path d="M25.608,59.674c-.779,0-1.41-.631-1.41-1.41s.631-1.41,1.41-1.41,1.41.631,1.41,1.41-.631,1.41-1.41,1.41Z" fill="#fff" stroke-width="0"/>
      <path d="M25.608,59.862c.881,0,1.597-.717,1.597-1.597s-.717-1.597-1.597-1.597-1.597.717-1.597,1.597.717,1.597,1.597,1.597-.881,0,0,0ZM25.608,57.042c.674,0,1.222.548,1.222,1.222s-.548,1.222-1.222,1.222-1.222-.548-1.222-1.222.548-1.222,1.222-1.222-.674,0,0,0Z" fill="#231f20" stroke-width="0"/>
    </g>
    <path d="M42.191,58.264c-1.065.395-2.386,1.069-3.205,1.783l.645-1.783-.645-1.783c.819.714,2.14,1.388,3.205,1.783Z" fill="#231f20" stroke-width="0"/>
  </g>
  <g>
    <line x1="25.528" y1="125.056" x2="39.928" y2="125.056" fill="none" stroke="#231f20" stroke-miterlimit="10" stroke-width=".75"/>
    <g>
      <path d="M25.608,126.466c-.779,0-1.41-.631-1.41-1.41s.631-1.41,1.41-1.41,1.41.631,1.41,1.41-.631,1.41-1.41,1.41Z" fill="#fff" stroke-width="0"/>
      <path d="M25.608,126.654c.881,0,1.597-.717,1.597-1.597s-.717-1.597-1.597-1.597-1.597.717-1.597,1.597.717,1.597,1.597,1.597-.881,0,0,0ZM25.608,123.834c.674,0,1.222.548,1.222,1.222s-.548,1.222-1.222,1.222-1.222-.548-1.222-1.222.548-1.222,1.222-1.222-.674,0,0,0Z" fill="#231f20" stroke-width="0"/>
    </g>
    <path d="M42.191,125.056c-1.065.395-2.386,1.069-3.205,1.783l.645-1.783-.645-1.783c.819.714,2.14,1.388,3.205,1.783Z" fill="#231f20" stroke-width="0"/>
  </g>
  <g>
    <polyline points="66.554 29.44 80.463 29.44 101.804 59.912" fill="none" stroke="#231f20" stroke-miterlimit="10" stroke-width=".75"/>
    <path d="M103.102,61.766c-.935-.646-2.245-1.341-3.299-1.602l1.831-.495,1.09-1.551c-.115,1.081.091,2.55.378,3.648Z" fill="#231f20" stroke-width="0"/>
  </g>
  <g>
    <polyline points="66.554 58.264 80.463 58.264 95.933 66.228" fill="none" stroke="#231f20" stroke-miterlimit="10" stroke-width=".75"/>
    <path d="M97.945,67.264c-1.128-.136-2.611-.141-3.666.119l1.39-1.29.243-1.881c.401,1.01,1.268,2.214,2.034,3.052Z" fill="#231f20" stroke-width="0"/>
  </g>
  <g>
    <polyline points="66.554 125.056 80.463 125.056 100.646 94.247" fill="none" stroke="#231f20" stroke-miterlimit="10" stroke-width=".75"/>
    <path d="M101.886,92.354c-.253,1.107-.413,2.582-.265,3.658l-1.138-1.517-1.845-.438c1.046-.294,2.334-1.03,3.248-1.704Z" fill="#231f20" stroke-width="0"/>
  </g>
  <g>
    <polyline points="114.068 41.621 114.068 48.441 114.068 56.001" fill="none" stroke="#231f20" stroke-miterlimit="10" stroke-width=".75"/>
    <path d="M114.068,58.264c-.395-1.065-1.069-2.386-1.783-3.205l1.783.645,1.783-.645c-.714.819-1.388,2.14-1.783,3.205Z" fill="#231f20" stroke-width="0"/>
  </g>
  <g>
    <polyline points="133.009 76.991 143.631 76.991 156.288 77.173" fill="none" stroke="#231f20" stroke-miterlimit="10" stroke-width=".75"/>
    <path d="M158.551,77.206c-1.07.38-2.401,1.035-3.231,1.737l.671-1.774-.619-1.792c.809.726,2.12,1.419,3.179,1.829Z" fill="#231f20" stroke-width="0"/>
  </g>
  <g>
    <polyline points="196.005 76.884 206.626 76.884 219.284 77.066" fill="none" stroke="#231f20" stroke-miterlimit="10" stroke-width=".75"/>
    <path d="M221.547,77.098c-1.071.38-2.401,1.035-3.231,1.737l.671-1.774-.619-1.792c.809.726,2.12,1.419,3.179,1.829Z" fill="#231f20" stroke-width="0"/>
  </g>
  <g>
    <path d="M13.813,79.403c0-.29.064-.546.193-.769s.308-.396.537-.518.486-.183.77-.183c.267,0,.512.064.736.193s.404.309.537.542c.134.233.201.491.201.774,0,.29-.062.546-.188.769s-.3.395-.524.515-.48.181-.768.181c-.283,0-.538-.064-.766-.193-.229-.128-.406-.308-.535-.537s-.193-.487-.193-.774Z" fill="#231f20" stroke-width="0"/>
    <path d="M13.813,83.837c0-.29.064-.546.193-.769s.308-.396.537-.518.486-.183.77-.183c.267,0,.512.064.736.193s.404.309.537.542c.134.233.201.491.201.774,0,.29-.062.546-.188.769s-.3.395-.524.515-.48.181-.768.181c-.283,0-.538-.064-.766-.193-.229-.128-.406-.308-.535-.537s-.193-.487-.193-.774Z" fill="#231f20" stroke-width="0"/>
    <path d="M13.813,88.27c0-.29.064-.546.193-.769s.308-.396.537-.518.486-.183.77-.183c.267,0,.512.064.736.193s.404.309.537.542c.134.233.201.491.201.774,0,.29-.062.546-.188.769s-.3.395-.524.515-.48.181-.768.181c-.283,0-.538-.064-.766-.193-.229-.128-.406-.308-.535-.537s-.193-.487-.193-.774Z" fill="#231f20" stroke-width="0"/>
    <path d="M13.813,92.704c0-.29.064-.546.193-.769s.308-.396.537-.518.486-.183.77-.183c.267,0,.512.064.736.193s.404.309.537.542c.134.233.201.491.201.774,0,.29-.062.546-.188.769s-.3.395-.524.515-.48.181-.768.181c-.283,0-.538-.064-.766-.193-.229-.128-.406-.308-.535-.537s-.193-.487-.193-.774Z" fill="#231f20" stroke-width="0"/>
    <path d="M13.813,97.138c0-.29.064-.546.193-.769s.308-.396.537-.518.486-.183.77-.183c.267,0,.512.064.736.193s.404.309.537.542c.134.233.201.491.201.774,0,.29-.062.546-.188.769s-.3.395-.524.515-.48.181-.768.181c-.283,0-.538-.064-.766-.193-.229-.128-.406-.308-.535-.537s-.193-.487-.193-.774Z" fill="#231f20" stroke-width="0"/>
    <path d="M13.813,101.571c0-.29.064-.546.193-.769s.308-.396.537-.518.486-.183.77-.183c.267,0,.512.064.736.193s.404.309.537.542c.134.233.201.491.201.774,0,.29-.062.546-.188.769s-.3.395-.524.515-.48.181-.768.181c-.283,0-.538-.064-.766-.193-.229-.128-.406-.308-.535-.537s-.193-.487-.193-.774Z" fill="#231f20" stroke-width="0"/>
  </g>
  <g>
    <path d="M49.96,79.403c0-.29.064-.546.193-.769.128-.223.307-.396.537-.518.229-.122.485-.183.769-.183.267,0,.513.064.737.193s.404.309.537.542.2.491.2.774c0,.29-.062.546-.188.769-.125.223-.3.395-.524.515s-.479.181-.767.181c-.283,0-.539-.064-.767-.193s-.406-.308-.534-.537c-.129-.229-.193-.487-.193-.774Z" fill="#231f20" stroke-width="0"/>
    <path d="M49.96,83.837c0-.29.064-.546.193-.769.128-.223.307-.396.537-.518.229-.122.485-.183.769-.183.267,0,.513.064.737.193s.404.309.537.542.2.491.2.774c0,.29-.062.546-.188.769-.125.223-.3.395-.524.515s-.479.181-.767.181c-.283,0-.539-.064-.767-.193s-.406-.308-.534-.537c-.129-.229-.193-.487-.193-.774Z" fill="#231f20" stroke-width="0"/>
    <path d="M49.96,88.27c0-.29.064-.546.193-.769.128-.223.307-.396.537-.518.229-.122.485-.183.769-.183.267,0,.513.064.737.193s.404.309.537.542.2.491.2.774c0,.29-.062.546-.188.769-.125.223-.3.395-.524.515s-.479.181-.767.181c-.283,0-.539-.064-.767-.193s-.406-.308-.534-.537c-.129-.229-.193-.487-.193-.774Z" fill="#231f20" stroke-width="0"/>
    <path d="M49.96,92.704c0-.29.064-.546.193-.769.128-.223.307-.396.537-.518.229-.122.485-.183.769-.183.267,0,.513.064.737.193s.404.309.537.542.2.491.2.774c0,.29-.062.546-.188.769-.125.223-.3.395-.524.515s-.479.181-.767.181c-.283,0-.539-.064-.767-.193s-.406-.308-.534-.537c-.129-.229-.193-.487-.193-.774Z" fill="#231f20" stroke-width="0"/>
    <path d="M49.96,97.138c0-.29.064-.546.193-.769.128-.223.307-.396.537-.518.229-.122.485-.183.769-.183.267,0,.513.064.737.193s.404.309.537.542.2.491.2.774c0,.29-.062.546-.188.769-.125.223-.3.395-.524.515s-.479.181-.767.181c-.283,0-.539-.064-.767-.193s-.406-.308-.534-.537c-.129-.229-.193-.487-.193-.774Z" fill="#231f20" stroke-width="0"/>
    <path d="M49.96,101.571c0-.29.064-.546.193-.769.128-.223.307-.396.537-.518.229-.122.485-.183.769-.183.267,0,.513.064.737.193s.404.309.537.542.2.491.2.774c0,.29-.062.546-.188.769-.125.223-.3.395-.524.515s-.479.181-.767.181c-.283,0-.539-.064-.767-.193s-.406-.308-.534-.537c-.129-.229-.193-.487-.193-.774Z" fill="#231f20" stroke-width="0"/>
  </g>
  <g>
    <path d="M48.167,143.751c.388,0,.694.044.921.133.227.088.389.241.486.458.098.217.146.523.146.92s-.048.705-.143.924c-.096.219-.253.372-.47.458s-.507.129-.871.129c-.196,0-.384-.004-.563-.014s-.345-.022-.494-.039c-.148-.017-.276-.034-.381-.053-.105-.019-.179-.035-.221-.049l.021-.378h1.561c.233-.005.419-.034.557-.087s.235-.152.294-.294c.059-.142.088-.342.088-.598,0-.261-.029-.462-.088-.602s-.156-.238-.294-.294c-.138-.056-.323-.084-.557-.084-.383,0-.713.002-.99.007-.278.005-.466.012-.563.021l-.099-.497c.178-.019.344-.033.497-.042.154-.009.322-.015.504-.018.183-.002.401-.003.658-.003ZM47.124,143.814v4.83h-.616v-4.83h.616Z" fill="#231f20" stroke-width="0"/>
    <path d="M51.932,145.151c.514,0,.886.094,1.117.28.23.187.347.464.347.833.004.303-.059.54-.189.71s-.338.255-.623.255h-1.988v-.462h1.834c.154,0,.255-.053.302-.158.046-.105.069-.22.069-.346-.005-.219-.069-.375-.195-.469-.126-.093-.341-.14-.645-.14-.247,0-.442.036-.584.108-.143.072-.243.198-.302.378-.058.18-.087.431-.087.752,0,.364.036.642.108.833s.188.322.347.392c.158.07.368.105.63.105.182,0,.381-.008.599-.024.217-.017.411-.036.584-.06l.063.399c-.107.042-.239.077-.396.105s-.317.049-.483.063-.313.021-.444.021c-.392,0-.707-.06-.945-.179s-.412-.31-.521-.574-.164-.612-.164-1.046c0-.448.055-.802.164-1.061.109-.259.28-.443.512-.553.23-.109.528-.165.892-.165Z" fill="#231f20" stroke-width="0"/>
    <path d="M55.425,145.151c.149,0,.308.005.476.014.169.009.335.021.501.035.166.014.318.033.459.056l-.05.434c-.215-.009-.43-.018-.647-.024-.217-.007-.433-.01-.647-.01-.21-.005-.375,0-.497.014-.121.014-.209.051-.262.112-.054.061-.081.163-.081.308,0,.178.042.294.126.35s.208.103.371.14l.994.224c.271.065.47.166.599.301.128.135.192.348.192.637,0,.28-.053.49-.157.63-.105.14-.266.233-.479.28-.215.047-.488.07-.819.07-.121,0-.303-.005-.543-.014s-.505-.038-.794-.084l.042-.434c.112.005.23.011.356.018s.258.011.396.011h.424c.257,0,.457-.012.603-.035.145-.023.247-.069.308-.137.061-.067.091-.169.091-.304,0-.168-.049-.28-.146-.336-.099-.056-.229-.103-.393-.14l-.979-.224c-.188-.046-.336-.108-.448-.186s-.193-.177-.245-.301-.077-.279-.077-.466c0-.266.047-.466.141-.602.093-.135.237-.226.434-.273.196-.046.448-.067.756-.063Z" fill="#231f20" stroke-width="0"/>
    <path d="M59.29,145.151c.392,0,.706.059.941.175s.405.307.508.57.153.613.153,1.046-.051.783-.153,1.047-.272.454-.508.57-.55.175-.941.175c-.388,0-.699-.058-.935-.175s-.406-.307-.511-.57c-.105-.264-.158-.613-.158-1.047s.053-.783.158-1.046c.104-.264.275-.454.511-.57s.547-.175.935-.175ZM59.29,145.655c-.247,0-.442.038-.585.115-.142.077-.243.209-.304.396-.062.187-.092.446-.092.777s.03.591.092.777c.061.187.162.318.304.396.143.077.338.115.585.115s.443-.039.588-.115c.145-.077.247-.209.308-.396.062-.187.092-.446.092-.777s-.03-.59-.092-.777c-.061-.187-.163-.318-.308-.396s-.341-.115-.588-.115Z" fill="#231f20" stroke-width="0"/>
    <path d="M62.958,145.151c.149,0,.308.005.476.014.169.009.335.021.501.035.166.014.318.033.459.056l-.05.434c-.215-.009-.43-.018-.647-.024-.217-.007-.433-.01-.647-.01-.21-.005-.375,0-.497.014-.121.014-.209.051-.262.112-.054.061-.081.163-.081.308,0,.178.042.294.126.35s.208.103.371.14l.994.224c.271.065.47.166.599.301.128.135.192.348.192.637,0,.28-.053.49-.157.63-.105.14-.266.233-.479.28-.215.047-.488.07-.819.07-.121,0-.303-.005-.543-.014s-.505-.038-.794-.084l.042-.434c.112.005.23.011.356.018s.258.011.396.011h.424c.257,0,.457-.012.603-.035.145-.023.247-.069.308-.137.061-.067.091-.169.091-.304,0-.168-.049-.28-.146-.336-.099-.056-.229-.103-.393-.14l-.979-.224c-.188-.046-.336-.108-.448-.186s-.193-.177-.245-.301-.077-.279-.077-.466c0-.266.047-.466.141-.602.093-.135.237-.226.434-.273.196-.046.448-.067.756-.063Z" fill="#231f20" stroke-width="0"/>
  </g>
  <g>
    <path d="M144.426,126.69c.225,0,.45,0,.68.003.229.002.455.006.678.01.225.005.439.017.645.035l-.035.476h-1.812c-.164,0-.283.036-.357.108-.074.073-.111.19-.111.354v3.85h-.616v-3.969c0-.275.084-.489.252-.64.168-.152.394-.228.679-.228ZM143.614,128.797h2.514v.497h-2.514v-.497Z" fill="#231f20" stroke-width="0"/>
    <path d="M147.682,128.118v2.394c-.006.215.034.367.118.455.085.089.224.133.421.133.19,0,.381-.046.57-.137.188-.091.416-.223.682-.396l.077.413c-.266.21-.523.369-.773.476-.249.107-.503.161-.759.161-.621,0-.932-.312-.932-.938v-2.562h.596ZM150.005,128.118v3.409h-.476l-.057-.644-.062-.105v-2.66h.595Z" fill="#231f20" stroke-width="0"/>
    <path d="M151.601,128.118l.05.651.041.105v2.653h-.595v-3.409h.504ZM153.17,128.034c.616,0,.924.313.924.938v2.555h-.595v-2.387c0-.229-.037-.386-.112-.472s-.2-.129-.378-.129c-.21,0-.42.051-.63.154s-.46.243-.749.42l-.028-.427c.267-.206.53-.365.791-.479.262-.115.521-.172.777-.172Z" fill="#231f20" stroke-width="0"/>
    <path d="M156.62,128.034c.104,0,.218.005.344.014s.256.026.389.049c.133.023.255.056.367.098l-.077.385c-.153-.014-.315-.025-.486-.032s-.316-.01-.438-.01c-.271,0-.485.037-.644.112-.159.075-.273.206-.344.392s-.105.446-.105.777.035.591.105.78c.07.189.185.321.344.396.158.075.373.112.644.112.069,0,.161-.002.272-.007.112-.005.232-.012.361-.021.128-.009.25-.023.367-.042l.062.399c-.172.061-.359.105-.562.133s-.405.042-.605.042c-.393,0-.707-.059-.945-.175-.238-.117-.41-.306-.515-.567-.104-.261-.157-.611-.157-1.05s.053-.789.16-1.05c.107-.262.28-.449.519-.563.237-.115.553-.172.944-.172Z" fill="#231f20" stroke-width="0"/>
    <path d="M159.049,126.669c.121,0,.182.061.182.182v.399c0,.121-.061.182-.182.182h-.28c-.122,0-.183-.061-.183-.182v-.399c0-.122.061-.182.183-.182h.28ZM159.204,128.118v3.409h-.588v-3.409h.588Z" fill="#231f20" stroke-width="0"/>
    <path d="M161.765,128.034c.392,0,.706.059.942.175.234.117.404.307.507.57s.153.613.153,1.046-.051.783-.153,1.047-.272.454-.507.57c-.236.117-.551.175-.942.175-.388,0-.698-.058-.935-.175-.235-.117-.406-.307-.511-.57s-.157-.613-.157-1.047.053-.783.157-1.046.275-.454.511-.57c.236-.117.547-.175.935-.175ZM161.765,128.538c-.247,0-.442.038-.585.115-.142.077-.243.209-.304.396-.062.187-.091.446-.091.777s.029.591.091.777c.061.187.162.318.304.396.143.077.338.115.585.115s.443-.039.589-.115c.145-.077.246-.209.307-.396.062-.187.092-.446.092-.777s-.03-.59-.092-.777c-.061-.187-.162-.318-.307-.396-.146-.077-.342-.115-.589-.115ZM162.479,126.368l.344.462-1.344.84-.203-.273,1.203-1.029Z" fill="#231f20" stroke-width="0"/>
    <path d="M164.803,128.118l.049.651.042.105v2.653h-.595v-3.409h.504ZM166.372,128.034c.615,0,.924.313.924.938v2.555h-.596v-2.387c0-.229-.037-.386-.111-.472-.075-.086-.201-.129-.379-.129-.209,0-.42.051-.629.154-.211.103-.461.243-.75.42l-.027-.427c.266-.206.529-.365.791-.479.262-.115.52-.172.777-.172Z" fill="#231f20" stroke-width="0"/>
    <path d="M171.061,128.034c.224,0,.445.029.665.088.22.058.429.148.63.269l-.035.371c-.219-.065-.413-.117-.581-.154s-.348-.056-.539-.056c-.196,0-.354.034-.472.102-.119.068-.207.192-.264.375-.056.182-.084.441-.084.777s.027.598.081.784.139.317.255.392c.117.075.267.112.449.112.135,0,.258-.018.367-.052.109-.035.227-.092.35-.172.123-.079.27-.179.438-.301l.057.42c-.188.173-.399.32-.638.441-.237.122-.495.182-.771.182-.429,0-.735-.151-.92-.455-.185-.303-.276-.751-.276-1.344,0-.443.046-.794.14-1.054.094-.259.236-.444.428-.557.191-.112.432-.168.721-.168ZM172.838,126.627v4.9h-.461l-.07-.595-.063-.049v-2.338l.042-.105c-.019-.131-.03-.257-.035-.378-.004-.122-.007-.25-.007-.385v-1.05h.595Z" fill="#231f20" stroke-width="0"/>
    <path d="M175.338,128.034c.514,0,.885.094,1.116.28s.347.464.347.833c.004.303-.059.54-.189.71s-.338.255-.623.255h-1.988v-.462h1.834c.154,0,.255-.053.302-.158.046-.105.069-.22.069-.346-.004-.219-.069-.375-.195-.469-.126-.093-.341-.14-.645-.14-.247,0-.441.036-.584.108s-.242.198-.301.378-.088.431-.088.752c0,.364.036.642.108.833s.188.322.347.392c.158.07.369.105.63.105.183,0,.382-.008.599-.024.217-.017.412-.036.584-.06l.063.399c-.107.042-.239.077-.396.105s-.317.049-.482.063c-.166.014-.314.021-.445.021-.392,0-.707-.06-.945-.179s-.412-.31-.521-.574-.164-.612-.164-1.046c0-.448.055-.802.164-1.061.109-.259.28-.443.512-.553.23-.109.528-.165.893-.165Z" fill="#231f20" stroke-width="0"/>
    <path d="M181.756,129.427l-.006.448-1.631.007c-.164.005-.278.048-.344.129-.065.082-.098.195-.098.34v.217c0,.177.041.307.125.389s.221.122.406.122c.131,0,.279-.024.445-.073.165-.049.332-.125.5-.228s.322-.233.462-.392v.441c-.052.065-.124.142-.22.228-.096.086-.211.17-.344.252-.133.082-.279.149-.441.203-.16.054-.334.081-.521.081-.2,0-.377-.036-.531-.108s-.274-.18-.361-.322c-.086-.142-.129-.316-.129-.521v-.371c0-.266.083-.473.248-.62.166-.147.398-.221.697-.221h1.742ZM180.868,128.034c.252,0,.466.034.641.102.176.068.307.181.396.34s.134.375.134.651v2.401h-.47l-.091-.742-.042-.077v-1.582c0-.21-.048-.361-.144-.452s-.279-.136-.55-.136c-.177,0-.399.009-.669.028-.268.019-.533.04-.794.063l-.056-.441c.158-.028.332-.054.521-.077s.381-.042.577-.056c.196-.014.378-.021.546-.021Z" fill="#231f20" stroke-width="0"/>
    <path d="M184.557,128.034c.102,0,.217.005.343.014s.255.026.388.049c.134.023.256.056.368.098l-.077.385c-.154-.014-.316-.025-.486-.032s-.316-.01-.438-.01c-.271,0-.485.037-.645.112-.158.075-.272.206-.343.392-.069.187-.104.446-.104.777s.035.591.104.78c.07.189.185.321.343.396.159.075.373.112.645.112.07,0,.161-.002.273-.007.111-.005.231-.012.359-.021.129-.009.252-.023.368-.042l.063.399c-.174.061-.361.105-.564.133s-.404.042-.605.042c-.392,0-.707-.059-.945-.175-.237-.117-.408-.306-.514-.567-.105-.261-.158-.611-.158-1.05s.055-.789.162-1.05c.107-.262.279-.449.518-.563.238-.115.553-.172.945-.172Z" fill="#231f20" stroke-width="0"/>
    <path d="M188.463,128.118v.469h-2.297v-.434l.672-.035h1.625ZM187.378,127.11v3.479c0,.164.035.28.105.35.07.07.189.105.357.105h.518l.07.455c-.074.019-.161.035-.26.049-.098.014-.193.024-.287.032-.093.007-.168.01-.223.01-.285,0-.502-.079-.652-.238-.148-.159-.223-.388-.223-.686v-3.556h.594Z" fill="#231f20" stroke-width="0"/>
    <path d="M189.653,126.669c.121,0,.182.061.182.182v.399c0,.121-.061.182-.182.182h-.28c-.122,0-.183-.061-.183-.182v-.399c0-.122.061-.182.183-.182h.28ZM189.807,128.118v3.409h-.588v-3.409h.588Z" fill="#231f20" stroke-width="0"/>
    <path d="M193.958,128.118l-1.246,3.262c-.018.047-.045.083-.08.108-.035.026-.078.039-.129.039h-.539c-.047,0-.09-.013-.127-.039-.037-.025-.064-.062-.084-.108l-1.246-3.262h.638l.84,2.387c.037.098.072.198.104.301.033.103.066.201.099.294h.091c.037-.098.074-.197.108-.298.035-.1.069-.199.102-.297l.84-2.387h.63Z" fill="#231f20" stroke-width="0"/>
    <path d="M197.1,129.427l-.006.448-1.631.007c-.164.005-.278.048-.344.129-.065.082-.098.195-.098.34v.217c0,.177.041.307.125.389s.221.122.406.122c.131,0,.279-.024.445-.073.165-.049.332-.125.5-.228s.322-.233.462-.392v.441c-.052.065-.124.142-.22.228-.096.086-.211.17-.344.252-.133.082-.279.149-.441.203-.16.054-.334.081-.521.081-.2,0-.377-.036-.531-.108s-.274-.18-.361-.322c-.086-.142-.129-.316-.129-.521v-.371c0-.266.083-.473.248-.62.166-.147.398-.221.697-.221h1.742ZM196.211,128.034c.252,0,.466.034.641.102.176.068.307.181.396.34s.134.375.134.651v2.401h-.47l-.091-.742-.042-.077v-1.582c0-.21-.048-.361-.144-.452s-.279-.136-.55-.136c-.177,0-.399.009-.669.028-.268.019-.533.04-.794.063l-.056-.441c.158-.028.332-.054.521-.077s.381-.042.577-.056c.196-.014.378-.021.546-.021Z" fill="#231f20" stroke-width="0"/>
    <path d="M199.901,128.034c.103,0,.217.005.344.014.125.009.255.026.388.049.134.023.255.056.368.098l-.078.385c-.153-.014-.315-.025-.486-.032-.17-.007-.316-.01-.438-.01-.271,0-.484.037-.644.112s-.272.206-.343.392-.105.446-.105.777.035.591.105.78c.07.189.184.321.343.396.159.075.373.112.644.112.07,0,.162-.002.273-.007.111-.005.232-.012.36-.021.128-.009.251-.023.368-.042l.062.399c-.173.061-.36.105-.563.133s-.405.042-.605.042c-.392,0-.707-.059-.945-.175-.237-.117-.409-.306-.515-.567-.104-.261-.157-.611-.157-1.05s.054-.789.161-1.05c.107-.262.279-.449.518-.563.238-.115.553-.172.945-.172Z" fill="#231f20" stroke-width="0"/>
    <path d="M202.33,126.669c.122,0,.183.061.183.182v.399c0,.121-.061.182-.183.182h-.28c-.121,0-.182-.061-.182-.182v-.399c0-.122.061-.182.182-.182h.28ZM202.484,128.118v3.409h-.588v-3.409h.588Z" fill="#231f20" stroke-width="0"/>
    <path d="M205.045,128.034c.393,0,.706.059.941.175.236.117.405.307.508.57s.154.613.154,1.046-.052.783-.154,1.047-.271.454-.508.57c-.235.117-.549.175-.941.175-.387,0-.699-.058-.934-.175-.236-.117-.406-.307-.512-.57s-.158-.613-.158-1.047.053-.783.158-1.046.275-.454.512-.57c.234-.117.547-.175.934-.175ZM205.045,128.538c-.247,0-.441.038-.584.115s-.244.209-.305.396-.092.446-.092.777.031.591.092.777.162.318.305.396c.143.077.337.115.584.115s.443-.039.588-.115c.145-.077.248-.209.309-.396s.091-.446.091-.777-.03-.59-.091-.777-.164-.318-.309-.396-.34-.115-.588-.115ZM205.76,126.368l.342.462-1.344.84-.203-.273,1.205-1.029Z" fill="#231f20" stroke-width="0"/>
    <path d="M208.084,128.118l.05.651.041.105v2.653h-.595v-3.409h.504ZM209.652,128.034c.616,0,.924.313.924.938v2.555h-.595v-2.387c0-.229-.037-.386-.112-.472s-.2-.129-.378-.129c-.21,0-.42.051-.63.154s-.46.243-.749.42l-.028-.427c.267-.206.53-.365.791-.479.262-.115.521-.172.777-.172Z" fill="#231f20" stroke-width="0"/>
  </g>
  <g>
    <path d="M109.075,143.73c.229.005.465.017.707.035.243.019.485.054.729.105l-.042.448c-.201-.009-.423-.017-.665-.024-.243-.007-.477-.01-.7-.01-.173,0-.321.006-.444.018-.124.011-.226.04-.305.084-.079.044-.137.117-.172.217-.035.101-.053.239-.053.417,0,.266.048.452.144.557s.251.183.466.234l.98.245c.373.088.628.244.766.465s.207.519.207.893c0,.28-.031.506-.095.679-.062.173-.16.305-.29.396-.131.091-.299.154-.504.189-.206.035-.448.052-.729.052-.158,0-.365-.007-.619-.021-.255-.014-.548-.051-.879-.112l.042-.455c.275.009.497.018.665.024s.312.01.435.01h.378c.247,0,.441-.019.584-.056.143-.038.243-.112.301-.224.059-.112.088-.277.088-.497,0-.187-.021-.331-.063-.434-.042-.103-.108-.181-.199-.234s-.206-.097-.347-.129l-1.001-.252c-.35-.089-.596-.243-.738-.462-.143-.22-.214-.514-.214-.882,0-.28.032-.505.095-.675.063-.17.159-.299.287-.385.129-.086.291-.144.486-.171.196-.028.43-.042.7-.042Z" fill="#231f20" stroke-width="0"/>
    <path d="M112.169,145.235v2.394c-.005.215.035.367.119.455.084.089.224.133.42.133.191,0,.382-.046.57-.137.189-.091.417-.223.683-.396l.077.413c-.266.21-.523.369-.773.476-.25.107-.503.161-.76.161-.62,0-.931-.312-.931-.938v-2.562h.595ZM114.493,145.235v3.409h-.477l-.056-.644-.062-.105v-2.66h.595Z" fill="#231f20" stroke-width="0"/>
    <path d="M116.075,145.235l.042.651.063.105v2.653h-.596v-3.409h.49ZM117.503,145.151c.29,0,.512.078.665.235.154.156.233.391.238.703v2.555h-.574v-2.387c0-.219-.044-.375-.133-.465s-.222-.136-.398-.136c-.117,0-.23.019-.34.056-.109.038-.231.098-.364.182s-.295.196-.486.336l-.042-.42c.247-.219.487-.384.721-.494.233-.109.472-.165.714-.165ZM119.736,145.151c.294,0,.52.08.676.238s.234.392.234.7v2.555h-.588v-2.387c-.005-.21-.047-.363-.126-.458-.08-.095-.215-.143-.406-.143-.121,0-.237.02-.347.059-.109.04-.229.102-.36.186s-.289.194-.476.329l-.035-.42c.247-.219.487-.384.721-.494.233-.109.469-.165.707-.165Z" fill="#231f20" stroke-width="0"/>
    <path d="M124.215,146.544l-.007.448-1.631.007c-.163.005-.277.048-.343.129-.065.082-.099.195-.099.34v.217c0,.177.042.307.126.389s.22.122.406.122c.131,0,.279-.024.444-.073.166-.049.333-.125.501-.228s.322-.233.462-.392v.441c-.052.065-.125.142-.221.228-.096.086-.21.17-.343.252-.133.082-.28.149-.441.203s-.335.081-.521.081c-.2,0-.378-.036-.531-.108-.154-.072-.274-.18-.361-.322-.086-.142-.129-.316-.129-.521v-.371c0-.266.083-.473.248-.62.166-.147.398-.221.696-.221h1.743ZM123.327,145.151c.252,0,.466.034.641.102.175.068.307.181.396.34s.133.375.133.651v2.401h-.469l-.091-.742-.042-.077v-1.582c0-.21-.048-.361-.144-.452s-.279-.136-.55-.136c-.178,0-.4.009-.669.028-.268.019-.533.04-.794.063l-.056-.441c.158-.028.332-.054.521-.077.188-.023.381-.042.577-.056.196-.014.378-.021.546-.021Z" fill="#231f20" stroke-width="0"/>
  </g>
  <g>
    <path d="M220.209,143.814l-1.463,4.655c-.019.046-.05.087-.091.122-.043.035-.092.053-.147.053h-.623c-.061,0-.112-.018-.153-.053-.043-.035-.07-.076-.084-.122l-1.463-4.655h.637l1.141,3.829c.023.089.048.176.074.263.025.086.047.174.066.262h.188c.023-.088.046-.177.069-.266.023-.088.05-.177.078-.266l1.133-3.822h.638Z" fill="#231f20" stroke-width="0"/>
    <path d="M223.176,146.544l-.007.448-1.631.007c-.163.005-.278.048-.343.129-.066.082-.099.195-.099.34v.217c0,.177.042.307.126.389s.22.122.406.122c.131,0,.279-.024.444-.073s.333-.125.501-.228.322-.233.461-.392v.441c-.051.065-.124.142-.22.228-.096.086-.21.17-.343.252-.133.082-.28.149-.441.203s-.335.081-.521.081c-.201,0-.378-.036-.531-.108-.154-.072-.275-.18-.361-.322-.086-.142-.129-.316-.129-.521v-.371c0-.266.082-.473.248-.62s.398-.221.696-.221h1.743ZM222.288,145.151c.252,0,.465.034.641.102.175.068.307.181.395.34.09.159.134.375.134.651v2.401h-.47l-.09-.742-.043-.077v-1.582c0-.21-.047-.361-.143-.452s-.279-.136-.551-.136c-.177,0-.399.009-.668.028-.268.019-.533.04-.795.063l-.055-.441c.158-.028.332-.054.521-.077.188-.023.381-.042.576-.056.197-.014.379-.021.547-.021Z" fill="#231f20" stroke-width="0"/>
    <path d="M225.123,143.744l-.007,3.962c0,.149.041.263.123.339.081.077.196.116.346.116h.329l.069.455c-.041.019-.101.035-.178.049s-.156.024-.238.032c-.082.007-.15.01-.206.01-.253,0-.454-.075-.606-.224-.15-.149-.227-.364-.227-.644v-4.095h.595Z" fill="#231f20" stroke-width="0"/>
    <path d="M228.042,145.151c.392,0,.705.059.941.175.235.117.404.307.508.57.102.264.153.613.153,1.046s-.052.783-.153,1.047c-.104.264-.272.454-.508.57-.236.117-.55.175-.941.175-.388,0-.699-.058-.935-.175s-.406-.307-.511-.57c-.105-.264-.158-.613-.158-1.047s.053-.783.158-1.046c.104-.264.275-.454.511-.57s.547-.175.935-.175ZM228.042,145.655c-.248,0-.442.038-.585.115-.142.077-.243.209-.304.396-.062.187-.092.446-.092.777s.03.591.092.777c.061.187.162.318.304.396.143.077.337.115.585.115s.443-.039.588-.115c.145-.077.247-.209.308-.396.062-.187.091-.446.091-.777s-.029-.59-.091-.777c-.061-.187-.163-.318-.308-.396s-.341-.115-.588-.115Z" fill="#231f20" stroke-width="0"/>
    <path d="M231.038,145.235l.076.651.057.105v2.653h-.596v-3.409h.463ZM232.711,145.151l-.07.56h-.196c-.2,0-.4.041-.602.123s-.445.197-.734.347l-.05-.371c.252-.206.505-.366.76-.483s.501-.175.738-.175h.154Z" fill="#231f20" stroke-width="0"/>
    <path d="M235.93,145.151c.224,0,.445.029.665.088.22.058.429.148.63.269l-.035.371c-.219-.065-.413-.117-.581-.154s-.348-.056-.539-.056c-.196,0-.354.034-.472.102-.119.068-.207.192-.264.375-.056.182-.084.441-.084.777s.027.598.081.784.139.317.255.392c.117.075.267.112.449.112.135,0,.258-.018.367-.052.109-.035.227-.092.35-.172.123-.079.27-.179.438-.301l.057.42c-.188.173-.399.32-.638.441-.237.122-.495.182-.771.182-.429,0-.735-.151-.92-.455-.185-.303-.276-.751-.276-1.344,0-.443.046-.794.14-1.054.094-.259.236-.444.428-.557.191-.112.432-.168.721-.168ZM237.708,143.744v4.9h-.461l-.07-.595-.063-.049v-2.338l.042-.105c-.019-.131-.03-.257-.035-.378-.004-.122-.007-.25-.007-.385v-1.05h.595Z" fill="#231f20" stroke-width="0"/>
    <path d="M240.208,145.151c.514,0,.885.094,1.116.28s.347.464.347.833c.004.303-.059.54-.189.71s-.338.255-.623.255h-1.988v-.462h1.834c.154,0,.255-.053.302-.158.046-.105.069-.22.069-.346-.004-.219-.069-.375-.195-.469-.126-.093-.341-.14-.645-.14-.247,0-.441.036-.584.108s-.242.198-.301.378-.088.431-.088.752c0,.364.036.642.108.833s.188.322.347.392c.158.07.369.105.63.105.183,0,.382-.008.599-.024.217-.017.412-.036.584-.06l.063.399c-.107.042-.239.077-.396.105s-.317.049-.482.063c-.166.014-.314.021-.445.021-.392,0-.707-.06-.945-.179s-.412-.31-.521-.574-.164-.612-.164-1.046c0-.448.055-.802.164-1.061.109-.259.28-.443.512-.553.23-.109.528-.165.893-.165Z" fill="#231f20" stroke-width="0"/>
    <path d="M221.189,152.151c.149,0,.308.005.476.014s.335.021.501.035c.165.014.318.033.458.056l-.049.434c-.215-.009-.43-.018-.647-.024-.217-.007-.433-.01-.647-.01-.21-.005-.375,0-.497.014-.121.014-.209.051-.263.112-.053.061-.08.163-.08.308,0,.178.042.294.126.35s.208.103.371.14l.993.224c.271.065.471.166.6.301.128.135.191.348.191.637,0,.28-.052.49-.156.63-.105.14-.266.233-.48.28-.215.047-.487.07-.818.07-.121,0-.303-.005-.543-.014s-.505-.038-.795-.084l.043-.434c.111.005.23.011.356.018s.258.011.396.011h.424c.256,0,.457-.012.602-.035s.248-.069.309-.137c.061-.067.091-.169.091-.304,0-.168-.05-.28-.147-.336-.098-.056-.229-.103-.392-.14l-.979-.224c-.188-.046-.336-.108-.449-.186-.111-.077-.193-.177-.244-.301-.052-.124-.077-.279-.077-.466,0-.266.046-.466.14-.602.094-.135.238-.226.434-.273.197-.046.449-.067.757-.063Z" fill="#231f20" stroke-width="0"/>
    <path d="M226.11,153.544l-.007.448-1.631.007c-.163.005-.278.048-.343.129-.066.082-.099.195-.099.34v.217c0,.177.042.307.126.389s.22.122.406.122c.131,0,.279-.024.444-.073s.333-.125.501-.228.322-.233.461-.392v.441c-.051.065-.124.142-.22.228-.096.086-.21.17-.343.252-.133.082-.28.149-.441.203s-.335.081-.521.081c-.201,0-.378-.036-.531-.108-.154-.072-.275-.18-.361-.322-.086-.142-.129-.316-.129-.521v-.371c0-.266.082-.473.248-.62s.398-.221.696-.221h1.743ZM225.221,152.151c.252,0,.465.034.641.102.175.068.307.181.395.34.09.159.134.375.134.651v2.401h-.47l-.09-.742-.043-.077v-1.582c0-.21-.047-.361-.143-.452s-.279-.136-.551-.136c-.177,0-.399.009-.668.028-.268.019-.533.04-.795.063l-.055-.441c.158-.028.332-.054.521-.077.188-.023.381-.042.576-.056.197-.014.379-.021.547-.021Z" fill="#231f20" stroke-width="0"/>
    <path d="M228.055,150.744l-.006,3.962c0,.149.04.263.122.339.081.077.196.116.347.116h.328l.07.455c-.042.019-.102.035-.178.049-.078.014-.156.024-.238.032-.082.007-.15.01-.207.01-.252,0-.453-.075-.605-.224-.151-.149-.227-.364-.227-.644v-4.095h.594Z" fill="#231f20" stroke-width="0"/>
    <path d="M229.995,150.786c.121,0,.182.061.182.182v.399c0,.121-.061.182-.182.182h-.279c-.122,0-.183-.061-.183-.182v-.399c0-.122.061-.182.183-.182h.279ZM230.149,152.235v3.409h-.588v-3.409h.588Z" fill="#231f20" stroke-width="0"/>
    <path d="M232.403,152.151c.224,0,.445.029.665.088.22.058.429.148.63.269l-.035.371c-.219-.065-.413-.117-.581-.154s-.348-.056-.539-.056c-.196,0-.354.034-.472.102-.119.068-.207.192-.264.375-.056.182-.084.441-.084.777s.027.598.081.784.139.317.255.392c.117.075.267.112.449.112.135,0,.258-.018.367-.052.109-.035.227-.092.35-.172.123-.079.27-.179.438-.301l.057.42c-.188.173-.399.32-.638.441-.237.122-.495.182-.771.182-.429,0-.735-.151-.92-.455-.185-.303-.276-.751-.276-1.344,0-.443.046-.794.14-1.054.094-.259.236-.444.428-.557.191-.112.432-.168.721-.168ZM234.18,150.744v4.9h-.461l-.07-.595-.063-.049v-2.338l.042-.105c-.019-.131-.03-.257-.035-.378-.004-.122-.007-.25-.007-.385v-1.05h.595Z" fill="#231f20" stroke-width="0"/>
    <path d="M237.778,153.544l-.006.448-1.631.007c-.164.005-.278.048-.344.129-.065.082-.098.195-.098.34v.217c0,.177.041.307.125.389s.221.122.406.122c.131,0,.279-.024.445-.073.165-.049.332-.125.5-.228s.322-.233.462-.392v.441c-.052.065-.124.142-.22.228-.096.086-.211.17-.344.252-.133.082-.279.149-.441.203-.16.054-.334.081-.521.081-.2,0-.377-.036-.531-.108s-.274-.18-.361-.322c-.086-.142-.129-.316-.129-.521v-.371c0-.266.083-.473.248-.62.166-.147.398-.221.697-.221h1.742ZM236.889,152.151c.252,0,.466.034.641.102.176.068.307.181.396.34s.134.375.134.651v2.401h-.47l-.091-.742-.042-.077v-1.582c0-.21-.048-.361-.144-.452s-.279-.136-.55-.136c-.177,0-.399.009-.669.028-.268.019-.533.04-.794.063l-.056-.441c.158-.028.332-.054.521-.077s.381-.042.577-.056c.196-.014.378-.021.546-.021Z" fill="#231f20" stroke-width="0"/>
  </g>
  <g>
    <path d="M106.473,6.56c.229.005.465.017.707.035.243.019.485.054.729.105l-.042.447c-.201-.009-.423-.017-.665-.024-.243-.007-.477-.01-.7-.01-.173,0-.321.006-.444.018-.124.011-.226.039-.305.084-.079.044-.137.116-.172.217s-.053.239-.053.416c0,.267.048.452.144.557.096.105.251.184.466.234l.98.245c.373.089.628.244.766.466s.207.519.207.893c0,.279-.031.506-.095.679-.062.173-.16.305-.29.396-.131.091-.299.154-.504.189-.206.034-.448.052-.729.052-.158,0-.365-.007-.619-.021-.255-.015-.548-.052-.879-.112l.042-.455c.275.01.497.018.665.024s.312.011.435.011h.378c.247,0,.441-.019.584-.056.143-.038.243-.112.301-.225.059-.111.088-.277.088-.497,0-.187-.021-.331-.063-.434s-.108-.181-.199-.234-.206-.097-.347-.13l-1.001-.252c-.35-.089-.596-.242-.738-.462s-.214-.514-.214-.882c0-.28.032-.505.095-.676.063-.17.159-.299.287-.385.129-.086.291-.144.486-.172.196-.027.43-.042.7-.042Z" fill="#231f20" stroke-width="0"/>
    <path d="M110.393,7.981c.514,0,.886.094,1.116.28.231.187.347.465.347.833.005.304-.059.54-.188.711-.131.17-.339.255-.623.255h-1.988v-.462h1.834c.154,0,.254-.053.301-.157.047-.105.07-.221.07-.347-.005-.219-.07-.375-.196-.469s-.341-.14-.644-.14c-.248,0-.442.036-.585.108s-.242.198-.301.378-.088.431-.088.752c0,.364.036.642.108.833s.188.322.347.393c.159.069.369.104.63.104.183,0,.382-.008.599-.024s.412-.036.585-.06l.062.399c-.107.042-.239.077-.396.104-.156.028-.317.049-.482.063-.166.014-.314.021-.445.021-.392,0-.707-.06-.944-.179-.238-.118-.412-.31-.521-.573-.11-.264-.165-.612-.165-1.047,0-.448.055-.802.165-1.061.109-.259.279-.443.511-.553s.528-.165.893-.165Z" fill="#231f20" stroke-width="0"/>
    <path d="M113.886,7.981c.149,0,.308.005.476.015.169.009.335.021.501.035.166.014.318.032.459.056l-.05.434c-.215-.009-.43-.018-.647-.024-.217-.007-.433-.01-.647-.01-.21-.005-.375,0-.497.014-.121.014-.209.051-.262.112-.054.061-.081.163-.081.308,0,.178.042.294.126.35.084.057.208.103.371.141l.994.224c.271.065.47.166.599.301.128.136.192.348.192.638,0,.279-.053.489-.157.63-.105.14-.266.233-.479.279-.215.047-.488.07-.819.07-.121,0-.303-.005-.543-.014-.24-.01-.505-.038-.794-.084l.042-.435c.112.005.23.011.356.018s.258.011.396.011h.424c.257,0,.457-.012.603-.035.145-.023.247-.068.308-.137.061-.067.091-.169.091-.304,0-.168-.049-.28-.146-.336-.099-.057-.229-.104-.393-.141l-.979-.224c-.188-.047-.336-.108-.448-.186s-.193-.178-.245-.301c-.052-.124-.077-.279-.077-.466,0-.266.047-.467.141-.603.093-.135.237-.226.434-.272s.448-.067.756-.063Z" fill="#231f20" stroke-width="0"/>
    <path d="M116.693,9.927l.343.049c-.079.07-.133.155-.161.256-.027.101-.02.192.025.276.044.084.139.138.283.161l1.273.203c.322.047.547.146.673.301s.188.373.188.658c0,.266-.05.476-.15.63s-.27.264-.508.329c-.237.065-.56.098-.966.098-.308,0-.566-.018-.777-.053-.21-.034-.379-.093-.507-.175-.129-.081-.221-.188-.276-.318-.057-.131-.084-.294-.084-.49,0-.149.021-.273.066-.374.044-.101.114-.19.21-.27s.221-.156.374-.231l.42-.23.273.098-.343.259c-.094.07-.172.14-.234.207-.063.067-.11.14-.141.217s-.045.169-.045.276c0,.159.03.28.091.364s.168.141.321.171c.154.031.369.046.645.046s.488-.017.641-.049c.151-.033.258-.091.318-.175s.091-.203.091-.357c0-.116-.015-.205-.045-.266-.031-.061-.088-.107-.172-.141-.084-.032-.208-.061-.371-.084l-1.225-.168c-.146-.019-.261-.065-.347-.14-.087-.074-.146-.163-.179-.266s-.042-.207-.028-.312c.015-.105.05-.203.105-.294.056-.092.128-.16.217-.207ZM117.659,7.981c.364,0,.652.038.865.112.212.075.363.191.454.351.092.158.137.366.137.622,0,.248-.045.452-.137.613-.091.161-.243.279-.458.356s-.504.115-.868.115-.652-.038-.864-.115c-.213-.077-.364-.194-.455-.354-.091-.158-.137-.361-.137-.608,0-.257.046-.466.137-.627s.244-.278.458-.354c.215-.074.505-.112.868-.112ZM117.652,8.436c-.341,0-.577.048-.71.144-.134.096-.2.258-.2.486,0,.225.066.386.2.483.133.098.369.147.71.147.346,0,.583-.05.714-.147s.196-.259.196-.483c0-.229-.065-.391-.196-.486s-.368-.144-.714-.144ZM119.514,8.065l-.035.329-.868.07-.245-.399h1.148Z" fill="#231f20" stroke-width="0"/>
    <path d="M121.628,7.981c.393,0,.706.059.942.176.235.116.404.307.507.57s.154.612.154,1.046-.052.783-.154,1.047-.271.454-.507.57c-.236.117-.55.175-.942.175-.387,0-.698-.058-.934-.175-.236-.116-.406-.307-.512-.57-.104-.264-.157-.612-.157-1.047s.053-.782.157-1.046c.105-.264.275-.454.512-.57.235-.117.547-.176.934-.176ZM121.628,8.486c-.247,0-.441.038-.584.115s-.244.209-.305.396-.091.445-.091.776.03.591.091.777.162.318.305.396.337.115.584.115.443-.038.589-.115c.145-.077.247-.209.308-.396s.091-.445.091-.777-.03-.59-.091-.776-.163-.318-.308-.396c-.146-.077-.341-.115-.589-.115Z" fill="#231f20" stroke-width="0"/>
  </g>
  <g>
    <path d="M6.925,143.814l-1.463,4.655c-.019.046-.049.087-.091.122-.042.035-.091.053-.147.053h-.623c-.061,0-.111-.018-.153-.053-.042-.035-.07-.076-.084-.122l-1.463-4.655h.637l1.141,3.829c.023.089.048.176.074.263.025.086.047.174.066.262h.188c.023-.088.047-.177.07-.266.023-.088.049-.177.077-.266l1.134-3.822h.637Z" fill="#231f20" stroke-width="0"/>
    <path d="M9.893,146.544l-.007.448-1.631.007c-.163.005-.277.048-.343.129-.065.082-.099.195-.099.34v.217c0,.177.042.307.126.389s.22.122.406.122c.131,0,.279-.024.444-.073.166-.049.333-.125.501-.228s.322-.233.462-.392v.441c-.052.065-.125.142-.221.228-.096.086-.21.17-.343.252-.133.082-.28.149-.441.203s-.335.081-.521.081c-.2,0-.378-.036-.531-.108-.154-.072-.274-.18-.361-.322-.086-.142-.129-.316-.129-.521v-.371c0-.266.083-.473.248-.62.166-.147.398-.221.696-.221h1.743ZM9.004,145.151c.252,0,.466.034.641.102.175.068.307.181.396.34s.133.375.133.651v2.401h-.469l-.091-.742-.042-.077v-1.582c0-.21-.048-.361-.144-.452s-.279-.136-.55-.136c-.178,0-.4.009-.669.028-.268.019-.533.04-.794.063l-.056-.441c.158-.028.332-.054.521-.077.188-.023.381-.042.577-.056.196-.014.378-.021.546-.021Z" fill="#231f20" stroke-width="0"/>
    <path d="M11.839,143.744l-.007,3.962c0,.149.041.263.123.339.081.077.196.116.346.116h.329l.07.455c-.042.019-.102.035-.179.049s-.156.024-.238.032c-.081.007-.15.01-.206.01-.252,0-.454-.075-.605-.224-.151-.149-.228-.364-.228-.644v-4.095h.595Z" fill="#231f20" stroke-width="0"/>
    <path d="M14.758,145.151c.392,0,.706.059.941.175s.405.307.508.57.153.613.153,1.046-.051.783-.153,1.047-.272.454-.508.57-.55.175-.941.175c-.388,0-.699-.058-.935-.175s-.406-.307-.511-.57c-.105-.264-.158-.613-.158-1.047s.053-.783.158-1.046c.104-.264.275-.454.511-.57s.547-.175.935-.175ZM14.758,145.655c-.247,0-.442.038-.585.115-.142.077-.243.209-.304.396-.062.187-.092.446-.092.777s.03.591.092.777c.061.187.162.318.304.396.143.077.338.115.585.115s.443-.039.588-.115c.145-.077.247-.209.308-.396.062-.187.092-.446.092-.777s-.03-.59-.092-.777c-.061-.187-.163-.318-.308-.396s-.341-.115-.588-.115Z" fill="#231f20" stroke-width="0"/>
    <path d="M17.754,145.235l.077.651.056.105v2.653h-.595v-3.409h.462ZM19.427,145.151l-.07.56h-.195c-.201,0-.401.041-.603.123-.2.082-.445.197-.734.347l-.05-.371c.252-.206.506-.366.76-.483.255-.117.501-.175.738-.175h.154Z" fill="#231f20" stroke-width="0"/>
    <path d="M21.408,145.151c.514,0,.886.094,1.117.28.23.187.347.464.347.833.004.303-.059.54-.189.71s-.338.255-.623.255h-1.988v-.462h1.834c.154,0,.255-.053.302-.158.046-.105.069-.22.069-.346-.005-.219-.069-.375-.195-.469-.126-.093-.341-.14-.645-.14-.247,0-.442.036-.584.108-.143.072-.243.198-.302.378-.058.18-.087.431-.087.752,0,.364.036.642.108.833s.188.322.347.392c.158.07.368.105.63.105.182,0,.381-.008.599-.024.217-.017.411-.036.584-.06l.063.399c-.107.042-.239.077-.396.105s-.317.049-.483.063-.313.021-.444.021c-.392,0-.707-.06-.945-.179s-.412-.31-.521-.574-.164-.612-.164-1.046c0-.448.055-.802.164-1.061.109-.259.28-.443.512-.553.23-.109.528-.165.892-.165Z" fill="#231f20" stroke-width="0"/>
    <path d="M24.902,145.151c.148,0,.308.005.476.014s.335.021.501.035c.165.014.318.033.458.056l-.049.434c-.215-.009-.431-.018-.647-.024s-.434-.01-.647-.01c-.21-.005-.376,0-.497.014-.121.014-.209.051-.263.112-.054.061-.08.163-.08.308,0,.178.042.294.126.35s.207.103.371.14l.993.224c.271.065.471.166.599.301.129.135.192.348.192.637,0,.28-.052.49-.157.63-.104.14-.265.233-.479.28-.215.047-.487.07-.819.07-.121,0-.302-.005-.542-.014s-.505-.038-.795-.084l.042-.434c.112.005.231.011.357.018s.258.011.396.011h.424c.256,0,.457-.012.602-.035s.247-.069.308-.137c.061-.067.092-.169.092-.304,0-.168-.05-.28-.147-.336-.098-.056-.229-.103-.392-.14l-.98-.224c-.187-.046-.336-.108-.448-.186-.111-.077-.193-.177-.245-.301-.051-.124-.076-.279-.076-.466,0-.266.046-.466.14-.602.094-.135.238-.226.434-.273.196-.046.448-.067.757-.063Z" fill="#231f20" stroke-width="0"/>
    <path d="M30.018,145.151c.224,0,.445.029.665.088.22.058.43.148.63.269l-.035.371c-.219-.065-.413-.117-.581-.154s-.348-.056-.539-.056c-.195,0-.354.034-.472.102-.119.068-.207.192-.263.375-.057.182-.084.441-.084.777s.026.598.08.784.139.317.256.392c.116.075.266.112.448.112.135,0,.258-.018.367-.052.109-.035.227-.092.35-.172.124-.079.27-.179.438-.301l.057.42c-.188.173-.399.32-.638.441-.237.122-.494.182-.77.182-.43,0-.736-.151-.921-.455-.185-.303-.276-.751-.276-1.344,0-.443.047-.794.141-1.054.093-.259.235-.444.427-.557.191-.112.432-.168.721-.168ZM31.796,143.744v4.9h-.462l-.07-.595-.063-.049v-2.338l.042-.105c-.019-.131-.03-.257-.034-.378-.005-.122-.008-.25-.008-.385v-1.05h.596Z" fill="#231f20" stroke-width="0"/>
    <path d="M34.295,145.151c.514,0,.886.094,1.116.28.231.187.347.464.347.833.005.303-.059.54-.188.71-.131.17-.339.255-.623.255h-1.988v-.462h1.834c.154,0,.254-.053.301-.158s.07-.22.07-.346c-.005-.219-.07-.375-.196-.469-.126-.093-.341-.14-.644-.14-.248,0-.442.036-.585.108s-.242.198-.301.378-.088.431-.088.752c0,.364.036.642.108.833s.188.322.347.392c.159.07.369.105.63.105.183,0,.382-.008.599-.024.217-.017.412-.036.585-.06l.062.399c-.107.042-.239.077-.396.105s-.317.049-.482.063c-.166.014-.314.021-.445.021-.392,0-.707-.06-.944-.179-.238-.119-.412-.31-.521-.574-.11-.264-.165-.612-.165-1.046,0-.448.055-.802.165-1.061.109-.259.279-.443.511-.553.231-.109.528-.165.893-.165Z" fill="#231f20" stroke-width="0"/>
    <path d="M8.892,152.151c.514,0,.886.094,1.116.28.231.187.347.464.347.833.005.303-.059.54-.188.71-.131.17-.339.255-.623.255h-1.988v-.462h1.834c.154,0,.254-.053.301-.158s.07-.22.07-.346c-.005-.219-.07-.375-.196-.469-.126-.093-.341-.14-.644-.14-.248,0-.442.036-.585.108s-.242.198-.301.378-.088.431-.088.752c0,.364.036.642.108.833s.188.322.347.392c.159.07.369.105.63.105.183,0,.382-.008.599-.024.217-.017.412-.036.585-.06l.062.399c-.107.042-.239.077-.396.105s-.317.049-.482.063c-.166.014-.314.021-.445.021-.392,0-.707-.06-.944-.179-.238-.119-.412-.31-.521-.574-.11-.264-.165-.612-.165-1.046,0-.448.055-.802.165-1.061.109-.259.279-.443.511-.553.231-.109.528-.165.893-.165Z" fill="#231f20" stroke-width="0"/>
    <path d="M11.754,152.235l.05.651.042.105v2.653h-.596v-3.409h.504ZM13.323,152.151c.616,0,.924.313.924.938v2.555h-.595v-2.387c0-.229-.037-.386-.112-.472-.074-.086-.2-.129-.378-.129-.21,0-.42.051-.63.154s-.46.243-.749.42l-.028-.427c.267-.206.53-.365.791-.479.262-.115.521-.172.777-.172Z" fill="#231f20" stroke-width="0"/>
    <path d="M17.256,152.235v.469h-2.296v-.434l.672-.035h1.624ZM16.171,151.227v3.479c0,.164.035.28.105.35.07.07.188.105.356.105h.519l.07.455c-.075.019-.161.035-.26.049-.098.014-.193.024-.287.032-.093.007-.168.01-.224.01-.284,0-.502-.079-.651-.238s-.224-.388-.224-.686v-3.556h.595Z" fill="#231f20" stroke-width="0"/>
    <path d="M18.447,152.235l.077.651.056.105v2.653h-.595v-3.409h.462ZM20.12,152.151l-.07.56h-.195c-.201,0-.401.041-.603.123-.2.082-.445.197-.734.347l-.05-.371c.252-.206.506-.366.76-.483.255-.117.501-.175.738-.175h.154Z" fill="#231f20" stroke-width="0"/>
    <path d="M23.291,153.544l-.007.448-1.631.007c-.163.005-.277.048-.343.129-.065.082-.099.195-.099.34v.217c0,.177.042.307.126.389s.22.122.406.122c.131,0,.279-.024.444-.073.166-.049.333-.125.501-.228s.322-.233.462-.392v.441c-.052.065-.125.142-.221.228-.096.086-.21.17-.343.252-.133.082-.28.149-.441.203s-.335.081-.521.081c-.2,0-.378-.036-.531-.108-.154-.072-.274-.18-.361-.322-.086-.142-.129-.316-.129-.521v-.371c0-.266.083-.473.248-.62.166-.147.398-.221.696-.221h1.743ZM22.402,152.151c.252,0,.466.034.641.102.175.068.307.181.396.34s.133.375.133.651v2.401h-.469l-.091-.742-.042-.077v-1.582c0-.21-.048-.361-.144-.452s-.279-.136-.55-.136c-.178,0-.4.009-.669.028-.268.019-.533.04-.794.063l-.056-.441c.158-.028.332-.054.521-.077.188-.023.381-.042.577-.056.196-.014.378-.021.546-.021Z" fill="#231f20" stroke-width="0"/>
    <path d="M25.769,152.151c.224,0,.445.029.665.088.219.058.429.148.63.269l-.035.371c-.22-.065-.413-.117-.581-.154s-.348-.056-.539-.056c-.196,0-.354.034-.473.102-.119.068-.206.192-.263.375-.056.182-.084.441-.084.777s.027.598.081.784.139.317.255.392c.117.075.267.112.448.112.136,0,.258-.018.367-.052.11-.035.227-.092.351-.172.123-.079.27-.179.438-.301l.056.42c-.187.173-.398.32-.637.441-.238.122-.495.182-.771.182-.429,0-.735-.151-.92-.455-.185-.303-.276-.751-.276-1.344,0-.443.046-.794.14-1.054.094-.259.235-.444.427-.557.191-.112.432-.168.722-.168ZM27.546,150.744v4.9h-.462l-.07-.595-.062-.049v-2.338l.042-.105c-.019-.131-.03-.257-.035-.378-.005-.122-.007-.25-.007-.385v-1.05h.595Z" fill="#231f20" stroke-width="0"/>
    <path d="M31.145,153.544l-.007.448-1.631.007c-.164.005-.278.048-.344.129-.065.082-.098.195-.098.34v.217c0,.177.042.307.126.389s.22.122.406.122c.13,0,.278-.024.444-.073.165-.049.332-.125.5-.228s.322-.233.462-.392v.441c-.051.065-.124.142-.22.228-.096.086-.21.17-.344.252-.133.082-.279.149-.44.203s-.335.081-.521.081c-.201,0-.378-.036-.532-.108s-.274-.18-.36-.322c-.087-.142-.13-.316-.13-.521v-.371c0-.266.083-.473.249-.62.165-.147.397-.221.696-.221h1.743ZM30.255,152.151c.253,0,.466.034.641.102.176.068.308.181.396.34.089.159.134.375.134.651v2.401h-.47l-.091-.742-.042-.077v-1.582c0-.21-.048-.361-.144-.452s-.278-.136-.55-.136c-.177,0-.399.009-.668.028s-.533.04-.795.063l-.056-.441c.158-.028.332-.054.521-.077s.382-.042.577-.056c.196-.014.378-.021.546-.021Z" fill="#231f20" stroke-width="0"/>
  </g>
</svg>