<?xml version="1.0" encoding="UTF-8"?>
<svg id="a" data-name="Layer 3" xmlns="http://www.w3.org/2000/svg" viewBox="0 0 248.972 156.342">
  <g>
    <path d="M11.19,33.556h.754c.252,0,.502,.004,.75,.011,.247,.008,.485,.019,.716,.034l-.03,.518h-2.077c-.155,0-.269,.039-.341,.116-.073,.078-.109,.204-.109,.379v3.075c0,.175,.036,.302,.109,.382,.072,.08,.186,.12,.341,.12h2.077l.03,.51c-.23,.015-.469,.025-.716,.03-.248,.005-.498,.008-.75,.011-.253,.002-.504,.003-.754,.003-.306,0-.547-.081-.724-.244-.178-.162-.27-.381-.274-.656v-3.39c.005-.28,.097-.5,.274-.66,.177-.16,.418-.24,.724-.24Zm-.862,2.183h2.76v.533h-2.76v-.533Z" fill="#231f20"/>
    <path d="M14.91,35.087l.053,.697,.045,.113v2.842h-.638v-3.652h.54Zm1.681-.09c.659,0,.989,.335,.989,1.005v2.737h-.637v-2.558c0-.245-.041-.414-.12-.506-.08-.092-.216-.139-.405-.139-.225,0-.45,.055-.675,.165-.226,.11-.493,.26-.803,.45l-.03-.458c.285-.22,.567-.391,.848-.514s.558-.184,.833-.184Z" fill="#231f20"/>
    <path d="M20.805,35.087v.502h-2.46v-.465l.72-.037h1.74Zm-1.163-1.08v3.728c0,.175,.038,.3,.112,.375,.075,.075,.203,.112,.383,.112h.555l.075,.488c-.08,.02-.172,.037-.277,.052-.104,.015-.207,.026-.308,.034-.1,.008-.18,.011-.24,.011-.305,0-.537-.085-.697-.255s-.24-.415-.24-.735v-3.81h.638Z" fill="#231f20"/>
    <path d="M22.08,35.087l.083,.697,.06,.113v2.842h-.638v-3.652h.495Zm1.793-.09l-.075,.6h-.21c-.215,0-.431,.044-.646,.131s-.478,.211-.787,.371l-.053-.397c.271-.22,.541-.393,.813-.518,.272-.125,.537-.188,.792-.188h.165Z" fill="#231f20"/>
    <path d="M25.995,34.996c.55,0,.948,.1,1.196,.3,.247,.2,.371,.498,.371,.893,.005,.325-.062,.579-.202,.761-.141,.183-.363,.273-.668,.273h-2.13v-.495h1.965c.165,0,.272-.057,.322-.169s.075-.236,.075-.371c-.005-.235-.075-.403-.21-.503-.135-.1-.365-.15-.689-.15-.266,0-.475,.039-.627,.116-.152,.078-.26,.213-.322,.405s-.094,.461-.094,.806c0,.39,.039,.688,.116,.893s.201,.345,.371,.42,.396,.112,.675,.112c.195,0,.409-.008,.642-.026s.441-.039,.626-.064l.067,.428c-.114,.045-.256,.083-.423,.112-.168,.03-.341,.053-.518,.067-.178,.015-.337,.022-.477,.022-.42,0-.758-.063-1.013-.191s-.441-.333-.559-.615c-.117-.282-.177-.656-.177-1.121,0-.48,.06-.859,.177-1.136,.117-.278,.3-.475,.548-.593,.247-.117,.565-.176,.956-.176Zm.78-1.815l.367,.495-1.44,.9-.217-.292,1.29-1.103Z" fill="#231f20"/>
    <path d="M30.022,34.996c.55,0,.949,.1,1.196,.3,.248,.2,.371,.498,.371,.893,.005,.325-.062,.579-.202,.761s-.362,.273-.667,.273h-2.131v-.495h1.966c.165,0,.272-.057,.322-.169s.075-.236,.075-.371c-.006-.235-.075-.403-.21-.503-.136-.1-.365-.15-.69-.15-.265,0-.474,.039-.626,.116-.153,.078-.261,.213-.323,.405s-.094,.461-.094,.806c0,.39,.039,.688,.117,.893,.077,.205,.201,.345,.371,.42s.395,.112,.675,.112c.195,0,.408-.008,.642-.026,.232-.018,.44-.039,.626-.064l.067,.428c-.115,.045-.257,.083-.424,.112-.168,.03-.34,.053-.518,.067-.178,.015-.336,.022-.477,.022-.42,0-.757-.063-1.012-.191-.256-.127-.441-.333-.56-.615-.117-.282-.176-.656-.176-1.121,0-.48,.059-.859,.176-1.136,.118-.278,.301-.475,.548-.593,.248-.117,.566-.176,.956-.176Z" fill="#231f20"/>
    <path d="M35.782,33.564v5.175h-.66v-4.103c0-.075,.003-.15,.008-.225,.005-.075,.015-.15,.03-.225l-1.268,.398-.09-.488,1.319-.532h.66Z" fill="#231f20"/>
  </g>
  <g>
    <path d="M221.19,77.408c.245,.005,.498,.018,.758,.038s.521,.058,.78,.112l-.045,.48c-.215-.01-.453-.019-.713-.026-.26-.008-.51-.011-.75-.011-.185,0-.344,.006-.476,.019-.133,.013-.242,.042-.327,.09-.085,.048-.146,.125-.184,.233-.037,.107-.056,.256-.056,.446,0,.285,.051,.483,.153,.596,.103,.112,.269,.196,.499,.251l1.05,.263c.4,.095,.674,.261,.821,.499,.147,.238,.222,.557,.222,.957,0,.3-.034,.542-.102,.728s-.172,.326-.312,.423c-.14,.098-.32,.165-.54,.203s-.479,.056-.78,.056c-.17,0-.391-.007-.663-.022-.272-.015-.587-.055-.941-.12l.045-.487c.295,.01,.532,.019,.713,.026,.18,.007,.335,.011,.465,.011h.405c.265,0,.474-.02,.626-.06s.26-.12,.322-.24c.062-.12,.094-.297,.094-.532,0-.2-.022-.355-.067-.465-.045-.11-.116-.194-.214-.251s-.222-.104-.371-.139l-1.072-.27c-.375-.095-.639-.26-.792-.495-.152-.235-.229-.55-.229-.945,0-.3,.034-.542,.102-.724,.067-.183,.17-.32,.308-.413,.137-.093,.311-.154,.521-.184,.211-.03,.46-.045,.75-.045Z" fill="#231f20"/>
    <path d="M225.435,78.93c.42,0,.757,.063,1.009,.188,.253,.125,.434,.329,.544,.611,.11,.283,.165,.656,.165,1.122s-.055,.838-.165,1.121c-.11,.282-.291,.486-.544,.611-.252,.125-.589,.188-1.009,.188-.415,0-.748-.062-1.001-.188s-.435-.329-.548-.611c-.112-.283-.168-.656-.168-1.121s.056-.839,.168-1.122c.113-.282,.295-.486,.548-.611,.253-.125,.586-.188,1.001-.188Zm0,.54c-.265,0-.474,.042-.626,.124s-.262,.224-.326,.424c-.065,.2-.098,.478-.098,.833s.032,.632,.098,.832c.064,.2,.174,.341,.326,.424s.361,.124,.626,.124,.476-.042,.63-.124c.155-.083,.266-.224,.33-.424,.065-.2,.098-.477,.098-.832s-.032-.633-.098-.833c-.064-.2-.175-.341-.33-.424-.154-.083-.364-.124-.63-.124Z" fill="#231f20"/>
    <path d="M228.645,79.021l.083,.697,.06,.113v2.842h-.638v-3.652h.495Zm1.793-.09l-.075,.6h-.21c-.215,0-.431,.044-.646,.131s-.478,.211-.787,.371l-.053-.397c.271-.22,.541-.393,.813-.518,.272-.125,.537-.188,.792-.188h.165Z" fill="#231f20"/>
    <path d="M233.235,79.021v.502h-2.46v-.465l.72-.037h1.74Zm-1.162-1.08v3.728c0,.175,.037,.3,.112,.375,.075,.075,.202,.112,.383,.112h.555l.075,.488c-.08,.02-.173,.037-.277,.052-.105,.015-.208,.026-.308,.034-.101,.008-.181,.011-.24,.011-.305,0-.537-.085-.697-.255s-.24-.415-.24-.735v-3.81h.638Z" fill="#231f20"/>
    <path d="M234.51,77.468c.13,0,.194,.065,.194,.195v.427c0,.13-.064,.195-.194,.195h-.301c-.13,0-.194-.065-.194-.195v-.427c0-.13,.064-.195,.194-.195h.301Zm.165,1.553v3.652h-.63v-3.652h.63Z" fill="#231f20"/>
    <path d="M237.374,78.93c.55,0,.949,.1,1.196,.3,.248,.2,.371,.498,.371,.893,.005,.325-.062,.579-.202,.761s-.362,.273-.667,.273h-2.131v-.495h1.966c.165,0,.272-.057,.322-.169s.075-.236,.075-.371c-.006-.235-.075-.403-.21-.503-.136-.1-.365-.15-.69-.15-.265,0-.474,.039-.626,.116-.153,.078-.261,.213-.323,.405s-.094,.461-.094,.806c0,.39,.039,.688,.117,.893,.077,.205,.201,.345,.371,.42s.395,.112,.675,.112c.195,0,.408-.008,.642-.026,.232-.018,.44-.039,.626-.064l.067,.428c-.115,.045-.257,.083-.424,.112-.168,.03-.34,.053-.518,.067-.178,.015-.336,.022-.477,.022-.42,0-.757-.063-1.012-.191-.256-.127-.441-.333-.56-.615-.117-.282-.176-.656-.176-1.121,0-.48,.059-.859,.176-1.136,.118-.278,.301-.475,.548-.593,.248-.117,.566-.176,.956-.176Z" fill="#231f20"/>
  </g>
  <g>
    <path d="M10.575,56.271h.754c.253,0,.503,.004,.75,.011,.248,.008,.486,.019,.717,.034l-.03,.518h-2.078c-.154,0-.269,.039-.341,.116-.072,.078-.108,.204-.108,.379v3.075c0,.175,.036,.302,.108,.382s.187,.12,.341,.12h2.078l.03,.51c-.23,.015-.469,.025-.717,.03-.247,.005-.497,.008-.75,.011-.252,.002-.504,.003-.754,.003-.305,0-.546-.081-.724-.244-.178-.162-.269-.381-.273-.656v-3.39c.005-.28,.096-.5,.273-.66s.419-.24,.724-.24Zm-.862,2.183h2.76v.533h-2.76v-.533Z" fill="#231f20"/>
    <path d="M14.295,57.801l.053,.697,.045,.113v2.842h-.638v-3.652h.54Zm1.68-.09c.66,0,.99,.335,.99,1.005v2.737h-.638v-2.558c0-.245-.04-.414-.12-.506-.08-.092-.215-.139-.405-.139-.225,0-.449,.055-.675,.165-.225,.11-.492,.26-.803,.45l-.029-.458c.285-.22,.567-.391,.848-.514,.279-.123,.557-.184,.832-.184Z" fill="#231f20"/>
    <path d="M20.19,57.801v.502h-2.46v-.465l.72-.037h1.74Zm-1.162-1.08v3.728c0,.175,.037,.3,.112,.375,.075,.075,.202,.112,.383,.112h.555l.075,.488c-.08,.02-.173,.037-.277,.052-.105,.015-.208,.026-.308,.034-.101,.008-.181,.011-.24,.011-.305,0-.537-.085-.697-.255s-.24-.415-.24-.735v-3.81h.638Z" fill="#231f20"/>
    <path d="M21.465,57.801l.082,.697,.061,.113v2.842h-.638v-3.652h.495Zm1.792-.09l-.075,.6h-.21c-.215,0-.43,.044-.645,.131s-.478,.211-.788,.371l-.052-.397c.27-.22,.541-.393,.813-.518,.272-.125,.536-.188,.791-.188h.165Z" fill="#231f20"/>
    <path d="M25.379,57.711c.55,0,.949,.1,1.196,.3,.248,.2,.371,.498,.371,.893,.005,.325-.062,.579-.202,.761s-.362,.273-.667,.273h-2.131v-.495h1.966c.165,0,.272-.057,.322-.169s.075-.236,.075-.371c-.006-.235-.075-.403-.21-.503-.136-.1-.365-.15-.69-.15-.265,0-.474,.039-.626,.116-.153,.078-.261,.213-.323,.405s-.094,.461-.094,.806c0,.39,.039,.688,.117,.893,.077,.205,.201,.345,.371,.42s.395,.112,.675,.112c.195,0,.408-.008,.642-.026,.232-.018,.44-.039,.626-.064l.067,.428c-.115,.045-.257,.083-.424,.112-.168,.03-.34,.053-.518,.067-.178,.015-.336,.022-.477,.022-.42,0-.757-.063-1.012-.191-.256-.127-.441-.333-.56-.615-.117-.282-.176-.656-.176-1.121,0-.48,.059-.859,.176-1.136,.118-.278,.301-.475,.548-.593,.248-.117,.566-.176,.956-.176Zm.78-1.815l.367,.495-1.439,.9-.218-.292,1.29-1.103Z" fill="#231f20"/>
    <path d="M29.408,57.711c.55,0,.948,.1,1.196,.3,.247,.2,.371,.498,.371,.893,.005,.325-.062,.579-.202,.761-.141,.183-.363,.273-.668,.273h-2.13v-.495h1.965c.165,0,.272-.057,.322-.169s.075-.236,.075-.371c-.005-.235-.075-.403-.21-.503-.135-.1-.365-.15-.689-.15-.266,0-.475,.039-.627,.116-.152,.078-.26,.213-.322,.405s-.094,.461-.094,.806c0,.39,.039,.688,.116,.893s.201,.345,.371,.42,.396,.112,.675,.112c.195,0,.409-.008,.642-.026s.441-.039,.626-.064l.067,.428c-.114,.045-.256,.083-.423,.112-.168,.03-.341,.053-.518,.067-.178,.015-.337,.022-.477,.022-.42,0-.758-.063-1.013-.191s-.441-.333-.559-.615c-.117-.282-.177-.656-.177-1.121,0-.48,.06-.859,.177-1.136,.117-.278,.3-.475,.548-.593,.247-.117,.565-.176,.956-.176Z" fill="#231f20"/>
    <path d="M35.055,56.188c.329,0,.613,.028,.851,.083,.237,.055,.42,.163,.548,.323,.127,.16,.191,.397,.191,.712,0,.215-.029,.417-.087,.607s-.153,.386-.288,.589c-.136,.203-.318,.431-.548,.686l-1.485,1.658c.13-.01,.27-.018,.417-.022s.288-.008,.424-.008h1.755v.638h-3.397v-.413c0-.055,.007-.106,.022-.154,.015-.047,.04-.091,.074-.131l1.5-1.695c.33-.355,.573-.67,.728-.945,.155-.275,.228-.535,.218-.78-.005-.17-.046-.293-.124-.371-.077-.078-.188-.128-.329-.154-.143-.025-.314-.038-.515-.038-.159,0-.312,.003-.457,.008-.146,.005-.299,.016-.461,.034-.163,.018-.352,.044-.566,.079l-.045-.51c.234-.055,.441-.096,.618-.124,.178-.027,.343-.046,.495-.056,.152-.01,.307-.015,.462-.015Z" fill="#231f20"/>
  </g>
  <g>
    <path d="M10.597,78.985h.754c.253,0,.503,.004,.75,.011,.248,.008,.486,.019,.717,.034l-.03,.518h-2.078c-.154,0-.269,.039-.341,.116-.072,.078-.108,.204-.108,.379v3.075c0,.175,.036,.302,.108,.382s.187,.12,.341,.12h2.078l.03,.51c-.23,.015-.469,.025-.717,.03-.247,.005-.497,.008-.75,.011-.252,.002-.504,.003-.754,.003-.305,0-.546-.081-.724-.244-.178-.162-.269-.381-.273-.656v-3.39c.005-.28,.096-.5,.273-.66s.419-.24,.724-.24Zm-.862,2.183h2.76v.533h-2.76v-.533Z" fill="#231f20"/>
    <path d="M14.318,80.515l.053,.697,.045,.113v2.842h-.638v-3.652h.54Zm1.68-.09c.66,0,.99,.335,.99,1.005v2.737h-.638v-2.558c0-.245-.04-.414-.12-.506-.08-.092-.215-.139-.405-.139-.225,0-.449,.055-.675,.165-.225,.11-.492,.26-.803,.45l-.029-.458c.285-.22,.567-.391,.848-.514,.279-.123,.557-.184,.832-.184Z" fill="#231f20"/>
    <path d="M20.212,80.515v.502h-2.46v-.465l.72-.037h1.74Zm-1.162-1.08v3.728c0,.175,.037,.3,.112,.375,.075,.075,.202,.112,.383,.112h.555l.075,.488c-.08,.02-.173,.037-.277,.052-.105,.015-.208,.026-.308,.034-.101,.008-.181,.011-.24,.011-.305,0-.537-.085-.697-.255s-.24-.415-.24-.735v-3.81h.638Z" fill="#231f20"/>
    <path d="M21.488,80.515l.082,.697,.061,.113v2.842h-.638v-3.652h.495Zm1.792-.09l-.075,.6h-.21c-.215,0-.43,.044-.645,.131s-.478,.211-.788,.371l-.052-.397c.27-.22,.541-.393,.813-.518,.272-.125,.536-.188,.791-.188h.165Z" fill="#231f20"/>
    <path d="M25.402,80.424c.55,0,.949,.1,1.196,.3,.248,.2,.371,.498,.371,.893,.005,.325-.062,.579-.202,.761s-.362,.273-.667,.273h-2.131v-.495h1.966c.165,0,.272-.057,.322-.169s.075-.236,.075-.371c-.006-.235-.075-.403-.21-.503-.136-.1-.365-.15-.69-.15-.265,0-.474,.039-.626,.116-.153,.078-.261,.213-.323,.405s-.094,.461-.094,.806c0,.39,.039,.688,.117,.893,.077,.205,.201,.345,.371,.42s.395,.112,.675,.112c.195,0,.408-.008,.642-.026,.232-.018,.44-.039,.626-.064l.067,.428c-.115,.045-.257,.083-.424,.112-.168,.03-.34,.053-.518,.067-.178,.015-.336,.022-.477,.022-.42,0-.757-.063-1.012-.191-.256-.127-.441-.333-.56-.615-.117-.282-.176-.656-.176-1.121,0-.48,.059-.859,.176-1.136,.118-.278,.301-.475,.548-.593,.248-.117,.566-.176,.956-.176Zm.78-1.815l.367,.495-1.439,.9-.218-.292,1.29-1.103Z" fill="#231f20"/>
    <path d="M29.43,80.424c.55,0,.948,.1,1.196,.3,.247,.2,.371,.498,.371,.893,.005,.325-.062,.579-.202,.761-.141,.183-.363,.273-.668,.273h-2.13v-.495h1.965c.165,0,.272-.057,.322-.169s.075-.236,.075-.371c-.005-.235-.075-.403-.21-.503-.135-.1-.365-.15-.689-.15-.266,0-.475,.039-.627,.116-.152,.078-.26,.213-.322,.405s-.094,.461-.094,.806c0,.39,.039,.688,.116,.893s.201,.345,.371,.42,.396,.112,.675,.112c.195,0,.409-.008,.642-.026s.441-.039,.626-.064l.067,.428c-.114,.045-.256,.083-.423,.112-.168,.03-.341,.053-.518,.067-.178,.015-.337,.022-.477,.022-.42,0-.758-.063-1.013-.191s-.441-.333-.559-.615c-.117-.282-.177-.656-.177-1.121,0-.48,.06-.859,.177-1.136,.117-.278,.3-.475,.548-.593,.247-.117,.565-.176,.956-.176Z" fill="#231f20"/>
    <path d="M34.98,78.895c.38,0,.686,.036,.918,.109,.233,.072,.404,.196,.515,.371,.109,.175,.165,.415,.165,.72,0,.22-.023,.421-.068,.604s-.121,.335-.229,.458-.261,.204-.461,.244v.03c.34,.055,.573,.196,.701,.423,.127,.228,.193,.519,.198,.874,.005,.35-.045,.639-.149,.866-.105,.228-.277,.396-.518,.506s-.565,.165-.975,.165c-.275,0-.552-.014-.829-.042s-.549-.059-.813-.094l.045-.532c.17,.015,.333,.029,.491,.041,.157,.013,.313,.021,.469,.026,.154,.005,.312,.007,.473,.007,.279,0,.503-.031,.671-.094,.167-.062,.29-.168,.367-.319,.078-.15,.116-.35,.116-.6,0-.19-.026-.356-.078-.499-.053-.143-.153-.253-.301-.333s-.363-.12-.648-.12h-.96v-.518h.96c.205,0,.369-.027,.491-.083,.123-.055,.214-.126,.273-.214,.061-.087,.1-.188,.117-.3,.017-.112,.025-.229,.025-.349-.005-.22-.04-.384-.104-.491-.065-.107-.174-.18-.326-.218s-.361-.056-.626-.056c-.245,0-.481,.006-.709,.019-.228,.013-.429,.026-.604,.042l-.053-.51c.255-.045,.501-.079,.738-.101s.477-.034,.717-.034Z" fill="#231f20"/>
  </g>
  <g>
    <path d="M10.375,101.79h.754c.253,0,.503,.004,.75,.011,.248,.008,.486,.019,.717,.034l-.03,.518h-2.078c-.154,0-.269,.039-.341,.116-.072,.078-.108,.204-.108,.379v3.075c0,.175,.036,.302,.108,.382s.187,.12,.341,.12h2.078l.03,.51c-.23,.015-.469,.025-.717,.03-.247,.005-.497,.008-.75,.011-.252,.002-.504,.003-.754,.003-.305,0-.546-.081-.724-.244-.178-.162-.269-.381-.273-.656v-3.39c.005-.28,.096-.5,.273-.66s.419-.24,.724-.24Zm-.862,2.183h2.76v.533h-2.76v-.533Z" fill="#231f20"/>
    <path d="M14.096,103.32l.053,.697,.045,.113v2.842h-.638v-3.652h.54Zm1.68-.09c.66,0,.99,.335,.99,1.005v2.737h-.638v-2.558c0-.245-.04-.414-.12-.506-.08-.092-.215-.139-.405-.139-.225,0-.449,.055-.675,.165-.225,.11-.492,.26-.803,.45l-.029-.458c.285-.22,.567-.391,.848-.514,.279-.123,.557-.184,.832-.184Z" fill="#231f20"/>
    <path d="M19.991,103.32v.502h-2.46v-.465l.72-.037h1.74Zm-1.162-1.08v3.728c0,.175,.037,.3,.112,.375,.075,.075,.202,.112,.383,.112h.555l.075,.488c-.08,.02-.173,.037-.277,.052-.105,.015-.208,.026-.308,.034-.101,.008-.181,.011-.24,.011-.305,0-.537-.085-.697-.255s-.24-.415-.24-.735v-3.81h.638Z" fill="#231f20"/>
    <path d="M21.266,103.32l.082,.697,.061,.113v2.842h-.638v-3.652h.495Zm1.792-.09l-.075,.6h-.21c-.215,0-.43,.044-.645,.131s-.478,.211-.788,.371l-.052-.397c.27-.22,.541-.393,.813-.518,.272-.125,.536-.188,.791-.188h.165Z" fill="#231f20"/>
    <path d="M25.18,103.23c.55,0,.949,.1,1.196,.3,.248,.2,.371,.498,.371,.893,.005,.325-.062,.579-.202,.761s-.362,.273-.667,.273h-2.131v-.495h1.966c.165,0,.272-.057,.322-.169s.075-.236,.075-.371c-.006-.235-.075-.403-.21-.503-.136-.1-.365-.15-.69-.15-.265,0-.474,.039-.626,.116-.153,.078-.261,.213-.323,.405s-.094,.461-.094,.806c0,.39,.039,.688,.117,.893,.077,.205,.201,.345,.371,.42s.395,.112,.675,.112c.195,0,.408-.008,.642-.026,.232-.018,.44-.039,.626-.064l.067,.428c-.115,.045-.257,.083-.424,.112-.168,.03-.34,.053-.518,.067-.178,.015-.336,.022-.477,.022-.42,0-.757-.063-1.012-.191-.256-.127-.441-.333-.56-.615-.117-.282-.176-.656-.176-1.121,0-.48,.059-.859,.176-1.136,.118-.278,.301-.475,.548-.593,.248-.117,.566-.176,.956-.176Zm.78-1.815l.367,.495-1.439,.9-.218-.292,1.29-1.103Z" fill="#231f20"/>
    <path d="M29.208,103.23c.55,0,.948,.1,1.196,.3,.247,.2,.371,.498,.371,.893,.005,.325-.062,.579-.202,.761-.141,.183-.363,.273-.668,.273h-2.13v-.495h1.965c.165,0,.272-.057,.322-.169s.075-.236,.075-.371c-.005-.235-.075-.403-.21-.503-.135-.1-.365-.15-.689-.15-.266,0-.475,.039-.627,.116-.152,.078-.26,.213-.322,.405s-.094,.461-.094,.806c0,.39,.039,.688,.116,.893s.201,.345,.371,.42,.396,.112,.675,.112c.195,0,.409-.008,.642-.026s.441-.039,.626-.064l.067,.428c-.114,.045-.256,.083-.423,.112-.168,.03-.341,.053-.518,.067-.178,.015-.337,.022-.477,.022-.42,0-.758-.063-1.013-.191s-.441-.333-.559-.615c-.117-.282-.177-.656-.177-1.121,0-.48,.06-.859,.177-1.136,.117-.278,.3-.475,.548-.593,.247-.117,.565-.176,.956-.176Z" fill="#231f20"/>
    <path d="M35.298,101.798l-1.448,3.06c-.045,.1-.046,.176-.003,.229,.042,.052,.105,.079,.19,.079h3.068v.473l-.69,.067h-2.745c-.14,0-.258-.04-.353-.12-.095-.08-.156-.182-.184-.307s-.014-.25,.041-.375l1.47-3.105h.653Zm1.14,.99v4.185h-.622v-3.33l.112-.855h.51Z" fill="#231f20"/>
  </g>
  <g>
    <path d="M10.672,124.959h.754c.253,0,.503,.004,.75,.011,.248,.008,.486,.019,.717,.034l-.03,.518h-2.078c-.154,0-.269,.039-.341,.116-.072,.078-.108,.204-.108,.379v3.075c0,.175,.036,.302,.108,.382s.187,.12,.341,.12h2.078l.03,.51c-.23,.015-.469,.025-.717,.03-.247,.005-.497,.008-.75,.011-.252,.002-.504,.003-.754,.003-.305,0-.546-.081-.724-.244-.178-.162-.269-.381-.273-.656v-3.39c.005-.28,.096-.5,.273-.66s.419-.24,.724-.24Zm-.862,2.183h2.76v.533h-2.76v-.533Z" fill="#231f20"/>
    <path d="M14.393,126.489l.053,.697,.045,.113v2.842h-.638v-3.652h.54Zm1.68-.09c.66,0,.99,.335,.99,1.005v2.737h-.638v-2.558c0-.245-.04-.414-.12-.506-.08-.092-.215-.139-.405-.139-.225,0-.449,.055-.675,.165-.225,.11-.492,.26-.803,.45l-.029-.458c.285-.22,.567-.391,.848-.514,.279-.123,.557-.184,.832-.184Z" fill="#231f20"/>
    <path d="M20.288,126.489v.502h-2.46v-.465l.72-.037h1.74Zm-1.162-1.08v3.728c0,.175,.037,.3,.112,.375,.075,.075,.202,.112,.383,.112h.555l.075,.488c-.08,.02-.173,.037-.277,.052-.105,.015-.208,.026-.308,.034-.101,.008-.181,.011-.24,.011-.305,0-.537-.085-.697-.255s-.24-.415-.24-.735v-3.81h.638Z" fill="#231f20"/>
    <path d="M21.563,126.489l.082,.697,.061,.113v2.842h-.638v-3.652h.495Zm1.792-.09l-.075,.6h-.21c-.215,0-.43,.044-.645,.131s-.478,.211-.788,.371l-.052-.397c.27-.22,.541-.393,.813-.518,.272-.125,.536-.188,.791-.188h.165Z" fill="#231f20"/>
    <path d="M25.477,126.399c.55,0,.949,.1,1.196,.3,.248,.2,.371,.498,.371,.893,.005,.325-.062,.579-.202,.761s-.362,.273-.667,.273h-2.131v-.495h1.966c.165,0,.272-.057,.322-.169s.075-.236,.075-.371c-.006-.235-.075-.403-.21-.503-.136-.1-.365-.15-.69-.15-.265,0-.474,.039-.626,.116-.153,.078-.261,.213-.323,.405s-.094,.461-.094,.806c0,.39,.039,.688,.117,.893,.077,.205,.201,.345,.371,.42s.395,.112,.675,.112c.195,0,.408-.008,.642-.026,.232-.018,.44-.039,.626-.064l.067,.428c-.115,.045-.257,.083-.424,.112-.168,.03-.34,.053-.518,.067-.178,.015-.336,.022-.477,.022-.42,0-.757-.063-1.012-.191-.256-.127-.441-.333-.56-.615-.117-.282-.176-.656-.176-1.121,0-.48,.059-.859,.176-1.136,.118-.278,.301-.475,.548-.593,.248-.117,.566-.176,.956-.176Zm.78-1.815l.367,.495-1.439,.9-.218-.292,1.29-1.103Z" fill="#231f20"/>
    <path d="M29.505,126.399c.55,0,.948,.1,1.196,.3,.247,.2,.371,.498,.371,.893,.005,.325-.062,.579-.202,.761-.141,.183-.363,.273-.668,.273h-2.13v-.495h1.965c.165,0,.272-.057,.322-.169s.075-.236,.075-.371c-.005-.235-.075-.403-.21-.503-.135-.1-.365-.15-.689-.15-.266,0-.475,.039-.627,.116-.152,.078-.26,.213-.322,.405s-.094,.461-.094,.806c0,.39,.039,.688,.116,.893s.201,.345,.371,.42,.396,.112,.675,.112c.195,0,.409-.008,.642-.026s.441-.039,.626-.064l.067,.428c-.114,.045-.256,.083-.423,.112-.168,.03-.341,.053-.518,.067-.178,.015-.337,.022-.477,.022-.42,0-.758-.063-1.013-.191s-.441-.333-.559-.615c-.117-.282-.177-.656-.177-1.121,0-.48,.06-.859,.177-1.136,.117-.278,.3-.475,.548-.593,.247-.117,.565-.176,.956-.176Z" fill="#231f20"/>
    <path d="M36.57,124.966l-.03,.562h-2.175l-.075,1.41,.556,.045c.34,.025,.628,.07,.866,.135,.237,.065,.431,.16,.581,.285,.149,.125,.259,.284,.326,.476s.102,.429,.102,.708c0,.21-.021,.413-.064,.608-.042,.195-.122,.37-.239,.525-.118,.155-.287,.279-.507,.371-.22,.093-.508,.139-.862,.139-.205,0-.442-.015-.713-.045-.27-.03-.545-.077-.824-.143l.074-.532c.235,.04,.471,.072,.705,.097,.235,.025,.438,.038,.607,.038,.33,0,.578-.041,.743-.124s.277-.203,.337-.36c.061-.158,.093-.349,.098-.574,.005-.24-.023-.428-.086-.566s-.163-.24-.3-.308c-.138-.067-.32-.115-.548-.143-.228-.027-.506-.051-.836-.071l-.346-.022c-.074-.01-.136-.041-.184-.094-.047-.052-.068-.119-.063-.199l.12-2.22h2.737Z" fill="#231f20"/>
  </g>
  <g>
    <path d="M109.297,8.45c.258,0,.479,.006,.664,.018s.354,.031,.51,.057,.315,.06,.479,.101l-.079,.589c-.176-.018-.339-.032-.488-.044s-.31-.021-.479-.026-.372-.009-.606-.009c-.393,0-.703,.076-.932,.229-.229,.153-.392,.408-.488,.765s-.145,.844-.145,1.459,.048,1.102,.145,1.459,.26,.612,.488,.765c.229,.153,.539,.229,.932,.229,.375,0,.69-.007,.945-.022s.506-.04,.752-.075l.079,.58c-.252,.07-.512,.122-.778,.154s-.6,.048-.998,.048c-.58,0-1.045-.101-1.394-.303s-.601-.532-.756-.989c-.155-.457-.233-1.073-.233-1.846s.078-1.389,.233-1.846c.155-.458,.407-.787,.756-.989s.813-.303,1.394-.303Z" fill="#231f20"/>
    <path d="M113.887,10.235c.492,0,.886,.073,1.183,.22,.296,.146,.508,.386,.637,.717s.193,.769,.193,1.314-.064,.983-.193,1.314c-.129,.332-.341,.57-.637,.717-.297,.146-.69,.22-1.183,.22-.487,0-.878-.073-1.174-.22s-.51-.385-.643-.717c-.132-.331-.197-.769-.197-1.314s.065-.983,.197-1.314c.133-.331,.347-.57,.643-.717s.687-.22,1.174-.22Zm0,.633c-.312,0-.556,.048-.734,.146-.179,.097-.307,.262-.383,.497s-.114,.56-.114,.976,.038,.741,.114,.976,.204,.4,.383,.497c.179,.097,.423,.145,.734,.145s.557-.048,.738-.145c.182-.097,.311-.263,.387-.497s.114-.56,.114-.976-.038-.742-.114-.976-.205-.4-.387-.497c-.182-.097-.428-.146-.738-.146Z" fill="#231f20"/>
    <path d="M117.79,10.34v3.007c-.006,.27,.044,.46,.149,.572s.281,.167,.527,.167c.24,0,.479-.057,.717-.171,.237-.115,.523-.28,.857-.497l.097,.519c-.334,.264-.658,.463-.972,.598s-.632,.202-.954,.202c-.779,0-1.169-.393-1.169-1.178v-3.218h.747Zm2.919,0v4.282h-.598l-.07-.809-.079-.132v-3.341h.747Z" fill="#231f20"/>
    <path d="M123.91,10.235c.129,0,.272,.006,.431,.018s.321,.032,.488,.062,.321,.07,.462,.123l-.097,.483c-.194-.018-.397-.031-.611-.04s-.397-.013-.55-.013c-.34,0-.609,.047-.809,.141s-.343,.258-.431,.492-.132,.56-.132,.976,.044,.743,.132,.98,.231,.403,.431,.497,.469,.141,.809,.141c.088,0,.202-.003,.343-.009s.292-.015,.453-.026,.314-.029,.462-.053l.079,.501c-.218,.076-.453,.132-.708,.167s-.509,.053-.761,.053c-.492,0-.888-.073-1.187-.22s-.515-.384-.646-.712c-.132-.328-.198-.768-.198-1.318s.067-.991,.202-1.319c.135-.329,.353-.564,.651-.708s.694-.215,1.187-.215Z" fill="#231f20"/>
    <path d="M127.127,8.467l.009,1.697c0,.193-.007,.375-.021,.545-.015,.17-.037,.32-.066,.449l.079,.132v3.332h-.747v-6.154h.747Zm1.855,1.767c.773,0,1.16,.393,1.16,1.178v3.209h-.756v-2.998c0-.287-.046-.485-.137-.593s-.247-.163-.47-.163c-.264,0-.527,.062-.791,.185-.265,.123-.578,.302-.941,.536l-.035-.536c.334-.252,.665-.452,.994-.598,.328-.146,.653-.22,.976-.22Z" fill="#231f20"/>
    <path d="M133.247,10.235c.645,0,1.112,.117,1.402,.352s.436,.583,.436,1.046c.006,.381-.073,.679-.237,.893s-.426,.321-.783,.321h-2.496v-.581h2.303c.193,0,.319-.066,.378-.198s.088-.277,.088-.435c-.006-.275-.088-.472-.246-.589s-.428-.176-.809-.176c-.311,0-.556,.046-.734,.137s-.305,.249-.378,.475-.109,.541-.109,.945c0,.458,.045,.806,.136,1.046,.091,.241,.236,.404,.436,.493,.199,.088,.463,.132,.791,.132,.229,0,.479-.01,.752-.031s.518-.045,.734-.075l.079,.501c-.135,.053-.301,.097-.497,.132s-.398,.062-.606,.079-.395,.026-.559,.026c-.492,0-.888-.075-1.187-.224s-.518-.39-.655-.721c-.138-.331-.207-.769-.207-1.314,0-.563,.069-1.007,.207-1.332,.138-.326,.352-.557,.642-.695s.664-.207,1.121-.207Z" fill="#231f20"/>
    <path d="M138.311,7.676l.097,.36c-.587,.288-1.013,.749-1.279,1.385-.267,.636-.4,1.453-.4,2.449,0,.651,.059,1.228,.176,1.732,.117,.504,.299,.931,.545,1.279s.566,.625,.959,.831l-.097,.36c-.798-.311-1.382-.805-1.754-1.481-.373-.677-.559-1.581-.559-2.712,0-1.137,.186-2.045,.559-2.726,.372-.68,.956-1.172,1.754-1.477Z" fill="#231f20"/>
    <path d="M140.385,10.235c.188,0,.388,.006,.599,.018s.42,.026,.628,.044,.4,.041,.576,.07l-.062,.545c-.27-.011-.541-.022-.813-.031s-.543-.013-.812-.013c-.265-.005-.473,0-.625,.018s-.262,.065-.329,.141-.102,.205-.102,.387c0,.223,.053,.369,.158,.439s.261,.129,.466,.176l1.249,.281c.34,.083,.59,.208,.752,.378,.161,.17,.241,.437,.241,.8,0,.352-.065,.616-.197,.792s-.333,.293-.603,.352-.612,.088-1.028,.088c-.153,0-.38-.006-.682-.018s-.635-.047-.998-.105l.053-.545c.141,.006,.29,.013,.448,.022s.324,.013,.497,.013h.531c.322,0,.575-.015,.757-.044s.311-.086,.387-.172c.076-.084,.114-.212,.114-.382,0-.211-.062-.352-.185-.422s-.287-.129-.492-.176l-1.231-.281c-.234-.059-.422-.136-.562-.233-.141-.097-.243-.223-.308-.378s-.097-.35-.097-.584c0-.334,.059-.586,.176-.756,.117-.17,.299-.284,.545-.343s.562-.085,.949-.079Z" fill="#231f20"/>
    <path d="M142.671,7.676c.804,.305,1.391,.797,1.763,1.477,.373,.68,.559,1.588,.559,2.726,0,1.131-.186,2.036-.559,2.712-.372,.677-.959,1.171-1.763,1.481l-.088-.36c.393-.206,.711-.482,.954-.831s.424-.775,.541-1.279c.117-.504,.176-1.081,.176-1.732,0-.996-.132-1.812-.396-2.449-.264-.636-.689-1.097-1.275-1.385l.088-.36Z" fill="#231f20"/>
    <path d="M110.458,19.248c.129,0,.272,.006,.431,.018s.32,.032,.487,.062,.321,.07,.462,.123l-.097,.483c-.193-.018-.397-.031-.611-.04s-.396-.013-.549-.013c-.341,0-.61,.047-.81,.141s-.343,.258-.431,.492-.132,.56-.132,.976,.044,.743,.132,.98,.231,.403,.431,.497,.469,.141,.81,.141c.088,0,.202-.003,.343-.009s.291-.015,.452-.026,.315-.029,.462-.053l.079,.501c-.217,.076-.453,.132-.708,.167s-.508,.053-.76,.053c-.493,0-.889-.073-1.188-.22s-.514-.384-.646-.712c-.132-.328-.197-.768-.197-1.318s.067-.991,.202-1.319c.135-.329,.352-.564,.65-.708s.694-.215,1.188-.215Z" fill="#231f20"/>
    <path d="M116.068,20.998l-.009,.563-2.049,.009c-.205,.006-.349,.06-.431,.163s-.123,.245-.123,.426v.272c0,.223,.053,.386,.158,.488s.275,.154,.51,.154c.164,0,.35-.031,.559-.092,.208-.062,.417-.157,.628-.286,.211-.129,.404-.293,.58-.492v.554c-.064,.083-.156,.178-.276,.286s-.264,.214-.431,.316-.352,.188-.554,.255c-.203,.067-.421,.101-.655,.101-.252,0-.475-.045-.668-.136s-.345-.226-.453-.404-.163-.397-.163-.655v-.466c0-.334,.104-.593,.312-.778,.208-.185,.5-.277,.875-.277h2.189Zm-1.117-1.75c.316,0,.585,.042,.805,.127s.386,.227,.497,.426c.111,.2,.167,.472,.167,.818v3.016h-.59l-.114-.932-.053-.097v-1.987c0-.264-.06-.453-.18-.567-.12-.115-.351-.172-.69-.172-.223,0-.503,.012-.84,.035-.337,.024-.669,.05-.998,.08l-.07-.554c.199-.035,.418-.067,.655-.097s.479-.053,.726-.07,.475-.026,.686-.026Z" fill="#231f20"/>
    <path d="M119.584,19.248c.129,0,.272,.006,.431,.018s.32,.032,.487,.062,.321,.07,.462,.123l-.097,.483c-.193-.018-.397-.031-.611-.04s-.396-.013-.549-.013c-.341,0-.61,.047-.81,.141s-.343,.258-.431,.492-.132,.56-.132,.976,.044,.743,.132,.98,.231,.403,.431,.497,.469,.141,.81,.141c.088,0,.202-.003,.343-.009s.291-.015,.452-.026,.315-.029,.462-.053l.079,.501c-.217,.076-.453,.132-.708,.167s-.508,.053-.76,.053c-.493,0-.889-.073-1.188-.22s-.514-.384-.646-.712c-.132-.328-.197-.768-.197-1.318s.067-.991,.202-1.319c.135-.329,.352-.564,.65-.708s.694-.215,1.188-.215Z" fill="#231f20"/>
    <path d="M122.802,17.481l.009,1.697c0,.193-.008,.375-.022,.545-.015,.17-.036,.32-.065,.449l.079,.132v3.332h-.748v-6.154h.748Zm1.854,1.767c.774,0,1.161,.393,1.161,1.178v3.209h-.756v-2.998c0-.287-.046-.485-.137-.593s-.248-.163-.471-.163c-.264,0-.527,.062-.791,.185-.264,.123-.577,.302-.94,.536l-.035-.536c.334-.252,.665-.452,.993-.598s.653-.22,.976-.22Z" fill="#231f20"/>
    <path d="M128.921,19.248c.645,0,1.111,.117,1.402,.352,.29,.234,.435,.583,.435,1.046,.006,.381-.073,.679-.237,.893s-.425,.321-.782,.321h-2.497v-.581h2.304c.193,0,.319-.066,.378-.198s.088-.277,.088-.435c-.006-.275-.088-.472-.246-.589s-.428-.176-.809-.176c-.312,0-.556,.046-.734,.137s-.305,.249-.378,.475-.11,.541-.11,.945c0,.458,.046,.806,.137,1.046,.091,.241,.235,.404,.435,.493,.199,.088,.463,.132,.792,.132,.229,0,.479-.01,.751-.031s.518-.045,.734-.075l.079,.501c-.135,.053-.3,.097-.496,.132-.197,.035-.399,.062-.607,.079s-.394,.026-.558,.026c-.493,0-.889-.075-1.188-.224s-.518-.39-.655-.721c-.138-.331-.206-.769-.206-1.314,0-.563,.068-1.007,.206-1.332,.138-.326,.353-.557,.643-.695s.663-.207,1.121-.207Zm.914-2.127l.431,.58-1.688,1.055-.255-.343,1.513-1.292Z" fill="#231f20"/>
    <path d="M133.642,19.248c.645,0,1.112,.117,1.402,.352s.436,.583,.436,1.046c.006,.381-.073,.679-.237,.893s-.426,.321-.783,.321h-2.496v-.581h2.303c.193,0,.319-.066,.378-.198s.088-.277,.088-.435c-.006-.275-.088-.472-.246-.589s-.428-.176-.809-.176c-.311,0-.556,.046-.734,.137s-.305,.249-.378,.475-.109,.541-.109,.945c0,.458,.045,.806,.136,1.046,.091,.241,.236,.404,.436,.493,.199,.088,.463,.132,.791,.132,.229,0,.479-.01,.752-.031s.518-.045,.734-.075l.079,.501c-.135,.053-.301,.097-.497,.132s-.398,.062-.606,.079-.395,.026-.559,.026c-.492,0-.888-.075-1.187-.224s-.518-.39-.655-.721c-.138-.331-.207-.769-.207-1.314,0-.563,.069-1.007,.207-1.332,.138-.326,.352-.557,.642-.695s.664-.207,1.121-.207Z" fill="#231f20"/>
    <path d="M138.707,16.69l.097,.36c-.587,.288-1.013,.749-1.279,1.385-.267,.636-.4,1.453-.4,2.449,0,.651,.059,1.228,.176,1.732,.117,.504,.299,.931,.545,1.279s.566,.625,.959,.831l-.097,.36c-.798-.311-1.382-.805-1.754-1.481-.373-.677-.559-1.581-.559-2.712,0-1.137,.186-2.045,.559-2.726,.372-.68,.956-1.172,1.754-1.477Z" fill="#231f20"/>
    <path d="M140.781,19.248c.188,0,.388,.006,.599,.018s.42,.026,.628,.044,.4,.041,.576,.07l-.062,.545c-.27-.011-.541-.022-.813-.031s-.543-.013-.812-.013c-.265-.005-.473,0-.625,.018s-.262,.065-.329,.141-.102,.205-.102,.387c0,.223,.053,.369,.158,.439s.261,.129,.466,.176l1.249,.281c.34,.083,.59,.208,.752,.378,.161,.17,.241,.437,.241,.8,0,.352-.065,.616-.197,.792s-.333,.293-.603,.352-.612,.088-1.028,.088c-.153,0-.38-.006-.682-.018s-.635-.047-.998-.105l.053-.545c.141,.006,.29,.013,.448,.022s.324,.013,.497,.013h.531c.322,0,.575-.015,.757-.044s.311-.086,.387-.172c.076-.084,.114-.212,.114-.382,0-.211-.062-.352-.185-.422s-.287-.129-.492-.176l-1.231-.281c-.234-.059-.422-.136-.562-.233-.141-.097-.243-.223-.308-.378s-.097-.35-.097-.584c0-.334,.059-.586,.176-.756,.117-.17,.299-.284,.545-.343s.562-.085,.949-.079Z" fill="#231f20"/>
    <path d="M143.067,16.69c.804,.305,1.391,.797,1.763,1.477,.373,.68,.559,1.588,.559,2.726,0,1.131-.186,2.036-.559,2.712-.372,.677-.959,1.171-1.763,1.481l-.088-.36c.393-.206,.711-.482,.954-.831s.424-.775,.541-1.279c.117-.504,.176-1.081,.176-1.732,0-.996-.132-1.812-.396-2.449-.264-.636-.689-1.097-1.275-1.385l.088-.36Z" fill="#231f20"/>
  </g>
  <g>
    <path d="M187.952,8.45c.258,0,.479,.006,.663,.018,.186,.012,.355,.031,.511,.057s.314,.06,.479,.101l-.079,.589c-.176-.018-.338-.032-.487-.044s-.31-.021-.479-.026-.372-.009-.606-.009c-.393,0-.703,.076-.933,.229-.229,.153-.391,.408-.487,.765s-.146,.844-.146,1.459,.049,1.102,.146,1.459,.259,.612,.487,.765c.229,.153,.54,.229,.933,.229,.375,0,.689-.007,.945-.022,.255-.015,.505-.04,.751-.075l.079,.58c-.252,.07-.511,.122-.777,.154-.268,.032-.6,.048-.998,.048-.58,0-1.045-.101-1.394-.303s-.602-.532-.756-.989c-.156-.457-.233-1.073-.233-1.846s.077-1.389,.233-1.846c.154-.458,.407-.787,.756-.989s.813-.303,1.394-.303Z" fill="#231f20"/>
    <path d="M192.54,10.235c.492,0,.887,.073,1.183,.22s.509,.386,.638,.717,.193,.769,.193,1.314-.064,.983-.193,1.314c-.129,.332-.342,.57-.638,.717s-.69,.22-1.183,.22c-.486,0-.878-.073-1.174-.22s-.51-.385-.642-.717c-.132-.331-.198-.769-.198-1.314s.066-.983,.198-1.314,.346-.57,.642-.717,.688-.22,1.174-.22Zm0,.633c-.311,0-.556,.048-.734,.146-.179,.097-.306,.262-.382,.497s-.114,.56-.114,.976,.038,.741,.114,.976,.203,.4,.382,.497c.179,.097,.424,.145,.734,.145s.557-.048,.738-.145c.182-.097,.311-.263,.387-.497s.115-.56,.115-.976-.039-.742-.115-.976-.205-.4-.387-.497c-.182-.097-.428-.146-.738-.146Z" fill="#231f20"/>
    <path d="M196.445,10.34v3.007c-.006,.27,.044,.46,.149,.572s.281,.167,.527,.167c.24,0,.479-.057,.717-.171,.237-.115,.522-.28,.857-.497l.097,.519c-.335,.264-.658,.463-.972,.598s-.632,.202-.954,.202c-.779,0-1.17-.393-1.17-1.178v-3.218h.748Zm2.919,0v4.282h-.598l-.07-.809-.08-.132v-3.341h.748Z" fill="#231f20"/>
    <path d="M202.564,10.235c.129,0,.272,.006,.431,.018s.32,.032,.487,.062,.321,.07,.462,.123l-.097,.483c-.193-.018-.397-.031-.611-.04s-.396-.013-.549-.013c-.341,0-.61,.047-.81,.141s-.343,.258-.431,.492-.132,.56-.132,.976,.044,.743,.132,.98,.231,.403,.431,.497,.469,.141,.81,.141c.088,0,.202-.003,.343-.009s.291-.015,.452-.026,.315-.029,.462-.053l.079,.501c-.217,.076-.453,.132-.708,.167s-.508,.053-.76,.053c-.493,0-.889-.073-1.188-.22s-.514-.384-.646-.712c-.132-.328-.197-.768-.197-1.318s.067-.991,.202-1.319c.135-.329,.352-.564,.65-.708s.694-.215,1.188-.215Z" fill="#231f20"/>
    <path d="M205.782,8.467l.009,1.697c0,.193-.008,.375-.022,.545-.015,.17-.036,.32-.065,.449l.079,.132v3.332h-.748v-6.154h.748Zm1.854,1.767c.774,0,1.161,.393,1.161,1.178v3.209h-.756v-2.998c0-.287-.046-.485-.137-.593s-.248-.163-.471-.163c-.264,0-.527,.062-.791,.185-.264,.123-.577,.302-.94,.536l-.035-.536c.334-.252,.665-.452,.993-.598s.653-.22,.976-.22Z" fill="#231f20"/>
    <path d="M211.901,10.235c.645,0,1.111,.117,1.402,.352,.29,.234,.435,.583,.435,1.046,.006,.381-.073,.679-.237,.893s-.425,.321-.782,.321h-2.497v-.581h2.304c.193,0,.319-.066,.378-.198s.088-.277,.088-.435c-.006-.275-.088-.472-.246-.589s-.428-.176-.809-.176c-.312,0-.556,.046-.734,.137s-.305,.249-.378,.475-.11,.541-.11,.945c0,.458,.046,.806,.137,1.046,.091,.241,.235,.404,.435,.493,.199,.088,.463,.132,.792,.132,.229,0,.479-.01,.751-.031s.518-.045,.734-.075l.079,.501c-.135,.053-.3,.097-.496,.132-.197,.035-.399,.062-.607,.079s-.394,.026-.558,.026c-.493,0-.889-.075-1.188-.224s-.518-.39-.655-.721c-.138-.331-.206-.769-.206-1.314,0-.563,.068-1.007,.206-1.332,.138-.326,.353-.557,.643-.695s.663-.207,1.121-.207Z" fill="#231f20"/>
    <path d="M185.217,19.248c.281,0,.56,.037,.835,.11s.539,.186,.792,.338l-.044,.466c-.276-.082-.52-.146-.73-.194-.211-.046-.437-.07-.677-.07-.246,0-.444,.043-.594,.128s-.259,.242-.329,.47-.105,.554-.105,.976,.033,.75,.101,.984,.175,.399,.321,.493,.334,.141,.562,.141c.17,0,.324-.022,.462-.066s.284-.116,.439-.216c.155-.1,.338-.226,.55-.378l.07,.528c-.235,.217-.502,.401-.801,.554s-.621,.229-.967,.229c-.539,0-.925-.19-1.156-.571s-.348-.944-.348-1.688c0-.557,.059-.998,.176-1.323,.117-.326,.296-.559,.537-.699,.24-.141,.542-.211,.905-.211Zm2.233-1.767v6.154h-.58l-.088-.748-.08-.062v-2.937l.053-.132c-.023-.164-.038-.322-.044-.475s-.009-.313-.009-.483v-1.319h.748Z" fill="#231f20"/>
    <path d="M190.589,19.248c.645,0,1.111,.117,1.402,.352,.29,.234,.435,.583,.435,1.046,.006,.381-.073,.679-.237,.893s-.425,.321-.782,.321h-2.497v-.581h2.304c.193,0,.319-.066,.378-.198s.088-.277,.088-.435c-.006-.275-.088-.472-.246-.589s-.428-.176-.809-.176c-.312,0-.556,.046-.734,.137s-.305,.249-.378,.475-.11,.541-.11,.945c0,.458,.046,.806,.137,1.046,.091,.241,.235,.404,.435,.493,.199,.088,.463,.132,.792,.132,.229,0,.479-.01,.751-.031s.518-.045,.734-.075l.079,.501c-.135,.053-.3,.097-.496,.132-.197,.035-.399,.062-.607,.079s-.394,.026-.558,.026c-.493,0-.889-.075-1.188-.224s-.518-.39-.655-.721c-.138-.331-.206-.769-.206-1.314,0-.563,.068-1.007,.206-1.332,.138-.326,.353-.557,.643-.695s.663-.207,1.121-.207Z" fill="#231f20"/>
    <path d="M196.937,19.248c.188,0,.387,.006,.598,.018s.421,.026,.629,.044,.4,.041,.576,.07l-.062,.545c-.271-.011-.541-.022-.813-.031s-.544-.013-.813-.013c-.264-.005-.472,0-.624,.018s-.263,.065-.33,.141-.101,.205-.101,.387c0,.223,.053,.369,.158,.439s.261,.129,.466,.176l1.248,.281c.34,.083,.591,.208,.752,.378s.242,.437,.242,.8c0,.352-.066,.616-.198,.792s-.333,.293-.603,.352-.612,.088-1.028,.088c-.152,0-.38-.006-.682-.018s-.634-.047-.998-.105l.053-.545c.141,.006,.291,.013,.449,.022s.323,.013,.496,.013h.532c.322,0,.574-.015,.756-.044s.311-.086,.387-.172c.076-.084,.114-.212,.114-.382,0-.211-.062-.352-.185-.422s-.287-.129-.492-.176l-1.23-.281c-.234-.059-.422-.136-.562-.233-.142-.097-.244-.223-.309-.378s-.097-.35-.097-.584c0-.334,.059-.586,.176-.756,.117-.17,.3-.284,.546-.343s.562-.085,.949-.079Z" fill="#231f20"/>
    <path d="M201.79,19.248c.492,0,.886,.073,1.183,.22,.296,.146,.508,.386,.637,.717s.193,.769,.193,1.314-.064,.983-.193,1.314c-.129,.332-.341,.57-.637,.717-.297,.146-.69,.22-1.183,.22-.487,0-.878-.073-1.174-.22s-.51-.385-.643-.717c-.132-.331-.197-.769-.197-1.314s.065-.983,.197-1.314c.133-.331,.347-.57,.643-.717s.687-.22,1.174-.22Zm0,.633c-.312,0-.556,.048-.734,.146-.179,.097-.307,.262-.383,.497s-.114,.56-.114,.976,.038,.741,.114,.976,.204,.4,.383,.497c.179,.097,.423,.145,.734,.145s.557-.048,.738-.145c.182-.097,.311-.263,.387-.497s.114-.56,.114-.976-.038-.742-.114-.976-.205-.4-.387-.497c-.182-.097-.428-.146-.738-.146Z" fill="#231f20"/>
    <path d="M205.553,19.354l.097,.818,.07,.132v3.332h-.748v-4.282h.581Zm2.101-.105l-.088,.703h-.246c-.252,0-.504,.052-.756,.154s-.56,.248-.923,.435l-.062-.466c.316-.258,.634-.46,.954-.607,.319-.146,.628-.22,.927-.22h.193Z" fill="#231f20"/>
    <path d="M210.933,19.354v.589h-2.884v-.545l.845-.044h2.039Zm-1.362-1.266v4.37c0,.206,.044,.352,.132,.439,.088,.088,.237,.132,.448,.132h.65l.088,.571c-.094,.023-.202,.044-.325,.062s-.243,.031-.36,.04-.211,.013-.281,.013c-.357,0-.63-.1-.817-.299s-.281-.486-.281-.862v-4.466h.747Z" fill="#231f20"/>
    <path d="M212.428,17.534c.152,0,.229,.076,.229,.229v.501c0,.153-.076,.229-.229,.229h-.352c-.153,0-.229-.076-.229-.229v-.501c0-.152,.076-.229,.229-.229h.352Zm.193,1.82v4.282h-.739v-4.282h.739Z" fill="#231f20"/>
    <path d="M215.787,19.248c.645,0,1.111,.117,1.402,.352,.29,.234,.435,.583,.435,1.046,.006,.381-.073,.679-.237,.893s-.425,.321-.782,.321h-2.497v-.581h2.304c.193,0,.319-.066,.378-.198s.088-.277,.088-.435c-.006-.275-.088-.472-.246-.589s-.428-.176-.809-.176c-.312,0-.556,.046-.734,.137s-.305,.249-.378,.475-.11,.541-.11,.945c0,.458,.046,.806,.137,1.046,.091,.241,.235,.404,.435,.493,.199,.088,.463,.132,.792,.132,.229,0,.479-.01,.751-.031s.518-.045,.734-.075l.079,.501c-.135,.053-.3,.097-.496,.132-.197,.035-.399,.062-.607,.079s-.394,.026-.558,.026c-.493,0-.889-.075-1.188-.224s-.518-.39-.655-.721c-.138-.331-.206-.769-.206-1.314,0-.563,.068-1.007,.206-1.332,.138-.326,.353-.557,.643-.695s.663-.207,1.121-.207Z" fill="#231f20"/>
  </g>
  <g>
    <path d="M40.569,8.45c.258,0,.479,.006,.663,.018,.186,.012,.355,.031,.511,.057s.314,.06,.479,.101l-.079,.589c-.176-.018-.338-.032-.487-.044s-.31-.021-.479-.026-.372-.009-.606-.009c-.393,0-.703,.076-.933,.229-.229,.153-.391,.408-.487,.765s-.146,.844-.146,1.459,.049,1.102,.146,1.459,.259,.612,.487,.765c.229,.153,.54,.229,.933,.229,.375,0,.689-.007,.945-.022,.255-.015,.505-.04,.751-.075l.079,.58c-.252,.07-.511,.122-.777,.154-.268,.032-.6,.048-.998,.048-.58,0-1.045-.101-1.394-.303s-.602-.532-.756-.989c-.156-.457-.233-1.073-.233-1.846s.077-1.389,.233-1.846c.154-.458,.407-.787,.756-.989s.813-.303,1.394-.303Z" fill="#231f20"/>
    <path d="M45.158,10.235c.492,0,.887,.073,1.183,.22s.509,.386,.638,.717,.193,.769,.193,1.314-.064,.983-.193,1.314c-.129,.332-.342,.57-.638,.717s-.69,.22-1.183,.22c-.486,0-.878-.073-1.174-.22s-.51-.385-.642-.717c-.132-.331-.198-.769-.198-1.314s.066-.983,.198-1.314,.346-.57,.642-.717,.688-.22,1.174-.22Zm0,.633c-.311,0-.556,.048-.734,.146-.179,.097-.306,.262-.382,.497s-.114,.56-.114,.976,.038,.741,.114,.976,.203,.4,.382,.497c.179,.097,.424,.145,.734,.145s.557-.048,.738-.145c.182-.097,.311-.263,.387-.497s.115-.56,.115-.976-.039-.742-.115-.976-.205-.4-.387-.497c-.182-.097-.428-.146-.738-.146Z" fill="#231f20"/>
    <path d="M49.062,10.34v3.007c-.006,.27,.044,.46,.149,.572s.281,.167,.527,.167c.24,0,.479-.057,.717-.171,.237-.115,.522-.28,.857-.497l.097,.519c-.335,.264-.658,.463-.972,.598s-.632,.202-.954,.202c-.779,0-1.17-.393-1.17-1.178v-3.218h.748Zm2.919,0v4.282h-.598l-.07-.809-.08-.132v-3.341h.748Z" fill="#231f20"/>
    <path d="M55.181,10.235c.129,0,.272,.006,.431,.018s.32,.032,.487,.062,.321,.07,.462,.123l-.097,.483c-.193-.018-.397-.031-.611-.04s-.396-.013-.549-.013c-.341,0-.61,.047-.81,.141s-.343,.258-.431,.492-.132,.56-.132,.976,.044,.743,.132,.98,.231,.403,.431,.497,.469,.141,.81,.141c.088,0,.202-.003,.343-.009s.291-.015,.452-.026,.315-.029,.462-.053l.079,.501c-.217,.076-.453,.132-.708,.167s-.508,.053-.76,.053c-.493,0-.889-.073-1.188-.22s-.514-.384-.646-.712c-.132-.328-.197-.768-.197-1.318s.067-.991,.202-1.319c.135-.329,.352-.564,.65-.708s.694-.215,1.188-.215Z" fill="#231f20"/>
    <path d="M58.399,8.467l.009,1.697c0,.193-.008,.375-.022,.545-.015,.17-.036,.32-.065,.449l.079,.132v3.332h-.748v-6.154h.748Zm1.854,1.767c.774,0,1.161,.393,1.161,1.178v3.209h-.756v-2.998c0-.287-.046-.485-.137-.593s-.248-.163-.471-.163c-.264,0-.527,.062-.791,.185-.264,.123-.577,.302-.94,.536l-.035-.536c.334-.252,.665-.452,.993-.598s.653-.22,.976-.22Z" fill="#231f20"/>
    <path d="M64.518,10.235c.645,0,1.111,.117,1.402,.352,.29,.234,.435,.583,.435,1.046,.006,.381-.073,.679-.237,.893s-.425,.321-.782,.321h-2.497v-.581h2.304c.193,0,.319-.066,.378-.198s.088-.277,.088-.435c-.006-.275-.088-.472-.246-.589s-.428-.176-.809-.176c-.312,0-.556,.046-.734,.137s-.305,.249-.378,.475-.11,.541-.11,.945c0,.458,.046,.806,.137,1.046,.091,.241,.235,.404,.435,.493,.199,.088,.463,.132,.792,.132,.229,0,.479-.01,.751-.031s.518-.045,.734-.075l.079,.501c-.135,.053-.3,.097-.496,.132-.197,.035-.399,.062-.607,.079s-.394,.026-.558,.026c-.493,0-.889-.075-1.188-.224s-.518-.39-.655-.721c-.138-.331-.206-.769-.206-1.314,0-.563,.068-1.007,.206-1.332,.138-.326,.353-.557,.643-.695s.663-.207,1.121-.207Z" fill="#231f20"/>
    <path d="M38.937,19.248c.282,0,.561,.037,.836,.11s.539,.186,.791,.338l-.044,.466c-.275-.082-.519-.146-.729-.194-.211-.046-.437-.07-.677-.07-.247,0-.444,.043-.594,.128s-.26,.242-.33,.47-.105,.554-.105,.976,.034,.75,.102,.984,.174,.399,.32,.493,.334,.141,.563,.141c.17,0,.323-.022,.461-.066s.284-.116,.439-.216c.155-.1,.339-.226,.55-.378l.07,.528c-.234,.217-.501,.401-.8,.554s-.621,.229-.968,.229c-.539,0-.924-.19-1.155-.571-.232-.381-.348-.944-.348-1.688,0-.557,.059-.998,.176-1.323,.117-.326,.296-.559,.536-.699s.542-.211,.905-.211Zm2.233-1.767v6.154h-.58l-.088-.748-.079-.062v-2.937l.053-.132c-.023-.164-.038-.322-.044-.475s-.009-.313-.009-.483v-1.319h.747Z" fill="#231f20"/>
    <path d="M43.096,17.569l-.053,1.89h-.52l-.044-1.89h.616Z" fill="#231f20"/>
    <path d="M45.989,19.248c.645,0,1.112,.117,1.402,.352s.436,.583,.436,1.046c.006,.381-.073,.679-.237,.893s-.426,.321-.783,.321h-2.496v-.581h2.303c.193,0,.319-.066,.378-.198s.088-.277,.088-.435c-.006-.275-.088-.472-.246-.589s-.428-.176-.809-.176c-.311,0-.556,.046-.734,.137s-.305,.249-.378,.475-.109,.541-.109,.945c0,.458,.045,.806,.136,1.046,.091,.241,.236,.404,.436,.493,.199,.088,.463,.132,.791,.132,.229,0,.479-.01,.752-.031s.518-.045,.734-.075l.079,.501c-.135,.053-.301,.097-.497,.132s-.398,.062-.606,.079-.395,.026-.559,.026c-.492,0-.888-.075-1.187-.224s-.518-.39-.655-.721c-.138-.331-.207-.769-.207-1.314,0-.563,.069-1.007,.207-1.332,.138-.326,.352-.557,.642-.695s.664-.207,1.121-.207Z" fill="#231f20"/>
    <path d="M49.584,19.354l.062,.818,.053,.132v3.332h-.747v-4.282h.633Zm1.97-.105c.773,0,1.16,.393,1.16,1.178v3.209h-.747v-2.998c0-.287-.047-.485-.141-.593s-.252-.163-.475-.163c-.264,0-.527,.065-.791,.194-.265,.129-.578,.305-.941,.527l-.035-.536c.334-.258,.665-.459,.994-.603,.328-.144,.653-.215,.976-.215Z" fill="#231f20"/>
    <path d="M56.495,19.354v.589h-2.884v-.545l.845-.044h2.039Zm-1.362-1.266v4.37c0,.206,.044,.352,.132,.439,.088,.088,.237,.132,.448,.132h.65l.088,.571c-.094,.023-.202,.044-.325,.062s-.243,.031-.36,.04-.211,.013-.281,.013c-.357,0-.63-.1-.817-.299s-.281-.486-.281-.862v-4.466h.747Z" fill="#231f20"/>
    <path d="M57.99,19.354l.097,.818,.07,.132v3.332h-.748v-4.282h.581Zm2.101-.105l-.088,.703h-.246c-.252,0-.504,.052-.756,.154s-.56,.248-.923,.435l-.062-.466c.316-.258,.634-.46,.954-.607,.319-.146,.628-.22,.927-.22h.193Z" fill="#231f20"/>
    <path d="M62.58,19.248c.645,0,1.111,.117,1.402,.352,.29,.234,.435,.583,.435,1.046,.006,.381-.073,.679-.237,.893s-.425,.321-.782,.321h-2.497v-.581h2.304c.193,0,.319-.066,.378-.198s.088-.277,.088-.435c-.006-.275-.088-.472-.246-.589s-.428-.176-.809-.176c-.312,0-.556,.046-.734,.137s-.305,.249-.378,.475-.11,.541-.11,.945c0,.458,.046,.806,.137,1.046,.091,.241,.235,.404,.435,.493,.199,.088,.463,.132,.792,.132,.229,0,.479-.01,.751-.031s.518-.045,.734-.075l.079,.501c-.135,.053-.3,.097-.496,.132-.197,.035-.399,.062-.607,.079s-.394,.026-.558,.026c-.493,0-.889-.075-1.188-.224s-.518-.39-.655-.721c-.138-.331-.206-.769-.206-1.314,0-.563,.068-1.007,.206-1.332,.138-.326,.353-.557,.643-.695s.663-.207,1.121-.207Zm.914-2.127l.431,.58-1.688,1.055-.255-.343,1.513-1.292Z" fill="#231f20"/>
    <path d="M67.3,19.248c.645,0,1.112,.117,1.402,.352s.436,.583,.436,1.046c.006,.381-.073,.679-.237,.893s-.426,.321-.783,.321h-2.496v-.581h2.303c.193,0,.319-.066,.378-.198s.088-.277,.088-.435c-.006-.275-.088-.472-.246-.589s-.428-.176-.809-.176c-.311,0-.556,.046-.734,.137s-.305,.249-.378,.475-.109,.541-.109,.945c0,.458,.045,.806,.136,1.046,.091,.241,.236,.404,.436,.493,.199,.088,.463,.132,.791,.132,.229,0,.479-.01,.752-.031s.518-.045,.734-.075l.079,.501c-.135,.053-.301,.097-.497,.132s-.398,.062-.606,.079-.395,.026-.559,.026c-.492,0-.888-.075-1.187-.224s-.518-.39-.655-.721c-.138-.331-.207-.769-.207-1.314,0-.563,.069-1.007,.207-1.332,.138-.326,.352-.557,.642-.695s.664-.207,1.121-.207Z" fill="#231f20"/>
  </g>
  <circle cx="51.363" cy="42.629" r="8.299" fill="none" stroke="#231f20" stroke-miterlimit="10" stroke-width=".75"/>
  <circle cx="51.363" cy="65.399" r="8.299" fill="none" stroke="#231f20" stroke-miterlimit="10" stroke-width=".75"/>
  <circle cx="125.496" cy="53.334" r="8.299" fill="none" stroke="#231f20" stroke-miterlimit="10" stroke-width=".75"/>
  <circle cx="125.496" cy="88.168" r="8.299" fill="none" stroke="#231f20" stroke-miterlimit="10" stroke-width=".75"/>
  <circle cx="198.839" cy="88.168" r="8.299" fill="none" stroke="#231f20" stroke-miterlimit="10" stroke-width=".75"/>
  <circle cx="125.496" cy="122.347" r="8.299" fill="none" stroke="#231f20" stroke-miterlimit="10" stroke-width=".75"/>
  <circle cx="51.363" cy="88.168" r="8.299" fill="none" stroke="#231f20" stroke-miterlimit="10" stroke-width=".75"/>
  <circle cx="51.363" cy="110.938" r="8.299" fill="none" stroke="#231f20" stroke-miterlimit="10" stroke-width=".75"/>
  <circle cx="51.363" cy="133.707" r="8.299" fill="none" stroke="#231f20" stroke-miterlimit="10" stroke-width=".75"/>
  <g>
    <line x1="26.4" y1="42.629" x2="40.801" y2="42.629" fill="none" stroke="#231f20" stroke-miterlimit="10" stroke-width=".75"/>
    <g>
      <path d="M26.48,44.039c-.779,0-1.41-.631-1.41-1.41s.631-1.41,1.41-1.41,1.41,.631,1.41,1.41-.631,1.41-1.41,1.41Z" fill="#fff"/>
      <path d="M26.48,44.226c.881,0,1.597-.717,1.597-1.597s-.717-1.597-1.597-1.597-1.597,.717-1.597,1.597,.717,1.597,1.597,1.597-.881,0,0,0Zm0-2.82c.674,0,1.222,.548,1.222,1.222s-.548,1.222-1.222,1.222-1.222-.548-1.222-1.222,.548-1.222,1.222-1.222-.674,0,0,0Z" fill="#231f20"/>
    </g>
    <path d="M43.064,42.629c-1.065,.395-2.386,1.069-3.205,1.783l.645-1.783-.645-1.783c.819,.714,2.14,1.388,3.205,1.783Z" fill="#231f20"/>
  </g>
  <g>
    <line x1="207.139" y1="88.168" x2="228.881" y2="88.168" fill="none" stroke="#231f20" stroke-miterlimit="10" stroke-width=".75"/>
    <path d="M231.144,88.168c-1.065,.395-2.386,1.069-3.205,1.783l.645-1.783-.645-1.783c.819,.714,2.14,1.388,3.205,1.783Z" fill="#231f20"/>
  </g>
  <g>
    <line x1="59.663" y1="42.629" x2="114.962" y2="51.513" fill="none" stroke="#231f20" stroke-miterlimit="10" stroke-width=".75"/>
    <path d="M117.197,51.872c-1.114,.221-2.526,.677-3.448,1.252l.92-1.659-.354-1.863c.695,.835,1.893,1.71,2.882,2.269Z" fill="#231f20"/>
  </g>
  <g>
    <line x1="59.663" y1="64.387" x2="114.967" y2="54.763" fill="none" stroke="#231f20" stroke-miterlimit="10" stroke-width=".75"/>
    <path d="M117.197,54.375c-.981,.572-2.168,1.463-2.852,2.307l.33-1.868-.941-1.646c.929,.563,2.347,1.001,3.464,1.207Z" fill="#231f20"/>
  </g>
  <g>
    <line x1="59.519" y1="67.343" x2="115.213" y2="85.073" fill="none" stroke="#231f20" stroke-miterlimit="10" stroke-width=".75"/>
    <path d="M117.37,85.76c-1.135,.053-2.598,.295-3.595,.727l1.156-1.504-.074-1.895c.564,.929,1.618,1.972,2.513,2.671Z" fill="#231f20"/>
  </g>
  <g>
    <line x1="58.261" y1="70.014" x2="117.604" y2="114.732" fill="none" stroke="#231f20" stroke-miterlimit="10" stroke-width=".75"/>
    <path d="M119.411,116.094c-1.088-.325-2.549-.582-3.633-.505l1.588-1.036,.558-1.812c.224,1.063,.874,2.397,1.487,3.353Z" fill="#231f20"/>
  </g>
  <g>
    <line x1="58.902" y1="84.713" x2="115.646" y2="57.858" fill="none" stroke="#231f20" stroke-miterlimit="10" stroke-width=".75"/>
    <path d="M117.692,56.89c-.794,.813-1.699,1.987-2.134,2.983l-.18-1.888-1.346-1.336c1.046,.295,2.529,.339,3.66,.241Z" fill="#231f20"/>
  </g>
  <g>
    <line x1="59.663" y1="88.168" x2="114.933" y2="88.168" fill="none" stroke="#231f20" stroke-miterlimit="10" stroke-width=".75"/>
    <path d="M117.197,88.168c-1.065,.395-2.386,1.069-3.205,1.783l.645-1.783-.645-1.783c.819,.714,2.14,1.388,3.205,1.783Z" fill="#231f20"/>
  </g>
  <g>
    <line x1="58.674" y1="91.321" x2="116.099" y2="117.022" fill="none" stroke="#231f20" stroke-miterlimit="10" stroke-width=".75"/>
    <path d="M118.165,117.947c-1.133-.074-2.615,.001-3.654,.318l1.317-1.364,.14-1.891c.456,.986,1.386,2.142,2.197,2.937Z" fill="#231f20"/>
  </g>
  <g>
    <line x1="58.128" y1="105.986" x2="117.424" y2="60.481" fill="none" stroke="#231f20" stroke-miterlimit="10" stroke-width=".75"/>
    <path d="M119.219,59.103c-.604,.962-1.242,2.301-1.457,3.366l-.574-1.808-1.597-1.022c1.085,.068,2.543-.202,3.628-.537Z" fill="#231f20"/>
  </g>
  <g>
    <line x1="59.423" y1="108.43" x2="115.035" y2="91.188" fill="none" stroke="#231f20" stroke-miterlimit="10" stroke-width=".75"/>
    <path d="M117.197,90.518c-.9,.693-1.963,1.728-2.533,2.653l.088-1.895-1.144-1.512c.994,.44,2.455,.692,3.59,.754Z" fill="#231f20"/>
  </g>
  <g>
    <line x1="59.663" y1="110.938" x2="114.963" y2="119.972" fill="none" stroke="#231f20" stroke-miterlimit="10" stroke-width=".75"/>
    <path d="M117.197,120.337c-1.115,.218-2.527,.671-3.451,1.243l.924-1.656-.349-1.864c.693,.837,1.888,1.715,2.876,2.277Z" fill="#231f20"/>
  </g>
  <g>
    <line x1="57.039" y1="127.321" x2="119.735" y2="62.48" fill="none" stroke="#231f20" stroke-miterlimit="10" stroke-width=".75"/>
    <path d="M121.308,60.853c-.456,1.04-.89,2.459-.946,3.544l-.834-1.703-1.73-.776c1.083-.092,2.486-.574,3.51-1.065Z" fill="#231f20"/>
  </g>
  <g>
    <line x1="58.333" y1="129.671" x2="116.385" y2="94.233" fill="none" stroke="#231f20" stroke-miterlimit="10" stroke-width=".75"/>
    <path d="M118.317,93.054c-.703,.892-1.48,2.156-1.807,3.192l-.379-1.858-1.48-1.186c1.071,.183,2.55,.07,3.665-.148Z" fill="#231f20"/>
  </g>
  <g>
    <line x1="59.663" y1="132.109" x2="114.701" y2="122.972" fill="none" stroke="#231f20" stroke-miterlimit="10" stroke-width=".75"/>
    <path d="M116.934,122.601c-.986,.564-2.179,1.446-2.87,2.284l.344-1.865-.928-1.653c.925,.57,2.339,1.019,3.454,1.234Z" fill="#231f20"/>
  </g>
  <g>
    <line x1="59.006" y1="45.871" x2="116.709" y2="81.933" fill="none" stroke="#231f20" stroke-miterlimit="10" stroke-width=".75"/>
    <path d="M118.628,83.133c-1.112-.229-2.59-.358-3.663-.186l1.492-1.171,.398-1.854c.316,1.04,1.079,2.312,1.773,3.211Z" fill="#231f20"/>
  </g>
  <g>
    <line x1="57.111" y1="48.617" x2="119.876" y2="113.163" fill="none" stroke="#231f20" stroke-miterlimit="10" stroke-width=".75"/>
    <path d="M121.454,114.786c-1.026-.488-2.43-.965-3.513-1.055l1.728-.781,.829-1.706c.059,1.085,.497,2.502,.956,3.541Z" fill="#231f20"/>
  </g>
  <g>
    <line x1="132.732" y1="57.196" x2="188.991" y2="83.612" fill="none" stroke="#231f20" stroke-miterlimit="10" stroke-width=".75"/>
    <path d="M191.039,84.574c-1.132-.095-2.614-.046-3.659,.252l1.342-1.34,.174-1.888c.438,.995,1.347,2.166,2.143,2.976Z" fill="#231f20"/>
  </g>
  <g>
    <line x1="133.796" y1="88.168" x2="188.276" y2="88.168" fill="none" stroke="#231f20" stroke-miterlimit="10" stroke-width=".75"/>
    <path d="M190.54,88.168c-1.065,.395-2.386,1.069-3.205,1.783l.645-1.783-.645-1.783c.819,.714,2.14,1.388,3.205,1.783Z" fill="#231f20"/>
  </g>
  <g>
    <line x1="133.063" y1="118.949" x2="188.978" y2="92.621" fill="none" stroke="#231f20" stroke-miterlimit="10" stroke-width=".75"/>
    <path d="M191.026,91.657c-.795,.811-1.703,1.984-2.14,2.979l-.176-1.888-1.343-1.338c1.045,.297,2.528,.344,3.659,.248Z" fill="#231f20"/>
  </g>
  <g>
    <line x1="26.4" y1="65.399" x2="40.801" y2="65.399" fill="none" stroke="#231f20" stroke-miterlimit="10" stroke-width=".75"/>
    <g>
      <path d="M26.48,66.808c-.779,0-1.41-.631-1.41-1.41s.631-1.41,1.41-1.41,1.41,.631,1.41,1.41-.631,1.41-1.41,1.41Z" fill="#fff"/>
      <path d="M26.48,66.996c.881,0,1.597-.717,1.597-1.597s-.717-1.597-1.597-1.597-1.597,.717-1.597,1.597,.717,1.597,1.597,1.597-.881,0,0,0Zm0-2.82c.674,0,1.222,.548,1.222,1.222s-.548,1.222-1.222,1.222-1.222-.548-1.222-1.222,.548-1.222,1.222-1.222-.674,0,0,0Z" fill="#231f20"/>
    </g>
    <path d="M43.064,65.399c-1.065,.395-2.386,1.069-3.205,1.783l.645-1.783-.645-1.783c.819,.714,2.14,1.388,3.205,1.783Z" fill="#231f20"/>
  </g>
  <g>
    <line x1="26.4" y1="88.168" x2="40.801" y2="88.168" fill="none" stroke="#231f20" stroke-miterlimit="10" stroke-width=".75"/>
    <g>
      <path d="M26.48,89.578c-.779,0-1.41-.631-1.41-1.41s.631-1.41,1.41-1.41,1.41,.631,1.41,1.41-.631,1.41-1.41,1.41Z" fill="#fff"/>
      <path d="M26.48,89.766c.881,0,1.597-.717,1.597-1.597s-.717-1.597-1.597-1.597-1.597,.717-1.597,1.597,.717,1.597,1.597,1.597-.881,0,0,0Zm0-2.82c.674,0,1.222,.548,1.222,1.222s-.548,1.222-1.222,1.222-1.222-.548-1.222-1.222,.548-1.222,1.222-1.222-.674,0,0,0Z" fill="#231f20"/>
    </g>
    <path d="M43.064,88.168c-1.065,.395-2.386,1.069-3.205,1.783l.645-1.783-.645-1.783c.819,.714,2.14,1.388,3.205,1.783Z" fill="#231f20"/>
  </g>
  <g>
    <line x1="26.4" y1="110.938" x2="40.801" y2="110.938" fill="none" stroke="#231f20" stroke-miterlimit="10" stroke-width=".75"/>
    <g>
      <path d="M26.48,112.348c-.779,0-1.41-.631-1.41-1.41s.631-1.41,1.41-1.41,1.41,.631,1.41,1.41-.631,1.41-1.41,1.41Z" fill="#fff"/>
      <path d="M26.48,112.535c.881,0,1.597-.717,1.597-1.597s-.717-1.597-1.597-1.597-1.597,.717-1.597,1.597,.717,1.597,1.597,1.597-.881,0,0,0Zm0-2.82c.674,0,1.222,.548,1.222,1.222s-.548,1.222-1.222,1.222-1.222-.548-1.222-1.222,.548-1.222,1.222-1.222-.674,0,0,0Z" fill="#231f20"/>
    </g>
    <path d="M43.064,110.938c-1.065,.395-2.386,1.069-3.205,1.783l.645-1.783-.645-1.783c.819,.714,2.14,1.388,3.205,1.783Z" fill="#231f20"/>
  </g>
  <g>
    <line x1="26.4" y1="133.707" x2="40.801" y2="133.707" fill="none" stroke="#231f20" stroke-miterlimit="10" stroke-width=".75"/>
    <g>
      <path d="M26.48,135.117c-.779,0-1.41-.631-1.41-1.41s.631-1.41,1.41-1.41,1.41,.631,1.41,1.41-.631,1.41-1.41,1.41Z" fill="#fff"/>
      <path d="M26.48,135.305c.881,0,1.597-.717,1.597-1.597s-.717-1.597-1.597-1.597-1.597,.717-1.597,1.597,.717,1.597,1.597,1.597-.881,0,0,0Zm0-2.82c.674,0,1.222,.548,1.222,1.222s-.548,1.222-1.222,1.222-1.222-.548-1.222-1.222,.548-1.222,1.222-1.222-.674,0,0,0Z" fill="#231f20"/>
    </g>
    <path d="M43.064,133.707c-1.065,.395-2.386,1.069-3.205,1.783l.645-1.783-.645-1.783c.819,.714,2.14,1.388,3.205,1.783Z" fill="#231f20"/>
  </g>
</svg>